<?xml version="1.0" standalone="no"?>
<!DOCTYPE svg PUBLIC "-//W3C//DTD SVG 20010904//EN"
 "http://www.w3.org/TR/2001/REC-SVG-20010904/DTD/svg10.dtd">
<svg version="1.0" xmlns="http://www.w3.org/2000/svg"
 width="538.000000pt" height="538.000000pt" viewBox="0 0 538.000000 538.000000"
 preserveAspectRatio="xMidYMid meet">
<metadata>
Created by potrace 1.14, written by Peter Selinger 2001-2017
</metadata>
<g transform="translate(0.000000,538.000000) scale(0.100000,-0.100000)"
fill="#000000" stroke="none">
<path d="M5225 5316 c-297 -124 -559 -250 -702 -337 -35 -21 -72 -40 -83 -44
-11 -3 -20 -11 -20 -16 0 -5 -5 -9 -10 -9 -10 0 -209 -128 -220 -141 -3 -3
-29 -22 -57 -41 -29 -20 -59 -42 -67 -50 -8 -7 -29 -24 -47 -38 -158 -119
-361 -302 -580 -522 l-157 -157 -73 20 c-41 10 -101 23 -134 29 -33 6 -71 13
-85 16 -186 34 -524 21 -730 -28 -25 -6 -52 -11 -60 -13 -8 -1 -34 -8 -58 -15
l-43 -13 -128 129 c-155 157 -278 271 -411 384 -36 30 -67 57 -70 60 -64 65
-381 295 -520 377 -201 119 -374 207 -655 333 -90 40 -288 120 -297 120 -14 0
-2 -430 17 -610 4 -30 8 -80 10 -110 3 -30 6 -64 9 -75 2 -11 7 -49 11 -85 10
-85 13 -105 15 -105 1 0 3 -17 5 -38 2 -21 6 -50 10 -65 4 -15 9 -43 11 -62 3
-19 11 -66 19 -105 8 -38 16 -83 19 -100 15 -79 51 -231 96 -400 76 -287 223
-696 345 -960 81 -175 95 -207 95 -210 0 -4 -66 -164 -95 -230 -13 -30 -88
-211 -130 -317 -13 -31 -20 -59 -17 -62 3 -3 0 -6 -6 -6 -7 0 -12 -4 -12 -10
0 -12 -61 -143 -70 -150 -4 -3 -9 -12 -12 -20 -10 -28 -127 -178 -181 -232
-48 -48 -111 -102 -139 -119 -6 -4 1 -27 20 -60 16 -30 40 -74 53 -99 13 -25
27 -49 31 -55 16 -19 58 -86 58 -91 0 -3 11 -17 25 -32 14 -15 25 -32 25 -39
0 -6 3 -13 8 -15 4 -2 27 -28 52 -58 69 -86 119 -136 195 -198 39 -31 71 -60
73 -64 2 -5 8 -8 14 -8 6 0 27 -13 48 -30 21 -16 40 -30 43 -30 3 0 26 -14 50
-30 166 -112 581 -286 822 -346 95 -23 154 -37 170 -40 11 -2 27 -5 35 -7 18
-4 75 -15 110 -21 14 -2 36 -7 50 -10 14 -3 45 -8 70 -11 25 -2 63 -7 85 -10
180 -24 296 -30 630 -30 335 0 497 7 655 30 19 3 52 7 72 9 163 20 466 91 633
147 50 17 95 32 100 33 6 2 22 8 37 14 15 6 67 27 115 47 154 64 428 214 525
289 14 12 41 32 60 46 60 44 202 193 266 280 34 47 66 90 70 95 15 20 80 132
120 206 l40 77 -64 57 c-63 56 -112 105 -155 155 -32 37 -109 147 -109 154 0
4 -10 23 -23 44 -13 20 -38 73 -56 117 -18 44 -53 130 -78 190 -24 61 -48 117
-52 125 -4 8 -25 58 -46 110 -20 52 -46 113 -55 135 -35 77 -34 87 8 171 22
44 43 90 47 104 4 14 13 32 20 40 7 8 15 24 18 35 3 11 26 70 52 130 56 134
206 542 204 558 0 1 2 9 5 17 4 12 26 91 31 110 0 3 8 30 17 60 35 124 90 348
104 425 1 11 6 34 9 50 3 17 7 39 9 50 2 11 6 34 9 50 4 17 8 44 11 60 3 17
12 71 20 120 8 50 17 115 21 145 3 30 8 71 11 91 7 58 24 233 30 319 6 93 16
480 13 480 -2 0 -71 -29 -154 -64z m-2399 -1715 c6 -1 11 -7 12 -13 0 -13 6
-44 19 -103 6 -30 8 -43 17 -104 7 -46 13 -50 86 -65 l62 -13 22 36 c12 20 44
73 71 118 l49 81 69 -25 c39 -14 91 -34 116 -46 25 -11 51 -21 56 -21 17 -2 9
-87 -19 -214 l-14 -63 58 -39 58 -39 68 51 c72 55 74 56 113 88 32 27 42 25
77 -10 16 -16 32 -30 35 -30 7 0 94 -85 117 -113 12 -14 4 -31 -57 -127 -73
-116 -75 -121 -40 -164 5 -6 17 -22 28 -35 l18 -25 79 23 c44 12 86 24 94 26
8 2 15 4 15 5 0 1 7 3 16 5 9 1 26 6 37 9 18 6 27 -6 72 -96 82 -161 82 -148
-11 -215 -44 -32 -93 -69 -109 -84 l-29 -25 18 -60 c15 -50 21 -59 42 -61 13
0 62 -4 109 -8 73 -7 98 -9 131 -14 3 -1 6 -7 6 -13 1 -7 5 -40 9 -73 4 -33 8
-91 8 -130 l1 -70 -129 -37 c-71 -21 -130 -39 -131 -40 -2 -2 -5 -29 -8 -61
l-5 -58 122 -60 123 -59 -10 -43 c-6 -23 -24 -85 -41 -137 -30 -93 -32 -95
-61 -94 -42 1 -184 14 -217 20 -25 4 -30 -1 -53 -47 -13 -29 -21 -57 -18 -63
8 -12 60 -72 108 -121 74 -78 71 -68 34 -122 -19 -26 -36 -50 -39 -53 -3 -3
-23 -27 -44 -55 -64 -81 -54 -80 -182 -14 -63 32 -118 59 -124 59 -13 0 -80
-66 -80 -79 0 -6 20 -60 45 -121 25 -61 45 -115 45 -120 0 -5 -19 -22 -43 -38
-39 -28 -57 -38 -163 -99 l-41 -23 -51 58 c-27 31 -69 77 -91 101 l-40 44 -42
-13 c-23 -8 -47 -19 -53 -25 -7 -7 -11 -58 -10 -143 l1 -131 -31 -7 c-47 -11
-49 -12 -86 -18 -19 -4 -42 -9 -50 -11 -8 -2 -39 -7 -68 -10 -50 -5 -53 -4
-63 22 -6 15 -15 37 -20 48 -4 11 -22 56 -38 100 l-31 80 -54 0 -55 0 -33 -90
c-17 -49 -38 -101 -45 -115 -7 -14 -13 -31 -13 -37 0 -17 -98 -7 -210 21 l-85
21 0 134 0 134 -45 19 c-27 12 -51 16 -60 11 -9 -4 -54 -50 -99 -101 l-82 -92
-47 27 c-26 15 -82 49 -124 76 l-77 48 28 77 c16 42 38 100 49 128 l21 51 -38
37 c-20 20 -42 36 -49 36 -7 0 -29 -11 -50 -24 -20 -12 -40 -24 -45 -24 -4 -1
-38 -17 -76 -36 l-68 -35 -42 47 c-65 74 -130 166 -130 182 0 8 39 57 88 109
l87 94 -28 52 c-25 46 -32 52 -56 50 -15 -2 -54 -6 -87 -9 -33 -3 -81 -8 -106
-11 -45 -6 -46 -5 -62 32 -19 43 -67 208 -67 229 0 8 51 39 118 72 l117 58 -1
40 c-1 21 -2 49 -3 61 -1 18 -11 25 -56 38 -30 9 -57 16 -59 17 -3 0 -38 10
-78 22 l-73 23 1 69 c1 59 6 109 17 186 4 25 15 33 45 34 44 3 186 15 205 18
16 2 48 26 34 26 -3 0 0 21 8 48 8 26 15 48 15 49 0 1 -30 25 -67 52 -38 28
-72 54 -78 59 -5 4 -24 18 -42 31 l-32 24 20 49 c18 45 77 164 97 195 6 10 37
4 127 -22 66 -19 127 -35 135 -35 8 0 24 14 35 32 11 17 26 41 34 52 12 20 7
31 -58 135 l-72 114 33 36 c18 20 36 38 39 41 3 3 30 25 59 50 29 25 58 50 64
56 8 8 19 6 41 -10 16 -12 32 -23 35 -26 3 -3 25 -21 50 -40 25 -19 47 -37 50
-40 3 -4 16 -13 28 -22 23 -15 27 -14 83 20 39 25 57 42 54 52 -3 8 -7 29 -9
45 -3 17 -10 55 -16 85 -21 107 -19 123 20 141 52 25 78 36 151 63 l66 25 72
-118 72 -118 47 9 c26 6 56 12 68 14 20 3 26 26 60 218 3 16 6 34 7 40 1 6 16
13 32 16 24 4 181 4 241 1z"/>
<path d="M2647 3064 c-1 -2 -31 -5 -65 -8 -65 -6 -199 -34 -217 -44 -5 -4 -15
-7 -20 -8 -37 -6 -177 -74 -252 -124 -302 -198 -496 -556 -495 -910 0 -69 13
-191 22 -216 5 -12 7 -24 4 -27 -2 -2 10 -46 27 -98 97 -291 293 -520 557
-651 112 -56 209 -87 325 -105 87 -14 302 -8 392 11 35 7 140 38 150 44 6 4
19 8 29 9 11 2 27 10 36 18 9 8 22 15 28 15 14 0 102 51 165 96 90 65 166 139
231 224 22 30 46 60 52 67 19 20 101 195 122 260 52 158 70 378 43 513 -6 30
-13 66 -15 80 -7 38 -34 123 -53 166 -9 22 -17 41 -18 44 -3 16 -55 105 -98
170 -45 68 -218 250 -236 250 -4 0 -21 11 -37 25 -76 65 -278 150 -434 182
-45 9 -237 22 -243 17z"/>
</g>
</svg>
