<svg xmlns="http://www.w3.org/2000/svg" width="1706.667" height="1706.667"><g style="display:inline"><g style="display:inline;fill:none;fill-opacity:1;stroke:#880;stroke-width:.916778;stroke-opacity:1"><path d="M268.045 1433.432s-238.727 27.914-243.75 94.117M465.365 1469.399l-375.87 27.754M83.585 1562.01l366.593-26.535M71.289 1621.58l331.493-26.315" style="fill:none;fill-opacity:1;stroke:#f1fff2;stroke-width:88.0107;stroke-linecap:round;stroke-linejoin:round;stroke-miterlimit:4;stroke-dasharray:none;stroke-opacity:1;paint-order:fill markers stroke;stop-color:#000" transform="matrix(-.0232 -1.04766 -1.13842 -.12412 2220.573 1911.389)"/><path d="M87.398 1472.657s-91.72 27.701-88.28 86.167 72.171 62.756 72.171 62.756z" style="fill:none;fill-opacity:1;stroke:#f1fff2;stroke-width:88.0107;stroke-linecap:round;stroke-linejoin:round;stroke-miterlimit:4;stroke-dasharray:none;stroke-opacity:1;paint-order:fill markers stroke;stop-color:#000" transform="matrix(-.0232 -1.04766 -1.13842 -.12412 2220.573 1911.389)"/></g><g style="display:inline;opacity:.161359;fill:none;fill-opacity:1;stroke:#000;stroke-width:.916778;stroke-opacity:1"><path d="M268.045 1433.432s-238.727 27.914-243.75 94.117M465.365 1469.399l-375.87 27.754M83.585 1562.01l366.593-26.535M71.289 1621.58l331.493-26.315" style="fill:none;fill-opacity:1;stroke:#000;stroke-width:88.0107;stroke-linecap:round;stroke-linejoin:round;stroke-miterlimit:4;stroke-dasharray:none;stroke-opacity:1;paint-order:fill markers stroke;stop-color:#000" transform="matrix(-.0232 -1.04766 -1.13842 -.12412 2220.573 1911.389)"/><path d="M87.398 1472.657s-91.72 27.701-88.28 86.167 72.171 62.756 72.171 62.756z" style="fill:none;fill-opacity:1;stroke:#000;stroke-width:88.0107;stroke-linecap:round;stroke-linejoin:round;stroke-miterlimit:4;stroke-dasharray:none;stroke-opacity:1;paint-order:fill markers stroke;stop-color:#000" transform="matrix(-.0232 -1.04766 -1.13842 -.12412 2220.573 1911.389)"/></g><path d="M1298.031 866.84c70.798 131.454 185.382 239.024 198.706 401.828q-44.157-28.702-79.482 13.247c91.022 54.7 58.514 175.917 81.69 267.15l-99.353 6.623c66.759 58.919 81.773 128.186 90.522 198.707l-494.507 2.208c-24.38-41.482 23.114-208.564 66.235-227.044 0 0 3.38-20.015-75.353-9.455 28.741-247.273 185.695-422.176 311.542-653.264" style="display:inline;fill:#1d2f23;stroke:#1d2f23;stroke-width:64;stroke-linecap:round;stroke-linejoin:round;-inkscape-stroke:none;paint-order:fill markers stroke;stop-color:#000"/><path d="m848.093 1340.63-64.785 239.508 62.822-25.522-51.043 200.245 459.384-15.706s-127.606-94.232-149.201-184.539 51.042-253.25 51.042-253.25z" style="display:inline;fill:#f1fff2;fill-opacity:1;stroke:#f1fff2;stroke-width:64;stroke-linecap:round;stroke-linejoin:round;stroke-miterlimit:4;stroke-dasharray:none;stroke-dashoffset:0;stroke-opacity:1;paint-order:fill markers stroke;stop-color:#000"/><path d="M103.271 866.183c169.612-30.958 366.03-38.394 525.204-15.868M-60.02 698.1c284.394-17.696 551.047 19.776 783.297 164.235" style="display:inline;fill:none;fill-opacity:1;stroke:#69a66e;stroke-width:32;stroke-linecap:round;stroke-linejoin:round;stroke-miterlimit:4;stroke-dasharray:none;stroke-dashoffset:0;stroke-opacity:1;paint-order:fill markers stroke;stop-color:#000" transform="rotate(14.603 1184.524 1441.862)"/><path d="M739.94 1002.403S598.046 896.196 491.69 747.604C374.69 584.14 304.348 365.417 355.974 320.265S614.773 363.87 722.19 456.781C829.606 549.694 990.071 813.38 990.071 813.38z" style="opacity:1;fill:#69a66e;fill-opacity:1;stroke:#69a66e;stroke-width:64;stroke-linecap:round;stroke-miterlimit:4;stroke-dasharray:none;stroke-dashoffset:0;stroke-opacity:1;paint-order:fill markers stroke;stop-color:#000" transform="rotate(14.603 1184.524 1441.862)"/><path d="M792.618 1048.728c0 120.717-155.86 218.577-276.577 218.577s-160.577-55.86-160.577-176.577S453.324 830.15 574.04 830.15c120.716 0 218.577 97.86 218.577 218.577" style="display:inline;fill:#4ce64c;stroke:#000;stroke-width:64;stroke-linecap:round;stroke-linejoin:round;paint-order:fill markers stroke;stop-color:#000" transform="rotate(14.603 1184.524 1441.862)"/><path d="m470.428 966.137 10.895 189.562" style="display:inline;fill:#fff;fill-opacity:1;stroke:#000;stroke-width:48;stroke-linecap:round;stroke-linejoin:round;stroke-miterlimit:4;stroke-dasharray:none;stroke-dashoffset:0;stroke-opacity:1;paint-order:fill markers stroke;stop-color:#000" transform="rotate(14.603 1184.524 1441.862)"/><path d="M1300.481 1152.924s-.108-10.82-.951-28.418a1183 1183 0 0 0-1.894-30.972c-.87-11.682-2-24.553-3.473-38.106s-3.289-27.788-5.524-42.201-4.889-29.005-8.043-43.268a514 514 0 0 0-5.115-21.085 403 403 0 0 0-5.922-20.213c-2.115-6.55-4.373-12.893-6.787-18.963s-4.983-11.87-7.715-17.334-5.934-10.786-9.539-15.961-7.611-10.205-11.949-15.084c-4.338-4.88-9.007-9.61-13.94-14.186-4.931-4.576-10.126-8.999-15.513-13.265a324 324 0 0 0-16.67-12.325 392 392 0 0 0-17.41-11.363c-11.76-7.25-23.737-13.847-35.371-19.76-11.634-5.912-22.926-11.141-33.32-15.66a665 665 0 0 0-27.934-11.394c-16.085-6.137-26.354-9.319-26.354-9.319-106.83-15.988-232.174 6.97-312.625 60.014-101.267 66.77-136.887 176.63-198.707 211.955s-225.2 77.273-280.396 83.897c-55.196 6.623-183.25 6.624-161.172 123.64s112.6 282.605 377.541 247.28 313.515-44.158 536.508-88.315c22.897-4.534 53.848-18.32 86.828-36.947l213.871-11.428-92.926-75.256c5.358-4.84 10.6-9.718 15.633-14.636l142.076-2.375-84.88-69.668c3.48-6.554 6.48-13.021 8.626-19.307 1.053-3.082 2.033-6.627 3.047-9.977" style="display:inline;opacity:1;fill:#f1fff2;stroke:#f1fff2;stroke-width:64;stroke-linecap:round;stroke-linejoin:round;stroke-miterlimit:4;stroke-dasharray:6.4,6.4;stroke-dashoffset:0;stroke-opacity:1;paint-order:fill markers stroke;stop-color:#000" transform="rotate(14.603 1184.524 1441.862)"/><path d="M880.931 744.045c-117.015 27.598-258.318 172.212-258.318 172.212-1.66-83.046-11.333-166.82 112.6-238.448-124.694-7.456-249.287-15.117-408.451 46.365 0 0 303.226-263.622 490.142-280.396 172.212-15.455 264.942 37.533 264.942 37.533-.193-45.683-31.458-88.26-90.522-128.055 0 0 295.852 97.145 333.385 194.29 37.533 97.146 28.702 167.797 28.702 167.797l-243.752 34.923s-111.712-33.82-228.728-6.221" style="display:inline;fill:#1d2f23;stroke:#1d2f23;stroke-width:64;stroke-linecap:round;stroke-linejoin:round;-inkscape-stroke:none;paint-order:fill markers stroke;stop-color:#000" transform="rotate(14.603 1184.524 1441.862)"/><path d="M1021.023 98.946c-73.698 29.768-115.649 353.943-108.79 443.977 6.105 80.16 9.202 286.927 10.028 345.543 0 0 10.713-.896 27.926-1.23a665 665 0 0 1 30.168.104c11.33.297 23.758.916 36.76 2.041s26.577 2.756 40.197 5.075c6.81 1.16 13.632 2.49 20.399 4.016a324 324 0 0 1 20.072 5.184c6.593 1.938 13.066 4.094 19.353 6.49s12.388 5.033 18.238 7.932 11.448 6.063 16.728 9.511c5.281 3.449 10.243 7.184 14.823 11.227s9.134 8.458 13.645 13.183c4.512 4.725 8.98 9.76 13.395 15.04a403 403 0 0 1 13.061 16.525 514 514 0 0 1 12.64 17.635c8.266 12.044 16.192 24.58 23.662 37.107s14.485 25.046 20.927 37.06a1128 1128 0 0 1 17.491 34.032c5.18 10.506 9.67 20.009 13.357 28.01 7.372 16 11.525 25.993 11.525 25.993 45.794-145.256 120.426-442.297 45.003-652.709-103.263-288.08-282.816-431.05-330.608-411.746" style="display:inline;opacity:1;fill:#f1fff2;stroke:#f1fff2;stroke-width:64;stroke-linecap:round;stroke-linejoin:round;stroke-miterlimit:4;stroke-dasharray:6.4,6.4;stroke-dashoffset:0;stroke-opacity:1;paint-order:fill markers stroke;stop-color:#000" transform="rotate(14.603 1184.524 1441.862)"/><path d="m83.898 1201.07 68.444 6.623-37.534 39.741M401.828 1251.85l-59.612-44.157 121.432-17.663" style="opacity:1;fill:none;fill-opacity:1;stroke:#000;stroke-width:64;stroke-linecap:round;stroke-linejoin:round;stroke-miterlimit:4;stroke-dasharray:none;stroke-dashoffset:0;stroke-opacity:1;paint-order:fill markers stroke;stop-color:#000" transform="rotate(14.603 1184.524 1441.862)"/><path d="M132.47 1346.788s23.255 140.626 138.81 135.378c148.049-.485 266.711-36.023 265.87-157.363 0 0-49.503 17.9-115.738 22.316-76.058 5.07-198.42-73.19-198.42-73.19z" style="opacity:1;fill:#4ce64c;fill-opacity:1;stroke:#000;stroke-width:64;stroke-linecap:round;stroke-linejoin:round;stroke-miterlimit:4;stroke-dasharray:none;stroke-dashoffset:0;stroke-opacity:1;paint-order:fill markers stroke;stop-color:#000" transform="rotate(14.603 1184.524 1441.862)"/><path d="m222.993 1530.039-90.522-183.251 90.522-72.86 103.769 66.236z" style="opacity:1;fill:#fff;fill-opacity:1;stroke:#000;stroke-width:64;stroke-linecap:round;stroke-linejoin:round;stroke-miterlimit:4;stroke-dasharray:none;stroke-dashoffset:0;stroke-opacity:1;paint-order:fill markers stroke;stop-color:#000" transform="rotate(14.603 1184.524 1441.862)"/><path d="m661.976 1226.049 53.367-115.501 86.53 168.71z" style="opacity:1;fill:#000;fill-opacity:1;stroke:#000;stroke-width:64;stroke-linecap:round;stroke-linejoin:round;stroke-miterlimit:4;stroke-dasharray:none;stroke-dashoffset:0;stroke-opacity:1;paint-order:fill markers stroke;stop-color:#000" transform="rotate(14.603 1184.524 1441.862)"/><path d="M1150.289 1075.222c0 120.717-151.86 218.577-272.577 218.577s-164.577-71.86-164.577-192.577 97.86-244.577 218.577-244.577 218.577 97.86 218.577 218.577" style="opacity:1;fill:#4ce64c;stroke:#000;stroke-width:64;stroke-linecap:round;stroke-linejoin:round;paint-order:fill markers stroke;stop-color:#000" transform="rotate(14.603 1184.524 1441.862)"/><path d="m819.377 986.54 10.895 189.562" style="display:inline;fill:#fff;fill-opacity:1;stroke:#000;stroke-width:48;stroke-linecap:round;stroke-linejoin:round;stroke-miterlimit:4;stroke-dasharray:none;stroke-dashoffset:0;stroke-opacity:1;paint-order:fill markers stroke;stop-color:#000" transform="rotate(14.603 1184.524 1441.862)"/><path d="M37.363 522.927C318.518 569.239 570.05 665.358 764.14 858.07" style="opacity:1;fill:none;fill-opacity:1;stroke:#f1fff2;stroke-width:32;stroke-linecap:round;stroke-linejoin:round;stroke-miterlimit:4;stroke-dasharray:none;stroke-dashoffset:0;stroke-opacity:1;paint-order:fill markers stroke;stop-color:#000" transform="rotate(14.603 1184.524 1441.862)"/><path d="M443.562 455.237c143.645 95.355 290.283 226.248 389.31 352.886" style="display:inline;fill:none;fill-opacity:1;stroke:#f1fff2;stroke-width:32;stroke-linecap:round;stroke-linejoin:round;stroke-miterlimit:4;stroke-dasharray:none;stroke-dashoffset:0;stroke-opacity:1;paint-order:fill markers stroke;stop-color:#000" transform="rotate(14.603 1184.524 1441.862)"/><path d="m222.993 1530.039-90.522-183.251 90.522-72.86 103.769 66.236z" style="display:inline;fill:#fff;fill-opacity:1;stroke:#000;stroke-width:64;stroke-linecap:round;stroke-linejoin:round;stroke-miterlimit:4;stroke-dasharray:none;stroke-dashoffset:0;stroke-opacity:1;paint-order:fill markers stroke;stop-color:#000" transform="rotate(14.603 1184.524 1441.862)"/><g style="display:inline;fill:none;fill-opacity:1;stroke:#880;stroke-width:.916778;stroke-opacity:1"><path d="M268.045 1433.432s-238.727 27.914-243.75 94.117M465.365 1469.399l-375.87 27.754M83.585 1562.01l366.593-26.535M71.289 1621.58l331.493-26.315" style="fill:none;fill-opacity:1;stroke:#f1fff2;stroke-width:88.0107;stroke-linecap:round;stroke-linejoin:round;stroke-miterlimit:4;stroke-dasharray:none;stroke-opacity:1;paint-order:fill markers stroke;stop-color:#000" transform="matrix(-.29798 -1.00465 -1.13097 .17972 2530.767 1444.533)"/><path d="M87.398 1472.657s-91.72 27.701-88.28 86.167 72.171 62.756 72.171 62.756z" style="fill:none;fill-opacity:1;stroke:#f1fff2;stroke-width:88.0107;stroke-linecap:round;stroke-linejoin:round;stroke-miterlimit:4;stroke-dasharray:none;stroke-opacity:1;paint-order:fill markers stroke;stop-color:#000" transform="matrix(-.29798 -1.00465 -1.13097 .17972 2530.767 1444.533)"/></g><path d="M134.262 410.275 51.48 201.431l-208.844-82.781L51.48 35.869l82.78-208.844 82.782 208.844 208.844 82.781-208.844 82.781Z" style="display:inline;fill:#ffd42a;stroke:#fff;stroke-width:49.8547;stroke-linecap:round;stroke-linejoin:round;stroke-miterlimit:4;stroke-dasharray:none;stroke-dashoffset:172.8;paint-order:fill markers stroke;stop-color:#000" transform="translate(245.285 291.213)scale(1.28373)"/><path d="M134.262 410.275 51.48 201.431l-208.844-82.781L51.48 35.869l82.78-208.844 82.782 208.844 208.844 82.781-208.844 82.781Z" style="display:inline;fill:#ffd42a;stroke:#fff;stroke-width:80.3444;stroke-linecap:round;stroke-linejoin:round;stroke-miterlimit:4;stroke-dasharray:none;stroke-dashoffset:172.8;paint-order:fill markers stroke;stop-color:#000" transform="translate(864.108 186.5)scale(.79657)"/><path d="M134.262 410.275 51.48 201.431l-208.844-82.781L51.48 35.869l82.78-208.844 82.782 208.844 208.844 82.781-208.844 82.781Z" style="display:inline;fill:#ffd42a;stroke:#fff;stroke-width:61.6883;stroke-linecap:round;stroke-linejoin:round;stroke-miterlimit:4;stroke-dasharray:none;stroke-dashoffset:172.8;paint-order:fill markers stroke;stop-color:#000" transform="matrix(1.03747 0 0 1.03747 1220.57 1234.61)"/></g></svg>