<svg xmlns="http://www.w3.org/2000/svg" xmlns:xlink="http://www.w3.org/1999/xlink" width="1706.667" height="1706.667"><defs><radialGradient xlink:href="#a" id="b" cx="688.307" cy="1416.856" r="710.713" fx="688.307" fy="1416.856" gradientTransform="matrix(.8502 -.25666 .16908 .56012 -87.877 663.222)" gradientUnits="userSpaceOnUse"/><linearGradient id="a"><stop offset="0" style="stop-color:#ff0101;stop-opacity:1"/><stop offset="1" style="stop-color:#ff0101;stop-opacity:0"/></linearGradient></defs><g style="display:inline"><path d="M1298.031 865.098c70.798 131.454 185.382 239.025 198.706 401.828q-44.157-28.702-79.482 13.247c91.022 54.7 58.514 175.917 81.69 267.15l-99.353 6.623c66.759 58.919 81.773 128.186 90.522 198.707l-494.507 2.208c-24.38-41.482 23.114-208.564 66.235-227.044 0 0 3.38-20.015-75.353-9.455 28.741-247.272 185.695-422.176 311.542-653.264" style="display:inline;fill:#1d2f23;stroke:#1d2f23;stroke-width:64;stroke-linecap:round;stroke-linejoin:round;-inkscape-stroke:none;paint-order:fill markers stroke;stop-color:#000"/><path d="m848.093 1338.888-105.375 267.61 103.412-53.624-94.756 206.49 503.097-21.95s-127.606-94.233-149.201-184.54 51.042-253.25 51.042-253.25z" style="opacity:1;fill:#f1fff2;fill-opacity:1;stroke:#f1fff2;stroke-width:64;stroke-linecap:round;stroke-linejoin:round;stroke-miterlimit:4;stroke-dasharray:none;stroke-dashoffset:0;stroke-opacity:1;paint-order:fill markers stroke;stop-color:#000"/><path d="M255.06 466.9c134.673 107.656 269.192 250.974 356.662 385.854M280.984 193.953C488.46 389.265 643.564 609.381 697.1 877.602" style="display:inline;fill:none;fill-opacity:1;stroke:#69a66e;stroke-width:32;stroke-linecap:round;stroke-linejoin:round;stroke-miterlimit:4;stroke-dasharray:none;stroke-dashoffset:0;stroke-opacity:1;paint-order:fill markers stroke;stop-color:#000"/><path d="M792.618 1048.728c0 120.717-155.86 218.577-276.577 218.577s-160.577-55.86-160.577-176.577S453.324 830.15 574.04 830.15c120.716 0 218.577 97.86 218.577 218.577" style="display:inline;fill:#4ce64c;stroke:#000;stroke-width:64;stroke-linecap:round;stroke-linejoin:round;paint-order:fill markers stroke;stop-color:#000"/><path d="M498.974 962.622v50.236" style="opacity:1;fill:#fff;fill-opacity:1;stroke:#000;stroke-width:48;stroke-linecap:round;stroke-linejoin:round;stroke-miterlimit:4;stroke-dasharray:none;stroke-dashoffset:0;stroke-opacity:1;paint-order:fill markers stroke;stop-color:#000"/><path d="M829.903 824.136s-36.35-173.47-18.024-355.281C832.041 268.845 923.735 58.182 992.32 58.393s165.471 203.71 184.725 344.423c19.254 140.714-34.49 444.671-34.49 444.671z" style="opacity:1;fill:#69a66e;fill-opacity:1;stroke:#69a66e;stroke-width:64;stroke-linecap:round;stroke-miterlimit:4;stroke-dasharray:none;stroke-dashoffset:0;stroke-opacity:1;paint-order:fill markers stroke;stop-color:#000"/><path d="M1299.055 1153.559s-.108-10.821-.952-28.418a1183 1183 0 0 0-1.894-30.973c-.869-11.681-2-24.552-3.473-38.105s-3.289-27.788-5.523-42.202c-2.235-14.413-4.89-29.004-8.043-43.267a514 514 0 0 0-5.115-21.086 403 403 0 0 0-5.922-20.213c-2.115-6.55-4.374-12.892-6.787-18.963-2.414-6.07-4.983-11.87-7.715-17.334s-5.935-10.786-9.54-15.96c-3.604-5.176-7.61-10.206-11.948-15.085s-9.008-9.61-13.94-14.185c-4.932-4.577-10.126-9-15.514-13.266a324 324 0 0 0-16.67-12.324 392 392 0 0 0-17.41-11.364c-11.76-7.25-23.737-13.847-35.37-19.76-11.635-5.912-22.926-11.14-33.321-15.66A665 665 0 0 0 1071.984 764c-16.085-6.137-26.353-9.318-26.353-9.318-106.831-15.988-232.175 6.97-312.625 60.013-101.267 66.77-136.887 176.63-198.707 211.955s-225.2 77.273-280.397 83.897c-55.196 6.623-183.25 6.625-161.172 123.64 22.079 117.017 112.6 282.605 377.541 247.28s313.516-44.158 536.508-88.315c22.898-4.534 53.848-18.32 86.828-36.947l291.93 26.04-170.984-112.723c5.357-4.841 10.6-9.719 15.632-14.637l220.136-11.742-162.94-60.301c3.48-6.554 6.48-13.02 8.627-19.307 1.052-3.081 2.033-6.627 3.047-9.976" style="display:inline;opacity:1;fill:#f1fff2;stroke:#f1fff2;stroke-width:64;stroke-linecap:round;stroke-linejoin:round;stroke-miterlimit:4;stroke-dasharray:6.4,6.4;stroke-dashoffset:0;stroke-opacity:1;paint-order:fill markers stroke;stop-color:#000"/><path d="M880.931 744.045c-117.015 27.598-258.318 172.212-258.318 172.212-1.66-83.046-11.333-166.82 112.6-238.448-124.694-7.456-249.287-15.117-408.451 46.365 0 0 303.226-263.622 490.142-280.396 172.212-15.455 264.942 37.533 264.942 37.533-.193-45.683-31.458-88.26-90.522-128.055 0 0 295.852 97.145 333.385 194.29 37.533 97.146 28.702 167.797 28.702 167.797l-243.752 34.923s-111.712-33.82-228.728-6.221" style="display:inline;fill:#1d2f23;stroke:#1d2f23;stroke-width:64;stroke-linecap:round;stroke-linejoin:round;-inkscape-stroke:none;paint-order:fill markers stroke;stop-color:#000"/><path d="M1181.004 57.333c-77.29 18.543-166.713 332.952-173.243 423.01-5.815 80.183-33.325 285.134-41.176 343.228 20.676 370.84 218.676 310.776 339.488 328.747 66.77-136.887 184.504-419.628 141.022-638.88-59.531-300.181-215.97-468.13-266.091-456.105" style="display:inline;opacity:1;fill:#f1fff2;stroke:#f1fff2;stroke-width:64;stroke-linecap:round;stroke-linejoin:round;stroke-miterlimit:4;stroke-dasharray:6.4,6.4;stroke-dashoffset:0;stroke-opacity:1;paint-order:fill markers stroke;stop-color:#000"/><path d="m978.594 717.682.004.002q-3.416-.014-6.817.015a32 32 0 0 0-3.386.703 32 32 0 0 0-3.41-.603q-3.394.07-6.801.185a32 32 0 0 0-3.364.787 32 32 0 0 0-3.412-.517q-3.399.154-6.8.353a32 32 0 0 0-3.334.87 32 32 0 0 0-3.422-.436q-3.4.238-6.79.52a32 32 0 0 0-3.316.95 32 32 0 0 0-3.43-.35q-3.392.32-6.761.68a32 32 0 0 0-3.299 1.032 32 32 0 0 0-3.443-.268q-3.371.402-6.75.848a32 32 0 0 0-3.266 1.11 32 32 0 0 0-3.441-.184q-3.37.486-6.737 1.016a32 32 0 0 0-3.236 1.189 32 32 0 0 0-3.45-.1q-3.36.57-6.71 1.18a32 32 0 0 0-3.211 1.272 32 32 0 0 0-3.457-.014q-3.347.652-6.676 1.346a32 32 0 0 0-3.19 1.353 32 32 0 0 0-3.464.076q-3.323.736-6.645 1.518a32 32 0 0 0-3.156 1.437 32 32 0 0 0-3.463.164 505 505 0 0 0-6.62 1.694 32 32 0 0 0-3.122 1.523 32 32 0 0 0-3.46.256q-3.298.915-6.585 1.875a32 32 0 0 0-3.084 1.607 32 32 0 0 0-3.463.354q-3.282 1.008-6.543 2.063a32 32 0 0 0-3.049 1.699 32 32 0 0 0-3.467.455q-3.246 1.099-6.498 2.256a32 32 0 0 0-3.004 1.793 32 32 0 0 0-3.45.558 428 428 0 0 0-6.464 2.465 32 32 0 0 0-2.949 1.887 32 32 0 0 0-3.441.666 411 411 0 0 0-6.403 2.678 32 32 0 0 0-2.91 1.994 32 32 0 0 0-3.44.787 389 389 0 0 0-6.339 2.908 32 32 0 0 0-2.842 2.096 32 32 0 0 0-3.422.91 369 369 0 0 0-6.261 3.146 32 32 0 0 0-2.786 2.215 32 32 0 0 0-3.398 1.041 346 346 0 0 0-6.176 3.406 32 32 0 0 0-2.72 2.34 32 32 0 0 0-3.375 1.186 322 322 0 0 0-6.077 3.683 32 32 0 0 0-2.634 2.467 32 32 0 0 0-3.36 1.35 324 324 0 0 0-5.904 3.945 32 32 0 0 0-2.5 2.557 32 32 0 0 0-3.264 1.47 335 335 0 0 0-5.715 4.17 32 32 0 0 0-2.386 2.649 32 32 0 0 0-3.184 1.59 348 348 0 0 0-5.523 4.377 32 32 0 0 0-2.287 2.744 32 32 0 0 0-3.12 1.715 357 357 0 0 0-5.337 4.576 32 32 0 0 0-2.159 2.804 32 32 0 0 0-3.035 1.819 384 384 0 0 0-5.13 4.732 32 32 0 0 0-2.057 2.88 32 32 0 0 0-2.965 1.92 407 407 0 0 0-4.94 4.884 32 32 0 0 0-1.94 2.92 32 32 0 0 0-2.876 1.998 432 432 0 0 0-4.76 5.014 32 32 0 0 0-1.836 2.96 32 32 0 0 0-2.799 2.07 473 473 0 0 0-4.58 5.114 32 32 0 0 0-1.74 2.992 32 32 0 0 0-2.724 2.131 532 532 0 0 0-4.41 5.191 32 32 0 0 0-1.653 3.016 32 32 0 0 0-2.662 2.186 579 579 0 0 0-4.266 5.261 32 32 0 0 0-1.56 3.008 32 32 0 0 0-2.594 2.22 702 702 0 0 0-4.121 5.29 32 32 0 0 0-1.496 3.014 32 32 0 0 0-2.518 2.226 896 896 0 0 0-3.998 5.297 32 32 0 0 0-1.45 3.024 32 32 0 0 0-2.474 2.244q-1.967 2.656-3.898 5.29a32 32 0 0 0-1.402 3.008 32 32 0 0 0-2.452 2.266l-2.664 3.666-.025.037-1.098 1.514a32 32 0 0 0-1.367 2.976 32 32 0 0 0-2.398 2.227l-3.188 4.404-.55.762a32 32 0 0 0-1.356 2.95 32 32 0 0 0-2.387 2.208q-1.83 2.52-3.685 5.051a32 32 0 0 0-1.344 2.885 32 32 0 0 0-2.354 2.135 792 792 0 0 1-3.68 4.927 32 32 0 0 0-1.353 2.81 32 32 0 0 0-2.34 2.052 469 469 0 0 1-3.674 4.73 32 32 0 0 0-1.386 2.723 32 32 0 0 0-2.338 1.943 328 328 0 0 1-3.711 4.5 32 32 0 0 0-1.414 2.574 32 32 0 0 0-2.324 1.787 223 223 0 0 1-3.74 4.166 32 32 0 0 0-1.467 2.403 32 32 0 0 0-2.305 1.584 160 160 0 0 1-3.781 3.756 32 32 0 0 0-1.52 2.175 32 32 0 0 0-2.277 1.334 112 112 0 0 1-3.79 3.225 32 32 0 0 0-1.583 1.91 32 32 0 0 0-2.242 1.045 80 80 0 0 1-3.752 2.594 32 32 0 0 0-1.643 1.597 32 32 0 0 0-2.201.729 164 164 0 0 1-4.703 2.56 32 32 0 0 0-2.215 1.792 32 32 0 0 0-2.758.736 270 270 0 0 1-5.16 2.47 32 32 0 0 0-2.412 1.768 32 32 0 0 0-2.916.662 385 385 0 0 1-5.416 2.364 32 32 0 0 0-2.522 1.726 32 32 0 0 0-3.015.596 463 463 0 0 1-5.547 2.248 32 32 0 0 0-2.62 1.697 32 32 0 0 0-3.083.541q-2.786 1.079-5.672 2.164a32 32 0 0 0-2.66 1.653 32 32 0 0 0-3.106.488q-2.858 1.05-5.746 2.08a32 32 0 0 0-2.715 1.625 32 32 0 0 0-3.129.441q-2.915 1.021-5.814 2.012a32 32 0 0 0-2.756 1.598 32 32 0 0 0-3.152.404 910 910 0 0 1-5.87 1.947 32 32 0 0 0-2.783 1.569 32 32 0 0 0-3.175.373q-2.909.939-5.916 1.89a32 32 0 0 0-2.786 1.533 32 32 0 0 0-3.181.34q-2.944.919-5.946 1.836a32 32 0 0 0-2.81 1.512 32 32 0 0 0-3.18.307q-2.996.902-5.97 1.78a32 32 0 0 0-2.842 1.493 32 32 0 0 0-3.176.277q-3.04.886-6.002 1.735a32 32 0 0 0-2.863 1.472 32 32 0 0 0-3.211.256q-2.968.838-6.022 1.686a32 32 0 0 0-2.853 1.441 32 32 0 0 0-3.201.229q-2.996.82-6.032 1.636a32 32 0 0 0-2.87 1.42 32 32 0 0 0-3.2.202q-3.027.803-6.045 1.587a32 32 0 0 0-2.89 1.4 32 32 0 0 0-3.196.175q-3.045.78-6.056 1.539a32 32 0 0 0-2.899 1.373 32 32 0 0 0-3.2.148q-3.044.755-6.064 1.488a32 32 0 0 0-2.906 1.348 32 32 0 0 0-3.203.121q-3.025.721-6.07 1.43a32 32 0 0 0-2.905 1.316 32 32 0 0 0-3.193.09q-3.027.692-6.053 1.364a32 32 0 0 0-2.914 1.283 32 32 0 0 0-3.18.055q-3.03.659-6.046 1.29a32 32 0 0 0-2.909 1.241 32 32 0 0 0-3.158.012q-3.03.616-6.006 1.195a32 32 0 0 0-2.904 1.188 32 32 0 0 0-3.127-.041q-2.986.555-5.926 1.064a32 32 0 0 0-2.853 1.1 32 32 0 0 0-3.041-.115q-2.933.47-5.717.861a32 32 0 0 0-2.73.951 32 32 0 0 0-2.862-.232q-2.91.335-5.941.644a32 32 0 0 0-3.041.936 32 32 0 0 0-3.194-.317c-2.051.202-4.173.403-6.365.618a32 32 0 0 0-3.158.957 32 32 0 0 0-3.3-.319q-3.27.329-6.6.688a32 32 0 0 0-3.239 1.015 32 32 0 0 0-3.392-.271q-3.368.393-6.75.832a32 32 0 0 0-3.29 1.11 32 32 0 0 0-3.464-.19q-3.443.492-6.887 1.045a32 32 0 0 0-3.324 1.234 32 32 0 0 0-3.55-.062q-3.476.621-6.968 1.324a32 32 0 0 0-3.353 1.4 32 32 0 0 0-3.647.097 269 269 0 0 0-7.06 1.697 32 32 0 0 0-3.356 1.606 32 32 0 0 0-3.718.306 219 219 0 0 0-7.17 2.184 32 32 0 0 0-3.352 1.87 32 32 0 0 0-3.807.589q-3.616 1.316-7.224 2.804a32 32 0 0 0-3.322 2.215 32 32 0 0 0-3.897.961 154 154 0 0 0-7.223 3.614 32 32 0 0 0-3.226 2.646 32 32 0 0 0-3.93 1.441 130 130 0 0 0-7.103 4.659 32 32 0 0 0-2.998 3.15 32 32 0 0 0-3.864 2.041 114 114 0 0 0-6.687 5.885 32 32 0 0 0-2.625 3.728 32 32 0 0 0-3.652 2.758 104 104 0 0 0-5.832 7.158 32 32 0 0 0-1.987 4.194 32 32 0 0 0-3.168 3.412 101 101 0 0 0-4.527 8.178 32 32 0 0 0-1.205 4.474 32 32 0 0 0-2.492 3.887 106 106 0 0 0-2.971 8.674 32 32 0 0 0-.41 4.492 32 32 0 0 0-1.768 4.113 117 117 0 0 0-1.502 8.682 32 32 0 0 0 .268 4.312 32 32 0 0 0-1.125 4.147 134 134 0 0 0-.309 8.41 32 32 0 0 0 .78 4.033 32 32 0 0 0-.61 4.049c.129 2.726.332 5.394.588 8.002a32 32 0 0 0 1.152 3.805 32 32 0 0 0-.214 3.95q.547 3.832 1.257 7.643a32 32 0 0 0 1.319 3.3 32 32 0 0 0 .021 3.55 385 385 0 0 0 1.461 6.824 32 32 0 0 0 1.426 3.22 32 32 0 0 0 .144 3.54 389 389 0 0 0 1.698 6.764 32 32 0 0 0 1.535 3.166 32 32 0 0 0 .262 3.504q.942 3.391 1.933 6.716a32 32 0 0 0 1.652 3.13 32 32 0 0 0 .391 3.525q1.046 3.305 2.17 6.638a32 32 0 0 0 1.76 3.063 32 32 0 0 0 .513 3.496 363 363 0 0 0 2.418 6.59 32 32 0 0 0 1.87 2.996 32 32 0 0 0 .64 3.478 352 352 0 0 0 2.666 6.516 32 32 0 0 0 1.983 2.93 32 32 0 0 0 .771 3.459q1.423 3.222 2.916 6.424a32 32 0 0 0 2.098 2.86 32 32 0 0 0 .908 3.438q1.555 3.18 3.16 6.305a32 32 0 0 0 2.227 2.803 32 32 0 0 0 1.05 3.42q1.665 3.09 3.422 6.191a32 32 0 0 0 2.33 2.7 32 32 0 0 0 1.182 3.36 314 314 0 0 0 3.701 6.09 32 32 0 0 0 2.444 2.604 32 32 0 0 0 1.332 3.33 319 319 0 0 0 3.949 5.918 32 32 0 0 0 2.57 2.518 32 32 0 0 0 1.473 3.265q2.082 2.918 4.234 5.785a32 32 0 0 0 2.678 2.399 32 32 0 0 0 1.639 3.232c1.449 1.846 2.94 3.707 4.482 5.578a32 32 0 0 0 2.78 2.27 32 32 0 0 0 1.761 3.127 295 295 0 0 0 4.748 5.387 32 32 0 0 0 2.91 2.167 32 32 0 0 0 1.91 3.05 285 285 0 0 0 5.014 5.179 32 32 0 0 0 3.012 2.03 32 32 0 0 0 2.058 2.962q2.618 2.521 5.27 4.947a32 32 0 0 0 3.098 1.877 32 32 0 0 0 2.2 2.864 278 278 0 0 0 5.505 4.691 32 32 0 0 0 3.181 1.725 32 32 0 0 0 2.33 2.748 280 280 0 0 0 5.721 4.418 32 32 0 0 0 3.281 1.58 32 32 0 0 0 2.46 2.63 277 277 0 0 0 5.935 4.141 32 32 0 0 0 3.351 1.418 32 32 0 0 0 2.612 2.53 275 275 0 0 0 6.135 3.85 32 32 0 0 0 3.37 1.232 32 32 0 0 0 2.702 2.38 289 289 0 0 0 6.271 3.534 32 32 0 0 0 3.473 1.091 32 32 0 0 0 2.822 2.258 279 279 0 0 0 6.46 3.246 32 32 0 0 0 3.454.905 32 32 0 0 0 2.89 2.103 284 284 0 0 0 6.585 2.938 32 32 0 0 0 3.514.754 32 32 0 0 0 2.992 1.974q3.359 1.368 6.662 2.621a32 32 0 0 0 3.55.6 32 32 0 0 0 3.079 1.84 314 314 0 0 0 6.74 2.318 32 32 0 0 0 3.555.441 32 32 0 0 0 3.13 1.698q3.421 1.06 6.838 2.033a32 32 0 0 0 3.536.287 32 32 0 0 0 3.177 1.56q3.454.919 6.92 1.754a32 32 0 0 0 3.52.143 32 32 0 0 0 3.228 1.43 350 350 0 0 0 6.89 1.467 32 32 0 0 0 3.561.014 32 32 0 0 0 3.274 1.304q3.472.643 6.973 1.213a32 32 0 0 0 3.502-.123 32 32 0 0 0 3.332 1.186c2.273.333 4.588.655 6.943.955a32 32 0 0 0 3.478-.244 32 32 0 0 0 3.317 1.058c2.34.265 4.659.502 6.957.719a32 32 0 0 0 3.476-.358 32 32 0 0 0 3.338.948c2.356.19 4.674.351 6.955.494a32 32 0 0 0 3.461-.467 32 32 0 0 0 3.362.842q3.49.17 6.953.277a32 32 0 0 0 3.42-.57 32 32 0 0 0 3.408.742c2.251.04 4.56.07 6.928.072a32 32 0 0 0 3.353-.662 32 32 0 0 0 3.377.64q3.48-.031 6.885-.115a32 32 0 0 0 4.9-.506 32 32 0 0 0 1.848.301q3.469-.122 6.898-.299a32 32 0 0 0 4.827-.628 32 32 0 0 0 1.863.255c2.35-.141 4.62-.303 6.808-.464a32 32 0 0 0 4.91-.752 32 32 0 0 0 1.862.207 480 480 0 0 0 6.826-.63 32 32 0 0 0 4.715-.85 32 32 0 0 0 1.879.167q3.418-.368 6.81-.783a32 32 0 0 0 4.73-.959 32 32 0 0 0 1.891.125l1.186-.154.086-.012 5.158-.69a32 32 0 0 0 4.494-.963 32 32 0 0 0 1.85.117l.76-.101h.01l5.584-.746a32 32 0 0 0 4.5-.967 32 32 0 0 0 1.843.117h.037l6.317-.847a32 32 0 0 0 4.506-.97 32 32 0 0 0 1.85.116l6.341-.854a32 32 0 0 0 4.51-.97 32 32 0 0 0 1.848.115l6.341-.855a32 32 0 0 0 4.508-.975 32 32 0 0 0 1.85.115l6.342-.86a32 32 0 0 0 4.51-.976 32 32 0 0 0 1.847.114l4.75-.647h.016l1.593-.217a32 32 0 0 0 4.496-.976 32 32 0 0 0 1.844.111l2.362-.322h.017l3.98-.547a32 32 0 0 0 4.508-.983 32 32 0 0 0 1.854.112l6.34-.873a32 32 0 0 0 4.517-.987 32 32 0 0 0 1.844.108l6.34-.877a32 32 0 0 0 4.52-.992 32 32 0 0 0 1.843.107l3.131-.435h.025l3.207-.45a32 32 0 0 0 4.504-.996 32 32 0 0 0 1.86.106l6.338-.893a32 32 0 0 0 4.513-1.002 32 32 0 0 0 1.852.104l4.658-.66.03-.012 1.68-.24a32 32 0 0 0 4.487-1.005 32 32 0 0 0 1.848.1l.566-.078.032-.012 5.77-.828a32 32 0 0 0 4.523-1.017 32 32 0 0 0 1.843.101l4.547-.661.035-.012 1.787-.26a32 32 0 0 0 4.502-1.023 32 32 0 0 0 1.87.096l6.331-.932a32 32 0 0 0 4.522-1.033 32 32 0 0 0 1.848.09l3.044-.451.032-.012 3.285-.49a32 32 0 0 0 4.515-1.042 32 32 0 0 0 1.85.088q3.181-.48 6.38-.966a32 32 0 0 0 4.491-1.05 32 32 0 0 0 1.852.083q3.205-.49 6.379-.98a32 32 0 0 0 4.506-1.065 32 32 0 0 0 1.855.076q3.17-.494 6.379-.998a32 32 0 0 0 4.488-1.072 32 32 0 0 0 1.852.072q3.21-.509 6.379-1.016a32 32 0 0 0 4.505-1.09 32 32 0 0 0 1.852.068q3.183-.513 6.38-1.035a32 32 0 0 0 4.499-1.102 32 32 0 0 0 1.863.062l2.996-.495h.026l3.32-.55a32 32 0 0 0 2.03-.502l-48.46 123.064a32.003 32.003 0 0 0 44.504 40.13l20.776-10.77-55.932 121.884a32.003 32.003 0 0 0 30.479 45.317l503.095-21.952a32.003 32.003 0 0 0 17.615-57.71s-30.052-22.227-62.804-55.212-66.216-77.293-74.283-111.029c-7.898-33.026 2.164-94.094 16.974-143.931.78-2.622 1.581-5.07 2.371-7.627l5.37.478a32 32 0 0 0 3.244-.35 32 32 0 0 0 3.13.918l6.375.569a32 32 0 0 0 3.245-.35 32 32 0 0 0 3.13.918l6.375.569a32 32 0 0 0 3.24-.35 32 32 0 0 0 3.133.92l6.375.568a32 32 0 0 0 3.245-.35 32 32 0 0 0 3.13.919l6.375.568a32 32 0 0 0 3.245-.35 32 32 0 0 0 3.13.918l6.375.569a32 32 0 0 0 3.245-.35 32 32 0 0 0 3.128.918l6.375.57a32 32 0 0 0 3.245-.35 32 32 0 0 0 3.13.919l6.375.568a32 32 0 0 0 3.245-.35 32 32 0 0 0 3.13.918l6.375.569a32 32 0 0 0 3.245-.35 32 32 0 0 0 3.129.918l6.375.568a32 32 0 0 0 3.24-.35 32 32 0 0 0 3.135.92l6.375.57a32 32 0 0 0 3.244-.35 32 32 0 0 0 3.13.918l6.376.568a32 32 0 0 0 3.244-.35 32 32 0 0 0 3.13.918l6.374.569a32 32 0 0 0 3.244-.35 32 32 0 0 0 3.13.918l6.376.57a32 32 0 0 0 3.244-.35 32 32 0 0 0 3.13.919l6.376.568a32 32 0 0 0 3.244-.35 32 32 0 0 0 3.13.918l6.374.569a32 32 0 0 0 3.244-.35 32 32 0 0 0 3.13.918l6.376.568a32 32 0 0 0 3.244-.35 32 32 0 0 0 3.13.919l6.376.57a32 32 0 0 0 8.457-.912 32 32 0 0 0 24.67-13.76 32 32 0 0 0-9.104-44.33l-5.344-3.523a32 32 0 0 0-1.717-.7 32 32 0 0 0-3.626-2.822l-5.344-3.523a32 32 0 0 0-1.711-.697 32 32 0 0 0-3.631-2.827l-5.344-3.521a32 32 0 0 0-1.71-.697 32 32 0 0 0-3.634-2.827l-5.343-3.521a32 32 0 0 0-1.711-.697 32 32 0 0 0-3.631-2.826l-5.344-3.524a32 32 0 0 0-1.715-.697 32 32 0 0 0-3.629-2.824l-5.343-3.524a32 32 0 0 0-1.717-.699 32 32 0 0 0-3.625-2.822l-5.344-3.524a32 32 0 0 0-1.717-.699 32 32 0 0 0-3.627-2.824l-5.343-3.522a32 32 0 0 0-1.711-.697 32 32 0 0 0-3.633-2.826l-5.342-3.522a32 32 0 0 0-1.71-.697 32 32 0 0 0-3.634-2.826l-5.343-3.523a32 32 0 0 0-1.715-.698 32 32 0 0 0-3.63-2.824l-1.063-.703 1.177-.062a32 32 0 0 0 4.563-.606 32 32 0 0 0 1.828.264l6.392-.34a32 32 0 0 0 4.563-.605 32 32 0 0 0 1.828.263l6.39-.34a32 32 0 0 0 4.563-.605 32 32 0 0 0 1.828.264l6.39-.34a32 32 0 0 0 4.563-.605 32 32 0 0 0 1.828.263l6.393-.34a32 32 0 0 0 4.563-.605 32 32 0 0 0 1.828.264l6.39-.34a32 32 0 0 0 4.563-.606 32 32 0 0 0 1.828.264l6.39-.34a32 32 0 0 0 4.563-.605 32 32 0 0 0 1.828.263l6.39-.342a32 32 0 0 0 4.563-.603 32 32 0 0 0 1.83.264l6.391-.342a32 32 0 0 0 4.555-.604 32 32 0 0 0 1.836.264l6.39-.342a32 32 0 0 0 4.557-.603 32 32 0 0 0 1.834.263l6.39-.341a32 32 0 0 0 4.557-.604 32 32 0 0 0 1.834.264l6.393-.342a32 32 0 0 0 4.554-.604 32 32 0 0 0 1.836.264l6.391-.342a32 32 0 0 0 27.924-20.05 32 32 0 0 0 1.217-1.98 32 32 0 0 0-18.905-41.118l-6.002-2.223a32 32 0 0 0-1.832-.29 32 32 0 0 0-4.17-1.93l-6.002-2.221a32 32 0 0 0-1.826-.291 32 32 0 0 0-4.176-1.932l-6.003-2.22a32 32 0 0 0-1.829-.292 32 32 0 0 0-4.173-1.93l-6.002-2.22a32 32 0 0 0-1.823-.291 32 32 0 0 0-4.18-1.932l-6.001-2.22a32 32 0 0 0-1.824-.291 32 32 0 0 0-4.178-1.93l-6.002-2.223a32 32 0 0 0-1.832-.29 32 32 0 0 0-4.17-1.93l-6.002-2.221a32 32 0 0 0-1.826-.291 32 32 0 0 0-4.178-1.932l-6.002-2.22a32 32 0 0 0-1.828-.291 32 32 0 0 0-4.174-1.93l-6.002-2.22a32 32 0 0 0-1.822-.292 32 32 0 0 0-4.18-1.931l-6.002-2.221a32 32 0 0 0-1.822-.291 32 32 0 0 0-4.18-1.93l-6.002-2.223a32 32 0 0 0-1.832-.29 32 32 0 0 0-1.771-.82 32 32 0 0 0 1.965-11.222c-.03-2.333-.08-4.604-.137-6.812a32 32 0 0 0-.416-1.844 32 32 0 0 0 .223-4.763c-.072-2.243-.155-4.451-.24-6.624a32 32 0 0 0-.44-1.826 32 32 0 0 0 .16-4.758 1085 1085 0 0 0-.318-6.583 32 32 0 0 0-.46-1.815 32 32 0 0 0 .108-4.732q-.185-3.309-.389-6.57a32 32 0 0 0-.476-1.81 32 32 0 0 0 .053-4.751q-.22-3.277-.46-6.569a32 32 0 0 0-.497-1.796 32 32 0 0 0 0-4.75q-.256-3.272-.533-6.563a32 32 0 0 0-.518-1.797 32 32 0 0 0-.047-4.73q-.294-3.3-.607-6.582a32 32 0 0 0-.537-1.791 32 32 0 0 0-.104-4.745q-.329-3.28-.683-6.587a32 32 0 0 0-.559-1.78 32 32 0 0 0-.16-4.748q-.37-3.275-.77-6.59a32 32 0 0 0-.582-1.777 32 32 0 0 0-.217-4.728c-.279-2.229-.567-4.426-.855-6.592a32 32 0 0 0-.61-1.787 32 32 0 0 0-.285-4.744 784 784 0 0 0-.95-6.606 32 32 0 0 0-.632-1.768 32 32 0 0 0-.363-4.79q-.506-3.266-1.058-6.618a32 32 0 0 0-.655-1.738 32 32 0 0 0-.443-4.791 725 725 0 0 0-1.166-6.594 32 32 0 0 0-.69-1.746 32 32 0 0 0-.535-4.83 670 670 0 0 0-1.295-6.598 32 32 0 0 0-.724-1.736 32 32 0 0 0-.631-4.834q-.703-3.313-1.44-6.605a32 32 0 0 0-.763-1.727 32 32 0 0 0-.748-4.865 520 520 0 0 0-1.608-6.627 32 32 0 0 0-.802-1.703 32 32 0 0 0-.885-4.897 471 471 0 0 0-1.795-6.627 32 32 0 0 0-.86-1.699 32 32 0 0 0-1.037-4.914 398 398 0 0 0-2.025-6.658 32 32 0 0 0-.928-1.697 32 32 0 0 0-1.21-4.917 340 340 0 0 0-2.302-6.68 32 32 0 0 0-1.015-1.698 32 32 0 0 0-1.424-4.932 291 291 0 0 0-2.635-6.688 32 32 0 0 0-1.136-1.718 32 32 0 0 0-1.69-4.95 240 240 0 0 0-3.074-6.716 32 32 0 0 0-1.32-1.77 32 32 0 0 0-2.118-5.123c-1.266-2.4-2.589-4.746-3.957-7.039a32 32 0 0 0-1.574-1.744 32 32 0 0 0-2.637-4.943 171 171 0 0 0-4.494-6.46 32 32 0 0 0-1.652-1.519 32 32 0 0 0-3.006-4.598 198 198 0 0 0-4.86-5.886 32 32 0 0 0-1.693-1.328 32 32 0 0 0-3.256-4.243 223 223 0 0 0-5.144-5.418 32 32 0 0 0-1.732-1.181 32 32 0 0 0-3.475-3.971 259 259 0 0 0-5.336-4.986 32 32 0 0 0-1.758-1.057 32 32 0 0 0-3.646-3.728 298 298 0 0 0-5.485-4.618 32 32 0 0 0-1.767-.947 32 32 0 0 0-3.778-3.508 333 333 0 0 0-5.615-4.312 32 32 0 0 0-1.77-.852 32 32 0 0 0-3.878-3.308 368 368 0 0 0-5.723-4.05 32 32 0 0 0-1.771-.769 32 32 0 0 0-3.961-3.133 402 402 0 0 0-5.813-3.814 32 32 0 0 0-1.773-.7 32 32 0 0 0-4.034-2.978 442 442 0 0 0-5.884-3.603 32 32 0 0 0-1.787-.643 32 32 0 0 0-4.086-2.84 484 484 0 0 0-5.944-3.412 32 32 0 0 0-1.8-.592 32 32 0 0 0-4.133-2.71 525 525 0 0 0-5.994-3.24 32 32 0 0 0-1.813-.548 32 32 0 0 0-4.174-2.595 578 578 0 0 0-6.035-3.078 32 32 0 0 0-1.83-.506 32 32 0 0 0-4.193-2.48 544 544 0 0 0-6.123-2.958 32 32 0 0 0-1.819-.459 32 32 0 0 0-4.246-2.388 638 638 0 0 0-6.127-2.801 32 32 0 0 0-1.836-.424 32 32 0 0 0-4.28-2.299 649 649 0 0 0-6.179-2.678 32 32 0 0 0-1.84-.386 32 32 0 0 0-4.343-2.223 664 664 0 0 0-6.221-2.553 32 32 0 0 0-1.84-.35 32 32 0 0 0-4.361-2.126 648 648 0 0 0-6.276-2.438 32 32 0 0 0-1.857-.316 32 32 0 0 0-4.412-2.047 605 605 0 0 0-6.348-2.318 32 32 0 0 0-1.861-.278 32 32 0 0 0-4.525-1.974 450 450 0 0 0-6.53-2.204 32 32 0 0 0-4.017-.49 32 32 0 0 0-7.7-2.199 449 449 0 0 0-6.83-.914 32 32 0 0 0-1.896.135 32 32 0 0 0-4.9-.944 467 467 0 0 0-6.835-.714 32 32 0 0 0-1.886.187 32 32 0 0 0-4.912-.803q-3.42-.286-6.836-.523a32 32 0 0 0-1.881.24 32 32 0 0 0-4.916-.668q-3.42-.194-6.838-.34a32 32 0 0 0-1.875.291 32 32 0 0 0-4.916-.537 505 505 0 0 0-6.832-.16 32 32 0 0 0-1.865.34 32 32 0 0 0-4.926-.412z" style="color:#000;opacity:.838641;fill:url(#b);fill-opacity:1;stroke-width:64;stroke-linecap:round;stroke-linejoin:round;stroke-dasharray:6.4,6.4;-inkscape-stroke:none;paint-order:fill markers stroke"/><path d="M880.931 744.045c-117.015 27.598-258.318 172.212-258.318 172.212-1.66-83.046-11.333-166.82 112.6-238.448" style="display:inline;fill:#1d2f23;stroke:#1d2f23;stroke-width:64;stroke-linecap:round;stroke-linejoin:round;-inkscape-stroke:none;paint-order:fill markers stroke;stop-color:#000"/><path d="m83.898 1201.07 68.444 6.623-37.534 39.741M401.828 1251.85l-59.612-44.157 121.432-17.663" style="opacity:1;fill:none;fill-opacity:1;stroke:#000;stroke-width:64;stroke-linecap:round;stroke-linejoin:round;stroke-miterlimit:4;stroke-dasharray:none;stroke-dashoffset:0;stroke-opacity:1;paint-order:fill markers stroke;stop-color:#000"/><path d="m222.993 1530.039-90.522-183.251 90.522-72.86 103.769 66.236z" style="opacity:1;fill:#fff;fill-opacity:1;stroke:#000;stroke-width:64;stroke-linecap:round;stroke-linejoin:round;stroke-miterlimit:4;stroke-dasharray:none;stroke-dashoffset:0;stroke-opacity:1;paint-order:fill markers stroke;stop-color:#000"/><path d="m661.976 1226.049 53.367-115.501 86.53 168.71z" style="opacity:1;fill:#000;fill-opacity:1;stroke:#000;stroke-width:64;stroke-linecap:round;stroke-linejoin:round;stroke-miterlimit:4;stroke-dasharray:none;stroke-dashoffset:0;stroke-opacity:1;paint-order:fill markers stroke;stop-color:#000"/><path d="M1150.289 1075.222c0 120.717-151.86 218.577-272.577 218.577s-164.577-71.86-164.577-192.577 97.86-244.577 218.577-244.577 218.577 97.86 218.577 218.577" style="opacity:1;fill:#4ce64c;stroke:#000;stroke-width:64;stroke-linecap:round;stroke-linejoin:round;paint-order:fill markers stroke;stop-color:#000"/><path d="M841.19 1018.537v52.766" style="opacity:1;fill:#fff;fill-opacity:1;stroke:#000;stroke-width:48;stroke-linecap:round;stroke-linejoin:round;stroke-miterlimit:4;stroke-dasharray:none;stroke-dashoffset:0;stroke-opacity:1;paint-order:fill markers stroke;stop-color:#000"/><path d="M510.775 93.484c157.23 237.638 257.798 487.426 248.482 760.778" style="opacity:1;fill:none;fill-opacity:1;stroke:#f1fff2;stroke-width:32;stroke-linecap:round;stroke-linejoin:round;stroke-miterlimit:4;stroke-dasharray:none;stroke-dashoffset:0;stroke-opacity:1;paint-order:fill markers stroke;stop-color:#000"/><path d="M771.41 303.061c45.327 166.349 69.509 361.415 60.657 521.931" style="display:inline;fill:none;fill-opacity:1;stroke:#f1fff2;stroke-width:32;stroke-linecap:round;stroke-linejoin:round;stroke-miterlimit:4;stroke-dasharray:none;stroke-dashoffset:0;stroke-opacity:1;paint-order:fill markers stroke;stop-color:#000"/></g></svg>