<svg xmlns="http://www.w3.org/2000/svg" xmlns:xlink="http://www.w3.org/1999/xlink" width="1706.667" height="1706.667"><defs><radialGradient xlink:href="#a" id="b" cx="688.307" cy="1416.856" r="710.713" fx="688.307" fy="1416.856" gradientTransform="matrix(.79005 -.40562 .26722 .5205 -187.144 855.364)" gradientUnits="userSpaceOnUse"/><linearGradient id="a"><stop offset="0" style="stop-color:#ff0101;stop-opacity:1"/><stop offset="1" style="stop-color:#ff0101;stop-opacity:0"/></linearGradient></defs><g style="display:inline"><path d="M1298.031 865.098c70.798 131.454 185.382 239.025 198.706 401.828q-44.157-28.702-79.482 13.247c91.022 54.7 58.514 175.917 81.69 267.15l-99.353 6.623c66.759 58.919 81.773 128.186 90.522 198.707l-494.507 2.208c-24.38-41.482 23.114-208.564 66.235-227.044 0 0 3.38-20.015-75.353-9.455 28.741-247.272 185.695-422.176 311.542-653.264" style="display:inline;fill:#1d2f23;stroke:#1d2f23;stroke-width:64;stroke-linecap:round;stroke-linejoin:round;-inkscape-stroke:none;paint-order:fill markers stroke;stop-color:#000"/><path d="m848.093 1338.888-105.375 267.61 103.412-53.624-94.756 206.49 503.097-21.95s-127.606-94.233-149.201-184.54 51.042-253.25 51.042-253.25z" style="opacity:1;fill:#f1fff2;fill-opacity:1;stroke:#f1fff2;stroke-width:64;stroke-linecap:round;stroke-linejoin:round;stroke-miterlimit:4;stroke-dasharray:none;stroke-dashoffset:0;stroke-opacity:1;paint-order:fill markers stroke;stop-color:#000"/><path d="M255.06 466.9c134.673 107.656 269.192 250.974 356.662 385.854M280.984 193.953C488.46 389.265 643.564 609.381 697.1 877.602" style="display:inline;fill:none;fill-opacity:1;stroke:#69a66e;stroke-width:32;stroke-linecap:round;stroke-linejoin:round;stroke-miterlimit:4;stroke-dasharray:none;stroke-dashoffset:0;stroke-opacity:1;paint-order:fill markers stroke;stop-color:#000" transform="rotate(-10.378 920.336 1305.816)"/><path d="M675.043 1049.415c0 120.716-155.86 218.577-276.577 218.577s-160.577-55.86-160.577-176.577 97.86-260.577 218.577-260.577c120.716 0 218.577 97.86 218.577 218.577" style="display:inline;fill:#6faa74;fill-opacity:1;stroke:#000;stroke-width:64;stroke-linecap:round;stroke-linejoin:round;paint-order:fill markers stroke;stop-color:#000" transform="rotate(-10.378 1131.373 560.385)"/><path d="M498.974 962.622v50.236" style="opacity:1;fill:#fff;fill-opacity:1;stroke:#000;stroke-width:48;stroke-linecap:round;stroke-linejoin:round;stroke-miterlimit:4;stroke-dasharray:none;stroke-dashoffset:0;stroke-opacity:1;paint-order:fill markers stroke;stop-color:#000" transform="rotate(-10.378 1131.373 560.385)"/><path d="M900.797 723.563s75.557-160.327 199.77-294.35c136.646-147.438 336.791-260.26 391.39-218.75 54.597 41.509 9.243 262.283-60.212 386.166-69.454 123.884-295.553 334.022-295.553 334.022z" style="opacity:1;fill:#69a66e;fill-opacity:1;stroke:#69a66e;stroke-width:64;stroke-linecap:round;stroke-miterlimit:4;stroke-dasharray:none;stroke-dashoffset:0;stroke-opacity:1;paint-order:fill markers stroke;stop-color:#000" transform="rotate(-10.378 920.336 1305.816)"/><path d="M1299.055 1153.559s-.108-10.821-.952-28.418a1183 1183 0 0 0-1.894-30.973c-.869-11.681-2-24.552-3.473-38.105s-3.289-27.788-5.523-42.202c-2.235-14.413-4.89-29.004-8.043-43.267a514 514 0 0 0-5.115-21.086 403 403 0 0 0-5.922-20.213c-2.115-6.55-4.374-12.892-6.787-18.963-2.414-6.07-4.983-11.87-7.715-17.334s-5.935-10.786-9.54-15.96c-3.604-5.176-7.61-10.206-11.948-15.085s-9.008-9.61-13.94-14.185c-4.932-4.577-10.126-9-15.514-13.266a324 324 0 0 0-16.67-12.324 392 392 0 0 0-17.41-11.364c-11.76-7.25-23.737-13.847-35.37-19.76-11.635-5.912-22.926-11.14-33.321-15.66A665 665 0 0 0 1071.984 764c-16.085-6.137-26.353-9.318-26.353-9.318-106.831-15.988-232.175 6.97-312.625 60.013-101.267 66.77-136.887 176.63-198.707 211.955s-225.2 77.273-280.397 83.897c-55.196 6.623-183.25 6.625-161.172 123.64 22.079 117.017 112.6 282.605 377.541 247.28s313.516-44.158 536.508-88.315c22.898-4.534 53.848-18.32 86.828-36.947l291.93 26.04-170.984-112.723c5.357-4.841 10.6-9.719 15.632-14.637l220.136-11.742-162.94-60.301c3.48-6.554 6.48-13.02 8.627-19.307 1.052-3.081 2.033-6.627 3.047-9.976" style="display:inline;opacity:1;fill:#f1fff2;stroke:#f1fff2;stroke-width:64;stroke-linecap:round;stroke-linejoin:round;stroke-miterlimit:4;stroke-dasharray:6.4,6.4;stroke-dashoffset:0;stroke-opacity:1;paint-order:fill markers stroke;stop-color:#000" transform="rotate(-10.378 920.336 1305.816)"/><path d="M880.931 744.045c-117.015 27.598-258.318 172.212-258.318 172.212-1.66-83.046-11.333-166.82 112.6-238.448-124.694-7.456-249.287-15.117-408.451 46.365 0 0 303.226-263.622 490.142-280.396 172.212-15.455 264.942 37.533 264.942 37.533-.193-45.683-31.458-88.26-90.522-128.055 0 0 295.852 97.145 333.385 194.29 37.533 97.146 28.702 167.797 28.702 167.797l-243.752 34.923s-111.712-33.82-228.728-6.221" style="display:inline;fill:#1d2f23;stroke:#1d2f23;stroke-width:64;stroke-linecap:round;stroke-linejoin:round;-inkscape-stroke:none;paint-order:fill markers stroke;stop-color:#000" transform="rotate(-10.378 920.336 1305.816)"/><path d="M1675.518 200.587c-75.861-23.72-313.877 200.33-365.67 274.294-46.113 65.852-209.947 272.048-246.48 317.894-172.44 328.96 63.45 334.583 157.947 411.97 127.523-83.271 373.6-265.616 448.718-476.137 102.844-288.23 54.678-512.64 5.484-528.021" style="display:inline;opacity:1;fill:#f1fff2;stroke:#f1fff2;stroke-width:64;stroke-linecap:round;stroke-linejoin:round;stroke-miterlimit:4;stroke-dasharray:6.4,6.4;stroke-dashoffset:0;stroke-opacity:1;paint-order:fill markers stroke;stop-color:#000" transform="rotate(-10.378 920.336 1305.816)"/><path d="M939.588 709.275q-3.45.14-6.883.332a32 32 0 0 0-1.842.475 32 32 0 0 0-4.99-.045q-3.431.24-6.852.527a32 32 0 0 0-1.822.526 32 32 0 0 0-4.974.094q-3.415.333-6.819.716a32 32 0 0 0-1.808.577 32 32 0 0 0-4.955.228 491 491 0 0 0-6.788.897 32 32 0 0 0-1.79.625 32 32 0 0 0-4.934.357q-3.38.514-6.748 1.072a32 32 0 0 0-1.774.67 32 32 0 0 0-4.92.483l.004.002q-3.362.6-6.703 1.242a32 32 0 0 0-3.203 1.302 32 32 0 0 0-3.463.02 541 541 0 0 0-6.656 1.408 32 32 0 0 0-3.168 1.381 32 32 0 0 0-3.45.106 530 530 0 0 0-6.624 1.572 32 32 0 0 0-3.123 1.455 32 32 0 0 0-3.445.19q-3.3.845-6.584 1.732a32 32 0 0 0-3.09 1.533 32 32 0 0 0-3.438.273 552 552 0 0 0-6.527 1.889 32 32 0 0 0-3.06 1.607 32 32 0 0 0-3.436.358 542 542 0 0 0-6.487 2.05 32 32 0 0 0-3.011 1.68 32 32 0 0 0-3.418.438q-3.228 1.085-6.444 2.213a32 32 0 0 0-2.968 1.754 32 32 0 0 0-3.412.523 527 527 0 0 0-6.39 2.37 32 32 0 0 0-2.927 1.827 32 32 0 0 0-3.404.61q-3.176 1.245-6.324 2.527a32 32 0 0 0-2.893 1.906 32 32 0 0 0-3.395.7q-3.134 1.321-6.261 2.689a32 32 0 0 0-2.846 1.982 32 32 0 0 0-3.377.786q-3.111 1.407-6.207 2.857a32 32 0 0 0-2.797 2.063 32 32 0 0 0-3.355.873q-3.081 1.494-6.14 3.03a32 32 0 0 0-2.745 2.138 32 32 0 0 0-3.344.972 477 477 0 0 0-6.064 3.207 32 32 0 0 0-2.692 2.22 32 32 0 0 0-3.328 1.073 459 459 0 0 0-5.986 3.389 32 32 0 0 0-2.631 2.305 32 32 0 0 0-3.295 1.171 428 428 0 0 0-5.912 3.588 32 32 0 0 0-2.562 2.389 32 32 0 0 0-3.264 1.273 412 412 0 0 0-5.817 3.79 32 32 0 0 0-2.502 2.484 32 32 0 0 0-3.242 1.394 390 390 0 0 0-5.713 4.002 32 32 0 0 0-2.418 2.575 32 32 0 0 0-3.2 1.511 369 369 0 0 0-5.593 4.223 32 32 0 0 0-2.341 2.68 32 32 0 0 0-3.155 1.636 346 346 0 0 0-5.46 4.463 32 32 0 0 0-2.256 2.793 32 32 0 0 0-3.106 1.774 322 322 0 0 0-5.312 4.718 32 32 0 0 0-2.149 2.9 32 32 0 0 0-3.06 1.932 324 324 0 0 0-5.098 4.946 32 32 0 0 0-1.998 2.965 32 32 0 0 0-2.945 2.035 335 335 0 0 0-4.87 5.13 32 32 0 0 0-1.87 3.036 32 32 0 0 0-2.846 2.136 348 348 0 0 0-4.645 5.301 32 32 0 0 0-1.756 3.112 32 32 0 0 0-2.758 2.248 357 357 0 0 0-4.427 5.463 32 32 0 0 0-1.617 3.148 32 32 0 0 0-2.659 2.336 384 384 0 0 0-4.193 5.578 32 32 0 0 0-1.504 3.203 32 32 0 0 0-2.57 2.422 407 407 0 0 0-3.98 5.695 32 32 0 0 0-1.382 3.221 32 32 0 0 0-2.47 2.484 432 432 0 0 0-3.778 5.79 32 32 0 0 0-1.273 3.244 32 32 0 0 0-2.379 2.539 473 473 0 0 0-3.584 5.855 32 32 0 0 0-1.174 3.258 32 32 0 0 0-2.295 2.586 532 532 0 0 0-3.404 5.9 32 32 0 0 0-1.082 3.264 32 32 0 0 0-2.225 2.63 579 579 0 0 0-3.248 5.944 32 32 0 0 0-.992 3.24 32 32 0 0 0-2.152 2.65 702 702 0 0 0-3.1 5.946 32 32 0 0 0-.93 3.234 32 32 0 0 0-2.074 2.645 895 895 0 0 0-2.978 5.93 32 32 0 0 0-.881 3.234 32 32 0 0 0-2.031 2.654q-1.456 2.966-2.881 5.907a32 32 0 0 0-.838 3.21 32 32 0 0 0-2.002 2.67l-1.961 4.086-.018.041-.806 1.688a32 32 0 0 0-.809 3.174 32 32 0 0 0-1.959 2.623l-2.342 4.906-.404.848a32 32 0 0 0-.803 3.144 32 32 0 0 0-1.949 2.604q-1.346 2.808-2.715 5.633a32 32 0 0 0-.802 3.078 32 32 0 0 0-1.93 2.525q-1.365 2.78-2.733 5.51a32 32 0 0 0-.824 3.008 32 32 0 0 0-1.933 2.44 469 469 0 0 1-2.762 5.314 32 32 0 0 0-.873 2.927 32 32 0 0 0-1.95 2.332 327 327 0 0 1-2.84 5.096 32 32 0 0 0-.927 2.787 32 32 0 0 0-1.963 2.176 223 223 0 0 1-2.93 4.771 32 32 0 0 0-1.01 2.63 32 32 0 0 0-1.98 1.972q-1.511 2.251-3.043 4.375a32 32 0 0 0-1.103 2.414 32 32 0 0 0-2 1.723 112 112 0 0 1-3.147 3.853 32 32 0 0 0-1.213 2.166 32 32 0 0 0-2.017 1.432 79 79 0 0 1-3.223 3.226 32 32 0 0 0-1.328 1.868 32 32 0 0 0-2.035 1.113 164 164 0 0 1-4.164 3.365 32 32 0 0 0-1.856 2.162 32 32 0 0 0-2.58 1.221 270 270 0 0 1-4.63 3.36 32 32 0 0 0-2.055 2.173 32 32 0 0 0-2.748 1.176 384 384 0 0 1-4.903 3.3 32 32 0 0 0-2.17 2.153 32 32 0 0 0-2.857 1.129 463 463 0 0 1-5.053 3.21 32 32 0 0 0-2.27 2.142 32 32 0 0 0-2.935 1.087 592 592 0 0 1-5.19 3.15 32 32 0 0 0-2.32 2.106 32 32 0 0 0-2.964 1.04 675 675 0 0 1-5.28 3.081 32 32 0 0 0-2.377 2.088 32 32 0 0 0-2.998.996q-2.684 1.53-5.357 3.028a32 32 0 0 0-2.422 2.068 32 32 0 0 0-3.03.965 913 913 0 0 1-5.421 2.973 32 32 0 0 0-2.455 2.045 32 32 0 0 0-3.057.937q-2.69 1.448-5.478 2.926a32 32 0 0 0-2.463 2.01 32 32 0 0 0-3.069.908q-2.73 1.432-5.517 2.877a32 32 0 0 0-2.492 1.994 32 32 0 0 0-3.073.873q-2.784 1.428-5.552 2.828a32 32 0 0 0-2.526 1.98 32 32 0 0 0-3.074.844 1315 1315 0 0 1-5.592 2.787 32 32 0 0 0-2.55 1.965 32 32 0 0 0-3.114.83q-2.767 1.359-5.619 2.742a32 32 0 0 0-2.547 1.934 32 32 0 0 0-3.107.8q-2.8 1.348-5.637 2.696a32 32 0 0 0-2.568 1.914 32 32 0 0 0-3.112.776q-2.832 1.334-5.66 2.65a32 32 0 0 0-2.592 1.898 32 32 0 0 0-3.111.747q-2.854 1.317-5.68 2.605a32 32 0 0 0-2.603 1.873 32 32 0 0 0-3.121.723q-2.86 1.29-5.698 2.554a32 32 0 0 0-2.615 1.85 32 32 0 0 0-3.129.697q-2.844 1.254-5.713 2.5a32 32 0 0 0-2.62 1.817 32 32 0 0 0-3.124.664q-2.854 1.226-5.709 2.431a32 32 0 0 0-2.635 1.787 32 32 0 0 0-3.119.627q-2.863 1.194-5.714 2.36a32 32 0 0 0-2.637 1.744 32 32 0 0 0-3.104.58 710 710 0 0 1-5.693 2.258 32 32 0 0 0-2.643 1.691 32 32 0 0 0-3.084.524q-2.836 1.083-5.636 2.115a32 32 0 0 0-2.61 1.596 32 32 0 0 0-3.011.433q-2.8.991-5.467 1.877a32 32 0 0 0-2.516 1.428 32 32 0 0 0-2.855.287 455 455 0 0 1-5.729 1.705 32 32 0 0 0-2.822 1.467 32 32 0 0 0-3.2.263c-1.981.568-4.03 1.149-6.148 1.754a32 32 0 0 0-2.935 1.512 32 32 0 0 0-3.303.281 916 916 0 0 0-6.37 1.866 32 32 0 0 0-3.001 1.582 32 32 0 0 0-3.387.343q-3.24.995-6.488 2.036a32 32 0 0 0-3.035 1.683 32 32 0 0 0-3.444.438q-3.298 1.103-6.586 2.267a32 32 0 0 0-3.046 1.815 32 32 0 0 0-3.504.576q-3.307 1.236-6.616 2.556a32 32 0 0 0-3.045 1.983 32 32 0 0 0-3.57.752q-3.3 1.408-6.639 2.941a32 32 0 0 0-3.011 2.184 32 32 0 0 0-3.604.97 219 219 0 0 0-6.658 3.44 32 32 0 0 0-2.96 2.445 32 32 0 0 0-3.638 1.264 184 184 0 0 0-6.601 4.06 32 32 0 0 0-2.87 2.778 32 32 0 0 0-3.66 1.646 154 154 0 0 0-6.453 4.856 32 32 0 0 0-2.697 3.183 32 32 0 0 0-3.605 2.127 130 130 0 0 0-6.149 5.862 32 32 0 0 0-2.38 3.638 32 32 0 0 0-3.434 2.703 114 114 0 0 0-5.518 6.995 32 32 0 0 0-1.91 4.14 32 32 0 0 0-3.096 3.37 104 104 0 0 0-4.447 8.091 32 32 0 0 0-1.197 4.485 32 32 0 0 0-2.502 3.925 101 101 0 0 0-2.98 8.86 32 32 0 0 0-.38 4.619 32 32 0 0 0-1.751 4.271 106 106 0 0 0-1.36 9.069 32 32 0 0 0 .406 4.492 32 32 0 0 0-.998 4.363c-.085 2.992-.049 5.932.086 8.81a32 32 0 0 0 1.041 4.194 32 32 0 0 0-.36 4.281c.319 2.813.726 5.59 1.212 8.328a32 32 0 0 0 1.494 3.829 32 32 0 0 0 .129 4.091 158 158 0 0 0 2.02 7.766 32 32 0 0 0 1.82 3.535 32 32 0 0 0 .5 3.924q1.229 3.67 2.613 7.291a32 32 0 0 0 1.89 3.008 32 32 0 0 0 .663 3.488q1.293 3.211 2.666 6.45a32 32 0 0 0 1.982 2.911 32 32 0 0 0 .78 3.456 389 389 0 0 0 2.888 6.347 32 32 0 0 0 2.08 2.838 32 32 0 0 0 .889 3.398 380 380 0 0 0 3.111 6.26 32 32 0 0 0 2.19 2.78 32 32 0 0 0 1.02 3.396 382 382 0 0 0 3.33 6.14 32 32 0 0 0 2.283 2.696 32 32 0 0 0 1.134 3.346 362 362 0 0 0 3.567 6.047 32 32 0 0 0 2.377 2.609 32 32 0 0 0 1.257 3.307 352 352 0 0 0 3.797 5.93 32 32 0 0 0 2.477 2.523 32 32 0 0 0 1.383 3.263 345 345 0 0 0 4.025 5.793 32 32 0 0 0 2.578 2.438 32 32 0 0 0 1.514 3.217q2.1 2.847 4.244 5.632a32 32 0 0 0 2.695 2.356 32 32 0 0 0 1.649 3.176 337 337 0 0 0 4.482 5.472 32 32 0 0 0 2.778 2.237 32 32 0 0 0 1.767 3.091 314 314 0 0 0 4.738 5.325 32 32 0 0 0 2.873 2.12 32 32 0 0 0 1.91 3.036 319 319 0 0 0 4.95 5.11 32 32 0 0 0 2.982 2.013 32 32 0 0 0 2.037 2.947 298 298 0 0 0 5.207 4.928 32 32 0 0 0 3.067 1.877 32 32 0 0 0 2.193 2.885 303 303 0 0 0 5.414 4.677 32 32 0 0 0 3.143 1.733 32 32 0 0 0 2.297 2.758 295 295 0 0 0 5.64 4.443 32 32 0 0 0 3.254 1.61 32 32 0 0 0 2.428 2.654 285 285 0 0 0 5.863 4.191 32 32 0 0 0 3.328 1.453 32 32 0 0 0 2.559 2.545 280 280 0 0 0 6.076 3.916 32 32 0 0 0 3.385 1.29 32 32 0 0 0 2.68 2.42 278 278 0 0 0 6.26 3.622 32 32 0 0 0 3.44 1.123 32 32 0 0 0 2.786 2.283 280 280 0 0 0 6.424 3.315 32 32 0 0 0 3.511.963 32 32 0 0 0 2.893 2.144c2.221 1.05 4.42 2.048 6.586 3.004a32 32 0 0 0 3.55.791 32 32 0 0 0 3.026 2.018c2.201.91 4.442 1.807 6.727 2.681a32 32 0 0 0 3.539.606 32 32 0 0 0 3.086 1.855c2.296.825 4.565 1.604 6.804 2.346a32 32 0 0 0 3.614.447 32 32 0 0 0 3.181 1.713q3.419 1.049 6.94 2.03a32 32 0 0 0 3.56.267 32 32 0 0 0 3.223 1.549c2.36.607 4.696 1.171 7.006 1.703a32 32 0 0 0 3.592.108 32 32 0 0 0 3.298 1.404c2.367.494 4.71.95 7.026 1.377a32 32 0 0 0 3.6-.05 32 32 0 0 0 3.359 1.257q3.535.574 7.049 1.064a32 32 0 0 0 3.576-.205 32 32 0 0 0 3.385 1.105q3.555.427 7.091.768a32 32 0 0 0 3.53-.353 32 32 0 0 0 3.406.962q3.562.28 7.123.479a32 32 0 0 0 3.488-.494 32 32 0 0 0 3.434.824c2.384.094 4.732.157 7.04.201a32 32 0 0 0 3.507-.627 32 32 0 0 0 3.455.694c2.355 0 4.712-.016 7.076-.062a32 32 0 0 0 3.422-.752 32 32 0 0 0 3.492.564c2.297-.082 4.631-.18 7.002-.31a32 32 0 0 0 3.377-.868 32 32 0 0 0 3.453.444 378 378 0 0 0 6.973-.545 32 32 0 0 0 3.355-.979 32 32 0 0 0 3.453.33 390 390 0 0 0 6.932-.765 32 32 0 0 0 3.32-1.084 32 32 0 0 0 3.457.222 398 398 0 0 0 6.889-.98 32 32 0 0 0 3.262-1.176 32 32 0 0 0 3.486.115c2.222-.366 4.5-.754 6.828-1.177a32 32 0 0 0 3.18-1.254 32 32 0 0 0 3.435.02q3.418-.658 6.752-1.353a32 32 0 0 0 4.729-1.38 32 32 0 0 0 1.873-.038 436 436 0 0 0 6.73-1.537 32 32 0 0 0 4.635-1.488 32 32 0 0 0 1.879-.082c2.287-.563 4.49-1.133 6.613-1.686a32 32 0 0 0 4.694-1.623 32 32 0 0 0 1.869-.132 481 481 0 0 0 6.601-1.848 32 32 0 0 0 4.485-1.688 32 32 0 0 0 1.877-.172q3.296-.978 6.558-1.998a32 32 0 0 0 4.48-1.794 32 32 0 0 0 1.884-.22l1.138-.364.082-.027 4.95-1.608a32 32 0 0 0 4.248-1.756 32 32 0 0 0 1.84-.218l.728-.237h.01l5.36-1.74a32 32 0 0 0 4.251-1.762 32 32 0 0 0 1.834-.216h.037l6.06-1.973a32 32 0 0 0 4.259-1.764 32 32 0 0 0 1.84-.22l6.083-1.983a32 32 0 0 0 4.262-1.766 32 32 0 0 0 1.838-.22l6.084-1.985a32 32 0 0 0 4.258-1.77 32 32 0 0 0 1.84-.22l6.084-1.986a32 32 0 0 0 4.26-1.774 32 32 0 0 0 1.837-.222l4.555-1.49h.016l1.529-.5a32 32 0 0 0 4.246-1.77 32 32 0 0 0 1.834-.223l2.266-.744h.015l3.819-1.256a32 32 0 0 0 4.255-1.777 32 32 0 0 0 1.844-.225l6.078-2.002a32 32 0 0 0 4.268-1.783 32 32 0 0 0 1.832-.226l6.078-2.004a32 32 0 0 0 4.268-1.791 32 32 0 0 0 1.832-.227l3.002-.992h.023l3.074-1.022a32 32 0 0 0 4.252-1.79 32 32 0 0 0 1.848-.231l6.072-2.02a32 32 0 0 0 4.26-1.798 32 32 0 0 0 1.84-.233l4.463-1.488.027-.018 1.61-.535a32 32 0 0 0 4.232-1.8 32 32 0 0 0 1.836-.232l.543-.181.029-.016 5.525-1.854a32 32 0 0 0 4.268-1.816 32 32 0 0 0 1.83-.233l4.354-1.468.033-.018 1.71-.578a32 32 0 0 0 4.245-1.817 32 32 0 0 0 1.855-.244l6.06-2.057a32 32 0 0 0 4.263-1.83 32 32 0 0 0 1.834-.244l2.914-.992.027-.018 3.144-1.074a32 32 0 0 0 4.254-1.838 32 32 0 0 0 1.834-.246q3.044-1.045 6.104-2.102a32 32 0 0 0 4.226-1.84 32 32 0 0 0 1.836-.254q3.066-1.059 6.098-2.113a32 32 0 0 0 .86-.377l-31.3 79.485a32.003 32.003 0 0 0 44.506 40.132l20.776-10.773-55.932 121.885a32.003 32.003 0 0 0 30.479 45.314l503.095-21.949a32.003 32.003 0 0 0 17.616-57.71s-30.052-22.225-62.805-55.21-66.216-77.294-74.283-111.03c-7.898-33.025 2.164-94.095 16.974-143.933 5.915-19.904 12.009-37.107 17.47-51.762l2.28-.21a32 32 0 0 0 3.13-.928 32 32 0 0 0 3.243.34l6.374-.59a32 32 0 0 0 3.128-.928 32 32 0 0 0 3.245.338l6.373-.59a32 32 0 0 0 3.125-.928 32 32 0 0 0 3.248.342l6.373-.59a32 32 0 0 0 3.127-.927 32 32 0 0 0 3.246.337l6.373-.59a32 32 0 0 0 3.127-.927 32 32 0 0 0 3.246.34l6.373-.59a32 32 0 0 0 3.127-.928 32 32 0 0 0 3.244.338l6.373-.586a32 32 0 0 0 3.129-.93 32 32 0 0 0 3.244.34l6.373-.59a32 32 0 0 0 3.129-.927 32 32 0 0 0 3.244.338l6.373-.588a32 32 0 0 0 3.13-.93 32 32 0 0 0 3.241.34l6.373-.59a32 32 0 0 0 3.125-.928 32 32 0 0 0 3.248.34l6.373-.588a32 32 0 0 0 3.13-.93 32 32 0 0 0 3.244.34l6.373-.59a32 32 0 0 0 3.128-.927 32 32 0 0 0 3.245.338l6.37-.588a32 32 0 0 0 3.13-.93 32 32 0 0 0 3.244.34l6.375-.588a32 32 0 0 0 3.127-.928 32 32 0 0 0 3.246.338l6.373-.588a32 32 0 0 0 3.127-.93 32 32 0 0 0 3.246.34l6.37-.59a32 32 0 0 0 3.128-.927 32 32 0 0 0 3.246.34l6.373-.59a32 32 0 0 0 3.127-.93 32 32 0 0 0 3.246.34l6.373-.588a32 32 0 0 0 8.154-2.42 32 32 0 0 0 21.788-17.978 32 32 0 0 0-16.94-41.965l-5.892-2.504a32 32 0 0 0-1.815-.379 32 32 0 0 0-4.076-2.123l-5.89-2.502a32 32 0 0 0-1.81-.379 32 32 0 0 0-4.08-2.125l-5.89-2.502a32 32 0 0 0-1.809-.377 32 32 0 0 0-4.082-2.125l-5.89-2.502a32 32 0 0 0-1.809-.377 32 32 0 0 0-4.082-2.127l-5.89-2.502a32 32 0 0 0-1.813-.377 32 32 0 0 0-4.078-2.125l-5.891-2.518a32 32 0 0 0-1.814-.378 32 32 0 0 0-4.075-2.124l-5.89-2.503a32 32 0 0 0-1.817-.38 32 32 0 0 0-4.076-2.122l-5.89-2.502a32 32 0 0 0-1.81-.377 32 32 0 0 0-4.081-2.127l-5.889-2.5a32 32 0 0 0-1.808-.38 32 32 0 0 0-4.082-2.124l-5.891-2.504a32 32 0 0 0-1.812-.377 32 32 0 0 0-4.079-2.123l-1.174-.5 1.147-.273a32 32 0 0 0 4.379-1.418 32 32 0 0 0 1.846-.07l6.226-1.485a32 32 0 0 0 4.38-1.418 32 32 0 0 0 1.845-.07l6.224-1.486a32 32 0 0 0 4.38-1.416 32 32 0 0 0 1.845-.07l6.225-1.487a32 32 0 0 0 4.379-1.416 32 32 0 0 0 1.845-.07l6.227-1.486a32 32 0 0 0 4.379-1.418 32 32 0 0 0 1.845-.07l6.225-1.484a32 32 0 0 0 4.379-1.418 32 32 0 0 0 1.846-.07l6.224-1.485a32 32 0 0 0 4.38-1.418 32 32 0 0 0 1.845-.07l6.224-1.488a32 32 0 0 0 4.38-1.414 32 32 0 0 0 1.847-.07l6.225-1.488a32 32 0 0 0 4.37-1.414 32 32 0 0 0 1.854-.072l6.225-1.487a32 32 0 0 0 4.373-1.414 32 32 0 0 0 1.851-.072l6.225-1.486a32 32 0 0 0 4.375-1.416 32 32 0 0 0 1.852-.07l6.224-1.488a32 32 0 0 0 4.373-1.414 32 32 0 0 0 1.854-.07l6.224-1.489a32 32 0 0 0 23.854-24.753 32 32 0 0 0 .84-2.167 32 32 0 0 0-26.002-37.039l-6.305-1.105a32 32 0 0 0-1.853.045 32 32 0 0 0-4.45-1.148l-6.304-1.102a32 32 0 0 0-1.848.04 32 32 0 0 0-4.455-1.145l-6.307-1.104a32 32 0 0 0-1.85.043 32 32 0 0 0-4.452-1.147l-6.305-1.101a32 32 0 0 0-1.846.04 32 32 0 0 0-4.459-1.146l-6.302-1.103a32 32 0 0 0-1.848.043 32 32 0 0 0-4.457-1.147l-6.305-1.105a32 32 0 0 0-1.853.045 32 32 0 0 0-4.45-1.147l-6.304-1.103a32 32 0 0 0-1.848.043 32 32 0 0 0-4.457-1.148l-6.305-1.104a32 32 0 0 0-1.85.043 32 32 0 0 0-4.452-1.145l-6.305-1.103a32 32 0 0 0-1.846.04 32 32 0 0 0-4.459-1.146l-6.303-1.103a32 32 0 0 0-1.845.043 32 32 0 0 0-4.46-1.146l-6.304-1.104a32 32 0 0 0-1.853.043 32 32 0 0 0-1.891-.488 32 32 0 0 0-.088-11.391c-.449-2.29-.91-4.514-1.363-6.676a32 32 0 0 0-.74-1.74 32 32 0 0 0-.64-4.725c-.474-2.192-.954-4.349-1.429-6.47a32 32 0 0 0-.762-1.72 32 32 0 0 0-.699-4.708q-.741-3.215-1.5-6.418a32 32 0 0 0-.777-1.703 32 32 0 0 0-.748-4.674 1144 1144 0 0 0-1.567-6.393 32 32 0 0 0-.793-1.693 32 32 0 0 0-.804-4.683q-.807-3.183-1.637-6.377a32 32 0 0 0-.81-1.68 32 32 0 0 0-.858-4.672q-.84-3.172-1.705-6.36a32 32 0 0 0-.834-1.673 32 32 0 0 0-.898-4.645q-.884-3.193-1.784-6.365a32 32 0 0 0-.851-1.664 32 32 0 0 0-.955-4.648q-.914-3.168-1.86-6.358a32 32 0 0 0-.87-1.648 32 32 0 0 0-1.013-4.643 895 895 0 0 0-1.945-6.342 32 32 0 0 0-.892-1.644 32 32 0 0 0-1.065-4.612 859 859 0 0 0-2.03-6.33 32 32 0 0 0-.921-1.648 32 32 0 0 0-1.135-4.615 787 787 0 0 0-2.125-6.327 32 32 0 0 0-.94-1.625 32 32 0 0 0-1.22-4.646 712 712 0 0 0-2.232-6.318 32 32 0 0 0-.957-1.592 32 32 0 0 0-1.3-4.633 723 723 0 0 0-2.335-6.275 32 32 0 0 0-.992-1.594 32 32 0 0 0-1.397-4.654 668 668 0 0 0-2.463-6.258 32 32 0 0 0-1.025-1.576 32 32 0 0 0-1.49-4.643 597 597 0 0 0-2.606-6.238 32 32 0 0 0-1.062-1.56 32 32 0 0 0-1.614-4.651 522 522 0 0 0-2.775-6.229 32 32 0 0 0-1.096-1.53 32 32 0 0 0-1.752-4.657 470 470 0 0 0-2.959-6.196 32 32 0 0 0-1.152-1.517 32 32 0 0 0-1.904-4.647 398 398 0 0 0-3.194-6.183 32 32 0 0 0-1.216-1.502 32 32 0 0 0-2.079-4.62 340 340 0 0 0-3.466-6.154 32 32 0 0 0-1.305-1.488 32 32 0 0 0-2.29-4.596 291 291 0 0 0-3.794-6.103 32 32 0 0 0-1.428-1.486 32 32 0 0 0-2.554-4.563 240 240 0 0 0-4.235-6.053 32 32 0 0 0-1.617-1.504 32 32 0 0 0-3.006-4.658 154 154 0 0 0-5.16-6.21 32 32 0 0 0-1.861-1.432 32 32 0 0 0-3.485-4.387 171 171 0 0 0-5.584-5.545 32 32 0 0 0-1.9-1.197 32 32 0 0 0-3.785-3.98 198 198 0 0 0-5.84-4.915 32 32 0 0 0-1.904-1.002 32 32 0 0 0-3.967-3.586 223 223 0 0 0-6.037-4.402 32 32 0 0 0-1.916-.85 32 32 0 0 0-4.133-3.28 259 259 0 0 0-6.149-3.944 32 32 0 0 0-1.918-.723 32 32 0 0 0-4.26-3.01 298 298 0 0 0-6.226-3.554 32 32 0 0 0-1.908-.614 32 32 0 0 0-4.348-2.77 333 333 0 0 0-6.3-3.23 32 32 0 0 0-1.893-.52 32 32 0 0 0-4.412-2.554 368 368 0 0 0-6.36-2.951 32 32 0 0 0-1.88-.437 32 32 0 0 0-4.461-2.37 402 402 0 0 0-6.405-2.705 32 32 0 0 0-1.869-.367 32 32 0 0 0-4.504-2.203 442 442 0 0 0-6.437-2.484 32 32 0 0 0-1.875-.31 32 32 0 0 0-4.53-2.06 484 484 0 0 0-6.46-2.285 32 32 0 0 0-1.88-.257 32 32 0 0 0-4.552-1.922q-3.24-1.076-6.48-2.108a32 32 0 0 0-1.881-.21 32 32 0 0 0-4.575-1.802 578 578 0 0 0-6.49-1.94 32 32 0 0 0-1.89-.169 32 32 0 0 0-4.573-1.683 544 544 0 0 0-6.554-1.807 32 32 0 0 0-1.873-.123 32 32 0 0 0-4.606-1.586 638 638 0 0 0-6.531-1.65 32 32 0 0 0-1.883-.086 32 32 0 0 0-4.625-1.49 649 649 0 0 0-6.559-1.522 32 32 0 0 0-1.88-.049 32 32 0 0 0-4.672-1.402q-3.25-.705-6.58-1.39a32 32 0 0 0-1.874-.015 32 32 0 0 0-4.671-1.306 649 649 0 0 0-6.612-1.266 32 32 0 0 0-1.884.024 32 32 0 0 0-4.71-1.22 605 605 0 0 0-6.662-1.136 32 32 0 0 0-1.88.063 32 32 0 0 0-4.807-1.127c-2.238-.342-4.51-.676-6.818-.993a32 32 0 0 0-4.041.243 32 32 0 0 0-7.97-.778z" style="color:#000;opacity:.607219;fill:url(#b);fill-opacity:1;stroke-width:64;stroke-linecap:round;stroke-linejoin:round;stroke-dasharray:6.4,6.4;-inkscape-stroke:none;paint-order:fill markers stroke"/><path d="m83.898 1201.07 68.444 6.623-37.534 39.741M401.828 1251.85l-59.612-44.157 121.432-17.663" style="opacity:1;fill:none;fill-opacity:1;stroke:#000;stroke-width:64;stroke-linecap:round;stroke-linejoin:round;stroke-miterlimit:4;stroke-dasharray:none;stroke-dashoffset:0;stroke-opacity:1;paint-order:fill markers stroke;stop-color:#000" transform="rotate(-10.378 920.336 1305.816)"/><path d="m222.993 1530.039-90.522-183.251 90.522-72.86 103.769 66.236z" style="opacity:1;fill:#fff;fill-opacity:1;stroke:#000;stroke-width:64;stroke-linecap:round;stroke-linejoin:round;stroke-miterlimit:4;stroke-dasharray:none;stroke-dashoffset:0;stroke-opacity:1;paint-order:fill markers stroke;stop-color:#000" transform="rotate(-10.378 920.336 1305.816)"/><path d="M612.45 85.298c119.597 258.63 181.348 520.726 130.919 789.548" style="opacity:1;fill:none;fill-opacity:1;stroke:#f1fff2;stroke-width:32;stroke-linecap:round;stroke-linejoin:round;stroke-miterlimit:4;stroke-dasharray:none;stroke-dashoffset:0;stroke-opacity:1;paint-order:fill markers stroke;stop-color:#000" transform="rotate(-10.378 920.336 1305.816)"/><path d="M890.705 306.906c2.888 172.389-21.802 367.392-69.98 520.762" style="display:inline;fill:none;fill-opacity:1;stroke:#f1fff2;stroke-width:32;stroke-linecap:round;stroke-linejoin:round;stroke-miterlimit:4;stroke-dasharray:none;stroke-dashoffset:0;stroke-opacity:1;paint-order:fill markers stroke;stop-color:#000" transform="rotate(-10.378 920.336 1305.816)"/><g style="display:inline;fill:#6faa74;fill-opacity:1"><path d="m661.976 1226.049 53.367-115.501 86.53 168.71z" style="opacity:1;fill:#6faa74;fill-opacity:1;stroke:#000;stroke-width:64;stroke-linecap:round;stroke-linejoin:round;stroke-miterlimit:4;stroke-dasharray:none;stroke-dashoffset:0;stroke-opacity:1;paint-order:fill markers stroke;stop-color:#000" transform="rotate(-5.151 1046.111 1610.347)"/><path d="M1150.289 1075.222c0 120.717-151.86 218.577-272.577 218.577s-164.577-71.86-164.577-192.577 97.86-244.577 218.577-244.577 218.577 97.86 218.577 218.577" style="opacity:1;fill:#6faa74;fill-opacity:1;stroke:#000;stroke-width:64;stroke-linecap:round;stroke-linejoin:round;paint-order:fill markers stroke;stop-color:#000" transform="rotate(-5.151 1046.111 1610.347)"/><path d="M925.783 1058.14c-111.9 23.517-174.6 104.195-204.102 151.675 39.968 93.965 177.1 86.88 225.006 74.903 60.343-15.087 171.346-89.011 196.73-172.481-38.486-7.457-105.732-77.613-217.634-54.097" style="display:inline;fill:#6faa74;fill-opacity:1;stroke:#000;stroke-width:64;stroke-linecap:round;stroke-linejoin:round;-inkscape-stroke:none;paint-order:fill markers stroke;stop-color:#000" transform="rotate(-5.151 1046.111 1610.347)"/></g><path d="m154.049 1489.161 74.608-89.085s254.227 109.808 328.457 92.475c128.425-29.987 104.823-116.365 104.823-116.365" style="display:inline;fill:none;fill-opacity:1;stroke:#000;stroke-width:64;stroke-linecap:round;stroke-linejoin:round;stroke-miterlimit:4;stroke-dasharray:none;stroke-dashoffset:0;stroke-opacity:1;paint-order:fill markers stroke;stop-color:#000"/><path d="M460.869 832.99S225.302 727.17 168.397 649.088s-76.115-145.058 4.022-191.642 144.854 33.557 144.854 33.557-8.214-98.757 66.274-120.198c77.67-22.358 121.447 26.198 139.3 112.76 17.852 86.563-61.978 349.425-61.978 349.425" style="fill:#f55;stroke:#b10020;stroke-width:96;stroke-linecap:round;stroke-linejoin:round;stroke-miterlimit:4;stroke-dasharray:none;stroke-opacity:1;paint-order:fill markers stroke;stop-color:#000"/><path d="M1291.338 1581.25s-9.85-200.133 23.861-266.995 73.001-103.752 133.099-64.784 27.71 111.955 27.71 111.955 64.983-40.495 105.824 3.432c42.585 45.804 24.564 93.182-28.661 136.04s-261.833 80.352-261.833 80.352M734.296 535.369s-57.798-251.692-29.882-344.19S774.138 42.943 859.647 78.725c85.508 35.782 60.666 135.75 60.666 135.75s73.786-66.151 135.837-19.7c64.702 48.437 52.408 112.647-5.838 179.124-58.246 66.478-316.016 161.47-316.016 161.47" style="display:inline;fill:#f55;stroke:#b10020;stroke-width:96;stroke-linecap:round;stroke-linejoin:round;stroke-miterlimit:4;stroke-dasharray:none;stroke-opacity:1;paint-order:fill markers stroke;stop-color:#000"/></g></svg>