<svg xmlns="http://www.w3.org/2000/svg" width="1706.667" height="1706.667"><g style="display:inline"><path d="M1395.945 867.895c70.799 131.454 185.383 239.025 198.707 401.829q-44.157-28.703-79.483 13.247c91.022 54.7 58.514 175.917 81.69 267.15l-99.352 6.623c66.758 58.919 81.772 128.186 90.521 198.706l-494.507 2.208c-24.38-41.481 23.115-208.563 66.236-227.043 0 0 3.379-20.016-75.354-9.455 28.741-247.273 185.695-422.177 311.542-653.265" style="display:inline;fill:#1d2f23;stroke:#1d2f23;stroke-width:64;stroke-linecap:round;stroke-linejoin:round;-inkscape-stroke:none;paint-order:fill markers stroke;stop-color:#000"/><path d="m946.008 1341.686-64.785 239.508 62.821-25.522-51.042 200.244 459.384-15.705s-127.607-94.233-149.202-184.539 51.043-253.25 51.043-253.25z" style="opacity:1;fill:#f1fff2;fill-opacity:1;stroke:#f1fff2;stroke-width:64;stroke-linecap:round;stroke-linejoin:round;stroke-miterlimit:4;stroke-dasharray:none;stroke-dashoffset:0;stroke-opacity:1;paint-order:fill markers stroke;stop-color:#000"/><path d="M214.247 510.634C361.204 600.801 512.42 726.377 615.904 849.4M136.307 315.67c250.057 136.62 455.696 310.46 575.2 556.482" style="display:inline;fill:none;fill-opacity:1;stroke:#69a66e;stroke-width:32;stroke-linecap:round;stroke-linejoin:round;stroke-miterlimit:4;stroke-dasharray:none;stroke-dashoffset:0;stroke-opacity:1;paint-order:fill markers stroke;stop-color:#000" transform="rotate(13.417 863.964 1629.108)"/><g style="fill:#6faa74;fill-opacity:1"><path d="M792.618 1048.728c0 120.717-155.86 218.577-276.577 218.577s-160.577-55.86-160.577-176.577S453.324 830.15 574.04 830.15c120.716 0 218.577 97.86 218.577 218.577" style="display:inline;fill:#6faa74;fill-opacity:1;stroke:#000;stroke-width:64;stroke-linecap:round;stroke-linejoin:round;paint-order:fill markers stroke;stop-color:#000" transform="rotate(13.417 863.964 1629.108)"/></g><path d="M842.137 837.878s-51.767-169.51-49.824-352.23c2.136-201.013 74.562-419.053 142.89-424.996s183.079 188.043 214.878 326.462c31.8 138.42 5.542 445.973 5.542 445.973z" style="opacity:1;fill:#69a66e;fill-opacity:1;stroke:#69a66e;stroke-width:64;stroke-linecap:round;stroke-miterlimit:4;stroke-dasharray:none;stroke-dashoffset:0;stroke-opacity:1;paint-order:fill markers stroke;stop-color:#000" transform="rotate(13.417 863.964 1629.108)"/><path d="M1299.055 1153.559s-.108-10.821-.952-28.418a1183 1183 0 0 0-1.894-30.973c-.869-11.681-2-24.552-3.473-38.105s-3.289-27.788-5.523-42.202c-2.235-14.413-4.89-29.004-8.043-43.267a514 514 0 0 0-5.115-21.086 403 403 0 0 0-5.922-20.213c-2.115-6.55-4.374-12.892-6.787-18.963-2.414-6.07-4.983-11.87-7.715-17.334s-5.935-10.786-9.54-15.96c-3.604-5.176-7.61-10.206-11.948-15.085s-9.008-9.61-13.94-14.185c-4.932-4.577-10.126-9-15.514-13.266a324 324 0 0 0-16.67-12.324 392 392 0 0 0-17.41-11.364c-11.76-7.25-23.737-13.847-35.37-19.76-11.635-5.912-22.926-11.14-33.321-15.66A665 665 0 0 0 1071.984 764c-16.085-6.137-26.353-9.318-26.353-9.318-106.831-15.988-232.175 6.97-312.625 60.013-101.267 66.77-136.887 176.63-198.707 211.955s-225.2 77.273-280.397 83.897c-55.196 6.623-183.25 6.625-161.172 123.64 22.079 117.017 112.6 282.605 377.541 247.28s313.516-44.158 536.508-88.315c22.898-4.534 53.848-18.32 86.828-36.947l213.871-11.428-92.925-75.255c5.357-4.841 10.6-9.719 15.632-14.637l142.077-2.375-84.881-69.668c3.48-6.554 6.48-13.02 8.627-19.307 1.052-3.081 2.033-6.627 3.047-9.976" style="display:inline;opacity:1;fill:#f1fff2;stroke:#f1fff2;stroke-width:64;stroke-linecap:round;stroke-linejoin:round;stroke-miterlimit:4;stroke-dasharray:6.4,6.4;stroke-dashoffset:0;stroke-opacity:1;paint-order:fill markers stroke;stop-color:#000" transform="rotate(13.417 863.964 1629.108)"/><path d="M880.931 744.045c-117.015 27.598-258.318 172.212-258.318 172.212-1.66-83.046-11.333-166.82 112.6-238.448-124.694-7.456-249.287-15.117-408.451 46.365 0 0 303.226-263.622 490.142-280.396 172.212-15.455 264.942 37.533 264.942 37.533-.193-45.683-31.458-88.26-90.522-128.055 0 0 295.852 97.145 333.385 194.29 37.533 97.146 28.702 167.797 28.702 167.797l-243.752 34.923s-111.712-33.82-228.728-6.221" style="display:inline;fill:#1d2f23;stroke:#1d2f23;stroke-width:64;stroke-linecap:round;stroke-linejoin:round;-inkscape-stroke:none;paint-order:fill markers stroke;stop-color:#000" transform="rotate(13.417 863.964 1629.108)"/><path d="M1102.19 61.096c-75.04 26.2-132.48 347.993-129.946 438.252 2.256 80.361-4.562 287.038-6.546 345.626 57.762 366.898 248.74 287.28 370.746 293.043 52.704-142.893 141.49-436.016 76.239-649.801-89.337-292.698-261.83-444.11-310.492-427.12" style="display:inline;opacity:1;fill:#f1fff2;stroke:#f1fff2;stroke-width:64;stroke-linecap:round;stroke-linejoin:round;stroke-miterlimit:4;stroke-dasharray:6.4,6.4;stroke-dashoffset:0;stroke-opacity:1;paint-order:fill markers stroke;stop-color:#000" transform="rotate(13.417 863.964 1629.108)"/><path d="M132.47 1346.788s79.96 128.833 202.377 126.34 264.256-17.303 337.306-148.133" style="display:inline;fill:#4ce64c;fill-opacity:1;stroke:#000;stroke-width:64;stroke-linecap:round;stroke-linejoin:round;stroke-miterlimit:4;stroke-dasharray:none;stroke-dashoffset:0;stroke-opacity:1;paint-order:fill markers stroke;stop-color:#000" transform="rotate(13.417 863.964 1629.108)"/><path d="m83.898 1201.07 68.444 6.623-37.534 39.741M401.828 1251.85l-59.612-44.157 121.432-17.663" style="opacity:1;fill:none;fill-opacity:1;stroke:#000;stroke-width:64;stroke-linecap:round;stroke-linejoin:round;stroke-miterlimit:4;stroke-dasharray:none;stroke-dashoffset:0;stroke-opacity:1;paint-order:fill markers stroke;stop-color:#000" transform="rotate(13.417 863.964 1629.108)"/><path d="m132.47 1346.788 90.523-72.86s149.513 126.87 283.047 97.742c128.85-28.107 165.649-48.62 165.649-48.62" style="opacity:1;fill:#f1fff2;fill-opacity:1;stroke:#000;stroke-width:64;stroke-linecap:round;stroke-linejoin:round;stroke-miterlimit:4;stroke-dasharray:none;stroke-dashoffset:0;stroke-opacity:1;paint-order:fill markers stroke;stop-color:#000" transform="rotate(13.417 863.964 1629.108)"/><path d="m222.993 1530.039-90.522-183.251 90.522-72.86 103.769 66.236z" style="opacity:1;fill:#fff;fill-opacity:1;stroke:#000;stroke-width:64;stroke-linecap:round;stroke-linejoin:round;stroke-miterlimit:4;stroke-dasharray:none;stroke-dashoffset:0;stroke-opacity:1;paint-order:fill markers stroke;stop-color:#000" transform="rotate(13.417 863.964 1629.108)"/><path d="m661.976 1226.049 53.367-115.501 86.53 168.71z" style="opacity:1;fill:#000;fill-opacity:1;stroke:#000;stroke-width:64;stroke-linecap:round;stroke-linejoin:round;stroke-miterlimit:4;stroke-dasharray:none;stroke-dashoffset:0;stroke-opacity:1;paint-order:fill markers stroke;stop-color:#000" transform="rotate(13.417 863.964 1629.108)"/><path d="M1150.289 1075.222c0 120.717-151.86 218.577-272.577 218.577s-164.577-71.86-164.577-192.577 97.86-244.577 218.577-244.577 218.577 97.86 218.577 218.577" style="opacity:1;fill:#6faa74;fill-opacity:1;stroke:#000;stroke-width:64;stroke-linecap:round;stroke-linejoin:round;paint-order:fill markers stroke;stop-color:#000" transform="rotate(13.417 863.964 1629.108)"/><path d="M422.098 125.101c177.002 223.301 298.59 463.56 312.717 736.706" style="opacity:1;fill:none;fill-opacity:1;stroke:#f1fff2;stroke-width:32;stroke-linecap:round;stroke-linejoin:round;stroke-miterlimit:4;stroke-dasharray:none;stroke-dashoffset:0;stroke-opacity:1;paint-order:fill markers stroke;stop-color:#000" transform="rotate(13.417 863.964 1629.108)"/><path d="M711.568 296.293c57.336 162.6 95.675 355.385 98.55 516.12" style="display:inline;fill:none;fill-opacity:1;stroke:#f1fff2;stroke-width:32;stroke-linecap:round;stroke-linejoin:round;stroke-miterlimit:4;stroke-dasharray:none;stroke-dashoffset:0;stroke-opacity:1;paint-order:fill markers stroke;stop-color:#000" transform="rotate(13.417 863.964 1629.108)"/><path d="M752.918 1227.427s59.815-133.98 167.047-179.151c136.516-57.508 206.114 72.944 206.114 72.944" style="fill:none;fill-opacity:1;stroke:#000;stroke-width:64;stroke-linecap:round;stroke-linejoin:round;stroke-opacity:1;paint-order:fill markers stroke;stop-color:#000" transform="rotate(13.417 863.964 1629.108)"/><g style="fill:#0f0;stroke:#fff;stroke-width:96;stroke-miterlimit:4;stroke-dasharray:none;paint-order:stroke fill markers"><path d="M501.307 429.38a48 48 0 0 0-41.075 54.045l35.688 261.752a48 48 0 0 0 54.045 41.074 48 48 0 0 0 41.074-54.045l-35.688-261.75a48 48 0 0 0-54.044-41.076m42.172 309.312L507.791 476.94m-230.856-12.596a48 48 0 0 0-17.666 6.22 48 48 0 0 0-16.822 65.764L394.912 793.61a48 48 0 0 0 65.764 16.823 48 48 0 0 0 16.824-65.764L325.035 487.388a48 48 0 0 0-48.1-23.043m159.27 304.795L283.742 511.859M118.792 647.88a48 48 0 0 0-31.127 19.512 48 48 0 0 0 11.297 66.935l227.765 161.979a48 48 0 0 0 66.936-11.297 48 48 0 0 0-11.299-66.936L154.6 656.093a48 48 0 0 0-35.807-8.213m235.754 209.31L126.782 695.21" style="color:#000;fill:#0f0;stroke:#000;stroke-width:96;stroke-linecap:round;stroke-linejoin:round;stroke-miterlimit:4;stroke-dasharray:none;paint-order:stroke fill markers" transform="rotate(-.76 -1747.552 2310.377)"/></g></g></svg>