<svg xmlns="http://www.w3.org/2000/svg" width="1706.667" height="1706.667"><g style="display:inline"><path d="M1298.031 865.098c70.798 131.454 185.382 239.025 198.706 401.828q-44.157-28.702-79.482 13.247c91.022 54.7 58.514 175.917 81.69 267.15l-99.353 6.623c66.759 58.919 81.773 128.186 90.522 198.707l-494.507 2.208c-24.38-41.482 23.114-208.564 66.235-227.044 0 0 3.38-20.015-75.353-9.455 28.741-247.272 185.695-422.176 311.542-653.264" style="display:inline;fill:#1d2f23;stroke:#1d2f23;stroke-width:64;stroke-linecap:round;stroke-linejoin:round;-inkscape-stroke:none;paint-order:fill markers stroke;stop-color:#000"/><path d="m848.093 1338.888-64.785 239.508 62.822-25.521-51.043 200.244 459.384-15.706s-127.606-94.232-149.201-184.539 51.042-253.25 51.042-253.25z" style="opacity:1;fill:#f1fff2;fill-opacity:1;stroke:#f1fff2;stroke-width:64;stroke-linecap:round;stroke-linejoin:round;stroke-miterlimit:4;stroke-dasharray:none;stroke-dashoffset:0;stroke-opacity:1;paint-order:fill markers stroke;stop-color:#000"/><path d="M171.254 641.803C336.32 691.6 514.516 774.555 645.903 867.19M46.262 473.094c276.592 68.48 519.704 184.26 697.886 391.768" style="display:inline;fill:none;fill-opacity:1;stroke:#69a66e;stroke-width:32;stroke-linecap:round;stroke-linejoin:round;stroke-miterlimit:4;stroke-dasharray:none;stroke-dashoffset:0;stroke-opacity:1;paint-order:fill markers stroke;stop-color:#000"/><path d="M792.618 1048.728c0 120.717-155.86 218.577-276.577 218.577s-160.577-55.86-160.577-176.577S453.324 830.15 574.04 830.15c120.716 0 218.577 97.86 218.577 218.577" style="display:inline;fill:#4ce64c;stroke:#000;stroke-width:64;stroke-linecap:round;stroke-linejoin:round;paint-order:fill markers stroke;stop-color:#000"/><path d="M498.974 962.622v170.004" style="opacity:1;fill:#fff;fill-opacity:1;stroke:#000;stroke-width:48;stroke-linecap:round;stroke-linejoin:round;stroke-miterlimit:4;stroke-dasharray:none;stroke-dashoffset:0;stroke-opacity:1;paint-order:fill markers stroke;stop-color:#000"/><path d="M574.041 830.15c-76.876 0-144.434 56.748-183.4 129.123 60.054 37.612 203.778-26.936 331.183-71.56-38.91-35.732-90.79-57.563-147.783-57.563" style="display:inline;fill:#6faa74;stroke:#000;stroke-width:64;stroke-linecap:round;stroke-linejoin:round;paint-order:fill markers stroke;stop-color:#000"/><path d="M852.983 1058.849s154.084 87.588 332.806 125.656c196.613 41.88 425.215 18.896 445.957-46.478s-143.448-219.774-271.56-281.078c-128.113-61.304-433.964-74.246-433.964-74.246z" style="opacity:1;fill:#69a66e;fill-opacity:1;stroke:#69a66e;stroke-width:64;stroke-linecap:round;stroke-miterlimit:4;stroke-dasharray:none;stroke-dashoffset:0;stroke-opacity:1;paint-order:fill markers stroke;stop-color:#000"/><path d="M1299.055 1153.559s-.108-10.821-.952-28.418a1183 1183 0 0 0-1.894-30.973c-.869-11.681-2-24.552-3.473-38.105s-3.289-27.788-5.523-42.202c-2.235-14.413-4.89-29.004-8.043-43.267a514 514 0 0 0-5.115-21.086 403 403 0 0 0-5.922-20.213c-2.115-6.55-4.374-12.892-6.787-18.963-2.414-6.07-4.983-11.87-7.715-17.334s-5.935-10.786-9.54-15.96c-3.604-5.176-7.61-10.206-11.948-15.085s-9.008-9.61-13.94-14.185c-4.932-4.577-10.126-9-15.514-13.266a324 324 0 0 0-16.67-12.324 392 392 0 0 0-17.41-11.364c-11.76-7.25-23.737-13.847-35.37-19.76-11.635-5.912-22.926-11.14-33.321-15.66A665 665 0 0 0 1071.984 764c-16.085-6.137-26.353-9.318-26.353-9.318-106.831-15.988-232.175 6.97-312.625 60.013-101.267 66.77-136.887 176.63-198.707 211.955s-225.2 77.273-280.397 83.897c-55.196 6.623-183.25 6.625-161.172 123.64 22.079 117.017 112.6 282.605 377.541 247.28s313.516-44.158 536.508-88.315c22.898-4.534 53.848-18.32 86.828-36.947l213.871-11.428-92.925-75.255c5.357-4.841 10.6-9.719 15.632-14.637l142.077-2.375-84.881-69.668c3.48-6.554 6.48-13.02 8.627-19.307 1.052-3.081 2.033-6.627 3.047-9.976" style="display:inline;opacity:1;fill:#f1fff2;stroke:#f1fff2;stroke-width:64;stroke-linecap:round;stroke-linejoin:round;stroke-miterlimit:4;stroke-dasharray:6.4,6.4;stroke-dashoffset:0;stroke-opacity:1;paint-order:fill markers stroke;stop-color:#000"/><path d="M880.931 744.045c-117.015 27.598-258.318 172.212-258.318 172.212-1.66-83.046-11.333-166.82 112.6-238.448-124.694-7.456-249.287-15.117-408.451 46.365 0 0 303.226-263.622 490.142-280.396 172.212-15.455 264.942 37.533 264.942 37.533-.193-45.683-31.458-88.26-90.522-128.055 0 0 279.964 104.892 333.385 194.29 108.185 181.044 92.73 439.362 92.73 439.362l-307.78-236.642s-111.712-33.82-228.728-6.221" style="display:inline;fill:#1d2f23;stroke:#1d2f23;stroke-width:64;stroke-linecap:round;stroke-linejoin:round;-inkscape-stroke:none;paint-order:fill markers stroke;stop-color:#000"/><path d="M1523.884 1563.697c-77.765 16.436-276.14-146.914-315.454-200.612-35.003-47.81-136.078-165.435-164.776-198.757-83.626-194.699-25.936-403.07 56.218-347.417 161.866 24.706 466.937 207.878 499.346 366.528 43.218 211.56-24.905 369.6-75.334 380.258" style="display:inline;opacity:1;fill:#f1fff2;stroke:#f1fff2;stroke-width:63.9997;stroke-linecap:round;stroke-linejoin:round;stroke-miterlimit:4;stroke-dasharray:6.39997,6.39997;stroke-dashoffset:0;stroke-opacity:1;paint-order:fill markers stroke;stop-color:#000"/><path d="m83.898 1201.07 68.444 6.623-37.534 39.741M401.828 1251.85l-59.612-44.157 121.432-17.663M132.47 1346.788l90.523-72.86c2.97 3.471 139.878 74.126 196.498 110.393" style="opacity:1;fill:none;fill-opacity:1;stroke:#000;stroke-width:64;stroke-linecap:round;stroke-linejoin:round;stroke-miterlimit:4;stroke-dasharray:none;stroke-dashoffset:0;stroke-opacity:1;paint-order:fill markers stroke;stop-color:#000"/><path d="m222.993 1530.039-90.522-183.251 90.522-72.86 103.769 66.236z" style="opacity:1;fill:#fff;fill-opacity:1;stroke:#000;stroke-width:64;stroke-linecap:round;stroke-linejoin:round;stroke-miterlimit:4;stroke-dasharray:none;stroke-dashoffset:0;stroke-opacity:1;paint-order:fill markers stroke;stop-color:#000"/><path d="m661.976 1226.049 53.367-115.501 86.53 168.71z" style="opacity:1;fill:#000;fill-opacity:1;stroke:#000;stroke-width:64;stroke-linecap:round;stroke-linejoin:round;stroke-miterlimit:4;stroke-dasharray:none;stroke-dashoffset:0;stroke-opacity:1;paint-order:fill markers stroke;stop-color:#000"/><path d="M1150.289 1075.222c0 120.717-151.86 218.577-272.577 218.577s-164.577-71.86-164.577-192.577 97.86-244.577 218.577-244.577 218.577 97.86 218.577 218.577" style="opacity:1;fill:#4ce64c;stroke:#000;stroke-width:64;stroke-linecap:round;stroke-linejoin:round;paint-order:fill markers stroke;stop-color:#000"/><path d="M841.19 982.493v189.874" style="opacity:1;fill:#fff;fill-opacity:1;stroke:#000;stroke-width:48;stroke-linecap:round;stroke-linejoin:round;stroke-miterlimit:4;stroke-dasharray:none;stroke-dashoffset:0;stroke-opacity:1;paint-order:fill markers stroke;stop-color:#000"/><path d="M931.713 856.645c-65.932 0-124.999 36.988-165.074 90.19 116.127 144.738 243.915 187.448 383.593 126.12-1.222-119.667-98.563-216.31-218.52-216.31" style="opacity:1;fill:#6faa74;stroke:#000;stroke-width:64;stroke-linecap:round;stroke-linejoin:round;paint-order:fill markers stroke;stop-color:#000"/><path d="M191.15 316.335c261.721 112.672 482.696 266.55 624.651 500.337" style="opacity:1;fill:none;fill-opacity:1;stroke:#f1fff2;stroke-width:32;stroke-linecap:round;stroke-linejoin:round;stroke-miterlimit:4;stroke-dasharray:none;stroke-dashoffset:0;stroke-opacity:1;paint-order:fill markers stroke;stop-color:#000"/><path d="M527.183 329.799C654.764 445.77 793.475 652.55 872.223 792.703" style="display:inline;fill:none;fill-opacity:1;stroke:#f1fff2;stroke-width:32;stroke-linecap:round;stroke-linejoin:round;stroke-miterlimit:4;stroke-dasharray:none;stroke-dashoffset:0;stroke-opacity:1;paint-order:fill markers stroke;stop-color:#000"/></g></svg>