<svg xmlns="http://www.w3.org/2000/svg" xmlns:xlink="http://www.w3.org/1999/xlink" width="1706.667" height="1706.667"><defs><linearGradient xlink:href="#a" id="d" x1="662.355" x2="657.939" y1="984.7" y2="1401.984" gradientUnits="userSpaceOnUse"/><linearGradient id="a"><stop offset="0" style="stop-color:#006cff;stop-opacity:1"/><stop offset="1" style="stop-color:#006cff;stop-opacity:0"/></linearGradient><linearGradient xlink:href="#a" id="b" x1="662.355" x2="657.939" y1="984.7" y2="1401.984" gradientUnits="userSpaceOnUse"/><linearGradient xlink:href="#a" id="c" x1="662.355" x2="657.939" y1="984.7" y2="1401.984" gradientUnits="userSpaceOnUse"/></defs><g style="display:inline"><g style="display:inline"><path d="M171.254 641.803C336.32 691.6 514.516 774.555 645.903 867.19M46.262 473.094c276.592 68.48 519.704 184.26 697.886 391.768" style="display:inline;fill:none;fill-opacity:1;stroke:#69a66e;stroke-width:32;stroke-linecap:round;stroke-linejoin:round;stroke-miterlimit:4;stroke-dasharray:none;stroke-dashoffset:0;stroke-opacity:1;paint-order:fill markers stroke;stop-color:#000" transform="rotate(18.458 56.035 1436.116)"/><path d="M171.254 641.803C336.32 691.6 514.516 774.555 645.903 867.19M46.262 473.094c276.592 68.48 519.704 184.26 697.886 391.768" style="display:inline;fill:none;fill-opacity:1;stroke:#004097;stroke-width:32;stroke-linecap:round;stroke-linejoin:round;stroke-miterlimit:4;stroke-dasharray:none;stroke-dashoffset:0;stroke-opacity:1;paint-order:fill markers stroke;stop-color:#000" transform="rotate(18.458 56.035 1436.116)"/><path d="M792.618 1048.728c0 120.717-155.86 218.577-276.577 218.577s-160.577-55.86-160.577-176.577S453.324 830.15 574.04 830.15c120.716 0 218.577 97.86 218.577 218.577" style="display:inline;fill:#4ce64c;stroke:#000;stroke-width:64;stroke-linecap:round;stroke-linejoin:round;paint-order:fill markers stroke;stop-color:#000" transform="rotate(18.458 56.035 1436.116)"/><path d="M498.974 962.622v38.85" style="opacity:1;fill:#fff;fill-opacity:1;stroke:#000;stroke-width:48;stroke-linecap:round;stroke-linejoin:round;stroke-miterlimit:4;stroke-dasharray:none;stroke-dashoffset:0;stroke-opacity:1;paint-order:fill markers stroke;stop-color:#000" transform="rotate(18.458 56.035 1436.116)"/><path d="M852.983 1058.849s154.084 87.588 332.806 125.656c196.613 41.88 425.215 18.896 445.957-46.478s-143.448-219.774-271.56-281.078c-128.113-61.304-433.964-74.246-433.964-74.246z" style="opacity:1;fill:#69a66e;fill-opacity:1;stroke:#69a66e;stroke-width:64;stroke-linecap:round;stroke-miterlimit:4;stroke-dasharray:none;stroke-dashoffset:0;stroke-opacity:1;paint-order:fill markers stroke;stop-color:#000" transform="rotate(18.458 56.035 1436.116)"/><path d="M1299.055 1153.559s-.108-10.821-.952-28.418a1183 1183 0 0 0-1.894-30.973c-.869-11.681-2-24.552-3.473-38.105s-3.289-27.788-5.523-42.202c-2.235-14.413-4.89-29.004-8.043-43.267a514 514 0 0 0-5.115-21.086 403 403 0 0 0-5.922-20.213c-2.115-6.55-4.374-12.892-6.787-18.963-2.414-6.07-4.983-11.87-7.715-17.334s-5.935-10.786-9.54-15.96c-3.604-5.176-7.61-10.206-11.948-15.085s-9.008-9.61-13.94-14.185c-4.932-4.577-10.126-9-15.514-13.266a324 324 0 0 0-16.67-12.324 392 392 0 0 0-17.41-11.364c-11.76-7.25-23.737-13.847-35.37-19.76-11.635-5.912-22.926-11.14-33.321-15.66A665 665 0 0 0 1071.984 764c-16.085-6.137-26.353-9.318-26.353-9.318-106.831-15.988-232.175 6.97-312.625 60.013-101.267 66.77-136.887 176.63-198.707 211.955s-225.2 77.273-280.397 83.897c-55.196 6.623-183.25 6.625-161.172 123.64 22.079 117.017 112.6 282.605 377.541 247.28s313.516-44.158 536.508-88.315c22.898-4.534 53.848-18.32 86.828-36.947l213.871-11.428-92.925-75.255c5.357-4.841 10.6-9.719 15.632-14.637l142.077-2.375-84.881-69.668c3.48-6.554 6.48-13.02 8.627-19.307 1.052-3.081 2.033-6.627 3.047-9.976" style="display:inline;opacity:1;fill:#f1fff2;stroke:#f1fff2;stroke-width:64;stroke-linecap:round;stroke-linejoin:round;stroke-miterlimit:4;stroke-dasharray:6.4,6.4;stroke-dashoffset:0;stroke-opacity:1;paint-order:fill markers stroke;stop-color:#000" transform="rotate(18.458 56.035 1436.116)"/><path d="m901.883 749.645-86.153 324.837 21.44 12.186s157.114 89.764 341.953 129.135c101.945 21.714 210.65 26.6 298.873 17.515 44.111-4.542 83.018-12.433 114.594-24.748 31.576-12.314 59.511-28.886 69.658-60.865 9.965-31.404-1.98-60.536-18.58-88.773-16.6-28.238-40.701-57.063-69.26-85.604-57.117-57.08-131.72-112.374-200.41-145.244-72.21-34.553-181.31-51.975-275.092-63.027-93.781-11.053-171.332-14.325-171.332-14.325z" style="color:#000;font-variation-settings:normal;opacity:1;vector-effect:none;fill:url(#b);fill-opacity:1;stroke-width:64;stroke-linecap:round;stroke-linejoin:round;stroke-miterlimit:4;stroke-dasharray:6.4,6.4;stroke-dashoffset:0;stroke-opacity:1;-inkscape-stroke:none;paint-order:fill markers stroke;stop-color:#000;stop-opacity:1" transform="rotate(18.458 56.035 1436.116)"/><path d="m978.592 717.682.006.002q-3.416-.014-6.817.015a32 32 0 0 0-3.386.703 32 32 0 0 0-3.41-.603q-3.394.07-6.801.185a32 32 0 0 0-3.364.787 32 32 0 0 0-3.412-.517q-3.399.154-6.8.353a32 32 0 0 0-3.334.87 32 32 0 0 0-3.422-.436q-3.4.238-6.79.52a32 32 0 0 0-3.316.95 32 32 0 0 0-3.43-.35q-3.392.32-6.761.68a32 32 0 0 0-3.299 1.032 32 32 0 0 0-3.443-.268q-3.371.402-6.75.848a32 32 0 0 0-3.266 1.11 32 32 0 0 0-3.441-.184q-3.37.486-6.737 1.016a32 32 0 0 0-3.236 1.189 32 32 0 0 0-3.45-.1q-3.36.57-6.71 1.18a32 32 0 0 0-3.211 1.272 32 32 0 0 0-3.457-.014q-3.347.652-6.676 1.346a32 32 0 0 0-3.19 1.353 32 32 0 0 0-3.464.076q-3.322.736-6.645 1.518a32 32 0 0 0-3.156 1.437 32 32 0 0 0-3.463.164 505 505 0 0 0-6.62 1.694 32 32 0 0 0-3.122 1.523 32 32 0 0 0-3.46.256q-3.298.915-6.585 1.875a32 32 0 0 0-3.084 1.607 32 32 0 0 0-3.463.354q-3.282 1.008-6.543 2.063a32 32 0 0 0-3.049 1.699 32 32 0 0 0-3.466.455q-3.246 1.099-6.499 2.256a32 32 0 0 0-3.003 1.793 32 32 0 0 0-3.452.558 428 428 0 0 0-6.463 2.465 32 32 0 0 0-2.949 1.887 32 32 0 0 0-3.441.666 411 411 0 0 0-6.402 2.678 32 32 0 0 0-2.91 1.994 32 32 0 0 0-3.44.787 389 389 0 0 0-6.34 2.908 32 32 0 0 0-2.842 2.096 32 32 0 0 0-3.422.91 369 369 0 0 0-6.261 3.146 32 32 0 0 0-2.785 2.215 32 32 0 0 0-3.399 1.041 346 346 0 0 0-6.176 3.406 32 32 0 0 0-2.72 2.34 32 32 0 0 0-3.375 1.186 322 322 0 0 0-6.077 3.683 32 32 0 0 0-2.634 2.467 32 32 0 0 0-3.36 1.35 324 324 0 0 0-5.904 3.945 32 32 0 0 0-2.5 2.557 32 32 0 0 0-3.264 1.47 335 335 0 0 0-5.715 4.17 32 32 0 0 0-2.386 2.649 32 32 0 0 0-3.184 1.59 348 348 0 0 0-5.523 4.377 32 32 0 0 0-2.287 2.744 32 32 0 0 0-3.12 1.715 357 357 0 0 0-5.337 4.576 32 32 0 0 0-2.159 2.804 32 32 0 0 0-3.035 1.819 384 384 0 0 0-5.13 4.732 32 32 0 0 0-2.057 2.88 32 32 0 0 0-2.965 1.92 407 407 0 0 0-4.94 4.884 32 32 0 0 0-1.939 2.92 32 32 0 0 0-2.877 1.998 432 432 0 0 0-4.76 5.014 32 32 0 0 0-1.836 2.96 32 32 0 0 0-2.799 2.07 473 473 0 0 0-4.58 5.114 32 32 0 0 0-1.74 2.992 32 32 0 0 0-2.724 2.131 532 532 0 0 0-4.41 5.191 32 32 0 0 0-1.653 3.016 32 32 0 0 0-2.662 2.186 579 579 0 0 0-4.266 5.261 32 32 0 0 0-1.56 3.008 32 32 0 0 0-2.594 2.22 702 702 0 0 0-4.121 5.29 32 32 0 0 0-1.496 3.014 32 32 0 0 0-2.518 2.226 895 895 0 0 0-3.998 5.297 32 32 0 0 0-1.449 3.024 32 32 0 0 0-2.475 2.244q-1.967 2.656-3.898 5.29a32 32 0 0 0-1.402 3.008 32 32 0 0 0-2.452 2.266l-2.664 3.666-.025.037-1.098 1.514a32 32 0 0 0-1.367 2.976 32 32 0 0 0-2.398 2.227l-3.188 4.404-.55.762a32 32 0 0 0-1.356 2.95 32 32 0 0 0-2.387 2.208q-1.83 2.52-3.685 5.051a32 32 0 0 0-1.344 2.885 32 32 0 0 0-2.354 2.135 792 792 0 0 1-3.68 4.927 32 32 0 0 0-1.353 2.81 32 32 0 0 0-2.34 2.052 469 469 0 0 1-3.673 4.73 32 32 0 0 0-1.387 2.723 32 32 0 0 0-2.338 1.943 328 328 0 0 1-3.711 4.5 32 32 0 0 0-1.414 2.574 32 32 0 0 0-2.324 1.787 223 223 0 0 1-3.74 4.166 32 32 0 0 0-1.467 2.403 32 32 0 0 0-2.305 1.584 160 160 0 0 1-3.781 3.756 32 32 0 0 0-1.52 2.175 32 32 0 0 0-2.277 1.334 112 112 0 0 1-3.79 3.225 32 32 0 0 0-1.583 1.91 32 32 0 0 0-2.242 1.045 80 80 0 0 1-3.752 2.594 32 32 0 0 0-1.643 1.597 32 32 0 0 0-2.201.729 164 164 0 0 1-4.703 2.56 32 32 0 0 0-2.215 1.792 32 32 0 0 0-2.758.736 270 270 0 0 1-5.16 2.47 32 32 0 0 0-2.412 1.768 32 32 0 0 0-2.916.662 385 385 0 0 1-5.416 2.364 32 32 0 0 0-2.522 1.726 32 32 0 0 0-3.015.596 463 463 0 0 1-5.547 2.248 32 32 0 0 0-2.62 1.697 32 32 0 0 0-3.083.541q-2.786 1.079-5.672 2.164a32 32 0 0 0-2.66 1.653 32 32 0 0 0-3.106.488q-2.858 1.05-5.746 2.08a32 32 0 0 0-2.715 1.625 32 32 0 0 0-3.129.441q-2.915 1.021-5.814 2.012a32 32 0 0 0-2.756 1.598 32 32 0 0 0-3.152.404 910 910 0 0 1-5.87 1.947 32 32 0 0 0-2.783 1.569 32 32 0 0 0-3.175.373q-2.909.939-5.916 1.89a32 32 0 0 0-2.786 1.533 32 32 0 0 0-3.181.34q-2.944.919-5.946 1.836a32 32 0 0 0-2.81 1.512 32 32 0 0 0-3.18.307q-2.995.902-5.97 1.78a32 32 0 0 0-2.842 1.493 32 32 0 0 0-3.176.277q-3.04.886-6.002 1.735a32 32 0 0 0-2.863 1.472 32 32 0 0 0-3.211.256q-2.968.838-6.022 1.686a32 32 0 0 0-2.853 1.441 32 32 0 0 0-3.201.229q-2.996.82-6.032 1.636a32 32 0 0 0-2.87 1.42 32 32 0 0 0-3.2.202q-3.027.803-6.045 1.587a32 32 0 0 0-2.89 1.4 32 32 0 0 0-3.196.175q-3.044.78-6.056 1.539a32 32 0 0 0-2.899 1.373 32 32 0 0 0-3.2.148q-3.044.755-6.064 1.488a32 32 0 0 0-2.906 1.348 32 32 0 0 0-3.203.121q-3.024.721-6.07 1.43a32 32 0 0 0-2.905 1.316 32 32 0 0 0-3.193.09q-3.027.692-6.053 1.364a32 32 0 0 0-2.914 1.283 32 32 0 0 0-3.18.055q-3.03.659-6.046 1.29a32 32 0 0 0-2.908 1.241 32 32 0 0 0-3.159.012q-3.03.616-6.006 1.195a32 32 0 0 0-2.904 1.188 32 32 0 0 0-3.127-.041q-2.986.555-5.926 1.064a32 32 0 0 0-2.853 1.1 32 32 0 0 0-3.041-.115q-2.933.47-5.717.861a32 32 0 0 0-2.73.951 32 32 0 0 0-2.862-.232q-2.91.335-5.941.644a32 32 0 0 0-3.041.936 32 32 0 0 0-3.193-.317c-2.052.202-4.174.403-6.366.618a32 32 0 0 0-3.158.957 32 32 0 0 0-3.3-.319q-3.27.329-6.6.688a32 32 0 0 0-3.239 1.015 32 32 0 0 0-3.392-.271q-3.368.393-6.75.832a32 32 0 0 0-3.29 1.11 32 32 0 0 0-3.464-.19q-3.443.492-6.887 1.045a32 32 0 0 0-3.324 1.234 32 32 0 0 0-3.55-.064q-3.476.621-6.968 1.324a32 32 0 0 0-3.353 1.4 32 32 0 0 0-3.647.097 269 269 0 0 0-7.06 1.697 32 32 0 0 0-3.356 1.606 32 32 0 0 0-3.718.306 219 219 0 0 0-7.17 2.184 32 32 0 0 0-3.352 1.87 32 32 0 0 0-3.806.589q-3.616 1.315-7.225 2.805a32 32 0 0 0-3.322 2.214 32 32 0 0 0-3.897.961 154 154 0 0 0-7.222 3.613 32 32 0 0 0-3.227 2.647 32 32 0 0 0-3.93 1.441 130 130 0 0 0-7.103 4.659 32 32 0 0 0-2.998 3.15 32 32 0 0 0-3.864 2.041 114 114 0 0 0-6.687 5.885 32 32 0 0 0-2.625 3.728 32 32 0 0 0-3.652 2.758 104 104 0 0 0-5.832 7.158 32 32 0 0 0-1.987 4.194 32 32 0 0 0-3.168 3.412 101 101 0 0 0-4.527 8.178 32 32 0 0 0-1.205 4.474 32 32 0 0 0-2.492 3.887 106 106 0 0 0-2.971 8.674 32 32 0 0 0-.41 4.492 32 32 0 0 0-1.768 4.113 117 117 0 0 0-1.502 8.682 32 32 0 0 0 .268 4.312 32 32 0 0 0-1.125 4.147 134 134 0 0 0-.309 8.41 32 32 0 0 0 .78 4.033 32 32 0 0 0-.61 4.049c.129 2.727.332 5.394.588 8.002a32 32 0 0 0 1.152 3.805 32 32 0 0 0-.214 3.95 184 184 0 0 0 1.257 7.643 32 32 0 0 0 1.319 3.3 32 32 0 0 0 .021 3.55 385 385 0 0 0 1.461 6.824 32 32 0 0 0 1.426 3.22 32 32 0 0 0 .144 3.54 389 389 0 0 0 1.698 6.764 32 32 0 0 0 1.535 3.166 32 32 0 0 0 .262 3.504q.942 3.391 1.933 6.716a32 32 0 0 0 1.653 3.13 32 32 0 0 0 .39 3.525q1.046 3.304 2.17 6.638a32 32 0 0 0 1.76 3.063 32 32 0 0 0 .514 3.496 363 363 0 0 0 2.417 6.59 32 32 0 0 0 1.87 2.996 32 32 0 0 0 .64 3.478 352 352 0 0 0 2.666 6.516 32 32 0 0 0 1.983 2.93 32 32 0 0 0 .771 3.459q1.423 3.222 2.916 6.423a32 32 0 0 0 2.098 2.862 32 32 0 0 0 .908 3.437q1.555 3.18 3.16 6.305a32 32 0 0 0 2.227 2.803 32 32 0 0 0 1.05 3.42q1.665 3.09 3.422 6.191a32 32 0 0 0 2.33 2.7 32 32 0 0 0 1.182 3.36 314 314 0 0 0 3.701 6.09 32 32 0 0 0 2.444 2.604 32 32 0 0 0 1.332 3.33 319 319 0 0 0 3.949 5.918 32 32 0 0 0 2.57 2.518 32 32 0 0 0 1.473 3.265 299 299 0 0 0 4.234 5.785 32 32 0 0 0 2.678 2.399 32 32 0 0 0 1.639 3.232c1.449 1.846 2.94 3.707 4.482 5.578a32 32 0 0 0 2.78 2.27 32 32 0 0 0 1.761 3.127 295 295 0 0 0 4.748 5.387 32 32 0 0 0 2.91 2.167 32 32 0 0 0 1.91 3.05 285 285 0 0 0 5.014 5.18 32 32 0 0 0 3.012 2.028 32 32 0 0 0 2.058 2.963q2.618 2.521 5.27 4.947a32 32 0 0 0 3.098 1.877 32 32 0 0 0 2.2 2.864 278 278 0 0 0 5.505 4.691 32 32 0 0 0 3.181 1.725 32 32 0 0 0 2.33 2.748 280 280 0 0 0 5.721 4.418 32 32 0 0 0 3.281 1.58 32 32 0 0 0 2.46 2.63 277 277 0 0 0 5.935 4.141 32 32 0 0 0 3.351 1.418 32 32 0 0 0 2.612 2.53 275 275 0 0 0 6.135 3.85 32 32 0 0 0 3.37 1.232 32 32 0 0 0 2.702 2.38 289 289 0 0 0 6.271 3.534 32 32 0 0 0 3.473 1.091 32 32 0 0 0 2.822 2.258 279 279 0 0 0 6.46 3.246 32 32 0 0 0 3.454.905 32 32 0 0 0 2.89 2.103 284 284 0 0 0 6.585 2.938 32 32 0 0 0 3.514.754 32 32 0 0 0 2.992 1.974q3.359 1.368 6.662 2.621a32 32 0 0 0 3.55.6 32 32 0 0 0 3.079 1.84q3.373 1.203 6.74 2.318a32 32 0 0 0 3.555.441 32 32 0 0 0 3.13 1.698q3.422 1.06 6.838 2.033a32 32 0 0 0 3.536.287 32 32 0 0 0 3.177 1.56q3.454.919 6.92 1.755a32 32 0 0 0 3.52.142 32 32 0 0 0 3.228 1.43 350 350 0 0 0 6.891 1.467 32 32 0 0 0 3.56.014 32 32 0 0 0 3.274 1.304q3.473.643 6.973 1.213a32 32 0 0 0 3.502-.123 32 32 0 0 0 3.332 1.186c2.274.333 4.588.655 6.943.955a32 32 0 0 0 3.478-.244 32 32 0 0 0 3.317 1.058q3.51.396 6.957.719a32 32 0 0 0 3.476-.357 32 32 0 0 0 3.338.947q3.534.283 6.955.494a32 32 0 0 0 3.461-.467 32 32 0 0 0 3.362.842q3.49.17 6.953.277a32 32 0 0 0 3.42-.57 32 32 0 0 0 3.408.742c2.251.04 4.56.07 6.928.072a32 32 0 0 0 3.353-.662 32 32 0 0 0 3.377.64q3.48-.031 6.885-.115a32 32 0 0 0 4.9-.505 32 32 0 0 0 1.848.3c2.312-.08 4.612-.182 6.898-.298a32 32 0 0 0 4.827-.63 32 32 0 0 0 1.863.257c2.35-.142 4.62-.304 6.808-.465a32 32 0 0 0 4.91-.752 32 32 0 0 0 1.862.207c2.216-.19 4.492-.395 6.826-.63a32 32 0 0 0 4.715-.85 32 32 0 0 0 1.879.167q3.418-.368 6.81-.783a32 32 0 0 0 4.73-.959 32 32 0 0 0 1.891.125l1.186-.154.086-.012 5.158-.69a32 32 0 0 0 4.494-.963 32 32 0 0 0 1.85.118l.76-.102h.01l5.584-.746a32 32 0 0 0 4.5-.967 32 32 0 0 0 1.843.117h.037l6.317-.847a32 32 0 0 0 4.506-.969 32 32 0 0 0 1.85.115l6.341-.853a32 32 0 0 0 4.51-.971 32 32 0 0 0 1.848.115l6.341-.855a32 32 0 0 0 4.508-.975 32 32 0 0 0 1.85.115l6.342-.859a32 32 0 0 0 4.51-.977 32 32 0 0 0 1.847.114l4.75-.647h.016l1.593-.217a32 32 0 0 0 4.496-.976 32 32 0 0 0 1.844.111l2.362-.322h.017l3.98-.547a32 32 0 0 0 4.508-.982 32 32 0 0 0 1.854.111l6.34-.873a32 32 0 0 0 4.517-.986 32 32 0 0 0 1.844.107l6.34-.877a32 32 0 0 0 4.52-.992 32 32 0 0 0 1.843.107l3.131-.435h.026l3.207-.45a32 32 0 0 0 4.503-.996 32 32 0 0 0 1.86.106l6.338-.893a32 32 0 0 0 4.513-1.002 32 32 0 0 0 1.852.104l4.658-.66.03-.012 1.68-.239a32 32 0 0 0 4.487-1.005 32 32 0 0 0 1.848.101l.566-.08.032-.01 5.77-.828a32 32 0 0 0 4.523-1.018 32 32 0 0 0 1.843.1l4.547-.659.035-.012 1.787-.26a32 32 0 0 0 4.502-1.023 32 32 0 0 0 1.87.096l6.331-.932a32 32 0 0 0 4.522-1.033 32 32 0 0 0 1.848.09l3.044-.451.032-.012 3.285-.49a32 32 0 0 0 4.515-1.042 32 32 0 0 0 1.85.088q3.181-.48 6.38-.966a32 32 0 0 0 4.491-1.05 32 32 0 0 0 1.852.083q3.205-.49 6.379-.98a32 32 0 0 0 4.506-1.065 32 32 0 0 0 1.855.076q3.17-.494 6.379-.998a32 32 0 0 0 4.488-1.072 32 32 0 0 0 1.852.072q3.21-.509 6.379-1.016a32 32 0 0 0 4.505-1.09 32 32 0 0 0 1.852.068q3.183-.513 6.38-1.035a32 32 0 0 0 4.499-1.102 32 32 0 0 0 1.863.062l2.996-.495h.026l3.32-.55a32 32 0 0 0 4.518-1.118 32 32 0 0 0 1.841.058q3.204-.535 6.373-1.072a32 32 0 0 0 4.493-1.129 32 32 0 0 0 1.855.051q3.183-.543 6.373-1.094a32 32 0 0 0 4.485-1.142 32 32 0 0 0 1.86.045q3.158-.547 6.362-1.11a32 32 0 0 0 4.473-1.154 32 32 0 0 0 1.85.041q3.203-.565 6.357-1.129a32 32 0 0 0 4.482-1.168 32 32 0 0 0 1.856.035q3.166-.566 6.37-1.148a32 32 0 0 0 4.456-1.178 32 32 0 0 0 1.873.03l6.295-1.153a32 32 0 0 0 4.496-1.192 32 32 0 0 0 1.84.024l.81-.148.041-.01 5.48-1.018a32 32 0 0 0 4.487-1.2 32 32 0 0 0 1.844.02l2.654-.494.037-.01 3.635-.682a32 32 0 0 0 4.467-1.209 32 32 0 0 0 1.855.018l4.883-.921.031-.01 1.407-.268a32 32 0 0 0 4.455-1.215 32 32 0 0 0 1.863.014l6.285-1.2a32 32 0 0 0 4.469-1.222 32 32 0 0 0 1.844.012l2.81-.539.026-.01 3.474-.668a32 32 0 0 0 4.451-1.228 32 32 0 0 0 1.858.01l6.283-1.215a32 32 0 0 0 4.461-1.233 32 32 0 0 0 1.842.01l2.002-.388h.02l4.28-.834a32 32 0 0 0 4.44-1.233 32 32 0 0 0 1.86.012l6.28-1.23a32 32 0 0 0 4.45-1.236 32 32 0 0 0 1.845.01l2.7-.53h.013l3.582-.703a32 32 0 0 0 4.438-1.24 32 32 0 0 0 1.853 0l6.28-1.236a32 32 0 0 0 4.441-1.243 32 32 0 0 0 1.85 0l5.136-1.011h.014l1.14-.225a32 32 0 0 0 4.432-1.242 32 32 0 0 0 1.848 0l6.277-1.24a32 32 0 0 0 4.438-1.245 32 32 0 0 0 1.853 0l6.28-1.242a32 32 0 0 0 4.43-1.244 32 32 0 0 0 1.847 0l6.28-1.242a32 32 0 0 0 5.28-1.565 32 32 0 0 0 2.346-.101 180 180 0 0 0 7.518-2.014 32 32 0 0 0 5.023-1.959 32 32 0 0 0 2.141-.26 247 247 0 0 0 6.947-2.396 32 32 0 0 0 4.721-2.17 32 32 0 0 0 1.982-.348 317 317 0 0 0 6.604-2.654 32 32 0 0 0 4.54-2.33 32 32 0 0 0 1.905-.416 387 387 0 0 0 6.37-2.852 32 32 0 0 0 4.37-2.433 32 32 0 0 0 1.836-.465 457 457 0 0 0 6.194-3.004 32 32 0 0 0 4.236-2.525 32 32 0 0 0 1.82-.512 543 543 0 0 0 6.04-3.123 32 32 0 0 0 4.152-2.615 32 32 0 0 0 1.805-.553 609 609 0 0 0 5.078-2.773 32 32 0 0 0 3.64-.483 32 32 0 0 0 1.828.264l6.393-.342a32 32 0 0 0 4.562-.605 32 32 0 0 0 1.829.263l6.39-.342a32 32 0 0 0 4.555-.603 32 32 0 0 0 1.836.264l6.39-.342a32 32 0 0 0 4.563-.606 32 32 0 0 0 1.828.264l6.39-.342a32 32 0 0 0 4.563-.605 32 32 0 0 0 1.828.263l6.393-.341a32 32 0 0 0 4.555-.604 32 32 0 0 0 1.835.264l6.391-.342a32 32 0 0 0 4.555-.605 32 32 0 0 0 1.836.263l6.39-.342a32 32 0 0 0 4.563-.605 32 32 0 0 0 1.828.264l6.39-.342a32 32 0 0 0 4.563-.606 32 32 0 0 0 1.83.264l6.39-.34a32 32 0 0 0 4.555-.605 32 32 0 0 0 1.836.263l6.391-.341a32 32 0 0 0 4.563-.606 32 32 0 0 0 1.828.264l6.39-.342a32 32 0 0 0 4.563-.606 32 32 0 0 0 1.828.264l6.39-.34a32 32 0 0 0 4.557-.605 32 32 0 0 0 1.836.264l6.39-.342a32 32 0 0 0 4.563-.606 32 32 0 0 0 1.828.264l6.391-.342a32 32 0 0 0 4.562-.605 32 32 0 0 0 1.829.263l6.39-.34a32 32 0 0 0 4.557-.605 32 32 0 0 0 1.834.264l6.392-.342a32 32 0 0 0 30.247-33.662l-.12-.467a32 32 0 0 0-11.78-25.135l-4.974-4.03a32 32 0 0 0-1.64-.862 32 32 0 0 0-3.334-3.164l-4.973-4.028a32 32 0 0 0-1.636-.861 32 32 0 0 0-3.338-3.166l-4.973-4.03a32 32 0 0 0-1.64-.863 32 32 0 0 0-3.335-3.164l-4.972-4.027a32 32 0 0 0-1.637-.861 32 32 0 0 0-2.734-2.596l6.168-.104a32 32 0 0 0 4.584-.437 32 32 0 0 0 1.814.33l6.398-.106a32 32 0 0 0 4.579-.437 32 32 0 0 0 1.822.33l6.398-.107a32 32 0 0 0 4.584-.438 32 32 0 0 0 1.815.33l6.4-.105a32 32 0 0 0 4.576-.438 32 32 0 0 0 1.823.33l6.398-.107a32 32 0 0 0 4.586-.438 32 32 0 0 0 1.814.33l6.399-.105a32 32 0 0 0 4.576-.437 32 32 0 0 0 1.822.33l6.4-.108a32 32 0 0 0 16.5-5.023 32 32 0 0 0 1.75-1.114 32 32 0 0 0 1.786-1.466 32 32 0 0 0 6.74-5.53 32 32 0 0 0-4.434-45.037l-4.947-4.06a32 32 0 0 0-1.633-.873 32 32 0 0 0-3.314-3.188l-4.947-4.06a32 32 0 0 0-1.63-.871 32 32 0 0 0-3.318-3.19l-4.945-4.06a32 32 0 0 0-1.633-.874 32 32 0 0 0-3.314-3.187l-4.947-4.06a32 32 0 0 0-1.637-.876 32 32 0 0 0-3.31-3.183l-4.948-4.06a32 32 0 0 0-1.633-.874 32 32 0 0 0-3.314-3.187l-4.948-4.06a32 32 0 0 0-1.628-.872 32 32 0 0 0-3.319-3.19l-3.674-3.015-.562 1.068a32 32 0 0 0-1.145-1.513c.091-.266.14-.452.227-.711a32 32 0 0 0-1.07-.573v-.363l1.082.889a191 191 0 0 0 1.963-6.152 32 32 0 0 0 .5-2.35 32 32 0 0 0 2.199-11.805c-.03-2.333-.08-4.604-.137-6.812a32 32 0 0 0-.416-1.844 32 32 0 0 0 .223-4.764c-.072-2.242-.155-4.45-.24-6.623a32 32 0 0 0-.44-1.826 32 32 0 0 0 .16-4.758q-.15-3.296-.318-6.584a32 32 0 0 0-.46-1.814 32 32 0 0 0 .108-4.733q-.186-3.307-.388-6.57a32 32 0 0 0-.477-1.808 32 32 0 0 0 .053-4.752q-.22-3.277-.461-6.569a32 32 0 0 0-.496-1.797 32 32 0 0 0 0-4.75q-.256-3.271-.533-6.562a32 32 0 0 0-.518-1.797 32 32 0 0 0-.047-4.73q-.294-3.3-.607-6.583a32 32 0 0 0-.538-1.79 32 32 0 0 0-.103-4.745q-.328-3.28-.684-6.588a32 32 0 0 0-.558-1.779 32 32 0 0 0-.16-4.748 899 899 0 0 0-.77-6.59 32 32 0 0 0-.582-1.777 32 32 0 0 0-.217-4.729c-.279-2.228-.567-4.426-.855-6.591a32 32 0 0 0-.61-1.788 32 32 0 0 0-.285-4.744 784 784 0 0 0-.95-6.605 32 32 0 0 0-.632-1.768 32 32 0 0 0-.363-4.79q-.507-3.266-1.059-6.618a32 32 0 0 0-.654-1.738 32 32 0 0 0-.443-4.791 729 729 0 0 0-1.166-6.594 32 32 0 0 0-.69-1.746 32 32 0 0 0-.535-4.83 670 670 0 0 0-1.295-6.598 32 32 0 0 0-.724-1.736 32 32 0 0 0-.631-4.834q-.703-3.313-1.44-6.606a32 32 0 0 0-.763-1.726 32 32 0 0 0-.748-4.865 520 520 0 0 0-1.608-6.627 32 32 0 0 0-.803-1.704 32 32 0 0 0-.884-4.896 471 471 0 0 0-1.795-6.627 32 32 0 0 0-.86-1.7 32 32 0 0 0-1.037-4.913 398 398 0 0 0-2.025-6.658 32 32 0 0 0-.928-1.698 32 32 0 0 0-1.21-4.916 340 340 0 0 0-2.302-6.68 32 32 0 0 0-1.015-1.699 32 32 0 0 0-1.424-4.931 291 291 0 0 0-2.635-6.688 32 32 0 0 0-1.137-1.719 32 32 0 0 0-1.689-4.949 240 240 0 0 0-3.074-6.717 32 32 0 0 0-1.32-1.769 32 32 0 0 0-2.118-5.123c-1.266-2.4-2.589-4.746-3.957-7.04a32 32 0 0 0-1.574-1.743 32 32 0 0 0-2.637-4.944 171 171 0 0 0-4.494-6.459 32 32 0 0 0-1.652-1.52 32 32 0 0 0-3.006-4.597 198 198 0 0 0-4.86-5.887 32 32 0 0 0-1.693-1.328 32 32 0 0 0-3.256-4.242 223 223 0 0 0-5.144-5.418 32 32 0 0 0-1.733-1.181 32 32 0 0 0-3.474-3.971 259 259 0 0 0-5.336-4.987 32 32 0 0 0-1.758-1.056 32 32 0 0 0-3.646-3.729 298 298 0 0 0-5.485-4.617 32 32 0 0 0-1.767-.947 32 32 0 0 0-3.778-3.508 333 333 0 0 0-5.615-4.312 32 32 0 0 0-1.77-.852 32 32 0 0 0-3.878-3.309 368 368 0 0 0-5.723-4.048 32 32 0 0 0-1.772-.77 32 32 0 0 0-3.96-3.133 402 402 0 0 0-5.813-3.814 32 32 0 0 0-1.773-.7 32 32 0 0 0-4.034-2.978 442 442 0 0 0-5.884-3.603 32 32 0 0 0-1.788-.643 32 32 0 0 0-4.085-2.84 484 484 0 0 0-5.944-3.412 32 32 0 0 0-1.8-.592 32 32 0 0 0-4.133-2.71 526 526 0 0 0-5.995-3.241 32 32 0 0 0-1.812-.547 32 32 0 0 0-4.174-2.596 578 578 0 0 0-6.035-3.078 32 32 0 0 0-1.83-.506 32 32 0 0 0-4.193-2.48 544 544 0 0 0-6.124-2.957 32 32 0 0 0-1.818-.459 32 32 0 0 0-4.246-2.389 638 638 0 0 0-6.127-2.8 32 32 0 0 0-1.836-.424 32 32 0 0 0-4.281-2.3q-3.098-1.361-6.178-2.677a32 32 0 0 0-1.84-.387 32 32 0 0 0-4.343-2.222 664 664 0 0 0-6.221-2.553 32 32 0 0 0-1.84-.35 32 32 0 0 0-4.361-2.127 648 648 0 0 0-6.276-2.437 32 32 0 0 0-1.857-.316 32 32 0 0 0-4.412-2.047 605 605 0 0 0-6.348-2.319 32 32 0 0 0-1.861-.277 32 32 0 0 0-4.526-1.975 450 450 0 0 0-6.529-2.203 32 32 0 0 0-4.018-.49 32 32 0 0 0-7.699-2.2 449 449 0 0 0-6.83-.913 32 32 0 0 0-1.896.135 32 32 0 0 0-4.9-.944 467 467 0 0 0-6.835-.715 32 32 0 0 0-1.886.188 32 32 0 0 0-4.912-.803q-3.42-.286-6.836-.523a32 32 0 0 0-1.881.24 32 32 0 0 0-4.916-.668q-3.42-.194-6.838-.34a32 32 0 0 0-1.875.291 32 32 0 0 0-4.916-.537 505 505 0 0 0-6.832-.16 32 32 0 0 0-1.865.34 32 32 0 0 0-4.926-.412" style="color:#000;fill:url(#c);fill-opacity:1;stroke-width:64;stroke-linecap:round;stroke-linejoin:round;stroke-dasharray:6.4,6.4;-inkscape-stroke:none;paint-order:fill markers stroke" transform="rotate(18.458 56.035 1436.116)"/><path d="M880.931 744.045c-117.015 27.598-258.318 172.212-258.318 172.212-1.66-83.046-11.333-166.82 112.6-238.448-124.694-7.456-249.287-15.117-408.451 46.365 0 0 303.226-263.622 490.142-280.396 172.212-15.455 264.942 37.533 264.942 37.533-.193-45.683-31.458-88.26-90.522-128.055 0 0 279.964 104.892 333.385 194.29 108.185 181.044 92.73 439.362 92.73 439.362l-307.78-236.642s-111.712-33.82-228.728-6.221" style="display:inline;fill:#1d2f23;stroke:#1d2f23;stroke-width:64;stroke-linecap:round;stroke-linejoin:round;-inkscape-stroke:none;paint-order:fill markers stroke;stop-color:#000" transform="rotate(18.458 56.035 1436.116)"/><path d="M1523.884 1563.697c-77.765 16.436-276.14-146.914-315.454-200.612-35.003-47.81-136.078-165.435-164.776-198.757-83.626-194.699 70.106-403.07 152.26-347.417 111.903 61.042 362.064 214.3 403.304 366.528 56.463 208.417-24.905 369.6-75.334 380.258" style="display:inline;opacity:1;fill:#f1fff2;stroke:#f1fff2;stroke-width:63.9997;stroke-linecap:round;stroke-linejoin:round;stroke-miterlimit:4;stroke-dasharray:6.39997,6.39997;stroke-dashoffset:0;stroke-opacity:1;paint-order:fill markers stroke;stop-color:#000" transform="rotate(18.458 56.035 1436.116)"/><path d="M1162.584 775.824v.002a32 32 0 0 0-4.719 1.137 32 32 0 0 0-4.814-.275 99 99 0 0 0-9.305 1.773 32 32 0 0 0-4.174 1.924 32 32 0 0 0-4.51.549 114 114 0 0 0-8.326 3.101 32 32 0 0 0-3.55 2.385 32 32 0 0 0-4.112 1.103 134 134 0 0 0-7.422 3.963 32 32 0 0 0-3.082 2.692 32 32 0 0 0-3.816 1.513 158 158 0 0 0-6.625 4.526 32 32 0 0 0-2.686 2.883 32 32 0 0 0-3.525 1.797 180 180 0 0 0-6.01 4.95 32 32 0 0 0-2.353 3.012 32 32 0 0 0-3.258 1.997 204 204 0 0 0-5.475 5.26 32 32 0 0 0-2.11 3.142 32 32 0 0 0-3.081 2.2 229 229 0 0 0-5.004 5.5 32 32 0 0 0-1.87 3.218 32 32 0 0 0-2.884 2.338 242 242 0 0 0-4.629 5.742 32 32 0 0 0-1.646 3.266 32 32 0 0 0-2.705 2.449 267 267 0 0 0-4.252 5.898 32 32 0 0 0-1.479 3.356 32 32 0 0 0-2.564 2.572 274 274 0 0 0-3.932 6.084 32 32 0 0 0-1.291 3.38 32 32 0 0 0-2.422 2.68 289 289 0 0 0-3.615 6.223 32 32 0 0 0-1.121 3.412 32 32 0 0 0-2.278 2.758 303 303 0 0 0-3.312 6.34 32 32 0 0 0-.975 3.47 32 32 0 0 0-2.148 2.848 306 306 0 0 0-3.031 6.475 32 32 0 0 0-.819 3.494 32 32 0 0 0-2.039 2.967 317 317 0 0 0-2.742 6.568 32 32 0 0 0-.656 3.475 32 32 0 0 0-1.889 2.994 317 317 0 0 0-2.469 6.678 32 32 0 0 0-.525 3.54 32 32 0 0 0-1.787 3.126 336 336 0 0 0-2.18 6.728 32 32 0 0 0-.375 3.533 32 32 0 0 0-1.64 3.15q-.99 3.388-1.92 6.86a32 32 0 0 0-.229 3.526 32 32 0 0 0-1.51 3.199 313 313 0 0 0-1.644 6.935 32 32 0 0 0-.09 3.547 32 32 0 0 0-1.377 3.254q-.728 3.524-1.363 6.99a32 32 0 0 0 .052 3.555 32 32 0 0 0-1.248 3.316q-.583 3.548-1.078 7.037a32 32 0 0 0 .196 3.551 32 32 0 0 0-1.114 3.367q-.44 3.567-.79 7.086a32 32 0 0 0 .34 3.535 32 32 0 0 0-.975 3.41 305 305 0 0 0-.502 7.134 32 32 0 0 0 .486 3.52 32 32 0 0 0-.832 3.443 299 299 0 0 0-.21 7.162 32 32 0 0 0 .634 3.49 32 32 0 0 0-.69 3.486q.002 3.564.09 7.154a32 32 0 0 0 .78 3.473 32 32 0 0 0-.544 3.533q.157 3.562.39 7.09a32 32 0 0 0 .929 3.469 32 32 0 0 0-.395 3.547q.306 3.565.698 7.137a32 32 0 0 0 1.07 3.388 32 32 0 0 0-.244 3.543q.458 3.57 1.002 7.113a32 32 0 0 0 1.22 3.358 32 32 0 0 0-.086 3.61c.4 2.294.83 4.63 1.301 7.007a32 32 0 0 0 1.36 3.287 32 32 0 0 0 .06 3.547 289 289 0 0 0 1.615 7.014 32 32 0 0 0 1.504 3.238 32 32 0 0 0 .227 3.602 302 302 0 0 0 1.908 6.896 32 32 0 0 0 1.631 3.139 32 32 0 0 0 .365 3.52c.723 2.335 1.461 4.602 2.197 6.8a32 32 0 0 0 1.79 3.129 32 32 0 0 0 .52 3.516q1.22 3.412 2.507 6.748a32 32 0 0 0 1.892 2.988 32 32 0 0 0 .65 3.432c.82 2.028 1.598 3.845 2.292 5.472a32 32 0 0 0 5.183 8.33l.702.815a32 32 0 0 0 2.57 2.01 32 32 0 0 0 1.605 2.841l1.313 1.526 2.848 3.312a32 32 0 0 0 2.564 2.008 32 32 0 0 0 1.598 2.836l.658.766 3.498 4.078a32 32 0 0 0 2.555 2.006 32 32 0 0 0 1.597 2.84l1.305 1.52 2.846 3.325a32 32 0 0 0 2.554 2.01 32 32 0 0 0 1.59 2.838l3.05 3.566 1.093 1.281a32 32 0 0 0 2.56 2.02 32 32 0 0 0 1.594 2.85l.115.132 4.02 4.72a32 32 0 0 0 2.549 2.013 32 32 0 0 0 1.582 2.84l3.132 3.683.995 1.17a32 32 0 0 0 2.556 2.027 32 32 0 0 0 1.586 2.852l.735.865 3.382 3.992a32 32 0 0 0 2.545 2.022 32 32 0 0 0 1.575 2.844l1.517 1.793 2.604 3.08a32 32 0 0 0 2.535 2.021 32 32 0 0 0 1.568 2.842l2.492 2.955 1.62 1.924a32 32 0 0 0 2.539 2.031 32 32 0 0 0 1.568 2.852q2.045 2.43 4.084 4.863a32 32 0 0 0 2.537 2.039 32 32 0 0 0 1.56 2.85l1.59 1.9 2.5 2.99a32 32 0 0 0 2.52 2.031 32 32 0 0 0 1.547 2.842l2.691 3.23 1.385 1.667a32 32 0 0 0 2.523 2.045 32 32 0 0 0 1.551 2.859q2.025 2.44 4.035 4.871a32 32 0 0 0 2.522 2.057 32 32 0 0 0 1.535 2.853l1.53 1.856 2.515 3.056a32 32 0 0 0 2.492 2.041 32 32 0 0 0 1.516 2.844l2.174 2.656 1.85 2.266a32 32 0 0 0 2.484 2.049 32 32 0 0 0 1.496 2.838l2.494 3.076 1.5 1.855a32 32 0 0 0 2.469 2.057 32 32 0 0 0 1.474 2.834l2.418 3.012 1.543 1.931a32 32 0 0 0 2.451 2.067 32 32 0 0 0 1.467 2.855q1.942 2.448 3.867 4.899a32 32 0 0 0 2.42 2.074 32 32 0 0 0 1.428 2.85 921 921 0 0 1 3.781 4.894 32 32 0 0 0 2.354 2.064 32 32 0 0 0 1.36 2.817 513 513 0 0 1 3.599 4.828 32 32 0 0 0 2.82 2.578 32 32 0 0 0 1.805 3.494c1.608 2.02 3.21 3.946 4.79 5.793a32 32 0 0 0 2.885 2.27 32 32 0 0 0 1.86 3.13 352 352 0 0 0 4.76 5.184 32 32 0 0 0 2.867 2.057 32 32 0 0 0 1.896 2.947 480 480 0 0 0 4.8 4.897 32 32 0 0 0 2.856 1.921 32 32 0 0 0 1.936 2.846 621 621 0 0 0 4.838 4.705 32 32 0 0 0 2.877 1.844 32 32 0 0 0 1.97 2.775 718 718 0 0 0 4.89 4.577 32 32 0 0 0 2.884 1.773 32 32 0 0 0 2.01 2.73 855 855 0 0 0 4.93 4.463 32 32 0 0 0 2.904 1.725 32 32 0 0 0 2.043 2.69 940 940 0 0 0 4.976 4.374 32 32 0 0 0 2.922 1.678 32 32 0 0 0 2.072 2.654 962 962 0 0 0 5.03 4.305 32 32 0 0 0 2.931 1.631 32 32 0 0 0 2.098 2.617 998 998 0 0 0 5.078 4.235 32 32 0 0 0 2.953 1.595 32 32 0 0 0 2.133 2.594 1006 1006 0 0 0 5.129 4.17 32 32 0 0 0 2.965 1.557 32 32 0 0 0 2.17 2.57q2.563 2.047 5.172 4.103a32 32 0 0 0 2.984 1.52 32 32 0 0 0 2.193 2.537q2.595 2.022 5.227 4.045a32 32 0 0 0 3.004 1.484 32 32 0 0 0 2.224 2.512 994 994 0 0 0 5.28 3.984 32 32 0 0 0 3.025 1.448 32 32 0 0 0 2.26 2.488 958 958 0 0 0 5.334 3.92 32 32 0 0 0 3.045 1.41 32 32 0 0 0 2.297 2.463q2.669 1.921 5.392 3.853a32 32 0 0 0 3.069 1.372 32 32 0 0 0 2.336 2.437 881 881 0 0 0 5.455 3.787 32 32 0 0 0 3.093 1.33 32 32 0 0 0 2.371 2.405 822 822 0 0 0 5.528 3.716 32 32 0 0 0 3.119 1.287 32 32 0 0 0 2.418 2.375 758 758 0 0 0 5.603 3.641 32 32 0 0 0 3.149 1.238 32 32 0 0 0 2.467 2.344 700 700 0 0 0 5.687 3.555 32 32 0 0 0 3.184 1.187 32 32 0 0 0 2.51 2.3 630 630 0 0 0 5.783 3.464 32 32 0 0 0 3.23 1.137 32 32 0 0 0 2.57 2.256 551 551 0 0 0 5.903 3.365 32 32 0 0 0 3.28 1.07 32 32 0 0 0 2.651 2.219 508 508 0 0 0 6.016 3.236 32 32 0 0 0 3.33.994 32 32 0 0 0 2.723 2.157q3.075 1.575 6.191 3.107a32 32 0 0 0 3.393.904 32 32 0 0 0 2.82 2.09q3.177 1.5 6.38 2.938a32 32 0 0 0 3.483.8 32 32 0 0 0 2.977 2.026c2.148.912 4.35 1.823 6.61 2.72a32 32 0 0 0 3.576.657 32 32 0 0 0 3.113 1.912c2.276.841 4.59 1.662 6.947 2.453a32 32 0 0 0 3.727.478 32 32 0 0 0 3.343 1.776c2.41.724 4.86 1.415 7.35 2.06a32 32 0 0 0 3.963.227 32 32 0 0 0 3.664 1.57c2.566.543 5.24 1.048 8.021 1.479a32 32 0 0 0 4.22-.18 32 32 0 0 0 4.112 1.217c2.891.264 5.87.433 8.928.469a32 32 0 0 0 4.696-.877 32 32 0 0 0 4.767.537 84 84 0 0 0 10.234-1.496l.025-.01h.01a63 63 0 0 0 7.48-2.08 32 32 0 0 0 7.026-3.55 32 32 0 0 0 3.434-1.036 85 85 0 0 0 8.7-5.346 32 32 0 0 0 4.85-4.277 32 32 0 0 0 2.52-1.387 120 120 0 0 0 6.469-5.863 32 32 0 0 0 3.752-4.475 32 32 0 0 0 2.008-1.478 157 157 0 0 0 5.263-6.079 32 32 0 0 0 3.102-4.576 32 32 0 0 0 1.687-1.504 193 193 0 0 0 4.497-6.218 32 32 0 0 0 2.66-4.668 32 32 0 0 0 1.494-1.543 232 232 0 0 0 3.922-6.307 32 32 0 0 0 2.32-4.746 32 32 0 0 0 1.355-1.582 266 266 0 0 0 3.48-6.389 32 32 0 0 0 2.028-4.79 32 32 0 0 0 1.244-1.614 292 292 0 0 0 3.114-6.477 32 32 0 0 0 1.78-4.82 32 32 0 0 0 1.146-1.639 322 322 0 0 0 2.789-6.537 32 32 0 0 0 1.56-4.845 32 32 0 0 0 1.055-1.649 351 351 0 0 0 2.498-6.582 32 32 0 0 0 1.371-4.906 32 32 0 0 0 .986-1.682 368 368 0 0 0 2.239-6.642 32 32 0 0 0 1.18-4.91 32 32 0 0 0 .915-1.696q1.03-3.344 1.992-6.681a32 32 0 0 0 1.012-4.948 32 32 0 0 0 .856-1.724q.901-3.327 1.76-6.717a32 32 0 0 0 .841-4.938 32 32 0 0 0 .79-1.722q.808-3.408 1.544-6.76a32 32 0 0 0 .69-4.973 32 32 0 0 0 .734-1.746q.694-3.392 1.332-6.793a32 32 0 0 0 .533-4.959 32 32 0 0 0 .684-1.771q.588-3.393 1.127-6.81a32 32 0 0 0 .385-4.95 32 32 0 0 0 .628-1.781c.333-2.304.64-4.578.93-6.82a32 32 0 0 0 .248-4.989 32 32 0 0 0 .576-1.787q.397-3.435.737-6.85a32 32 0 0 0 .103-4.964 32 32 0 0 0 .533-1.834q.295-3.371.547-6.832a32 32 0 0 0-.033-4.934 32 32 0 0 0 .48-1.828q.208-3.43.364-6.87a32 32 0 0 0-.162-4.915 32 32 0 0 0 .432-1.84q.117-3.461.181-6.858a32 32 0 0 0-.29-4.937 32 32 0 0 0 .382-1.848q.026-3.438 0-6.834a32 32 0 0 0-.38-1.855 32 32 0 0 0 .298-4.938 515 515 0 0 0-.17-6.822 32 32 0 0 0-.428-1.848 32 32 0 0 0 .174-4.921q-.148-3.421-.342-6.827a32 32 0 0 0-.474-1.838 32 32 0 0 0 .053-4.898q-.233-3.424-.512-6.832a32 32 0 0 0-.518-1.813 32 32 0 0 0-.066-4.896q-.315-3.405-.677-6.809a32 32 0 0 0-.56-1.796 32 32 0 0 0-.19-4.92q-.396-3.36-.838-6.752a32 32 0 0 0-.606-1.791 32 32 0 0 0-.302-4.877q-.48-3.39-1.002-6.768a32 32 0 0 0-.645-1.762 32 32 0 0 0-.422-4.898q-.551-3.322-1.156-6.703a32 32 0 0 0-.69-1.758 32 32 0 0 0-.525-4.832q-.644-3.396-1.308-6.68a32 32 0 0 0-.737-1.76 32 32 0 0 0-.638-4.837 512 512 0 0 0-1.467-6.666 32 32 0 0 0-.762-1.707 32 32 0 0 0-.76-4.85 537 537 0 0 0-1.613-6.611 32 32 0 0 0-.789-1.666 32 32 0 0 0-.885-4.883c-.537-2.038-1.119-4.262-1.789-6.656a32 32 0 0 0-.967-1.907 32 32 0 0 0-1.146-5.2 218 218 0 0 0-2.371-7.116 32 32 0 0 0-1.057-1.78 32 32 0 0 0-1.47-5.095 245 245 0 0 0-2.745-6.83 32 32 0 0 0-1.125-1.664 32 32 0 0 0-1.71-4.87 262 262 0 0 0-3.073-6.607 32 32 0 0 0-1.22-1.623 32 32 0 0 0-1.971-4.808 291 291 0 0 0-3.348-6.362 32 32 0 0 0-1.248-1.5 32 32 0 0 0-2.147-4.617q-1.77-3.121-3.6-6.176a32 32 0 0 0-1.294-1.43 32 32 0 0 0-2.32-4.494 339 339 0 0 0-3.797-5.96 32 32 0 0 0-1.342-1.375 32 32 0 0 0-2.477-4.385 374 374 0 0 0-3.966-5.764 32 32 0 0 0-1.381-1.318 32 32 0 0 0-2.604-4.27 403 403 0 0 0-4.123-5.597 32 32 0 0 0-1.42-1.274 32 32 0 0 0-2.703-4.146 428 428 0 0 0-4.265-5.446 32 32 0 0 0-1.442-1.218 32 32 0 0 0-2.805-4.053 472 472 0 0 0-4.378-5.291 32 32 0 0 0-1.47-1.178 32 32 0 0 0-2.904-3.975 548 548 0 0 0-4.46-5.126 32 32 0 0 0-1.502-1.149 32 32 0 0 0-2.971-3.873 538 538 0 0 0-4.58-5.031 32 32 0 0 0-1.524-1.11 32 32 0 0 0-3.029-3.783 631 631 0 0 0-4.64-4.888 32 32 0 0 0-1.555-1.086 32 32 0 0 0-3.104-3.723 624 624 0 0 0-4.74-4.8 32 32 0 0 0-1.555-1.042 32 32 0 0 0-3.16-3.648 711 711 0 0 0-4.795-4.684 32 32 0 0 0-1.58-1.017 32 32 0 0 0-3.203-3.577 715 715 0 0 0-4.871-4.601 32 32 0 0 0-1.59-.988 32 32 0 0 0-3.267-3.528q-2.435-2.247-4.924-4.506a32 32 0 0 0-1.604-.96 32 32 0 0 0-3.297-3.46 844 844 0 0 0-4.972-4.416 32 32 0 0 0-1.627-.945 32 32 0 0 0-3.328-3.394 874 874 0 0 0-5.026-4.342 32 32 0 0 0-1.638-.924 32 32 0 0 0-3.381-3.354 893 893 0 0 0-5.08-4.273 32 32 0 0 0-1.633-.89 32 32 0 0 0-3.432-3.317 1001 1001 0 0 0-5.113-4.193 32 32 0 0 0-1.647-.871 32 32 0 0 0-3.445-3.256 1043 1043 0 0 0-5.154-4.127 32 32 0 0 0-1.666-.858 32 32 0 0 0-3.469-3.205 1091 1091 0 0 0-5.191-4.064 32 32 0 0 0-1.676-.842 32 32 0 0 0-3.51-3.172 1087 1087 0 0 0-5.236-4.008 32 32 0 0 0-1.674-.816 32 32 0 0 0-3.549-3.139c-1.74-1.31-3.491-2.627-5.262-3.945a32 32 0 0 0-1.681-.799 32 32 0 0 0-3.563-3.092 1262 1262 0 0 0-5.293-3.886 32 32 0 0 0-1.695-.788 32 32 0 0 0-3.582-3.05 1272 1272 0 0 0-5.328-3.836 32 32 0 0 0-1.7-.77 32 32 0 0 0-3.619-3.025q-2.669-1.897-5.357-3.787a32 32 0 0 0-1.707-.754 32 32 0 0 0-3.635-2.985q-2.685-1.871-5.379-3.732a32 32 0 0 0-1.713-.74 32 32 0 0 0-3.654-2.951 1382 1382 0 0 0-5.414-3.69 32 32 0 0 0-1.713-.723 32 32 0 0 0-3.691-2.93q-2.7-1.816-5.43-3.636a32 32 0 0 0-1.725-.71 32 32 0 0 0-3.695-2.888 1468 1468 0 0 0-5.463-3.6 32 32 0 0 0-1.728-.696 32 32 0 0 0-3.721-2.862q-2.74-1.782-5.477-3.547a32 32 0 0 0-1.736-.685 32 32 0 0 0-3.742-2.834q-2.751-1.762-5.508-3.51a32 32 0 0 0-1.738-.672 32 32 0 0 0-3.756-2.8 1594 1594 0 0 0-5.533-3.47 32 32 0 0 0-1.737-.658 32 32 0 0 0-3.787-2.777 1438 1438 0 0 0-5.57-3.437 32 32 0 0 0-1.738-.643 32 32 0 0 0-3.758-2.725 1214 1214 0 0 0-5.62-3.412 32 32 0 0 0-1.74-.629 32 32 0 0 0-3.78-2.7q-2.85-1.715-5.63-3.368a32 32 0 0 0-1.744-.617 32 32 0 0 0-3.865-2.711l-2.89-1.707-.058-.033-2.625-1.541a32 32 0 0 0-1.773-.618 32 32 0 0 0-3.852-2.667q-2.804-1.637-5.672-3.29a32 32 0 0 0-1.757-.593 32 32 0 0 0-3.832-2.62 1521 1521 0 0 0-5.68-3.24 32 32 0 0 0-1.775-.59 32 32 0 0 0-3.877-2.607 1328 1328 0 0 0-5.72-3.209 32 32 0 0 0-1.77-.572 32 32 0 0 0-3.891-2.576q-2.867-1.59-5.742-3.166a32 32 0 0 0-1.555-.49 32 32 0 0 0-2.262-1.694 84 84 0 0 0-9.043-4.973 32 32 0 0 0-3.152-.787 32 32 0 0 0-6.36-3.029 83 83 0 0 0-10.058-2.654 32 32 0 0 0-3.281.004 32 32 0 0 0-6.838-1.38 87 87 0 0 0-10.11-.183z" style="color:#000;font-variation-settings:normal;opacity:1;vector-effect:none;fill:url(#d);fill-opacity:1;stroke-width:64;stroke-linecap:round;stroke-linejoin:round;stroke-miterlimit:4;stroke-dasharray:6.4,6.4;stroke-dashoffset:0;stroke-opacity:1;-inkscape-stroke:none;paint-order:fill markers stroke;stop-color:#000;stop-opacity:1" transform="rotate(18.458 56.035 1436.116)"/><path d="m83.898 1201.07 68.444 6.623-37.534 39.741M401.828 1251.85l-59.612-44.157 121.432-17.663M132.47 1346.788l90.523-72.86c2.97 3.471 153.125 113.867 222.992 101.561 65.377-11.514 67.862 77.727 67.862 77.727" style="opacity:1;fill:none;fill-opacity:1;stroke:#000;stroke-width:64;stroke-linecap:round;stroke-linejoin:round;stroke-miterlimit:4;stroke-dasharray:none;stroke-dashoffset:0;stroke-opacity:1;paint-order:fill markers stroke;stop-color:#000" transform="rotate(18.458 56.035 1436.116)"/><path d="m222.993 1530.039-90.522-183.251 90.522-72.86 103.769 66.236z" style="opacity:1;fill:#fff;fill-opacity:1;stroke:#000;stroke-width:64;stroke-linecap:round;stroke-linejoin:round;stroke-miterlimit:4;stroke-dasharray:none;stroke-dashoffset:0;stroke-opacity:1;paint-order:fill markers stroke;stop-color:#000" transform="rotate(18.458 56.035 1436.116)"/><path d="m661.976 1226.049 53.367-115.501 86.53 168.71z" style="opacity:1;fill:#000;fill-opacity:1;stroke:#000;stroke-width:64;stroke-linecap:round;stroke-linejoin:round;stroke-miterlimit:4;stroke-dasharray:none;stroke-dashoffset:0;stroke-opacity:1;paint-order:fill markers stroke;stop-color:#000" transform="rotate(18.458 56.035 1436.116)"/><path d="M1150.289 1075.222c0 120.717-151.86 218.577-272.577 218.577s-164.577-71.86-164.577-192.577 97.86-244.577 218.577-244.577 218.577 97.86 218.577 218.577" style="opacity:1;fill:#4ce64c;stroke:#000;stroke-width:64;stroke-linecap:round;stroke-linejoin:round;paint-order:fill markers stroke;stop-color:#000" transform="rotate(18.458 56.035 1436.116)"/><path d="M841.19 996.493v53.842" style="opacity:1;fill:#fff;fill-opacity:1;stroke:#000;stroke-width:48;stroke-linecap:round;stroke-linejoin:round;stroke-miterlimit:4;stroke-dasharray:none;stroke-dashoffset:0;stroke-opacity:1;paint-order:fill markers stroke;stop-color:#000" transform="rotate(18.458 56.035 1436.116)"/><path d="M191.15 316.335c261.721 112.672 482.696 266.55 624.651 500.337" style="opacity:1;fill:none;fill-opacity:1;stroke:#f1fff2;stroke-width:32;stroke-linecap:round;stroke-linejoin:round;stroke-miterlimit:4;stroke-dasharray:none;stroke-dashoffset:0;stroke-opacity:1;paint-order:fill markers stroke;stop-color:#000" transform="rotate(18.458 56.035 1436.116)"/><path d="M555.885 367.332C683.466 483.304 808.634 634.858 887.38 775.01" style="display:inline;fill:none;fill-opacity:1;stroke:#f1fff2;stroke-width:32;stroke-linecap:round;stroke-linejoin:round;stroke-miterlimit:4;stroke-dasharray:none;stroke-dashoffset:0;stroke-opacity:1;paint-order:fill markers stroke;stop-color:#000" transform="rotate(18.458 56.035 1436.116)"/><path d="M191.15 316.335c261.721 112.672 482.696 266.55 624.651 500.337M555.885 367.332C683.466 483.304 808.634 634.858 887.38 775.01" style="display:inline;fill:none;fill-opacity:1;stroke:#006cff;stroke-width:32;stroke-linecap:round;stroke-linejoin:round;stroke-miterlimit:4;stroke-dasharray:none;stroke-dashoffset:0;stroke-opacity:1;paint-order:fill markers stroke;stop-color:#000" transform="rotate(18.458 56.035 1436.116)"/><path d="M1208.829 414.479c-10.152 129.482-55.165 245.521-10.88 395.996 0 0 64.197 103.524 168.192 68.287s92.043-156.462 92.043-156.462c-36.343-118.456-154.466-209.203-249.356-307.821" style="fill:#0ff;fill-opacity:1;stroke:#000;stroke-width:64;stroke-linecap:round;stroke-linejoin:round;stroke-miterlimit:4;stroke-dasharray:none;stroke-opacity:1;paint-order:fill markers stroke;stop-color:#000" transform="rotate(18.458 56.035 1436.116)"/></g><path d="M-800.484 1465.043h2035.785v327.849H-800.484z" style="display:inline;fill:#fff;stroke:#000;stroke-width:128;stroke-linecap:round;stroke-linejoin:round;stroke-miterlimit:4;stroke-dasharray:12.8,12.8;stroke-dashoffset:0;paint-order:fill markers stroke;stop-color:#000" transform="translate(616.264 -17.284)"/></g></svg>