<svg xmlns="http://www.w3.org/2000/svg" width="1706.667" height="1706.667"><g style="display:inline"><path d="M1298.031 865.098c70.798 131.454 185.382 239.025 198.706 401.828q-44.157-28.702-79.482 13.247c91.022 54.7 58.514 175.917 81.69 267.15l-99.353 6.623c66.759 58.919 81.773 128.186 90.522 198.707l-494.507 2.208c-24.38-41.482 23.114-208.564 66.235-227.044 0 0 3.38-20.015-75.353-9.455 28.741-247.272 185.695-422.176 311.542-653.264" style="display:inline;fill:#1d2f23;stroke:#1d2f23;stroke-width:64;stroke-linecap:round;stroke-linejoin:round;-inkscape-stroke:none;paint-order:fill markers stroke;stop-color:#000"/><path d="m848.093 1338.888-64.785 239.508 62.822-25.521-51.043 200.244 459.384-15.706s-127.606-94.232-149.201-184.539 51.042-253.25 51.042-253.25z" style="opacity:1;fill:#f1fff2;fill-opacity:1;stroke:#f1fff2;stroke-width:64;stroke-linecap:round;stroke-linejoin:round;stroke-miterlimit:4;stroke-dasharray:none;stroke-dashoffset:0;stroke-opacity:1;paint-order:fill markers stroke;stop-color:#000"/><path d="M214.247 510.634C361.204 600.801 512.42 726.377 615.904 849.4M136.307 315.67c250.057 136.62 455.696 310.46 575.2 556.482" style="display:inline;fill:none;fill-opacity:1;stroke:#69a66e;stroke-width:32;stroke-linecap:round;stroke-linejoin:round;stroke-miterlimit:4;stroke-dasharray:none;stroke-dashoffset:0;stroke-opacity:1;paint-order:fill markers stroke;stop-color:#000" transform="rotate(9.747 884.275 1159.38)"/><path d="M365.522 1021.083c-6.525 23.182-10.06 46.757-10.06 69.646 0 120.717 39.861 176.576 160.578 176.576 120.716 0 276.578-97.86 276.578-218.576 0-34.888-8.215-67.844-22.752-97.103z" style="display:inline;fill:#4ce64c;stroke:#000;stroke-width:64;stroke-linecap:round;stroke-linejoin:round;paint-order:fill markers stroke;stop-color:#000" transform="rotate(9.747 884.275 1159.38)"/><path d="m365.522 1021.083 404.344-69.457C734.103 879.645 659.869 830.15 574.04 830.15c-97.828 0-180.63 91.855-208.518 190.933" style="display:inline;fill:#6faa74;stroke:#000;stroke-width:64;stroke-linecap:round;stroke-linejoin:round;paint-order:fill markers stroke;stop-color:#000;fill-opacity:1" transform="rotate(9.747 884.275 1159.38)"/><path d="M834.171 894.549s-75.393-160.403-99.507-341.537c-26.528-199.266 14.089-425.401 80.873-441.02 66.783-15.617 208.005 160.037 259.205 292.512 51.199 132.476 69.033 440.633 69.033 440.633z" style="opacity:1;fill:#69a66e;fill-opacity:1;stroke:#69a66e;stroke-width:64;stroke-linecap:round;stroke-miterlimit:4;stroke-dasharray:none;stroke-dashoffset:0;stroke-opacity:1;paint-order:fill markers stroke;stop-color:#000" transform="rotate(9.747 884.275 1159.38)"/><path d="M1299.055 1153.559s-.108-10.821-.952-28.418a1183 1183 0 0 0-1.894-30.973c-.869-11.681-2-24.552-3.473-38.105s-3.289-27.788-5.523-42.202c-2.235-14.413-4.89-29.004-8.043-43.267a514 514 0 0 0-5.115-21.086 403 403 0 0 0-5.922-20.213c-2.115-6.55-4.374-12.892-6.787-18.963-2.414-6.07-4.983-11.87-7.715-17.334s-5.935-10.786-9.54-15.96c-3.604-5.176-7.61-10.206-11.948-15.085s-9.008-9.61-13.94-14.185c-4.932-4.577-10.126-9-15.514-13.266a324 324 0 0 0-16.67-12.324 392 392 0 0 0-17.41-11.364c-11.76-7.25-23.737-13.847-35.37-19.76-11.635-5.912-22.926-11.14-33.321-15.66A665 665 0 0 0 1071.984 764c-16.085-6.137-26.353-9.318-26.353-9.318-106.831-15.988-232.175 6.97-312.625 60.013-101.267 66.77-136.887 176.63-198.707 211.955s-225.2 77.273-280.397 83.897c-55.196 6.623-183.25 6.625-161.172 123.64 22.079 117.017 112.6 282.605 377.541 247.28s313.516-44.158 536.508-88.315c22.898-4.534 53.848-18.32 86.828-36.947l213.871-11.428-92.925-75.255c5.357-4.841 10.6-9.719 15.632-14.637l142.077-2.375-84.881-69.668c3.48-6.554 6.48-13.02 8.627-19.307 1.052-3.081 2.033-6.627 3.047-9.976" style="display:inline;opacity:1;fill:#f1fff2;stroke:#f1fff2;stroke-width:64;stroke-linecap:round;stroke-linejoin:round;stroke-miterlimit:4;stroke-dasharray:6.4,6.4;stroke-dashoffset:0;stroke-opacity:1;paint-order:fill markers stroke;stop-color:#000" transform="rotate(9.747 884.275 1159.38)"/><path d="M880.931 744.045c-117.015 27.598-258.318 172.212-258.318 172.212-1.66-83.046-11.333-166.82 112.6-238.448-124.694-7.456-249.287-15.117-408.451 46.365 0 0 303.226-263.622 490.142-280.396 172.212-15.455 264.942 37.533 264.942 37.533-.193-45.683-31.458-88.26-90.522-128.055 0 0 295.852 97.145 333.385 194.29 37.533 97.146 28.702 167.797 28.702 167.797l-243.752 34.923s-111.712-33.82-228.728-6.221" style="display:inline;fill:#1d2f23;stroke:#1d2f23;stroke-width:64;stroke-linecap:round;stroke-linejoin:round;-inkscape-stroke:none;paint-order:fill markers stroke;stop-color:#000" transform="rotate(9.747 884.275 1159.38)"/><path d="m132.47 1346.788 90.523-72.86s146.934 106.632 222.992 101.561c66.236-4.415 119.224-37.533 119.224-37.533l-32.922-235.897-431.652 43.552-7.57 162.817z" style="opacity:1;fill:#f1fff2;fill-opacity:1;stroke:none;stroke-width:64;stroke-linecap:round;stroke-linejoin:round;stroke-miterlimit:4;stroke-dasharray:none;stroke-dashoffset:0;stroke-opacity:1;paint-order:fill markers stroke;stop-color:#000" transform="rotate(9.747 884.275 1159.38)"/><path d="m83.898 1201.07 68.444 6.623-37.534 39.741M401.828 1251.85l-59.612-44.157 121.432-17.663" style="opacity:1;fill:none;fill-opacity:1;stroke:#000;stroke-width:64;stroke-linecap:round;stroke-linejoin:round;stroke-miterlimit:4;stroke-dasharray:none;stroke-dashoffset:0;stroke-opacity:1;paint-order:fill markers stroke;stop-color:#000" transform="rotate(9.747 884.275 1159.38)"/><path d="m132.47 1346.788 90.523-72.86s146.778 102.944 222.992 101.561c126.888-2.302 110.431-100.539 110.431-100.539" style="opacity:1;fill:#f1fff2;fill-opacity:1;stroke:#000;stroke-width:64;stroke-linecap:round;stroke-linejoin:round;stroke-miterlimit:4;stroke-dasharray:none;stroke-dashoffset:0;stroke-opacity:1;paint-order:fill markers stroke;stop-color:#000" transform="rotate(9.747 884.275 1159.38)"/><path d="m222.993 1530.039-90.522-183.251 90.522-72.86 103.769 66.236z" style="opacity:1;fill:#fff;fill-opacity:1;stroke:#000;stroke-width:64;stroke-linecap:round;stroke-linejoin:round;stroke-miterlimit:4;stroke-dasharray:none;stroke-dashoffset:0;stroke-opacity:1;paint-order:fill markers stroke;stop-color:#000" transform="rotate(9.747 884.275 1159.38)"/><path d="m661.976 1226.049 53.367-115.501 86.53 168.71z" style="opacity:1;fill:#000;fill-opacity:1;stroke:#000;stroke-width:64;stroke-linecap:round;stroke-linejoin:round;stroke-miterlimit:4;stroke-dasharray:none;stroke-dashoffset:0;stroke-opacity:1;paint-order:fill markers stroke;stop-color:#000" transform="rotate(9.747 884.275 1159.38)"/><path d="M723.434 1032.318c-6.67 22.488-10.3 45.75-10.3 68.904 0 120.717 43.862 192.577 164.579 192.577 120.716 0 272.576-97.86 272.576-218.577 0-40.54-11.078-78.477-30.311-111.021z" style="opacity:1;fill:#4ce64c;stroke:#000;stroke-width:64;stroke-linecap:round;stroke-linejoin:round;paint-order:fill markers stroke;stop-color:#000" transform="rotate(9.747 884.275 1159.38)"/><path d="m974.931 958.137 34.676 186.682" style="opacity:1;fill:#fff;fill-opacity:1;stroke:#000;stroke-width:48;stroke-linecap:round;stroke-linejoin:round;stroke-miterlimit:4;stroke-dasharray:none;stroke-dashoffset:0;stroke-opacity:1;paint-order:fill markers stroke;stop-color:#000" transform="rotate(9.747 884.275 1159.38)"/><path d="m723.434 1032.318 396.544-68.117c-38.037-64.362-108.09-107.555-188.266-107.555-97.563 0-180.168 80.91-208.278 175.672" style="opacity:1;fill:#6faa74;stroke:#000;stroke-width:64;stroke-linecap:round;stroke-linejoin:round;paint-order:fill markers stroke;stop-color:#000;fill-opacity:1" transform="rotate(9.747 884.275 1159.38)"/><g style="display:inline"><path d="M930.81 1182.656c-112.236 23.105-119.698 37.41-162.677 68.172 24.647 15.958 55.278 45.903 177.573 22.345s126.267-55.76 158.223-84.258c-49.72-10.079-60.884-29.365-173.12-6.26" style="opacity:1;fill:#6faa74;stroke:#000;stroke-width:64;stroke-linecap:round;stroke-linejoin:round;paint-order:fill markers stroke;stop-color:#000" transform="rotate(7.236 846.837 1174.163)"/></g><path d="M422.098 125.101c177.002 223.301 298.59 463.56 312.717 736.706" style="opacity:1;fill:none;fill-opacity:1;stroke:#f1fff2;stroke-width:32;stroke-linecap:round;stroke-linejoin:round;stroke-miterlimit:4;stroke-dasharray:none;stroke-dashoffset:0;stroke-opacity:1;paint-order:fill markers stroke;stop-color:#000" transform="rotate(9.747 884.275 1159.38)"/><path d="M711.568 296.293c57.336 162.6 95.675 355.385 98.55 516.12" style="display:inline;fill:none;fill-opacity:1;stroke:#f1fff2;stroke-width:32;stroke-linecap:round;stroke-linejoin:round;stroke-miterlimit:4;stroke-dasharray:none;stroke-dashoffset:0;stroke-opacity:1;paint-order:fill markers stroke;stop-color:#000" transform="rotate(9.747 884.275 1159.38)"/><path d="M1258.956 38.183c-78.399 13.08-189.644 320.446-202.472 409.824-11.421 79.578-53.232 282.096-65.136 339.497 0 0 10.652 1.448 27.528 4.855a665 665 0 0 1 29.428 6.643c10.996 2.746 22.995 6.046 35.443 9.963 12.448 3.918 25.347 8.454 38.14 13.67a392 392 0 0 1 19.043 8.344 324 324 0 0 1 18.47 9.413c6.017 3.321 11.868 6.83 17.486 10.532s11.002 7.6 16.084 11.698 9.861 8.4 14.268 12.912 8.442 9.234 12.036 14.174 7.082 10.237 10.462 15.828 6.65 11.474 9.814 17.588a403 403 0 0 1 9.168 18.962 514 514 0 0 1 8.515 19.957c5.458 13.55 10.477 27.505 15.053 41.355s8.71 27.59 12.393 40.717a1128 1128 0 0 1 9.696 37.014c2.779 11.38 5.101 21.63 6.965 30.239 3.727 17.219 5.614 27.874 5.614 27.874 76.202-131.87 213.468-405.661 185.464-627.422-38.341-303.616-182.622-482.118-233.462-473.637" style="display:inline;fill:#f1fff2;stroke:#f1fff2;stroke-width:64;stroke-linecap:round;stroke-linejoin:round;stroke-miterlimit:4;stroke-dasharray:6.4,6.4;stroke-dashoffset:0;stroke-opacity:1;paint-order:fill markers stroke;stop-color:#000" transform="rotate(9.747 884.275 1159.38)"/></g></svg>