<svg xmlns="http://www.w3.org/2000/svg" width="1706.667" height="1706.667"><g style="display:inline"><path d="M1298.031 865.098c70.798 131.454 185.382 239.025 198.706 401.828q-44.157-28.702-79.482 13.247c91.022 54.7 58.514 175.917 81.69 267.15l-99.353 6.623c66.759 58.919 81.773 128.186 90.522 198.707l-494.507 2.208c-24.38-41.482 23.114-208.564 66.235-227.044 0 0 3.38-20.015-75.353-9.455 28.741-247.272 185.695-422.176 311.542-653.264" style="display:inline;fill:#1d2f23;stroke:#1d2f23;stroke-width:64;stroke-linecap:round;stroke-linejoin:round;-inkscape-stroke:none;paint-order:fill markers stroke;stop-color:#000"/><path d="m848.093 1338.888-64.785 239.508 62.822-25.521-51.043 200.244 459.384-15.706s-127.606-94.232-149.201-184.539 51.042-253.25 51.042-253.25z" style="opacity:1;fill:#f1fff2;fill-opacity:1;stroke:#f1fff2;stroke-width:64;stroke-linecap:round;stroke-linejoin:round;stroke-miterlimit:4;stroke-dasharray:none;stroke-dashoffset:0;stroke-opacity:1;paint-order:fill markers stroke;stop-color:#000"/><path d="M168.695 584.991c159.19 66.22 328.093 166.756 449.448 272.192M61.389 404.517c268.258 96.076 498.427 235.827 654.73 460.276" style="display:inline;fill:none;fill-opacity:1;stroke:#69a66e;stroke-width:32;stroke-linecap:round;stroke-linejoin:round;stroke-miterlimit:4;stroke-dasharray:none;stroke-dashoffset:0;stroke-opacity:1;paint-order:fill markers stroke;stop-color:#000"/><path d="M792.618 1048.728c0 120.717-155.86 218.577-276.577 218.577s-160.577-55.86-160.577-176.577S453.324 830.15 574.04 830.15c120.716 0 218.577 97.86 218.577 218.577" style="display:inline;fill:#4ce64c;stroke:#000;stroke-width:64;stroke-linecap:round;stroke-linejoin:round;paint-order:fill markers stroke;stop-color:#000"/><path d="M498.974 962.622v170.004" style="opacity:1;fill:#fff;fill-opacity:1;stroke:#000;stroke-width:48;stroke-linecap:round;stroke-linejoin:round;stroke-miterlimit:4;stroke-dasharray:none;stroke-dashoffset:0;stroke-opacity:1;paint-order:fill markers stroke;stop-color:#000"/><path d="M574.041 830.15c-88.462 0-164.594 75.124-198.992 162.764h410.35C760.725 899.24 675.463 830.15 574.04 830.15" style="display:inline;fill:#6faa74;fill-opacity:1;stroke:#000;stroke-width:64;stroke-linecap:round;stroke-linejoin:round;paint-order:fill markers stroke;stop-color:#000"/><path d="M823.474 751.554s42.26-172.127 137.426-328.121c104.692-171.61 278.487-321.884 340.233-292.027s61.076 255.24 17.57 390.438-223.44 386.001-223.44 386.001z" style="opacity:1;fill:#69a66e;fill-opacity:1;stroke:#69a66e;stroke-width:64;stroke-linecap:round;stroke-miterlimit:4;stroke-dasharray:none;stroke-dashoffset:0;stroke-opacity:1;paint-order:fill markers stroke;stop-color:#000"/><path d="M1299.055 1153.559s-.108-10.821-.952-28.418a1183 1183 0 0 0-1.894-30.973c-.869-11.681-2-24.552-3.473-38.105s-3.289-27.788-5.523-42.202c-2.235-14.413-4.89-29.004-8.043-43.267a514 514 0 0 0-5.115-21.086 403 403 0 0 0-5.922-20.213c-2.115-6.55-4.374-12.892-6.787-18.963-2.414-6.07-4.983-11.87-7.715-17.334s-5.935-10.786-9.54-15.96c-3.604-5.176-7.61-10.206-11.948-15.085s-9.008-9.61-13.94-14.185c-4.932-4.577-10.126-9-15.514-13.266a324 324 0 0 0-16.67-12.324 392 392 0 0 0-17.41-11.364c-11.76-7.25-23.737-13.847-35.37-19.76-11.635-5.912-22.926-11.14-33.321-15.66A665 665 0 0 0 1071.984 764c-16.085-6.137-26.353-9.318-26.353-9.318-106.831-15.988-232.175 6.97-312.625 60.013-101.267 66.77-136.887 176.63-198.707 211.955s-225.2 77.273-280.397 83.897c-55.196 6.623-183.25 6.625-161.172 123.64 22.079 117.017 112.6 282.605 377.541 247.28s313.516-44.158 536.508-88.315c22.898-4.534 53.848-18.32 86.828-36.947l213.871-11.428-92.925-75.255c5.357-4.841 10.6-9.719 15.632-14.637l142.077-2.375-84.881-69.668c3.48-6.554 6.48-13.02 8.627-19.307 1.052-3.081 2.033-6.627 3.047-9.976" style="display:inline;opacity:1;fill:#f1fff2;stroke:#f1fff2;stroke-width:64;stroke-linecap:round;stroke-linejoin:round;stroke-miterlimit:4;stroke-dasharray:6.4,6.4;stroke-dashoffset:0;stroke-opacity:1;paint-order:fill markers stroke;stop-color:#000"/><path d="M880.931 744.045c-117.015 27.598-258.318 172.212-258.318 172.212-1.66-83.046-11.333-166.82 112.6-238.448-124.694-7.456-249.287-15.117-408.451 46.365 0 0 303.226-263.622 490.142-280.396 172.212-15.455 264.942 37.533 264.942 37.533-.193-45.683-31.458-88.26-90.522-128.055 0 0 295.852 97.145 333.385 194.29 37.533 97.146 28.702 167.797 28.702 167.797l-243.752 34.923s-111.712-33.82-228.728-6.221" style="display:inline;fill:#1d2f23;stroke:#1d2f23;stroke-width:64;stroke-linecap:round;stroke-linejoin:round;-inkscape-stroke:none;paint-order:fill markers stroke;stop-color:#000"/><path d="M1567.44 108.591c-78.45-12.776-282.463 242.623-323.299 323.156-36.358 71.701-140.958 250.085-170.655 300.628-226.903 418.82 174.087 310.23 186.014 434.426 114.495-100.435 332.374-315.684 377.029-534.7 61.137-299.858-18.217-515.225-69.09-523.51" style="display:inline;opacity:1;fill:#f1fff2;stroke:#f1fff2;stroke-width:64;stroke-linecap:round;stroke-linejoin:round;stroke-miterlimit:4;stroke-dasharray:6.4,6.4;stroke-dashoffset:0;stroke-opacity:1;paint-order:fill markers stroke;stop-color:#000"/><path d="m83.898 1201.07 68.444 6.623-37.534 39.741M401.828 1251.85l-59.612-44.157 121.432-17.663M132.47 1346.788l90.523-72.86s116.102 76.726 191.769 85.95" style="opacity:1;fill:none;fill-opacity:1;stroke:#000;stroke-width:64;stroke-linecap:round;stroke-linejoin:round;stroke-miterlimit:4;stroke-dasharray:none;stroke-dashoffset:0;stroke-opacity:1;paint-order:fill markers stroke;stop-color:#000"/><path d="m222.993 1530.039-90.522-183.251 90.522-72.86 103.769 66.236z" style="opacity:1;fill:#fff;fill-opacity:1;stroke:#000;stroke-width:64;stroke-linecap:round;stroke-linejoin:round;stroke-miterlimit:4;stroke-dasharray:none;stroke-dashoffset:0;stroke-opacity:1;paint-order:fill markers stroke;stop-color:#000"/><path d="m661.976 1226.049 53.367-115.501 86.53 168.71z" style="opacity:1;fill:#000;fill-opacity:1;stroke:#000;stroke-width:64;stroke-linecap:round;stroke-linejoin:round;stroke-miterlimit:4;stroke-dasharray:none;stroke-dashoffset:0;stroke-opacity:1;paint-order:fill markers stroke;stop-color:#000"/><path d="M1150.289 1075.222c0 120.717-151.86 218.577-272.577 218.577s-164.577-71.86-164.577-192.577 97.86-244.577 218.577-244.577 218.577 97.86 218.577 218.577" style="opacity:1;fill:#4ce64c;stroke:#000;stroke-width:64;stroke-linecap:round;stroke-linejoin:round;paint-order:fill markers stroke;stop-color:#000"/><path d="M841.19 982.493v189.874" style="opacity:1;fill:#fff;fill-opacity:1;stroke:#000;stroke-width:48;stroke-linecap:round;stroke-linejoin:round;stroke-miterlimit:4;stroke-dasharray:none;stroke-dashoffset:0;stroke-opacity:1;paint-order:fill markers stroke;stop-color:#000"/><path d="M729.744 1206.697c22.232 55.862 68.396 87.102 147.969 87.102 57.168 0 188.617-48.471 207.182-91.03zM931.713 856.645c-88.723 0-165.043 66.93-199.295 150.32h406.941c-28.675-87.277-110.775-150.32-207.646-150.32" style="opacity:1;fill:#6faa74;fill-opacity:1;stroke:#000;stroke-width:64;stroke-linecap:round;stroke-linejoin:round;paint-order:fill markers stroke;stop-color:#000"/><path d="M189.864 312.032c250.595 135.627 456.922 308.651 577.4 554.198" style="opacity:1;fill:none;fill-opacity:1;stroke:#f1fff2;stroke-width:32;stroke-linecap:round;stroke-linejoin:round;stroke-miterlimit:4;stroke-dasharray:none;stroke-dashoffset:0;stroke-opacity:1;paint-order:fill markers stroke;stop-color:#000"/><path d="M523.346 355.495c116.697 126.918 227.81 319.059 293.706 465.692" style="display:inline;fill:none;fill-opacity:1;stroke:#f1fff2;stroke-width:32;stroke-linecap:round;stroke-linejoin:round;stroke-miterlimit:4;stroke-dasharray:none;stroke-dashoffset:0;stroke-opacity:1;paint-order:fill markers stroke;stop-color:#000"/><g style="stroke-width:.780101" transform="matrix(1.2477 0 0 1.317 -55.799 -247.204)"><circle cx="181.097" cy="348.144" r="81.182" style="fill:#000;stroke:#fff;stroke-width:49.9266;stroke-linecap:round;stroke-linejoin:round;paint-order:fill markers stroke;stop-color:#000"/><circle cx="449.621" cy="348.144" r="81.182" style="display:inline;fill:#000;stroke:#fff;stroke-width:49.9266;stroke-linecap:round;stroke-linejoin:round;paint-order:fill markers stroke;stop-color:#000"/><circle cx="718.145" cy="348.144" r="81.182" style="display:inline;fill:#000;stroke:#fff;stroke-width:49.9266;stroke-linecap:round;stroke-linejoin:round;paint-order:fill markers stroke;stop-color:#000"/></g></g></svg>