<svg xmlns="http://www.w3.org/2000/svg" width="1706.667" height="1706.667"><g style="display:inline"><path d="M1454.15 855.73c70.798 131.455 185.382 239.025 198.706 401.829q-44.157-28.702-79.483 13.247c91.023 54.7 58.514 175.917 81.69 267.15l-99.352 6.623c66.758 58.919 81.773 128.186 90.521 198.707l-494.507 2.207c-24.38-41.48 23.115-208.563 66.236-227.043 0 0 3.379-20.015-75.354-9.455 28.741-247.272 185.695-422.176 311.542-653.264" style="display:inline;fill:#1d2f23;stroke:#1d2f23;stroke-width:64;stroke-linecap:round;stroke-linejoin:round;-inkscape-stroke:none;paint-order:fill markers stroke;stop-color:#000"/><path d="m1004.212 1329.52-64.785 239.509 62.822-25.522-51.043 200.245 459.384-15.706s-127.607-94.232-149.202-184.539 51.043-253.25 51.043-253.25z" style="opacity:1;fill:#f1fff2;fill-opacity:1;stroke:#f1fff2;stroke-width:64;stroke-linecap:round;stroke-linejoin:round;stroke-miterlimit:4;stroke-dasharray:none;stroke-dashoffset:0;stroke-opacity:1;paint-order:fill markers stroke;stop-color:#000"/><path d="M214.247 510.634C361.204 600.801 512.42 726.377 615.904 849.4M136.307 315.67c250.057 136.62 455.696 310.46 575.2 556.482" style="display:inline;fill:none;fill-opacity:1;stroke:#69a66e;stroke-width:32;stroke-linecap:round;stroke-linejoin:round;stroke-miterlimit:4;stroke-dasharray:none;stroke-dashoffset:0;stroke-opacity:1;paint-order:fill markers stroke;stop-color:#000" transform="rotate(11.694 1113.397 2157.161)"/><path d="M734.642 944.278S629.696 801.45 571.06 628.38c-64.505-190.393-68.317-420.115-5.806-448.335 62.512-28.22 234.993 116.861 310.809 236.957 75.815 120.096 152.815 419.01 152.815 419.01z" style="opacity:1;fill:#69a66e;fill-opacity:1;stroke:#69a66e;stroke-width:64;stroke-linecap:round;stroke-miterlimit:4;stroke-dasharray:none;stroke-dashoffset:0;stroke-opacity:1;paint-order:fill markers stroke;stop-color:#000" transform="rotate(11.694 1113.397 2157.161)"/><path d="M792.618 1048.728c0 120.717-155.86 218.577-276.577 218.577s-160.577-55.86-160.577-176.577S453.324 830.15 574.04 830.15c120.716 0 218.577 97.86 218.577 218.577" style="display:inline;fill:#4ce64c;stroke:#000;stroke-width:64;stroke-linecap:round;stroke-linejoin:round;paint-order:fill markers stroke;stop-color:#000" transform="rotate(11.694 1113.397 2157.161)"/><path d="m485.408 963.711 27.131 167.826" style="opacity:1;fill:#fff;fill-opacity:1;stroke:#000;stroke-width:48;stroke-linecap:round;stroke-linejoin:round;stroke-miterlimit:4;stroke-dasharray:none;stroke-dashoffset:0;stroke-opacity:1;paint-order:fill markers stroke;stop-color:#000" transform="rotate(11.694 1113.397 2157.161)"/><path d="M1299.055 1153.559s-.108-10.821-.952-28.418a1183 1183 0 0 0-1.894-30.973c-.869-11.681-2-24.552-3.473-38.105s-3.289-27.788-5.523-42.202c-2.235-14.413-4.89-29.004-8.043-43.267a514 514 0 0 0-5.115-21.086 403 403 0 0 0-5.922-20.213c-2.115-6.55-4.374-12.892-6.787-18.963-2.414-6.07-4.983-11.87-7.715-17.334s-5.935-10.786-9.54-15.96c-3.604-5.176-7.61-10.206-11.948-15.085s-9.008-9.61-13.94-14.185c-4.932-4.577-10.126-9-15.514-13.266a324 324 0 0 0-16.67-12.324 392 392 0 0 0-17.41-11.364c-11.76-7.25-23.737-13.847-35.37-19.76-11.635-5.912-22.926-11.14-33.321-15.66A665 665 0 0 0 1071.984 764c-16.085-6.137-26.353-9.318-26.353-9.318-106.831-15.988-232.175 6.97-312.625 60.013-101.267 66.77-136.887 176.63-198.707 211.955s-225.2 77.273-280.397 83.897c-55.196 6.623-183.25 6.625-161.172 123.64 22.079 117.017 112.6 282.605 377.541 247.28s313.516-44.158 536.508-88.315c22.898-4.534 53.848-18.32 86.828-36.947l213.871-11.428-92.925-75.255c5.357-4.841 10.6-9.719 15.632-14.637l142.077-2.375-84.881-69.668c3.48-6.554 6.48-13.02 8.627-19.307 1.052-3.081 2.033-6.627 3.047-9.976" style="display:inline;opacity:1;fill:#f1fff2;stroke:#f1fff2;stroke-width:64;stroke-linecap:round;stroke-linejoin:round;stroke-miterlimit:4;stroke-dasharray:6.4,6.4;stroke-dashoffset:0;stroke-opacity:1;paint-order:fill markers stroke;stop-color:#000" transform="rotate(11.694 1113.397 2157.161)"/><path d="M880.931 744.045c-117.015 27.598-258.318 172.212-258.318 172.212-1.66-83.046-11.333-166.82 112.6-238.448-124.694-7.456-249.287-15.117-408.451 46.365 0 0 303.226-263.622 490.142-280.396 172.212-15.455 264.942 37.533 264.942 37.533-.193-45.683-31.458-88.26-90.522-128.055 0 0 295.852 97.145 333.385 194.29 37.533 97.146 28.702 167.797 28.702 167.797l-243.752 34.923s-111.712-33.82-228.728-6.221" style="display:inline;fill:#1d2f23;stroke:#1d2f23;stroke-width:64;stroke-linecap:round;stroke-linejoin:round;-inkscape-stroke:none;paint-order:fill markers stroke;stop-color:#000" transform="rotate(11.694 1113.397 2157.161)"/><path d="M1028.988 103.355c-75.55 24.693-139.427 345.27-138.702 435.56.647 80.391-10.31 286.89-13.468 345.427 0 0 10.748-.166 27.944.67a665 665 0 0 1 30.091 2.153c11.284 1.066 23.642 2.528 36.537 4.534s26.328 4.555 39.76 7.794a392 392 0 0 1 20.078 5.392 324 324 0 0 1 19.674 6.536c6.446 2.381 12.757 4.972 18.867 7.79s12.018 5.862 17.657 9.153c5.639 3.29 11.01 6.826 16.044 10.625s9.731 7.863 14.025 12.208 8.538 9.06 12.719 14.08 8.296 10.346 12.342 15.916a403 403 0 0 1 11.908 17.373 514 514 0 0 1 11.413 18.453c7.428 12.578 14.485 25.622 21.086 38.628 6.602 13.007 12.75 25.973 18.36 38.398a1129 1129 0 0 1 15.14 35.14 1183 1183 0 0 1 11.422 28.852c6.269 16.465 9.733 26.717 9.733 26.717 55.557-141.809 150.196-433.094 89.242-648.144-83.454-294.43-252.88-449.267-301.872-433.255" style="display:inline;opacity:1;fill:#f1fff2;stroke:#f1fff2;stroke-width:64;stroke-linecap:round;stroke-linejoin:round;stroke-miterlimit:4;stroke-dasharray:6.4,6.4;stroke-dashoffset:0;stroke-opacity:1;paint-order:fill markers stroke;stop-color:#000" transform="rotate(11.694 1113.397 2157.161)"/><g style="display:inline;fill:none;fill-opacity:1;stroke:#880;stroke-width:.84694;stroke-opacity:1"><path d="M-791.126 1425.855h71.515v184.22h-71.515z" style="fill:none;fill-opacity:1;stroke:#f1fff2;stroke-width:96.0001;stroke-linecap:round;stroke-linejoin:round;stroke-miterlimit:4;stroke-dasharray:none;stroke-opacity:1;paint-order:fill markers stroke;stop-color:#000" transform="rotate(-41.078 -390.777 13.04)scale(1.18072)"/><path d="M102.805 1313.581s-65.914 196.87-78.51 213.968M465.365 1469.399l-375.87 27.754M83.585 1562.01l235.596-10.647-227.013 41.957M71.289 1621.58l186.896-12.059L75.21 1653.33" style="fill:none;fill-opacity:1;stroke:#f1fff2;stroke-width:81.3062;stroke-linecap:round;stroke-linejoin:round;stroke-miterlimit:4;stroke-dasharray:none;stroke-opacity:1;paint-order:fill markers stroke;stop-color:#000" transform="rotate(-11.032 -1365.195 415.67)scale(1.18072)"/><path d="M89.494 1497.153s-91.661 27.931-87.474 89.368c4.188 61.437 73.191 66.808 73.191 66.808z" style="fill:none;fill-opacity:1;stroke:#f1fff2;stroke-width:81.3062;stroke-linecap:round;stroke-linejoin:round;stroke-miterlimit:4;stroke-dasharray:none;stroke-opacity:1;paint-order:fill markers stroke;stop-color:#000" transform="rotate(-11.032 -1365.195 415.67)scale(1.18072)"/></g><path d="m83.898 1201.07 68.444 6.623-37.534 39.741M401.828 1251.85l-59.612-44.157 121.432-17.663" style="opacity:1;fill:none;fill-opacity:1;stroke:#000;stroke-width:64;stroke-linecap:round;stroke-linejoin:round;stroke-miterlimit:4;stroke-dasharray:none;stroke-dashoffset:0;stroke-opacity:1;paint-order:fill markers stroke;stop-color:#000" transform="rotate(11.694 1113.397 2157.161)"/><path d="m222.993 1530.039-90.522-183.251 90.522-72.86 103.769 66.236z" style="opacity:1;fill:#fff;fill-opacity:1;stroke:#000;stroke-width:64;stroke-linecap:round;stroke-linejoin:round;stroke-miterlimit:4;stroke-dasharray:none;stroke-dashoffset:0;stroke-opacity:1;paint-order:fill markers stroke;stop-color:#000" transform="rotate(11.694 1113.397 2157.161)"/><path d="m661.976 1226.049 53.367-115.501 86.53 168.71z" style="opacity:1;fill:#000;fill-opacity:1;stroke:#000;stroke-width:64;stroke-linecap:round;stroke-linejoin:round;stroke-miterlimit:4;stroke-dasharray:none;stroke-dashoffset:0;stroke-opacity:1;paint-order:fill markers stroke;stop-color:#000" transform="rotate(11.694 1113.397 2157.161)"/><path d="M1150.289 1075.222c0 120.717-151.86 218.577-272.577 218.577s-164.577-71.86-164.577-192.577 97.86-244.577 218.577-244.577 218.577 97.86 218.577 218.577" style="opacity:1;fill:#4ce64c;stroke:#000;stroke-width:64;stroke-linecap:round;stroke-linejoin:round;paint-order:fill markers stroke;stop-color:#000" transform="rotate(11.694 1113.397 2157.161)"/><path d="m821.682 984.518 39.016 185.824" style="opacity:1;fill:#fff;fill-opacity:1;stroke:#000;stroke-width:48;stroke-linecap:round;stroke-linejoin:round;stroke-miterlimit:4;stroke-dasharray:none;stroke-dashoffset:0;stroke-opacity:1;paint-order:fill markers stroke;stop-color:#000" transform="rotate(11.694 1113.397 2157.161)"/><path d="M422.098 125.101c177.002 223.301 298.59 463.56 312.717 736.706" style="opacity:1;fill:none;fill-opacity:1;stroke:#f1fff2;stroke-width:32;stroke-linecap:round;stroke-linejoin:round;stroke-miterlimit:4;stroke-dasharray:none;stroke-dashoffset:0;stroke-opacity:1;paint-order:fill markers stroke;stop-color:#000" transform="rotate(11.694 1113.397 2157.161)"/><path d="M711.568 296.293c57.336 162.6 95.675 355.385 98.55 516.12" style="display:inline;fill:none;fill-opacity:1;stroke:#f1fff2;stroke-width:32;stroke-linecap:round;stroke-linejoin:round;stroke-miterlimit:4;stroke-dasharray:none;stroke-dashoffset:0;stroke-opacity:1;paint-order:fill markers stroke;stop-color:#000" transform="rotate(11.694 1113.397 2157.161)"/><g style="stroke-width:.803469" transform="matrix(1.22002 -.249 .24924 1.21882 -173.694 -260.092)"><circle cx="603.162" cy="866.902" r="44.295" style="fill:#fff;fill-opacity:1;stroke:#000;stroke-width:43.5514;stroke-linecap:round;stroke-linejoin:round;stroke-miterlimit:4;stroke-dasharray:none;stroke-opacity:1;paint-order:fill markers stroke;stop-color:#000" transform="rotate(11.032)"/><ellipse cx="453.012" cy="754.355" rx="65.063" ry="65.062" style="fill:#fff;fill-opacity:1;stroke:#000;stroke-width:43.5514;stroke-linecap:round;stroke-linejoin:round;stroke-miterlimit:4;stroke-dasharray:none;stroke-opacity:1;paint-order:fill markers stroke;stop-color:#000" transform="rotate(11.032)"/><path d="M520.654 60.887A216.22 216.22 0 0 0 404.06 95.525a186.56 186.56 0 0 0-98.848-28.394 186.56 186.56 0 0 0-181.428 144.432 85.87 85.87 0 0 0-51.969 78.818 85.865 85.865 0 0 0 85.866 85.865 86 86 0 0 0 6.998-.459 186.56 186.56 0 0 0 140.533 64.467 186.6 186.6 0 0 0 33.357-3.387 96.8 96.8 0 0 0 79.83 42.416 96.8 96.8 0 0 0 19.907-2.273 216.2 216.2 0 0 0 82.35 16.324 216.2 216.2 0 0 0 101.566-25.74 114 114 0 0 0 11.62.761A113.966 113.966 0 0 0 747.808 354.39a114 114 0 0 0-12.584-51.998 216 216 0 0 0 1.656-25.282 216.2 216.2 0 0 0-13.086-73.97 81.2 81.2 0 0 0 13.086-43.899 81.18 81.18 0 0 0-81.182-81.181 81.2 81.2 0 0 0-34.295 7.771 216.2 216.2 0 0 0-100.748-24.943" style="fill:#fff;fill-opacity:1;stroke:#000;stroke-width:51.422;stroke-linecap:round;stroke-linejoin:round;stroke-miterlimit:4;stroke-dasharray:none;stroke-opacity:1;paint-order:fill markers stroke;stop-color:#000" transform="rotate(11.032 -1172.107 516.34)scale(.84694)"/></g></g></svg>