<svg xmlns="http://www.w3.org/2000/svg" viewBox="0 0 80 80" width="80" height="80" focusable="false" aria-hidden="true"><path d="M3 3h52v74H3z" style="fill:var(--color-surface)"/><path d="M2 2h54v76H2z" style="fill:none;stroke:var(--color-furniture);stroke-miterlimit:10;stroke-width:4px"/><path style="fill:var(--color-text-accent)" d="M16.68 56h24.64c-.93-.11-5.6-.66-8.89-4.68-3.22-3.94-2.82-7.91-2.77-8.89 1.13 2.99 3.4 4.62 6.35 4.95 2.38.27 5.99-.49 7.42-3.66 1.25-2.77.37-6.31-2.25-8.41-.66-.55-1.33-1.14-1.99-1.76-5.21-4.94-8.22-10.56-10.19-15.54h-.01C27.02 22.99 24 28.61 18.8 33.55c-.66.63-1.32 1.21-1.99 1.76-2.62 2.1-3.51 5.64-2.25 8.41 1.44 3.18 5.04 3.94 7.42 3.66 2.94-.34 5.22-1.96 6.35-4.95.05.98.45 4.95-2.77 8.89-3.28 4.02-7.95 4.57-8.89 4.68ZM6.71 16.07h6.57c-.25-.03-1.49-.17-2.37-1.23-.86-1.04-.75-2.08-.74-2.34.3.79.91 1.21 1.69 1.3.63.07 1.6-.13 1.98-.96.33-.73.1-1.66-.6-2.21-.18-.14-.35-.3-.53-.46-1.39-1.3-2.19-2.78-2.72-4.09-.53 1.31-1.33 2.79-2.72 4.09-.18.16-.35.32-.53.46-.7.55-.94 1.49-.6 2.21.38.84 1.35 1.04 1.98.96.78-.09 1.39-.52 1.69-1.3.01.26.12 1.3-.74 2.34-.88 1.06-2.12 1.2-2.37 1.23ZM51.29 64h-6.57c.25.03 1.49.17 2.37 1.23.86 1.04.75 2.08.74 2.34-.3-.79-.91-1.21-1.69-1.3-.63-.07-1.6.13-1.98.96-.33.73-.1 1.66.6 2.21.18.14.35.3.53.46 1.39 1.3 2.19 2.78 2.72 4.09.53-1.31 1.33-2.79 2.72-4.09.18-.16.35-.32.53-.46.7-.55.94-1.49.6-2.21-.38-.84-1.35-1.04-1.98-.96-.78.09-1.39.52-1.69 1.3-.01-.26-.12-1.3.74-2.34.88-1.06 2.12-1.2 2.37-1.23Z"/></svg>
