<svg xmlns="http://www.w3.org/2000/svg" viewBox="0 0 80 80" width="80" height="80" focusable="false" aria-hidden="true"><path d="M3 10v60h74V10zm49 10H28v-4h24z" style="fill:var(--color-surface)"/><path d="M2 10h76v60H2z" style="fill:none;stroke:var(--color-furniture);stroke-miterlimit:10;stroke-width:4px"/><path d="M32 0h16v18H32z" style="fill:var(--color-furniture)"/><path d="M53.12 54.28c.3-1.76-.89-3.17-2.37-4.03.02-.92.19-2.03-.64-2.68.4-.99.19-1.98-.69-2.53C57.94 32.89 47 20.3 42.84 30.81c-.7 3.15-.88 7.04-2.11 10.24-.58.09-.61.18-1.24.53-1.43-3.18-1.61-7.51-2.34-10.77-4.15-10.48-15.11 2.03-6.57 14.25-.87.53-1.08 1.6-.72 2.52-.82.66-.63 1.76-.62 2.67-2.36 1.45-3.45 3.71-1.23 6.34-.97 2.2 1.34 2.61 2.8 3.2 2.39 2.67 5.37 4.78 9.19 4.67 3.82.11 6.8-2.01 9.19-4.67 1.45-.59 3.78-1.02 2.8-3.2.99-1.05 1.12-2.06 1.13-2.31" style="fill:var(--color-text-accent)"/></svg>
