<svg xmlns="http://www.w3.org/2000/svg" viewBox="0 0 80 80" width="80" height="80" focusable="false" aria-hidden="true"><path d="M39.2 48.9a18.7 18.7 0 0 1-25.9-17.1c0-10.2 8.4-18.5 18.7-18.5a18.6 18.6 0 0 1 17 26.2l17.7 6.2q1.5-4.6 1.6-9.8c0-17.6-14.4-32-32.2-32S4 18.4 4 36a32 32 0 0 0 41.4 30.5z" style="fill:var(--color-surface)"/><path d="M34.1 34.4 48.7 76 76 49z" style="fill:var(--color-furniture)"/><path d="M34.1 34.4 48.7 76 76 49z" style="fill:none;stroke:var(--color-furniture);stroke-miterlimit:10;stroke-width:4px"/><path d="M39.2 48.9a18.7 18.7 0 0 1-25.9-17.1c0-10.2 8.4-18.5 18.7-18.5a18.6 18.6 0 0 1 17 26.2l17.7 6.2q1.5-4.6 1.6-9.8c0-17.6-14.4-32-32.2-32S4 18.4 4 36a32 32 0 0 0 41.4 30.5z" style="fill:none;stroke:var(--color-furniture);stroke-miterlimit:10;stroke-width:4px"/><ellipse cx="32" cy="31.8" rx="7.3" ry="7.2" style="fill:var(--color-text-accent)"/></svg>
