<svg xmlns="http://www.w3.org/2000/svg" viewBox="0 0 80 80" width="80" height="80" focusable="false" aria-hidden="true"><path d="m6 46 15-26 52 42-5 8z" style="fill:var(--color-surface)"/><path d="m21 20 3-5 51 41-3 5z" style="fill:var(--color-text-accent)"/><path d="M27.45 8.28 2.26 51.9M77.74 53.17 66.29 73M24.16 13.98l51.72 42.41M68.01 70.03 5.7 45.95" style="fill:none;stroke:var(--color-furniture);stroke-linejoin:bevel;stroke-width:4px"/><path d="m20.87 19.68 51.86 42.17" style="fill:none;stroke:var(--color-furniture);stroke-linejoin:bevel;stroke-width:2px"/><path d="M24.82 53.33c-2.53 4.38-.99 10 3.44 12.56l6.02 3.47c4.43 2.56 10.07 1.08 12.6-3.3l2.13-3.7M24.86 53.27l-.04.06" style="fill:none;stroke:var(--color-furniture);stroke-miterlimit:10;stroke-width:4px"/></svg>
