<svg xmlns="http://www.w3.org/2000/svg" viewBox="0 0 80 80" width="80" height="80" focusable="false" aria-hidden="true"><circle cx="40" cy="45" r="33" style="fill:var(--color-surface)"/><g style="fill:var(--color-text-accent)"><path d="m23.7 75 15.4-62.8 2 .4-15.4 62.8z"/><path d="m39 12.5 2-.4 15.3 62.7-2 .5z"/><path d="m13.7 23.2 1.6-1.2 40.9 52.6-1.6 1.2z"/><path d="m14 23.5.9-1.8 57.5 29.5-1 1.7z"/><path d="M7.6 51.2 65 21.7l.9 1.8L8.5 52.9z"/><path d="M23.9 74.6 64.8 22l1.6 1.2-41 52.6z"/><path d="M8.1 51.1H72v2H8.1z"/></g><g style="fill:var(--color-furniture)"><path d="M40 14a31 31 0 1 1 0 62 31 31 0 0 1 0-62m0-4a35 35 0 1 0 0 70 35 35 0 0 0 0-70"/><path d="M40 8.2 73.2 67H6.8zM40 0 0 71h80z"/></g></svg>
