<svg xmlns="http://www.w3.org/2000/svg" viewBox="0 0 80 80" width="80" height="80" focusable="false" aria-hidden="true"><path d="M76 29H59V7H21v22H4v29h15l-2.1 3.4-2.1 3.9 3.8 2.2 7.9 4.5 1.7 1 1.8-.6 10-3 10 3 1.8.6 1.7-1 7.9-4.5 3.8-2.2-2.1-3.9L61 58h15z" style="fill:var(--color-surface)"/><path d="m20.9 63.6 7.9 4.5L40 64.7l11.3 3.4 7.8-4.5-13.5-24.9H34.4z" style="fill:var(--color-text-accent);fill-rule:evenodd"/><path d="M25 11h13v22H25zM42 11h13v22H42zM59 33h13v21H59zM8 33h13v21H8z" style="fill:var(--color-text-accent)"/><path style="fill:var(--color-furniture)" d="M59 7v22h17v29H61l2 3.4 2.2 4-3.8 2.1-8 4.5-1.6 1-1.8-.6-10-3-10 3-1.8.6-1.7-1-7.9-4.5-3.8-2.2 2.1-3.9 2-3.4H4V29h17V7zm4-4H17v22H0v37h12l-.7 1.4-1.9 3.4 3.4 2 3.9 2.2 7.8 4.5 1.7 1 1.5.8 1.7-.5 1.8-.5 8.8-2.7 8.8 2.7 1.9.5 1.6.5 1.5-.8 1.7-1 7.9-4.5 3.8-2.2 3.4-2-1.9-3.4L68 62H80V25H63z"/></svg>
