<svg xmlns="http://www.w3.org/2000/svg" viewBox="0 0 80 80" width="80" height="80" focusable="false" aria-hidden="true"><path d="M11.5 70A15.5 15.5 0 0 1 2 55.4V54q0-5 3-9.4t7.7-6.6l.2-.8Q10.4 35 9 32q-1.5-3-1.5-5.8v-1.6q0-5.2 2.6-9t7.4-5.6q4.8-2 11-2c6.3 0 7.7.6 10.7 2q4.5 1.8 6.8 5.3a14 14 0 0 1 2.3 8v1.1q0 4.4-2.9 8.3a19 19 0 0 1-8.5 6.2l7.3 6.2q.9-3.4 1.2-6.4l.3-1.6H67v12.5H56l-.9 2.1-.9 2.2L74 71H50.8L43 64.4A21 21 0 0 1 34 70q-5.5 2-11.9 2c-6.4 0-7.6-.8-10.7-2.2Zm18.2-12.2a7 7 0 0 0 2.8-2.2l-10.5-9a6 6 0 0 0-3 5.4v1q0 2.5 1.8 4a7 7 0 0 0 4.8 1.7q2.2 0 4-.9m1-28 1.5-2.2q.5-1.3.5-2.5v-1.5q0-1.4-.5-2.3T30.6 20t-2.3-.4q-2.1 0-3.2 1a4 4 0 0 0-1.1 3V25q0 1.2.5 2.4T26 30c1 1.2 1.4 1.6 2.4 2.4q1.5-1.3 2.4-2.4" style="fill:var(--color-surface)"/><path d="M66 38H45.4v.7L45 41v6.6h21z" style="fill:var(--color-text-accent)"/><path d="M11.5 70A15.5 15.5 0 0 1 2 55.4V54q0-5 3-9.4t7.7-6.6l.2-.8Q10.4 35 9 32q-1.5-3-1.5-5.8v-1.6q0-5.2 2.6-9t7.4-5.6q4.8-2 11-2c6.3 0 7.7.6 10.7 2q4.5 1.8 6.8 5.3a14 14 0 0 1 2.3 8v1.1q0 4.4-2.9 8.3a19 19 0 0 1-8.5 6.2l7.3 6.2q.9-3.4 1.2-6.4l.3-1.6H67v12.5H56l-.9 2.1-.9 2.2L74 71H50.8L43 64.4A21 21 0 0 1 34 70q-5.5 2-11.9 2c-6.4 0-7.6-.8-10.7-2.2Zm18.2-12.2a7 7 0 0 0 2.8-2.2l-10.5-9a6 6 0 0 0-3 5.4v1q0 2.5 1.8 4a7 7 0 0 0 4.8 1.7q2.2 0 4-.9Zm1-28 1.5-2.2q.5-1.3.5-2.5v-1.5q0-1.4-.5-2.3T30.6 20t-2.3-.4q-2.1 0-3.2 1a4 4 0 0 0-1.1 3V25q0 1.2.5 2.4T26 30c1 1.2 1.4 1.6 2.4 2.4q1.5-1.3 2.4-2.4Z" style="fill:none;stroke:var(--color-furniture);stroke-miterlimit:10;stroke-width:4px"/></svg>
