<svg xmlns="http://www.w3.org/2000/svg" width="64" height="64" viewBox="0 0 64 64" focusable="false"><title>Amphimorpho Webring icon</title><path style="fill:var(--color-furniture)" d="M20.9 18.9s0 .2.2.4c0-.1-.2-.2-.2-.4ZM22.7 2.1c-.4.1-.7.2-1.1.3.4-.1.7-.2 1.1-.3ZM25.3 14H25h.3ZM23.7 14.6s-.2.1-.3.2c0 0 .2-.1.3-.2ZM20.8 2.7c-.4.1-.8.3-1.2.5.4-.2.8-.3 1.2-.5ZM24.8 21.9h.1-.1ZM22.5 15.5l-.2.2.2-.2ZM23.1 15s-.2.1-.3.2c0 0 .2-.1.3-.2ZM24.5 14.3c-.1 0-.2 0-.3.1.1 0 .2 0 .3-.1ZM7.1 19.2v-1.5 1.5ZM24.1 1.7c-.1 0-.3 0-.4.1.6-.2 1.2-.3 1.8-.4.9-.2 1.7 0 2.5.5.7.5 1.1 1.2 1.3 1.9 2.4-.4 5.4-.6 8.9-.6 5.5 0 11.1 2.2 13.6 4.1 4 3.1 3.5 6.5-.3 8.7-2.3 1.3-1.8 7.5-5.1 7.5s-2.5-7.7-6.5-7.7-3.1 4.3-6.7 3.7c-2.3-.4-2.9-4-3.8-6.5-.6.6-1.4.9-2.2.9h-.9c.2.5.4 1.2.6 1.8.8 2.5 2 6.3 5.8 6.9 3.7.6 5.4-1.8 6.3-2.9.2-.2.4-.6.5-.7.2.4.4 1.1.6 1.6.7 2.1 2 6.1 6.3 6.1s5.5-4 6.2-6.2c.2-.6.5-1.5.7-1.8 2.7-1.6 4.3-3.9 4.4-6.4.1-1.9-.5-4.7-4-7.5-3-2.4-9.3-4.8-15.5-4.8s-9.8.5-13.3 1.5c-.3 0-.5.1-.7.2ZM57.9 47.4c1.2-9.2-5.1-16-18.7-20.4-.7-.2-1.5-.5-2.3-.7-3.3-1-8.3-2.6-11.9-4.3.4.2.9.4 1.4.7.5.2 1 .6 1.3 1.1.6.8 1.7 2.1 4.5 3.1 2.7 1 5.6 2.4 8.3 4.1 13.2 4.9 14.6 11.3 14 16-.9 7.2-9.1 13-11.5 13.8h-3.4c-1.5 1-3.2 1.9-5 2.9-.4.2-.9.3-1.4.3h9.9c.3 0 .6 0 1-.1 3.3-1 12.6-7.7 13.7-16.5ZM21.8 16.1l.1-.1s-.1 0-.1.1ZM7.1 17.6c.1-5.4 4-10.2 10.3-13.4-6.4 3.2-10.2 8-10.3 13.4ZM19 3.4c-.5.2-.9.4-1.4.6.5-.2.9-.4 1.4-.6ZM26.2 13.9h-.3.3ZM21.6 2.4c-.3 0-.5.2-.8.3.3 0 .5-.2.8-.3ZM7 17.7v-.1.1ZM23.7 1.8c-.3 0-.6.2-1 .3.3 0 .6-.2 1-.3ZM19.6 3.2c-.2 0-.4.2-.6.2.2 0 .4-.2.6-.2ZM24.9 22h.1-.1ZM17.6 4s-.2 0-.3.1c0 0 .2 0 .3-.1ZM21.9 15.9c0-.1.2-.2.3-.3l-.3.3ZM24.8 21.9c-2.4-1.2-3.4-2.2-3.7-2.7.6.9 1.9 1.8 3.7 2.7ZM25.9 13.9c-.2 0-.4 0-.6.1.2 0 .4 0 .6-.1ZM26.2 13.9ZM22.8 15.2c-.1 0-.2.2-.3.3.1 0 .2-.2.3-.3ZM21.8 16.1c-.1.2-.3.3-.4.5.1-.1.2-.3.4-.5ZM23.4 14.8c-.1 0-.3.2-.4.2.1 0 .3-.2.4-.2ZM25 14.1c-.2 0-.3.1-.5.2.2 0 .3-.1.5-.2ZM24.2 14.4c-.2 0-.3.1-.4.2.1 0 .3-.1.4-.2Z"/><path style="fill:var(--color-furniture)" d="M29.4 12.9c-.5-1.3-1.1-2.3-2.2-2.3-6.2 0-10.8 5.1-9.3 9.3.8 2.2 3.7 4.1 7.3 5.7 3.9 1.7 8.8 3.1 13 4.5.9.3 1.7.6 2.5.9-2.7-1.7-5.7-3.1-8.3-4.1-2.8-1.1-3.9-2.3-4.5-3.1-.3-.5-.8-.9-1.3-1.1-.5-.2-1-.5-1.4-.7H25c-1.8-.9-3.2-1.8-3.7-2.7-.1-.2-.2-.3-.2-.4-.3-.9.2-1.8.5-2.3.1-.1.2-.3.4-.5l.1-.1c0-.1.2-.2.3-.3l.2-.2c.1 0 .2-.2.3-.3 0 0 .2-.1.3-.2.1 0 .3-.2.4-.2 0 0 .2-.1.3-.2.1 0 .3-.1.4-.2.1 0 .2 0 .3-.1.2 0 .3-.1.5-.2h.3c.2 0 .4 0 .6-.1h1.2c.8 0 1.6-.3 2.2-.9Z"/><path style="fill:var(--color-furniture)" d="M39.8 60.8H14.6c18.2-3 29.2-10.4 28.2-15.9-1-5.6-9.6-9-18.2-12.8-8.8-3.9-13.7-7.8-14.3-13.2C9.6 12.3 16.2 7 25.1 4.8c.2 0 .4-.2.6-.2 1.1-.3 2.2-.5 3.6-.7-.2-.8-.6-1.5-1.3-1.9-.7-.5-1.6-.7-2.5-.5-.6.1-1.2.3-1.8.4-.3 0-.6.2-1 .3-.4.1-.7.2-1.1.3-.3 0-.5.2-.8.3-.4.1-.8.3-1.2.5-.2 0-.4.2-.6.2-.5.2-1 .4-1.4.6 0 0-.2 0-.3.1C11 7.4 7.1 12.2 7 17.6v1.6c.9 8.1 8.7 12.5 16.2 15.8l1.7.7c6.6 2.9 14.1 6.2 14.7 9.7 0 .4-.2 1-.6 1.6-2.6 3.6-11.3 8.3-24.9 10.6-1.6.3-2.8 1.8-2.7 3.4.1 1.7 1.5 2.9 3.2 2.9h18.8c.5 0 1-.1 1.4-.3 1.8-.9 3.5-1.9 5-2.9Z"/><path style="fill:var(--color-accent)" d="M25.7 4.6c3-.8 7-1.4 12.5-1.4s11.1 2.2 13.6 4.1c4 3.1 3.5 6.5-.3 8.7-2.3 1.3-1.8 7.5-5.1 7.5s-2.5-7.7-6.5-7.7-3.1 4.3-6.7 3.7c-3.5-.6-2.9-8.8-6-8.8s-4.1-.9-4.5-2.3c-.4-1.5.7-3.1 3-3.8Z" /></svg>
