<svg xmlns="http://www.w3.org/2000/svg" width="64" height="64" viewBox="0 0 64 64" focusable="false"><title>Roboring logo</title><path style="fill:var(--color-furniture)" d="M62 4c0-2.2-1.8-4-4-4h-4c-2.2 0-4 1.8-4 4v5.4c-12.1-4.7-25.7-4.4-37.7.7l-7.5 3.2C1.9 14.6 0 17.4 0 20.7v16.7c0 3.2 1.9 6.1 4.8 7.4l4.3 1.8c-1 .4-2 1-2.8 1.8C4.8 49.9 4 51.9 4 54.1v6c0 2.2 1.8 4 4 4h48c2.2 0 4-1.8 4-4v-6c0-2.1-.8-4.1-2.3-5.7-.8-.8-1.7-1.4-2.8-1.8l4.3-1.8c2.9-1.3 4.8-4.1 4.8-7.4V20.7c0-2-.7-3.8-2-5.3V4Zm-6 50v6H8v-6c0-1.1.4-2.1 1.2-2.8C10 50.4 11 50 12 50h1.5c1.5 0 3 .6 4.2 1.8l1.1 1.1c.7.7 1.8 1.2 2.8 1.2h20.7c1.1 0 2.1-.4 2.8-1.2l1.1-1.1c1.1-1.1 2.7-1.8 4.2-1.8h1.5c1.1 0 2.1.4 2.8 1.2.8.8 1.2 1.8 1.2 2.8Zm4-16.6c0 1.6-1 3-2.4 3.7-1.8.8-4.5 1.9-7.5 3.2-11.6 5-24.7 5-36.2 0-3-1.3-5.6-2.4-7.5-3.2C4.9 40.5 4 39 4 37.4V20.7c0-1.6 1-3 2.4-3.7l1.6-.7 5.9-2.5c11.6-5 24.7-5 36.2 0l3.9 1.7V4h4v13.2c1.2.7 2 2 2 3.5v16.7Z"/><path style="fill:var(--color-accent)" d="M22 19c0-.8-.3-1.6-.9-2.1-.6-.6-1.3-.9-2.1-.9s-1.6.3-2.1.9c-.6.6-.9 1.3-.9 2.1v4c0 .8.3 1.6.9 2.1.6.6 1.3.9 2.1.9s1.6-.3 2.1-.9.9-1.3.9-2.1v-4ZM48 19c0-.8-.3-1.6-.9-2.1-.6-.6-1.3-.9-2.1-.9s-1.6.3-2.1.9c-.6.6-.9 1.3-.9 2.1v4c0 .8.3 1.6.9 2.1.6.6 1.3.9 2.1.9s1.6-.3 2.1-.9c.6-.6.9-1.3.9-2.1v-4Z"/><path style="fill:var(--color-accent)" d="M32.3 37.5h-.6c-4.1 0-7.9-1.6-10.8-4.4-.6-.6-.6-1.5 0-2.1.6-.6 1.5-.6 2.1 0 2.3 2.3 5.4 3.6 8.7 3.6h.6c3.2 0 6.3-1.3 8.6-3.6.6-.6 1.5-.6 2.1 0 .6.6.6 1.5 0 2.1-2.9 2.9-6.7 4.4-10.7 4.4Z"/><path style="fill:var(--color-accent)" d="M36 14c0-1.1-.9-2-2-2h-4c-1.1 0-2 .9-2 2s.9 2 2 2h4c1.1 0 2-.9 2-2Z"/></svg>
