<svg xmlns="http://www.w3.org/2000/svg" width="64" height="64" viewBox="0 0 493.1 492.1" focusable="false"><title>Fediverse icon</title><path style="fill:var(--color-text)" d="M93.8 183.4c-4.9 9.4-12.6 17.1-22.1 22L193 327.2l29.2-14.8-128.4-129ZM253.9 344l-29.2 14.8 61.5 61.7c4.9-9.4 12.6-17.1 22.1-22L254 344ZM325.6 266.4l5.1 32.4 77.7-39.4c-7.5-7.6-12.4-17.3-14.1-27.8l-68.7 34.8Zm-39.9 20.2-162.4 82.3c7.5 7.6 12.4 17.3 14.1 27.8L290.8 319l-5.1-32.4ZM155.1 236.8l23.1 23.2 83-162c-10.5-1.8-20.2-6.7-27.7-14.2l-78.4 153Zm-20.4 39.8L95 354.1c10.5 1.8 20.2 6.7 27.7 14.2l35.1-68.5-23.1-23.2ZM71.1 205.7c-9.5 4.8-20.3 6.5-30.8 4.9l23.2 148.2c9.5-4.8 20.3-6.5 30.8-4.9L71.1 205.7ZM137.5 397.4c1.6 10.5-.1 21.3-4.9 30.8L280.8 452c-1.6-10.5.1-21.3 4.9-30.8l-148.2-23.8ZM340.4 393.5c10.5 1.8 20.2 6.7 27.7 14.2l68.4-133.6c-10.5-1.8-20.2-6.7-27.7-14.2l-68.4 133.6ZM315.5 71c-4.9 9.4-12.6 17.1-22.1 22l105.9 106.4c4.9-9.4 12.6-17.1 22.1-22L315.5 71ZM84.9 123.3c7.5 7.6 12.4 17.3 14.1 27.8l133.9-67.9c-7.4-7.6-12.4-17.3-14.1-27.8L84.9 123.3ZM293.2 93.1c-9.5 4.8-20.2 6.6-30.8 5.1l11.9 76 32.4 5.2-13.5-86.3Zm-12 125.3L309.3 398c9.6-4.7 20.3-6.3 30.8-4.6l-26.5-169.8-32.4-5.2ZM99.1 151.7c1.6 10.5 0 21.3-4.8 30.8l76 12.2 14.9-29.2L99 151.7Zm130.3 21-14.9 29.2 179.6 28.9c-1.5-10.5.2-21.3 5-30.8l-169.7-27.3Z"/><path style="fill:var(--color-furniture)" d="M222.9 44.6c-1.4 25.9 18.4 48 44.3 49.5s48-18.4 49.5-44.3c1.4-25.9-18.4-48-44.3-49.5-25.9-1.4-48 18.4-49.5 44.3M398.3 220.7c-1.4 25.9 18.4 48 44.3 49.5 25.9 1.4 48-18.4 49.5-44.3s-18.4-48-44.3-49.5c-25.9-1.4-48 18.4-49.5 44.3M285 441.8c-1.4 25.9 18.4 48 44.3 49.5s48-18.4 49.5-44.3-18.4-48-44.3-49.5-48 18.4-49.5 44.3M39.6 402.5c-1.4 25.9 18.4 48 44.3 49.5 25.9 1.4 48-18.4 49.5-44.3s-18.4-48-44.3-49.5-48 18.4-49.5 44.3M1.2 156.9c-1.4 25.9 18.4 48 44.3 49.5 25.9 1.4 48-18.4 49.5-44.3 1.4-25.9-18.4-48-44.3-49.5-25.9-1.4-48 18.4-49.5 44.3"/></svg>