<svg xmlns="http://www.w3.org/2000/svg" viewBox="0 0 80 80" width="80" height="80" focusable="false" aria-hidden="true"><path d="M3 13v54h74V13zm68 39v2H9V30h62z" style="fill:var(--color-surface)"/><path d="M4 14h72v2H4z" style="fill:var(--color-canvas);"/><path d="M8 14h8v10H8z" style="fill:var(--color-text-accent);"/><circle style="fill:var(--color-surface)" cx="12" cy="20" r="3"/><path d="M2 12h76v56H2z" style="fill:none;stroke:var(--color-furniture);stroke-miterlimit:10;stroke-width:4px"/><path d="M18 19h14v4H18zM64 19h8v4h-8z" style="fill:var(--color-text-accent)"/><path d="M12 34h14M12 38h18M12 42h20M12 46h26M12 50h24M9 30h62v24H9z" style="fill:none;stroke:var(--color-furniture);stroke-miterlimit:10;stroke-width:2px"/><path style="fill:var(--color-text-accent)" d="M69.4 27.67c.6 3.71-4.87 2.92-5.59 3.24 1.61 1.9 5.05 11.26-1.03 10.04 3.27 2.89 1.22 5.75 4.76 7.07 5.01 4.59-1.98 11.54-6.99 9.09-.17-1.59-1.39 2.01-3.45 2.66-1.66 1-3.72-1.55-2.2-2.93.78-.87 3.57-1.55 1.37-2.89-.64 4.68-7.36 4.28-3.84-.31-2.43 1.62-6.97 1.16-7.72-1.58-2.42-5.44 6.71-6.59 4.95-11-.41 1.03-.52 1.11-1.2.48-.13.33-.52 2.44-1.3 1.02-3.48-3.06 4.52-6.09 5.56-1.27-.07-3.23 2.9-5.54 3.31-7.72-.38-.26-3.07-.43-2.29-1.67-.26-.3-1.05-.93-.26-1.15-.56-.51-.03-.79-.48-.95-5.88.96-7.69-6.19-3.41-4.55 2.69 1.35 5.11 2.12 7.37.31-.57 2 2.63-1.61 2.16.62 3.34-.83.99.91 2.93.87 2.26.45 5.61-.87 7.37.63Zm-6.92 9.32c-.42-1.26-.06-4.1-1.92-3.45-.86 1.15.9 2.77 1.92 3.45"/></svg>
