<svg xmlns="http://www.w3.org/2000/svg" viewBox="0 0 16 19" width="19" height="19"><path d="M10 9.4 6.1 8c-1-.5-2-1-2.2-1.8-.5-1.3 1-2.9 2.8-2.9l-.3-1.9C3.6 2 1.4 3.7 1.6 6Q2 8.4 6 10c2.6 1.2 5.2 2.3 5.5 4s-5 5-10.4 6h10.5c.7-.2 3.2-3 3.5-5.3.2-1.6-.3-3.7-5-5.3" style="fill:#f0fff4;fill-rule:evenodd"/><path d="M6.3 1.4Q7.5 1 10 1c2.5 0 3.3.7 4 1.3q1.8 1.6 0 2.7c-.7.4-.5 2.3-1.5 2.3-1.2 0-.8-2.4-2-2.4s-1 1.3-2 1.2-.9-2.8-1.8-2.8q-1.2 0-1.3-.7-.2-.8.9-1.2" style="fill:#4fe64c;fill-rule:evenodd"/><path d="M10 9.4 6.1 8q.5.8 1.8 1.3c2 .8 4.4 2.4 5 4 .6 2.2-1.8 5.3-4.4 6.7h3c.7-.2 3.2-3 3.5-5.3.2-1.6-.3-3.7-5-5.3" style="fill:#1d2f23;fill-rule:evenodd"/><path d="M10 1q2.7.2 4 1.3 1.8 1.6 0 2.7c-.7.4-.6 2.3-1.5 2.3-1.2 0-.8-2.4-2-2.4-1 0-1 1.2-1.8 1.2h-.2c-1-.2-.9-2.8-1.8-2.8-1.9 0-3.2 1.6-2.8 3q.5 1 2.2 1.7L10 9.4c4.6 1.6 5.1 3.7 5 5.3-.3 2.2-2.8 5-3.5 5.3H1c5.5-1 10.7-4.3 10.4-6s-2.9-2.8-5.5-4Q2 8.3 1.7 6c-.3-2 1.8-3.7 4.4-4.4h.2Q7.6 1 10 1m0-1a15 15 0 0 0-4.2.5C2.4 1.5.4 3.5.7 6c.2 2.5 2.6 3.9 4.8 5l.5.2c2 .9 4.2 1.9 4.4 3C10.4 15 6 18 .9 19a1 1 0 0 0 .1 2h10.8c1.3-.5 3.8-3.7 4.1-6.2q.6-4.3-5.6-6.3l-.7-.3-3-1.1c-1.4-.6-1.7-1-1.7-1.2q-.1-.5.2-.8a2 2 0 0 1 1.3-.8l.2.6c.2.8.6 2 1.8 2.2h.3c1 0 1.4-.6 1.6-1V6l.2.4c.2.7.6 2 2 2s1.6-1.3 1.9-2l.2-.6q1.2-.8 1.3-2c0-.6-.1-1.4-1.2-2.3C13.7.8 11.9 0 10 0"/></svg>