<?xml version="1.0" encoding="UTF-8"?>
<svg id="Layer_3" data-name="Layer 3" xmlns="http://www.w3.org/2000/svg" width="16" height="19" viewBox="0 0 16 19">
  <path d="M10.308,8.449l-.684-.224c-1.086-.354-2.209-.72-3.144-1.14-1.41-.633-1.655-1.074-1.696-1.193-.096-.277.059-.568.16-.718.24-.355.764-.763,1.498-.842.064.159.135.39.187.56.243.789.61,1.982,1.742,2.166.119.019.229.027.331.027.889,0,1.323-.608,1.556-.935.094-.132.136-.191.174-.218.06.134.128.35.173.494.208.662.596,1.893,1.893,1.893,1.267,0,1.661-1.256,1.872-1.931.058-.185.143-.457.206-.568.815-.508,1.292-1.217,1.344-2.001.039-.584-.14-1.463-1.211-2.329-.915-.74-2.82-1.49-4.688-1.49-1.631,0-2.95.15-4.032.457-.079.023-.149.051-.215.083C2.385,1.429.37,3.562.634,5.994c.273,2.523,2.621,3.915,4.882,4.943l.499.226c1.999.904,4.264,1.928,4.446,3.024.019.113-.052.301-.19.503-.777,1.138-5.335,3.607-9.467,4.323-.494.086-.842.55-.8,1.069.041.519.458.918.959.918h10.569c.097,0,.194-.015.287-.045,1.005-.326,3.8-3.401,4.14-6.141.357-2.865-1.544-5.006-5.65-6.365ZM6.136,1.47h0s.005-.002.007-.003c.036-.013.062-.034.1-.045.421-.12.918-.217,1.49-.29.345-.044.712-.08,1.121-.102.362-.02.75-.03,1.167-.03,1.364,0,2.731.454,3.595.949.192.11.367.221.503.331.302.245.52.493.659.74.208.369.238.733.108,1.07-.087.224-.244.436-.467.628-.112.096-.239.188-.383.274-.257.154-.398.52-.526.917-.213.662-.39,1.411-1.012,1.411-1.198,0-.759-2.41-1.957-2.41,0,0,0,0,0,0-.145,0-.267.021-.374.055-.039.012-.067.034-.102.05-.062.028-.126.055-.177.093-.035.026-.064.057-.095.086-.04.038-.083.074-.118.115-.033.039-.063.079-.094.12-.039.052-.079.102-.115.153-.038.053-.077.104-.116.153-.025.031-.053.058-.079.087-.035.037-.071.072-.11.103-.03.024-.066.043-.1.062-.042.024-.088.044-.138.058-.041.012-.087.019-.133.024-.03.003-.053.016-.087.016-.056,0-.117-.005-.182-.016,0,0,0,0,0,0-.197-.032-.352-.147-.479-.312-.066-.086-.123-.187-.176-.295-.028-.057-.055-.115-.08-.176-.045-.11-.087-.226-.127-.345-.034-.104-.068-.208-.1-.314-.051-.167-.102-.332-.155-.486-.161-.462-.355-.825-.705-.825-.778,0-1.237-.274-1.355-.72-.115-.433.197-.911.794-1.128Z"/>
</svg>