<?xml version="1.0" encoding="UTF-8"?>
<svg id="Layer_3" data-name="Layer 3" xmlns="http://www.w3.org/2000/svg" width="16" height="19" viewBox="0 0 16 19">
  <path d="M10.005,9.402c-1.255-.418-2.713-.864-3.897-1.399-1.102-.498-1.966-1.073-2.207-1.773-.453-1.316.93-2.912,2.803-2.912l-.312-1.909C3.576,2.04,1.393,3.739,1.625,5.882c.183,1.701,1.636,2.926,4.288,4.14,2.585,1.182,5.19,2.257,5.477,3.997.284,1.723-4.934,5.031-10.39,5.982h10.512c.731-.238,3.178-3.078,3.454-5.314.193-1.557-.284-3.728-4.96-5.284Z" style="fill: #f0fff4; fill-rule: evenodd;"/>
  <path d="M6.253,1.422c.895-.256,2.099-.422,3.758-.422s3.334.677,4.075,1.28c1.203.978,1.059,2.024-.083,2.712-.683.411-.54,2.329-1.529,2.329-1.192,0-.755-2.41-1.947-2.41s-.944,1.333-2.011,1.16c-1.062-.173-.883-2.752-1.812-2.752-.774,0-1.23-.275-1.348-.72-.122-.461.225-.984.896-1.176Z" style="fill: #4fe64c; fill-rule: evenodd;"/>
  <path d="M10.005,9.402c-1.255-.418-2.713-.864-3.897-1.399.355.523.892.977,1.808,1.334,2.017.787,4.424,2.354,4.934,3.964.699,2.202-1.706,5.336-4.301,6.699h2.962c.731-.238,3.178-3.078,3.454-5.314.193-1.557-.284-3.728-4.96-5.284Z" style="fill: #1d2f23; fill-rule: evenodd;"/>
  <path d="M10.001,1c1.65,0,3.317.677,4.054,1.279,1.197.978,1.054,2.023-.083,2.711-.679.411-.537,2.328-1.521,2.328-1.186,0-.751-2.409-1.937-2.409-1.108,0-.963,1.175-1.82,1.175-.056,0-.116-.005-.181-.016-1.057-.173-.879-2.751-1.803-2.751-1.863,0-3.239,1.596-2.788,2.912.24.7,1.099,1.274,2.196,1.773,1.177.535,2.628.981,3.877,1.399,4.652,1.556,5.127,3.727,4.935,5.284-.275,2.236-2.709,5.076-3.436,5.314H1.028c5.428-.951,10.629-4.259,10.346-5.982-.285-1.74-2.877-2.814-5.449-3.997-2.639-1.214-4.084-2.438-4.266-4.139-.222-2.067,1.8-3.712,4.459-4.393.051-.02.09-.05.145-.066.891-.256,2.089-.422,3.738-.422M10.001,0C8.379,0,7.066.151,5.987.461c-.091.026-.167.059-.22.085C2.404,1.44.405,3.568.665,5.988c.27,2.516,2.599,3.909,4.843,4.941l.494.226c1.971.901,4.205,1.922,4.386,3.024-.079.912-4.278,3.915-9.532,4.835-.511.09-.869.555-.824,1.072.045.517.478.913.996.913h10.467c.106,0,.211-.017.312-.05,1.256-.412,3.813-3.666,4.117-6.143.352-2.853-1.536-4.991-5.61-6.354l-.677-.224c-1.073-.353-2.182-.719-3.103-1.137-1.382-.627-1.623-1.067-1.664-1.186-.11-.322.094-.659.187-.789.241-.337.713-.694,1.36-.779.061.159.128.378.178.541.241.792.606,1.989,1.759,2.178.123.02.237.029.342.029.919,0,1.357-.621,1.593-.954.029-.041.066-.094.1-.138.051.131.103.3.141.42.208.667.594,1.907,1.923,1.907,1.3,0,1.692-1.265,1.903-1.945.058-.185.142-.457.205-.571.802-.508,1.272-1.208,1.327-1.978.041-.579-.134-1.452-1.197-2.321C13.774.757,11.87,0,10.001,0h0Z"/>
</svg>