<svg height="100mm" viewBox="0 0 200 100" width="200mm" xmlns="http://www.w3.org/2000/svg"><path d="m0 0h200v50h-200z" fill="#fff"/><path d="m0 50h200v50h-200z"/><path d="m137.5 56.967567v-13.77865l-8.4375-1.409188c-.62492-2.348648-1.56242-4.540809-2.65635-6.419729l5.0001-6.88919-9.6876-9.864324-7.03125 4.853784c-2.03115-1.095946-4.21875-2.035406-6.40606-2.661892l-1.40626-8.298378h-13.750166l-1.406247 8.455134c-2.343757.626217-4.374912 1.565677-6.406078 2.661622l-6.875089-4.853782-9.843754 9.707836 5.000093 6.88919c-1.093657 2.035674-2.031166 4.227568-2.656337 6.576216l-8.437504 1.252701v13.77865l8.437504 1.409188c.624908 2.348648 1.562406 4.384322 2.656337 6.419729l-5.000093 7.045945 9.687595 9.707837 7.031248-5.010541c2.031166 1.095947 4.218753 2.035407 6.5625 2.661892l1.406257 8.298383h13.749904l1.40624-8.455138c2.18759-.626217 4.37492-1.565677 6.40634-2.661623l7.03125 5.010271 9.68732-9.707569-4.99981-7.045944c1.09365-2.035674 2.03116-4.07108 2.65607-6.419728zm-37.500008 7.515674c-7.968745 0-14.375075-6.41946-14.375075-14.404865 0-7.985404 6.562499-14.405133 14.375075-14.405133 7.812598 0 14.375098 6.419729 14.375098 14.405133 0 7.985405-6.40635 14.404865-14.375098 14.404865z" fill="#7f7f7f"/><circle cx="100" cy="50" fill="#1f1f1f" r="25"/><g stroke-linecap="round" stroke-linejoin="round" stroke-width="17.7638" transform="scale(.26458333)"><path d="m399.81486 116.63632c-.80886-.25503-2.26708-.67303-3.25843-.92494-.47085-.11964-.94285-.23474-1.41592-.34529-.99602-.23274-2.62-.57035-3.62626-.75387-.47806-.0872-.95695-.16976-1.4366-.24771-1.00961-.16408-2.65288-.38987-3.66932-.50418-.48316-.0543-.96683-.104-1.45095-.14901-1.01846-.0947-2.67331-.20771-3.69519-.25241-.48555-.0212-.9713-.0378-1.45717-.0496-1.02255-.025-2.68125-.025-3.7038 0-.48587.0119-.97161.0284-1.45716.0496-1.02188.0447-2.67673.15774-3.69519.25241-.48412.045-.96779.0947-1.45095.14901-1.01644.11431-2.65971.3401-3.66932.50418-.47965.078-.95854.16052-1.4366.24771-1.00626.18352-2.63026.52105-3.6263.75369-.4737.11064-.94632.22585-1.4178.34561-.99137.25183-2.58597.7085-3.56036 1.01963-.80761.25787-1.45746 1.31095-1.45746 2.33382v139.82123c0 1.02287.78385 2.12302 1.75936 2.4306.80886.25503 2.26709.67297 3.25846.9248.47148.11977.9441.23498 1.4178.34562.99604.23264 2.62004.57017 3.6263.75369.47806.0872.95695.16975 1.4366.2477 1.00961.16408 2.65288.38987 3.66932.50418.48316.0543.96683.104 1.45095.14901 1.01846.0947 2.67331.20771 3.69519.25241.48555.0212.97129.0378 1.45716.0497 1.02255.025 2.68125.025 3.7038 0 .48587-.0119.97162-.0284 1.45717-.0497 1.02188-.0447 2.67671-.15805 3.69513-.2531.48417-.0452.96789-.0951 1.4511-.14958 1.0164-.11469 2.65962-.34079 3.66923-.50487.47965-.0779.95854-.16052 1.4366-.2477 1.00626-.18352 2.6303-.52084 3.62641-.75322.47296-.11034.94484-.22523 1.41559-.34466.99144-.25154 2.58599-.70841 3.5602-1.02007.80779-.25842 1.45777-1.31194 1.45777-2.33481v-139.81928c0-1.02287-.78385-2.12302-1.75936-2.4306z" fill="#1fdf1f"/><path d="m302.36133 188.97656c-.00012 2.08339.0859 4.1659.25781 6.24219.17228 2.07618.43031 4.14435.77344 6.19922.34327 2.05522.77136 4.09538 1.2832 6.11523.51097 2.01979 1.10523 4.01759 1.78125 5.98828.67663 1.97058 1.43444 3.91235 2.27149 5.82032.83701 1.90745 1.7525 3.77949 2.74414 5.61132.99134 1.83236 2.058 3.62295 3.19726 5.36719 1.13971 1.74397 2.35103 3.44009 3.63086 5.08399 1.28007 1.64418 2.62757 3.23474 4.03906 4.76758 1.41114 1.53291 2.88506 3.00682 4.41797 4.41796 1.53225 1.41078 3.12215 2.75764 4.76563 4.03711 1.64454 1.27987 3.3413 2.4912 5.08594 3.63086 1.7442 1.13992 3.53479 2.20724 5.36718 3.19922 1.83187.99098 3.70391 1.90582 5.61133 2.74219 1.10795.45063 2.01758-.18253 2.01758-1.37864v-135.68999c0-1.19611-.90963-1.82927-2.01758-1.37864-1.90745.83701-3.7795 1.7525-5.61133 2.74414-1.83239.99198-3.62298 2.0593-5.36718 3.19922-1.7446 1.13903-3.44136 2.3497-5.08594 3.62891-1.64352 1.28011-3.23342 2.62761-4.76563 4.03906-1.53291 1.41114-3.00683 2.88506-4.41797 4.41797-1.41145 1.53221-2.75895 3.12211-4.03906 4.76563-1.27987 1.64454-2.4912 3.3413-3.63086 5.08593-1.13926 1.74424-2.20592 3.53483-3.19726 5.36719-.99164 1.83183-1.90713 3.70388-2.74414 5.61133-.83705 1.90797-1.59486 3.84973-2.27149 5.82031-.67602 1.97069-1.27028 3.96849-1.78125 5.98828-.51184 2.01986-.93993 4.06001-1.2832 6.11524-.34313 2.05487-.60116 4.12304-.77344 6.19922-.17192 2.07628-.25793 4.15879-.25781 6.24218z" fill="#ff1f1f"/><path d="m453.54297 188.97656c.00012-2.08339-.0859-4.1659-.25781-6.24218-.17228-2.07618-.43031-4.14435-.77344-6.19922-.34262-2.0552-.77007-4.09536-1.28125-6.11524-.51161-2.01982-1.10652-4.01762-1.7832-5.98828-.67668-1.96992-1.43449-3.91103-2.27149-5.81836-.83696-1.90811-1.75245-3.78081-2.74414-5.61328-.99134-1.83236-2.058-3.62295-3.19726-5.36719-1.13971-1.74397-2.35103-3.44008-3.63086-5.08398-1.27943-1.64415-2.62628-3.2347-4.03711-4.76758-1.41114-1.53291-2.88506-3.00683-4.41797-4.41797-1.53288-1.41083-3.12343-2.75768-4.76758-4.03711-1.6439-1.27983-3.34001-2.49115-5.08398-3.63086-1.74424-1.13926-3.53483-2.20592-5.36719-3.19726-1.83169-.99156-3.70358-1.90699-5.61087-2.74394-.00025-.00011-.00067-.00028-.00092-.00039-1.10875-.45163-2.01907.18189-2.01907 1.3794v135.68688c0 1.19751.91053 1.83096 2.01953 1.37922 1.90745-.83701 3.7795-1.7525 5.61133-2.74414 1.83236-.99134 3.62295-2.05801 5.36719-3.19727 1.74397-1.13971 3.44008-2.35103 5.08398-3.63086 1.64415-1.27943 3.2347-2.62628 4.76758-4.03711 1.53291-1.41114 3.00683-2.88505 4.41797-4.41796 1.41083-1.53288 2.75768-3.12343 4.03711-4.76758 1.27983-1.6439 2.49115-3.34002 3.63086-5.08399 1.13926-1.74424 2.20592-3.53483 3.19726-5.36719.99169-1.83247 1.90718-3.70517 2.74414-5.61328.83705-1.90797 1.59486-3.84973 2.27149-5.82031.67663-1.97002 1.27153-3.96717 1.7832-5.98633.51118-2.01988.93863-4.06003 1.28125-6.11523.34313-2.05487.60116-4.12304.77344-6.19922.17192-2.07629.25793-4.1588.25781-6.24219z" fill="#1f7fdf"/></g></svg>