<?xml version="1.0" encoding="UTF-8" standalone="no"?>
<!-- Created with Inkscape (http://www.inkscape.org/) -->

<svg
   width="200mm"
   height="100mm"
   viewBox="0 0 200 100"
   version="1.1"
   id="svg5"
   sodipodi:docname="flag_robokin-rgb.svg"
   inkscape:export-filename="/home/akselya/Pictures/flag_robokin-rgb.png"
   inkscape:export-xdpi="130.048"
   inkscape:export-ydpi="130.048"
   inkscape:version="1.1 (c68e22c387, 2021-05-23)"
   xmlns:inkscape="http://www.inkscape.org/namespaces/inkscape"
   xmlns:sodipodi="http://sodipodi.sourceforge.net/DTD/sodipodi-0.dtd"
   xmlns="http://www.w3.org/2000/svg"
   xmlns:svg="http://www.w3.org/2000/svg">
  <sodipodi:namedview
     id="namedview7"
     pagecolor="#ffffff"
     bordercolor="#666666"
     borderopacity="1.0"
     inkscape:pageshadow="2"
     inkscape:pageopacity="0.0"
     inkscape:pagecheckerboard="0"
     inkscape:document-units="mm"
     showgrid="false"
     width="200mm"
     inkscape:zoom="2.8284272"
     inkscape:cx="314.48573"
     inkscape:cy="191.44916"
     inkscape:window-width="1920"
     inkscape:window-height="1014"
     inkscape:window-x="0"
     inkscape:window-y="33"
     inkscape:window-maximized="1"
     inkscape:current-layer="layer1"
     inkscape:snap-smooth-nodes="true"
     inkscape:snap-object-midpoints="true" />
  <defs
     id="defs2">
    <inkscape:path-effect
       effect="fillet_chamfer"
       id="path-effect3711"
       is_visible="true"
       lpeversion="1"
       satellites_param="F,0,0,1,0,0,0,1 @ F,0,0,1,0,0,0,1 @ F,0,0,1,0,0,0,1 @ F,0,0,1,0,0,0,1 @ F,0,0,1,0,0,0,1 @ F,0,0,1,0,0,0,1 @ F,0,0,1,0,0,0,1 @ F,0,0,1,0,0,0,1 @ F,0,0,1,0,0,0,1 @ F,0,0,1,0,0,0,1 @ F,0,0,1,0,0,0,1 @ F,0,0,1,0,0,0,1 @ F,0,0,1,0,0,0,1 @ F,0,0,1,0,0,0,1 @ F,0,0,1,0,0,0,1 @ F,0,0,1,0,2.1657544,0,1 @ F,0,0,1,0,2.1657544,0,1 @ F,0,0,1,0,0,0,1 @ F,0,0,1,0,0,0,1 @ F,0,0,1,0,0,0,1 @ F,0,0,1,0,0,0,1 @ F,0,0,1,0,0,0,1 @ F,0,0,1,0,0,0,1 @ F,0,0,1,0,0,0,1 @ F,0,0,1,0,0,0,1 @ F,0,0,1,0,0,0,1 @ F,0,0,1,0,0,0,1 @ F,0,0,1,0,0,0,1 @ F,0,0,1,0,0,0,1 @ F,0,0,1,0,0,0,1 @ F,0,0,1,0,0,0,1"
       unit="px"
       method="bezier"
       mode="F"
       radius="0"
       chamfer_steps="1"
       flexible="false"
       use_knot_distance="true"
       apply_no_radius="true"
       apply_with_radius="true"
       only_selected="false"
       hide_knots="false" />
    <inkscape:path-effect
       effect="fillet_chamfer"
       id="path-effect3359"
       is_visible="true"
       lpeversion="1"
       satellites_param="F,0,0,1,0,0,0,1 @ F,0,0,1,0,0,0,1 @ F,0,0,1,0,0,0,1 @ F,0,0,1,0,0,0,1 @ F,0,0,1,0,0,0,1 @ F,0,0,1,0,0,0,1 @ F,0,0,1,0,0,0,1 @ F,0,0,1,0,0,0,1 @ F,0,0,1,0,0,0,1 @ F,0,0,1,0,0,0,1 @ F,0,0,1,0,0,0,1 @ F,0,0,1,0,0,0,1 @ F,0,0,1,0,0,0,1 @ F,0,0,1,0,0,0,1 @ F,0,0,1,0,0.0005013074,0,1 @ F,0,0,1,0,2.1682839,0,1 @ F,0,0,1,0,2.1682803,0,1 @ F,0,0,1,0,0,0,1 @ F,0,0,1,0,0,0,1 @ F,0,0,1,0,0,0,1 @ F,0,0,1,0,0,0,1 @ F,0,0,1,0,0,0,1 @ F,0,0,1,0,0,0,1 @ F,0,0,1,0,0,0,1 @ F,0,0,1,0,0,0,1 @ F,0,0,1,0,0,0,1 @ F,0,0,1,0,0,0,1 @ F,0,0,1,0,0,0,1 @ F,0,0,1,0,0,0,1 @ F,0,0,1,0,0,0,1 @ F,0,0,1,0,0,0,1"
       unit="px"
       method="auto"
       mode="F"
       radius="0"
       chamfer_steps="1"
       flexible="false"
       use_knot_distance="true"
       apply_no_radius="true"
       apply_with_radius="true"
       only_selected="false"
       hide_knots="false" />
    <inkscape:path-effect
       effect="fillet_chamfer"
       id="path-effect3091"
       is_visible="true"
       lpeversion="1"
       satellites_param="F,0,0,1,0,1.8520833,0,1 @ F,0,0,1,0,1.8520833,0,1 @ F,0,0,1,0,1.8520833,0,1 @ F,0,0,1,0,1.8520833,0,1 @ F,0,0,1,0,1.8520833,0,1 @ F,0,0,1,0,1.8520833,0,1 @ F,0,0,1,0,1.8520833,0,1 @ F,0,0,1,0,1.8520833,0,1 @ F,0,0,1,0,1.8520833,0,1 @ F,0,0,1,0,1.8520833,0,1 @ F,0,0,1,0,1.8520833,0,1 @ F,0,0,1,0,1.8520833,0,1 @ F,0,0,1,0,1.8520833,0,1 @ F,0,0,1,0,1.8520833,0,1 @ F,0,0,1,0,1.8520833,0,1 @ F,0,0,1,0,1.8520833,0,1 @ F,0,0,1,0,1.8520833,0,1 @ F,0,0,1,0,1.8520833,0,1 @ F,0,0,1,0,1.8520833,0,1 @ F,0,0,1,0,1.8520833,0,1 @ F,0,0,1,0,1.8520833,0,1 @ F,0,0,1,0,1.8520833,0,1"
       unit="px"
       method="auto"
       mode="F"
       radius="7"
       chamfer_steps="1"
       flexible="false"
       use_knot_distance="true"
       apply_no_radius="true"
       apply_with_radius="true"
       only_selected="false"
       hide_knots="false" />
    <inkscape:path-effect
       effect="fillet_chamfer"
       id="path-effect2652"
       is_visible="true"
       lpeversion="1"
       satellites_param="F,0,0,1,0,0,0,1 @ F,0,0,1,0,0,0,1 @ F,0,0,1,0,0,0,1 @ F,0,0,1,0,0,0,1 @ F,0,0,1,0,0,0,1 @ F,0,0,1,0,0,0,1 @ F,0,0,1,0,0,0,1 @ F,0,0,1,0,0,0,1 @ F,0,0,1,0,0,0,1 @ F,0,0,1,0,0,0,1 @ F,0,0,1,0,0,0,1 @ F,0,0,1,0,0,0,1 @ F,0,0,1,0,0,0,1 @ F,0,0,1,0,0,0,1 @ F,0,0,1,0,0,0,1 @ F,0,0,1,0,2.1657544,0,1 @ F,0,0,1,0,2.1657544,0,1 @ F,0,0,1,0,0,0,1 @ F,0,0,1,0,0,0,1 @ F,0,0,1,0,0,0,1 @ F,0,0,1,0,0,0,1 @ F,0,0,1,0,0,0,1 @ F,0,0,1,0,0,0,1 @ F,0,0,1,0,0,0,1 @ F,0,0,1,0,0,0,1 @ F,0,0,1,0,0,0,1 @ F,0,0,1,0,0,0,1 @ F,0,0,1,0,0,0,1 @ F,0,0,1,0,0,0,1 @ F,0,0,1,0,0,0,1 @ F,0,0,1,0,0,0,1"
       unit="px"
       method="bezier"
       mode="F"
       radius="0"
       chamfer_steps="1"
       flexible="false"
       use_knot_distance="true"
       apply_no_radius="true"
       apply_with_radius="true"
       only_selected="false"
       hide_knots="false" />
  </defs>
  <g
     inkscape:label="Layer 1"
     inkscape:groupmode="layer"
     id="layer1">
    <rect
       style="fill:#ffffff;fill-opacity:1;stroke:none;stroke-width:4.70001;stroke-linecap:round;stroke-linejoin:round"
       id="rect2725"
       width="200"
       height="50"
       x="0"
       y="0"
       inkscape:export-filename="/home/akselya/Pictures/flag_robokin-rgb.png"
       inkscape:export-xdpi="130.048"
       inkscape:export-ydpi="130.048" />
    <rect
       style="fill:#000000;stroke:none;stroke-width:4.70001;stroke-linecap:round;stroke-linejoin:round"
       id="rect890"
       width="200"
       height="50"
       x="0"
       y="50" />
    <path
       d="m 137.5,56.967567 v -13.77865 l -8.4375,-1.409188 C 128.43758,39.431081 127.50008,37.23892 126.40615,35.36 l 5.0001,-6.88919 -9.6876,-9.864324 -7.03125,4.853784 c -2.03115,-1.095946 -4.21875,-2.035406 -6.40606,-2.661892 L 106.87508,12.5 H 93.124914 l -1.406247,8.455134 c -2.343757,0.626217 -4.374912,1.565677 -6.406078,2.661622 L 78.4375,18.762974 68.593746,28.47081 73.593839,35.36 c -1.093657,2.035674 -2.031166,4.227568 -2.656337,6.576216 l -8.437504,1.252701 v 13.77865 l 8.437504,1.409188 c 0.624908,2.348648 1.562406,4.384322 2.656337,6.419729 l -5.000093,7.045945 9.687595,9.707837 7.031248,-5.010541 c 2.031166,1.095947 4.218753,2.035407 6.5625,2.661892 L 93.281346,87.5 h 13.749904 l 1.40624,-8.455138 c 2.18759,-0.626217 4.37492,-1.565677 6.40634,-2.661623 l 7.03125,5.010271 9.68732,-9.707569 -4.99981,-7.045944 c 1.09365,-2.035674 2.03116,-4.07108 2.65607,-6.419728 z m -37.500008,7.515674 c -7.968745,0 -14.375075,-6.41946 -14.375075,-14.404865 0,-7.985404 6.562499,-14.405133 14.375075,-14.405133 7.812598,0 14.375098,6.419729 14.375098,14.405133 0,7.985405 -6.40635,14.404865 -14.375098,14.404865 z"
       id="path3960"
       style="fill:#7f7f7f;fill-opacity:1;stroke:none;stroke-width:0.268137" />
    <circle
       style="fill:#1f1f1f;fill-opacity:1;stroke:none;stroke-width:6.25785;stroke-linecap:round;stroke-linejoin:round"
       id="path1601"
       cx="100"
       cy="50"
       r="25" />
    <path
       id="path2489"
       style="fill:#1fdf1f;fill-opacity:1;stroke-width:17.7638;stroke-linecap:round;stroke-linejoin:round"
       d="m 399.81486,116.63632 c -0.80886,-0.25503 -2.26708,-0.67303 -3.25843,-0.92494 -0.47085,-0.11964 -0.94285,-0.23474 -1.41592,-0.34529 -0.99602,-0.23274 -2.62,-0.57035 -3.62626,-0.75387 -0.47806,-0.0872 -0.95695,-0.16976 -1.4366,-0.24771 -1.00961,-0.16408 -2.65288,-0.38987 -3.66932,-0.50418 -0.48316,-0.0543 -0.96683,-0.104 -1.45095,-0.14901 -1.01846,-0.0947 -2.67331,-0.20771 -3.69519,-0.25241 -0.48555,-0.0212 -0.9713,-0.0378 -1.45717,-0.0496 -1.02255,-0.025 -2.68125,-0.025 -3.7038,0 -0.48587,0.0119 -0.97161,0.0284 -1.45716,0.0496 -1.02188,0.0447 -2.67673,0.15774 -3.69519,0.25241 -0.48412,0.045 -0.96779,0.0947 -1.45095,0.14901 -1.01644,0.11431 -2.65971,0.3401 -3.66932,0.50418 -0.47965,0.078 -0.95854,0.16052 -1.4366,0.24771 -1.00626,0.18352 -2.63026,0.52105 -3.6263,0.75369 -0.4737,0.11064 -0.94632,0.22585 -1.4178,0.34561 -0.99137,0.25183 -2.58597,0.7085 -3.56036,1.01963 -0.80761,0.25787 -1.45746,1.31095 -1.45746,2.33382 V 258.8862 c 0,1.02287 0.78385,2.12302 1.75936,2.4306 0.80886,0.25503 2.26709,0.67297 3.25846,0.9248 0.47148,0.11977 0.9441,0.23498 1.4178,0.34562 0.99604,0.23264 2.62004,0.57017 3.6263,0.75369 0.47806,0.0872 0.95695,0.16975 1.4366,0.2477 1.00961,0.16408 2.65288,0.38987 3.66932,0.50418 0.48316,0.0543 0.96683,0.104 1.45095,0.14901 1.01846,0.0947 2.67331,0.20771 3.69519,0.25241 0.48555,0.0212 0.97129,0.0378 1.45716,0.0497 1.02255,0.025 2.68125,0.025 3.7038,0 0.48587,-0.0119 0.97162,-0.0284 1.45717,-0.0497 1.02188,-0.0447 2.67671,-0.15805 3.69513,-0.2531 0.48417,-0.0452 0.96789,-0.0951 1.4511,-0.14958 1.0164,-0.11469 2.65962,-0.34079 3.66923,-0.50487 0.47965,-0.0779 0.95854,-0.16052 1.4366,-0.2477 1.00626,-0.18352 2.6303,-0.52084 3.62641,-0.75322 0.47296,-0.11034 0.94484,-0.22523 1.41559,-0.34466 0.99144,-0.25154 2.58599,-0.70841 3.5602,-1.02007 0.80779,-0.25842 1.45777,-1.31194 1.45777,-2.33481 V 119.06692 c 0,-1.02287 -0.78385,-2.12302 -1.75936,-2.4306 z"
       transform="scale(0.26458333)"
       inkscape:path-effect="#path-effect3091"
       inkscape:original-d="m 401.57422,117.21484 a 75.590551,75.590551 0 0 0 -3.22852,-1.02539 75.590551,75.590551 0 0 0 -5.01367,-1.22265 75.590551,75.590551 0 0 0 -5.08594,-0.87696 75.590551,75.590551 0 0 0 -5.13476,-0.52734 75.590551,75.590551 0 0 0 -5.15821,-0.17578 75.590551,75.590551 0 0 0 -5.1582,0.17578 75.590551,75.590551 0 0 0 -5.13476,0.52734 75.590551,75.590551 0 0 0 -5.08594,0.87696 75.590551,75.590551 0 0 0 -5.01563,1.22265 75.590551,75.590551 0 0 0 -3.22851,1.02344 v 143.52539 a 75.590551,75.590551 0 0 0 3.22851,1.02539 75.590551,75.590551 0 0 0 5.01563,1.22266 75.590551,75.590551 0 0 0 5.08594,0.87695 75.590551,75.590551 0 0 0 5.13476,0.52734 75.590551,75.590551 0 0 0 5.1582,0.17579 75.590551,75.590551 0 0 0 5.15821,-0.17579 75.590551,75.590551 0 0 0 5.13476,-0.52929 75.590551,75.590551 0 0 0 5.08594,-0.87695 75.590551,75.590551 0 0 0 5.01367,-1.22071 75.590551,75.590551 0 0 0 3.22852,-1.02539 z" />
    <path
       id="rect1805"
       style="fill:#ff1f1f;fill-opacity:1;stroke-width:17.7638;stroke-linecap:round;stroke-linejoin:round"
       d="m 302.36133,188.97656 c -1.2e-4,2.08339 0.0859,4.1659 0.25781,6.24219 0.17228,2.07618 0.43031,4.14435 0.77344,6.19922 0.34327,2.05522 0.77136,4.09538 1.2832,6.11523 0.51097,2.01979 1.10523,4.01759 1.78125,5.98828 0.67663,1.97058 1.43444,3.91235 2.27149,5.82032 0.83701,1.90745 1.7525,3.77949 2.74414,5.61132 0.99134,1.83236 2.058,3.62295 3.19726,5.36719 1.13971,1.74397 2.35103,3.44009 3.63086,5.08399 1.28007,1.64418 2.62757,3.23474 4.03906,4.76758 1.41114,1.53291 2.88506,3.00682 4.41797,4.41796 1.53225,1.41078 3.12215,2.75764 4.76563,4.03711 1.64454,1.27987 3.3413,2.4912 5.08594,3.63086 1.7442,1.13992 3.53479,2.20724 5.36718,3.19922 1.83187,0.99098 3.70391,1.90582 5.61133,2.74219 1.10795,0.45063 2.01758,-0.18253 2.01758,-1.37864 V 121.13059 c 0,-1.19611 -0.90963,-1.82927 -2.01758,-1.37864 -1.90745,0.83701 -3.7795,1.7525 -5.61133,2.74414 -1.83239,0.99198 -3.62298,2.0593 -5.36718,3.19922 -1.7446,1.13903 -3.44136,2.3497 -5.08594,3.62891 -1.64352,1.28011 -3.23342,2.62761 -4.76563,4.03906 -1.53291,1.41114 -3.00683,2.88506 -4.41797,4.41797 -1.41145,1.53221 -2.75895,3.12211 -4.03906,4.76563 -1.27987,1.64454 -2.4912,3.3413 -3.63086,5.08593 -1.13926,1.74424 -2.20592,3.53483 -3.19726,5.36719 -0.99164,1.83183 -1.90713,3.70388 -2.74414,5.61133 -0.83705,1.90797 -1.59486,3.84973 -2.27149,5.82031 -0.67602,1.97069 -1.27028,3.96849 -1.78125,5.98828 -0.51184,2.01986 -0.93993,4.06001 -1.2832,6.11524 -0.34313,2.05487 -0.60116,4.12304 -0.77344,6.19922 -0.17192,2.07628 -0.25793,4.15879 -0.25781,6.24218 z"
       transform="scale(0.26458333)"
       inkscape:path-effect="#path-effect2652"
       inkscape:original-d="m 302.36133,188.97656 a 75.590551,75.590551 0 0 0 0.25781,6.24219 75.590551,75.590551 0 0 0 0.77344,6.19922 75.590551,75.590551 0 0 0 1.2832,6.11523 75.590551,75.590551 0 0 0 1.78125,5.98828 75.590551,75.590551 0 0 0 2.27149,5.82032 75.590551,75.590551 0 0 0 2.74414,5.61132 75.590551,75.590551 0 0 0 3.19726,5.36719 75.590551,75.590551 0 0 0 3.63086,5.08399 75.590551,75.590551 0 0 0 4.03906,4.76758 75.590551,75.590551 0 0 0 4.41797,4.41796 75.590551,75.590551 0 0 0 4.76563,4.03711 75.590551,75.590551 0 0 0 5.08594,3.63086 75.590551,75.590551 0 0 0 5.36718,3.19922 75.590551,75.590551 0 0 0 5.61133,2.74219 75.590551,75.590551 0 0 0 2.01758,0.78711 V 118.96484 a 75.590551,75.590551 0 0 0 -2.01758,0.78711 75.590551,75.590551 0 0 0 -5.61133,2.74414 75.590551,75.590551 0 0 0 -5.36718,3.19922 75.590551,75.590551 0 0 0 -5.08594,3.62891 75.590551,75.590551 0 0 0 -4.76563,4.03906 75.590551,75.590551 0 0 0 -4.41797,4.41797 75.590551,75.590551 0 0 0 -4.03906,4.76563 75.590551,75.590551 0 0 0 -3.63086,5.08593 75.590551,75.590551 0 0 0 -3.19726,5.36719 75.590551,75.590551 0 0 0 -2.74414,5.61133 75.590551,75.590551 0 0 0 -2.27149,5.82031 75.590551,75.590551 0 0 0 -1.78125,5.98828 75.590551,75.590551 0 0 0 -1.2832,6.11524 75.590551,75.590551 0 0 0 -0.77344,6.19922 75.590551,75.590551 0 0 0 -0.25781,6.24218 z" />
    <path
       id="rect1807"
       style="fill:#1f7fdf;fill-opacity:1;stroke-width:17.7638;stroke-linecap:round;stroke-linejoin:round"
       d="m 453.54297,188.97656 c 1.2e-4,-2.08339 -0.0859,-4.1659 -0.25781,-6.24218 -0.17228,-2.07618 -0.43031,-4.14435 -0.77344,-6.19922 -0.34262,-2.0552 -0.77007,-4.09536 -1.28125,-6.11524 -0.51161,-2.01982 -1.10652,-4.01762 -1.7832,-5.98828 -0.67668,-1.96992 -1.43449,-3.91103 -2.27149,-5.81836 -0.83696,-1.90811 -1.75245,-3.78081 -2.74414,-5.61328 -0.99134,-1.83236 -2.058,-3.62295 -3.19726,-5.36719 -1.13971,-1.74397 -2.35103,-3.44008 -3.63086,-5.08398 -1.27943,-1.64415 -2.62628,-3.2347 -4.03711,-4.76758 -1.41114,-1.53291 -2.88506,-3.00683 -4.41797,-4.41797 -1.53288,-1.41083 -3.12343,-2.75768 -4.76758,-4.03711 -1.6439,-1.27983 -3.34001,-2.49115 -5.08398,-3.63086 -1.74424,-1.13926 -3.53483,-2.20592 -5.36719,-3.19726 -1.83169,-0.99156 -3.70358,-1.90699 -5.61087,-2.74394 -2.5e-4,-1.1e-4 -6.7e-4,-2.8e-4 -9.2e-4,-3.9e-4 -1.10875,-0.45163 -2.01907,0.18189 -2.01907,1.3794 V 256.82 c 0,1.19751 0.91053,1.83096 2.01953,1.37922 1.90745,-0.83701 3.7795,-1.7525 5.61133,-2.74414 1.83236,-0.99134 3.62295,-2.05801 5.36719,-3.19727 1.74397,-1.13971 3.44008,-2.35103 5.08398,-3.63086 1.64415,-1.27943 3.2347,-2.62628 4.76758,-4.03711 1.53291,-1.41114 3.00683,-2.88505 4.41797,-4.41796 1.41083,-1.53288 2.75768,-3.12343 4.03711,-4.76758 1.27983,-1.6439 2.49115,-3.34002 3.63086,-5.08399 1.13926,-1.74424 2.20592,-3.53483 3.19726,-5.36719 0.99169,-1.83247 1.90718,-3.70517 2.74414,-5.61328 0.83705,-1.90797 1.59486,-3.84973 2.27149,-5.82031 0.67663,-1.97002 1.27153,-3.96717 1.7832,-5.98633 0.51118,-2.01988 0.93863,-4.06003 1.28125,-6.11523 0.34313,-2.05487 0.60116,-4.12304 0.77344,-6.19922 0.17192,-2.07629 0.25793,-4.1588 0.25781,-6.24219 z"
       transform="scale(0.26458333)"
       inkscape:path-effect="#path-effect3359"
       inkscape:original-d="m 453.54297,188.97656 a 75.590551,75.590551 0 0 0 -0.25781,-6.24218 75.590551,75.590551 0 0 0 -0.77344,-6.19922 75.590551,75.590551 0 0 0 -1.28125,-6.11524 75.590551,75.590551 0 0 0 -1.7832,-5.98828 75.590551,75.590551 0 0 0 -2.27149,-5.81836 75.590551,75.590551 0 0 0 -2.74414,-5.61328 75.590551,75.590551 0 0 0 -3.19726,-5.36719 75.590551,75.590551 0 0 0 -3.63086,-5.08398 75.590551,75.590551 0 0 0 -4.03711,-4.76758 75.590551,75.590551 0 0 0 -4.41797,-4.41797 75.590551,75.590551 0 0 0 -4.76758,-4.03711 75.590551,75.590551 0 0 0 -5.08398,-3.63086 75.590551,75.590551 0 0 0 -5.36719,-3.19726 75.590551,75.590551 0 0 0 -5.61133,-2.74414 75.590551,75.590551 0 0 0 -2.01953,-0.78907 v 140.02344 a 75.590551,75.590551 0 0 0 2.01953,-0.78906 75.590551,75.590551 0 0 0 5.61133,-2.74414 75.590551,75.590551 0 0 0 5.36719,-3.19727 75.590551,75.590551 0 0 0 5.08398,-3.63086 75.590551,75.590551 0 0 0 4.76758,-4.03711 75.590551,75.590551 0 0 0 4.41797,-4.41796 75.590551,75.590551 0 0 0 4.03711,-4.76758 75.590551,75.590551 0 0 0 3.63086,-5.08399 75.590551,75.590551 0 0 0 3.19726,-5.36719 75.590551,75.590551 0 0 0 2.74414,-5.61328 75.590551,75.590551 0 0 0 2.27149,-5.82031 75.590551,75.590551 0 0 0 1.7832,-5.98633 75.590551,75.590551 0 0 0 1.28125,-6.11523 75.590551,75.590551 0 0 0 0.77344,-6.19922 75.590551,75.590551 0 0 0 0.25781,-6.24219 z" />
  </g>
</svg>
