<svg height="31" viewBox="0 0 23.283 8.202" width="88" xmlns="http://www.w3.org/2000/svg" xmlns:xlink="http://www.w3.org/1999/xlink"><filter id="a" color-interpolation-filters="sRGB" height="1.733" width="1.298" x="-.149" y="-.367"><feGaussianBlur stdDeviation="5.703"/></filter><filter id="b" color-interpolation-filters="sRGB" height="1.47" width="1.532" x="-.266" y="-.235"><feGaussianBlur stdDeviation="2.566"/></filter><filter id="c" color-interpolation-filters="sRGB" height="1.597" width="1.61" x="-.305" y="-.298"><feGaussianBlur stdDeviation="2.073"/></filter><filter id="d" color-interpolation-filters="sRGB" height="1.288" width="1.078" x="-.039" y="-.144"><feGaussianBlur stdDeviation="1.391"/></filter><clipPath id="e"><use xlink:href="#i"/></clipPath><clipPath id="f"><use transform="translate(-1.753)" xlink:href="#j"/></clipPath><clipPath id="g"><use xlink:href="#k"/></clipPath><linearGradient id="h" gradientUnits="userSpaceOnUse" x1="-11.217" x2="10.892" y1="15.778" y2="15.778"><stop offset="0" stop-color="#6f8"/><stop offset="1" stop-color="#8cffaa"/></linearGradient><g clip-path="url(#e)" transform="matrix(.25365 0 0 .25365 .481 .17)"><path id="i" d="m4.94 0h78.12a4.93 4.93 0 0 1 4.94 4.94v21.12a4.93 4.93 0 0 1 -4.94 4.94h-78.12a4.93 4.93 0 0 1 -4.94-4.94v-21.12a4.93 4.93 0 0 1 4.94-4.94z" fill="#0d0d0d" fill-rule="evenodd" stroke-dashoffset="320"/><g fill-rule="evenodd" stroke-dashoffset="320"><path d="m13.581 31.96s24.216-1.943 48.093-3.282c13.226-.742 37.978-4.83 37.978-4.83l-2.414 23.199-65.446-.117z" fill="#6f8" filter="url(#d)" opacity=".529248" stroke-width="4.5"/><path d="m19.018-12.519 90.148-2.522 1.654 37.335-22.82-3.82-16.162-9.49-26.513-3.349-22.042-5.635z" fill="#262626" filter="url(#a)" stroke-width="1.19062"/><path d="m40.34 2.195c-.07 0-.14.006-.213.015l-17.443 2.015a2.082 2.082 0 0 0 -1.834 2.312 2.084 2.084 0 0 0 2.314 1.834l17.442-2.015a2.082 2.082 0 0 0 1.834-2.312 2.083 2.083 0 0 0 -2.1-1.85zm-19.745 8.303-.432 4.028c-.741 6.942 3.29 13.023 9.035 13.637l1.877.202c5.746.614 10.97-4.48 11.712-11.422l.43-4.028-11.133-1.19v7.091a4.241 4.241 0 0 1 -4.25 4.25 4.243 4.243 0 0 1 -4.253-4.25v-8z" fill="#6f8" filter="url(#b)" opacity=".5" stroke-width="1.58613" transform="matrix(.97798 0 0 .97798 12.593 .568)"/><path d="m40.34 2.195c-.07 0-.14.006-.213.015l-17.443 2.015a2.082 2.082 0 0 0 -1.834 2.312 2.084 2.084 0 0 0 2.314 1.834l17.442-2.015a2.082 2.082 0 0 0 1.834-2.312 2.083 2.083 0 0 0 -2.1-1.85zm-19.745 8.303-.432 4.028c-.741 6.942 3.29 13.023 9.035 13.637l1.877.202c5.746.614 10.97-4.48 11.712-11.422l.43-4.028-11.133-1.19v7.091a4.241 4.241 0 0 1 -4.25 4.25 4.243 4.243 0 0 1 -4.253-4.25v-8z" fill="#6f8" stroke-width="1.58613" transform="matrix(.97798 0 0 .97798 12.593 .568)"/></g><g clip-path="url(#f)" transform="translate(1.812 -.608)"><ellipse id="j" cx="2.636" cy="16.108" fill="#737373" fill-rule="evenodd" rx="15.73" ry="23.051" stroke-dashoffset="320" stroke-width="1.19062" transform="translate(1.753)"/><path d="m-12.386 9.273 26.34-20.858 6.902 18.055s-5.003 11.603-13.31 11.462c-8.15-.138-19.932-8.659-19.932-8.659z" fill="#636363" fill-rule="evenodd" stroke-dashoffset="320" stroke-width="1.19062"/><g clip-path="url(#g)"><ellipse id="k" cx="-.162" cy="15.778" fill="url(#h)" fill-rule="evenodd" rx="11.054" ry="18.346" stroke-dashoffset="320" stroke-width="1.19062"/><g fill="#27ff56" fill-opacity=".780392" fill-rule="evenodd" stroke-dashoffset="320"><ellipse cx="9.413" cy="21.183" rx="6.53" ry="6.485" stroke-width="3.23029"/><ellipse cx="2.314" cy="11.678" rx="3.302" ry="3.279" stroke-width="1.63326"/></g></g></g><path d="m73.675-5.687a1.823 1.823 0 0 0 -1.458 1.79c0 1.011.816 1.825 1.827 1.825h8.397v1.698a1.95 1.95 0 0 0 1.955 1.955 1.95 1.95 0 0 0 1.954-1.955l.002-3.397-.003-.079.002-.05a1.823 1.823 0 0 0 -1.827-1.825h-10.481c-.126 0-.248.013-.368.038zm2.182 9.366a1.82 1.82 0 0 0 -1.457 1.791c0 1.011.814 1.828 1.826 1.828h8.4v1.697a1.95 1.95 0 0 0 1.954 1.955 1.95 1.95 0 0 0 1.954-1.955v-3.397c0-.034-.001-.07-.003-.103l.002-.026a1.822 1.822 0 0 0 -1.825-1.826h-10.481c-.127 0-.251.012-.37.036z" style="opacity:.5;fill:#6f8;fill-rule:evenodd;stroke-width:5.97094;stroke-dashoffset:320;filter:url(#c)" transform="matrix(.77506456 .09835324 -.09835324 .77506456 17.022005 8.5173)"/><path d="m73.675-5.687a1.823 1.823 0 0 0 -1.458 1.79c0 1.011.816 1.825 1.827 1.825h8.397v1.698a1.95 1.95 0 0 0 1.955 1.955 1.95 1.95 0 0 0 1.954-1.955l.002-3.397-.003-.079.002-.05a1.823 1.823 0 0 0 -1.827-1.825h-10.481c-.126 0-.248.013-.368.038zm2.182 9.366a1.82 1.82 0 0 0 -1.457 1.791c0 1.011.814 1.828 1.826 1.828h8.4v1.697a1.95 1.95 0 0 0 1.954 1.955 1.95 1.95 0 0 0 1.954-1.955v-3.397c0-.034-.001-.07-.003-.103l.002-.026a1.822 1.822 0 0 0 -1.825-1.826h-10.481c-.127 0-.251.012-.37.036z" fill="#6f8" fill-rule="evenodd" stroke-dashoffset="320" stroke-width="5.97094" transform="matrix(.77506456 .09835324 -.09835324 .77506456 17.022005 8.5173)"/></g><path d="m1.537 0c-.847 0-1.537.663-1.537 1.477v5.248c0 .814.69 1.477 1.537 1.477h20.21c.846 0 1.536-.663 1.536-1.477v-5.248c0-.814-.69-1.477-1.537-1.477zm0 .497h20.21c.569 0 1.019.433 1.019.98v5.248c0 .547-.45.98-1.02.98h-20.209c-.57 0-1.02-.433-1.02-.98v-5.248c0-.547.45-.98 1.02-.98z" fill="#65ff88" fill-rule="evenodd"/></svg>