<svg xmlns="http://www.w3.org/2000/svg" xmlns:xlink="http://www.w3.org/1999/xlink" xml:space="preserve" width="88" height="31" viewBox="0 0 23.283 8.202"><defs><filter id="g" width="1.298" height="1.733" x="-.149" y="-.367" style="color-interpolation-filters:sRGB"><feGaussianBlur stdDeviation="5.703"/></filter><filter id="h" width="1.532" height="1.47" x="-.266" y="-.235" style="color-interpolation-filters:sRGB"><feGaussianBlur stdDeviation="2.566"/></filter><filter id="l" width="1.61" height="1.597" x="-.305" y="-.298" style="color-interpolation-filters:sRGB"><feGaussianBlur stdDeviation="2.073"/></filter><filter id="f" width="1.078" height="1.288" x="-.039" y="-.144" style="color-interpolation-filters:sRGB"><feGaussianBlur stdDeviation="1.391"/></filter><clipPath id="e" clipPathUnits="userSpaceOnUse"><use xlink:href="#a"/></clipPath><clipPath id="i" clipPathUnits="userSpaceOnUse"><use xlink:href="#b" transform="translate(-1.753)"/></clipPath><clipPath id="j" clipPathUnits="userSpaceOnUse"><use xlink:href="#c"/></clipPath><linearGradient id="d"><stop offset="0" style="stop-color:#6f8;stop-opacity:1"/><stop offset="1" style="stop-color:#8cffaa;stop-opacity:1"/></linearGradient><linearGradient xlink:href="#d" id="k" x1="-11.217" x2="10.892" y1="15.778" y2="15.778" gradientUnits="userSpaceOnUse"/></defs><g clip-path="url(#e)" transform="translate(.481 .17) scale(.25365)"><path id="a" d="M4.94 0h78.12A4.93 4.93 0 0 1 88 4.94v21.12A4.93 4.93 0 0 1 83.06 31H4.94A4.93 4.93 0 0 1 0 26.06V4.94A4.93 4.93 0 0 1 4.94 0Z" style="baseline-shift:baseline;display:inline;overflow:visible;opacity:1;vector-effect:none;fill:#0d0d0d;fill-rule:evenodd;stroke-dashoffset:320;enable-background:accumulate;stop-color:#000;stop-opacity:1"/><path d="M13.581 31.96s24.216-1.943 48.093-3.282c13.226-.742 37.978-4.83 37.978-4.83l-2.414 23.199-65.446-.117Z" style="opacity:.529248;mix-blend-mode:normal;fill:#6f8;fill-rule:evenodd;stroke-width:4.5;stroke-dashoffset:320;filter:url(#f)"/><path d="m19.018-12.519 90.148-2.522 1.654 37.335L88 18.474l-16.162-9.49-26.513-3.349L23.283 0Z" style="mix-blend-mode:normal;fill:#262626;fill-opacity:1;fill-rule:evenodd;stroke-width:1.19062;stroke-dashoffset:320;filter:url(#g)"/><path d="M40.34 2.195c-.07 0-.14.006-.213.015L22.684 4.225a2.082 2.082 0 0 0-1.834 2.312 2.084 2.084 0 0 0 2.314 1.834l17.442-2.015a2.082 2.082 0 0 0 1.834-2.312 2.083 2.083 0 0 0-2.1-1.85Zm-19.745 8.303-.432 4.028c-.741 6.942 3.29 13.023 9.035 13.637l1.877.202c5.746.614 10.97-4.48 11.712-11.422l.43-4.028-11.133-1.19v7.091a4.241 4.241 0 0 1-4.25 4.25 4.243 4.243 0 0 1-4.253-4.25v-8z" style="opacity:.5;fill:#6f8;fill-opacity:1;fill-rule:evenodd;stroke-width:1.58613;stroke-dashoffset:320;filter:url(#h)" transform="translate(12.593 .568) scale(.97798)"/><path d="M40.34 2.195c-.07 0-.14.006-.213.015L22.684 4.225a2.082 2.082 0 0 0-1.834 2.312 2.084 2.084 0 0 0 2.314 1.834l17.442-2.015a2.082 2.082 0 0 0 1.834-2.312 2.083 2.083 0 0 0-2.1-1.85Zm-19.745 8.303-.432 4.028c-.741 6.942 3.29 13.023 9.035 13.637l1.877.202c5.746.614 10.97-4.48 11.712-11.422l.43-4.028-11.133-1.19v7.091a4.241 4.241 0 0 1-4.25 4.25 4.243 4.243 0 0 1-4.253-4.25v-8z" style="opacity:1;fill:#6f8;fill-opacity:1;fill-rule:evenodd;stroke-width:1.58613;stroke-dashoffset:320" transform="translate(12.593 .568) scale(.97798)"/><g clip-path="url(#i)" transform="translate(1.812 -.608)"><ellipse id="b" cx="2.636" cy="16.108" rx="15.73" ry="23.051" style="fill:#737373;fill-opacity:1;fill-rule:evenodd;stroke-width:1.19062;stroke-dashoffset:320" transform="translate(1.753)"/><path d="m-12.386 9.273 26.34-20.858L20.856 6.47s-5.003 11.603-13.31 11.462c-8.15-.138-19.932-8.659-19.932-8.659Z" style="fill:#636363;fill-rule:evenodd;stroke-width:1.19062;stroke-dashoffset:320"/><g clip-path="url(#j)"><ellipse id="c" cx="-.162" cy="15.778" rx="11.054" ry="18.346" style="fill:url(#k);fill-opacity:1;fill-rule:evenodd;stroke-width:1.19062;stroke-dashoffset:320"/><ellipse cx="9.413" cy="21.183" rx="6.53" ry="6.485" style="fill:#27ff56;fill-opacity:.780392;fill-rule:evenodd;stroke-width:3.23029;stroke-dashoffset:320"/><ellipse cx="2.314" cy="11.678" rx="3.302" ry="3.279" style="fill:#27ff56;fill-opacity:.780392;fill-rule:evenodd;stroke-width:1.63326;stroke-dashoffset:320"/></g></g><path d="M73.675-5.687a1.823 1.823 0 0 0-1.458 1.79c0 1.011.816 1.825 1.827 1.825h8.397v1.698a1.95 1.95 0 0 0 1.955 1.955A1.95 1.95 0 0 0 86.35-.374l.002-3.397-.003-.079.002-.05a1.823 1.823 0 0 0-1.827-1.825H74.043c-.126 0-.248.013-.368.038zm2.182 9.366A1.82 1.82 0 0 0 74.4 5.47c0 1.011.814 1.828 1.826 1.828h8.4v1.697a1.95 1.95 0 0 0 1.954 1.955 1.95 1.95 0 0 0 1.954-1.955V5.598c0-.034-.001-.07-.003-.103l.002-.026a1.822 1.822 0 0 0-1.825-1.826H76.227c-.127 0-.251.012-.37.036z" style="opacity:.5;fill:#6f8;fill-opacity:1;fill-rule:evenodd;stroke-width:5.97094;stroke-dashoffset:320;filter:url(#l)" transform="rotate(7.232 -58.878 138.937) scale(.78128)"/><path d="M73.675-5.687a1.823 1.823 0 0 0-1.458 1.79c0 1.011.816 1.825 1.827 1.825h8.397v1.698a1.95 1.95 0 0 0 1.955 1.955A1.95 1.95 0 0 0 86.35-.374l.002-3.397-.003-.079.002-.05a1.823 1.823 0 0 0-1.827-1.825H74.043c-.126 0-.248.013-.368.038zm2.182 9.366A1.82 1.82 0 0 0 74.4 5.47c0 1.011.814 1.828 1.826 1.828h8.4v1.697a1.95 1.95 0 0 0 1.954 1.955 1.95 1.95 0 0 0 1.954-1.955V5.598c0-.034-.001-.07-.003-.103l.002-.026a1.822 1.822 0 0 0-1.825-1.826H76.227c-.127 0-.251.012-.37.036z" style="opacity:1;fill:#6f8;fill-opacity:1;fill-rule:evenodd;stroke-width:5.97094;stroke-dashoffset:320" transform="rotate(7.232 -58.878 138.937) scale(.78128)"/></g><path d="M1.537 0C.69 0 0 .663 0 1.477v5.248c0 .814.69 1.477 1.537 1.477h20.21c.846 0 1.536-.663 1.536-1.477V1.477c0-.814-.69-1.477-1.537-1.477Zm0 .497h20.21c.569 0 1.019.433 1.019.98v5.248c0 .547-.45.98-1.02.98H1.537c-.57 0-1.02-.433-1.02-.98V1.477c0-.547.45-.98 1.02-.98z" style="baseline-shift:baseline;display:inline;overflow:visible;opacity:1;vector-effect:none;fill:#65ff88;fill-rule:evenodd;stroke-width:.253575;stroke-dashoffset:320;enable-background:accumulate;stop-color:#000;stop-opacity:1;stroke:none"/></svg>