<svg height="31" viewBox="0 0 88 31" width="88" xmlns="http://www.w3.org/2000/svg" xmlns:xlink="http://www.w3.org/1999/xlink"><clipPath id="a"><path d="m0 0h88v31h-88z"/></clipPath><g clip-path="url(#a)"><path d="m0 0h88v31h-88z" fill="#e2d6ce"/><path d="m88 11v16l-1 1h-86l-1-1v-12h4l5 5h12l13-13 11 11h18l3 3h12z" fill="#a18b86"/><path d="m57 12.7c1.069 1.04.649 3.419 2 5.3l3 2h2v-7l-2-2h-9l-.631 1z" fill="#fff"/><path d="m61.5 9 3.5 2.5s4.616-5.004 6-6.5c.926-1 2-1 2-1-6.583 9.472-2.575 18.06 7.57 10 0 0 .229 1.202-.57 2-1.937 1.935-11 11-11 11l-2 1h-7l-1-1v-2s1.565-4.131 3.013-8c1.073-2.866.047-5-3.013-5h-6.631l-1.674-2 2.201-2.304c0-2.429.813-3.694 2.104-4.042v2.346h1c.76-1.405 2.657-2.346 4.381-2.346l-1.381 3.346h3.5z"/><path d="m72 27 2-2v2c3.198-4.197 6-4 8 0l-1 1h-8z"/><path d="m60.5 19c-.849 0-1.467-.339-2-1l-3.5 9-1 1h-3l-1-1v-2l2-7 5-5.3c2.479.502 1.462 4.716 3.5 6.3z"/><circle cx="56.5" cy="8.5" fill="#fff" r="1.386"/><path d="m88 27v4h-88v-13h31l9 9z"/><path d="m15 6h2v13h-2z"/><path d="m19.5 14.5c-1.677 1.352-1.794 3.893-1.76 4.383.021.308-.118.249-.74.867-.222-.278-.528-.48-.75-.758-.021-.026.328-3.649 3.25-4.492z"/><path d="m12 16.5c2.3-1.118 3.553 1.005 3.732 2.333.007.053.051.116.018.158-.219.277-.522.481-.741.759-.228-.274-.529-.483-.757-.757-.014-.017.192-.937-.565-1.821-.63-.737-1.547-.67-1.687-.672z"/><path d="m20.999 16.5c-.562.08-2.372.176-3.256 2.637-.149.413-.293.261-1.049.548-.079-.346-.297-.651-.376-.997 0 0 .91-1.813 2.419-2.268 1.108-.333 1.883-.028 2.262.08z"/><path d="m15 1v-1h2v1c0 3 1.992 4.473 5 5.5.823.281-1.476.647-2.5.5.995 1.128 3.498 2.718 5.5 3.478 1.51.572-1.975 2.02-5 1.022 0 0 .332.779.5 1.5.196.84-2.495-.473-3.5-1.5h-2c-1.014 1.087-3.698 2.294-3.5 1.5.165-.664.5-1.5.5-1.5-3.012 1.034-6.48-.492-5-1.022 1.993-.715 4.488-2.343 5.5-3.478-1.029.187-3.286-.234-2.5-.5 3.008-1.019 5-2.5 5-5.5z"/><path d="m15-7h2c0 3 4 6 8 7 1.518.379-2 1.345-4 1 0 0 1.498.77 3 1.5s-3.501 1.189-7-.5h-2c-3.487 1.646-8.532 1.232-7 .5 1.346-.643 3-1.5 3-1.5-2 .318-5.564-.687-4-1 5-1 8-4 8-7z"/><path d="m5 27-1-2v-3h1v3l.5 1 .5-1v-3h1v3l-1 2zm3 0v-4l1-1h2v4l-1 1zm1-4v3h1v-3zm6 4v2h-1v-6l1-1h2v4l-1 1zm0-4v3h1v-3zm5 4h-2v-4l1-1h2v2l-1 1h-1v1h2zm-1-4v1h1v-1zm3 4v-4l1-1h2v4l-1 1zm1-4v3h1v-3zm3 4v-5h2l1 1v4h-1v-4h-1v4zm-13-7v7h-1v-7z" fill="#fff"/></g></svg>