<?xml version="1.0" standalone="no"?>
<!DOCTYPE svg PUBLIC "-//W3C//DTD SVG 20010904//EN"
 "http://www.w3.org/TR/2001/REC-SVG-20010904/DTD/svg10.dtd">
<svg version="1.0" xmlns="http://www.w3.org/2000/svg"
 width="700.000000pt" height="700.000000pt" viewBox="0 0 700.000000 700.000000"
 preserveAspectRatio="xMidYMid meet">
<metadata>
Created by potrace 1.14, written by Peter Selinger 2001-2017
</metadata>
<g transform="translate(0.000000,700.000000) scale(0.100000,-0.100000)"
fill="#000000" stroke="none">
<path d="M13 6743 c8 -312 15 -430 43 -698 4 -33 8 -71 9 -85 2 -14 6 -45 9
-70 3 -25 8 -65 11 -90 3 -25 7 -56 10 -70 2 -14 7 -45 10 -70 18 -134 87
-493 126 -655 11 -44 21 -89 23 -100 6 -29 51 -200 91 -340 53 -187 194 -608
235 -700 5 -11 36 -85 68 -165 66 -159 127 -297 192 -433 l42 -89 -107 -261
c-60 -144 -138 -336 -175 -427 -85 -210 -101 -245 -155 -335 -95 -161 -250
-340 -382 -443 l-53 -40 42 -84 c92 -183 209 -359 359 -538 98 -117 143 -159
278 -264 253 -195 612 -382 979 -510 157 -54 426 -131 528 -150 11 -2 79 -15
150 -29 113 -22 177 -32 314 -51 34 -5 118 -14 190 -21 148 -15 309 -20 660
-20 422 0 558 5 765 30 22 3 60 7 85 10 25 3 56 7 70 10 14 2 45 7 70 10 48 7
80 12 120 20 14 3 51 10 82 15 32 6 70 13 85 16 61 11 336 85 438 117 443 140
851 348 1150 586 150 119 286 274 430 491 87 131 195 326 195 352 0 9 -21 33
-47 53 -132 105 -286 285 -380 442 -38 65 -113 216 -113 228 0 3 -74 184 -165
404 l-165 400 75 157 c41 86 75 158 75 161 0 2 12 30 26 61 44 97 159 390 209
532 26 74 50 142 53 150 3 8 6 17 7 20 1 3 18 57 38 120 57 182 147 508 163
590 3 14 14 63 25 110 18 75 72 348 83 419 3 14 11 69 20 121 19 118 25 159
32 218 3 26 7 58 9 72 8 55 21 178 30 295 4 44 9 98 11 120 3 22 8 181 11 353
5 270 4 312 -9 312 -16 0 -264 -102 -483 -200 -266 -118 -518 -247 -735 -378
-83 -51 -302 -193 -310 -202 -3 -3 -36 -28 -75 -55 -38 -27 -75 -54 -81 -60
-6 -5 -29 -23 -50 -40 -41 -32 -184 -149 -230 -187 -141 -118 -347 -309 -531
-493 l-222 -220 -88 22 c-155 40 -317 67 -468 80 -150 12 -442 6 -535 -11 -14
-3 -43 -7 -65 -10 -63 -8 -192 -34 -294 -61 l-95 -24 -190 193 c-172 174 -342
335 -451 427 -22 19 -42 36 -45 39 -21 21 -204 172 -290 238 -58 45 -109 86
-115 90 -70 57 -382 258 -510 329 -319 177 -499 262 -1044 492 l-74 31 6 -257z
m4257 -2256 c146 -63 288 -125 316 -138 l51 -24 -53 -217 -53 -217 136 -136
136 -137 51 11 c28 6 110 24 181 41 72 17 141 33 155 36 14 2 32 7 41 10 13 3
23 -11 42 -58 14 -35 78 -189 141 -342 64 -153 116 -282 116 -285 0 -4 -87
-58 -194 -121 l-194 -113 2 -131 c2 -73 0 -158 -4 -189 l-6 -57 130 -82 c249
-155 268 -169 262 -185 -10 -26 -117 -286 -131 -318 -13 -29 -118 -288 -135
-332 l-9 -21 -83 19 c-46 11 -101 23 -123 28 -22 5 -86 19 -141 31 l-101 23
-137 -136 -136 -136 50 -212 c28 -117 50 -218 50 -223 0 -13 9 -9 -270 -121
-118 -48 -233 -95 -255 -105 -97 -42 -156 -62 -163 -56 -4 4 -59 89 -123 189
-115 181 -116 182 -150 179 -71 -5 -280 -4 -313 2 -33 6 -34 6 -93 -86 -33
-51 -85 -133 -116 -183 -86 -139 -75 -130 -127 -106 -25 11 -121 52 -215 91
-185 78 -317 133 -381 160 l-41 18 18 84 c10 45 34 147 52 225 l34 143 -70 62
c-64 57 -110 104 -178 180 -23 26 -25 26 -74 14 -63 -17 -188 -46 -218 -52
-12 -2 -56 -12 -99 -22 l-76 -19 -21 46 c-12 25 -77 181 -145 345 l-124 300
41 26 c23 14 71 43 107 64 36 20 105 61 154 90 l88 54 2 195 1 196 -180 110
c-99 61 -186 115 -194 120 -12 8 -4 34 43 148 32 76 64 152 72 168 7 17 36 86
64 155 92 222 97 231 122 225 13 -3 113 -25 223 -50 l200 -45 44 51 c59 68
105 114 170 172 l54 47 -11 43 c-11 40 -61 256 -67 287 -2 8 -9 37 -15 63 -7
28 -9 52 -4 56 5 4 159 70 342 146 208 86 336 134 340 128 4 -6 58 -91 121
-190 l115 -178 186 0 c102 1 190 4 196 7 5 4 63 90 129 192 l119 185 31 -14
c16 -7 149 -64 295 -128z"/>
<path d="M3365 3366 c-244 -52 -428 -187 -546 -402 -10 -17 -32 -71 -49 -120
-29 -79 -33 -103 -36 -214 -5 -203 38 -347 149 -496 250 -337 721 -420 1064
-187 148 101 266 270 314 448 28 106 30 280 5 380 -39 149 -108 270 -220 381
-138 137 -311 211 -510 219 -69 2 -134 -1 -171 -9z"/>
</g>
</svg>
