<svg xmlns="http://www.w3.org/2000/svg" xml:space="preserve" style="fill-rule:evenodd;clip-rule:evenodd;stroke-linecap:round;stroke-linejoin:round;stroke-miterlimit:1.5" viewBox="0 0 40 40"><path d="M0 0h40v40H0z" style="fill:none"/><path d="M13.046 35 11.6 33.587a3.1 3.1 0 0 0-1.415-.791L9 32.5l.231-.323c.26-.364.593-.66.972-.874a6 6 0 0 1-.54-.29C8.072 30.052 8 29 8 29h1.434C8.601 28.526 8 28 8 28l.217-.271a5.1 5.1 0 0 1 3.521-1.894c-.48-.288-.885-.7-1.166-1.205l-.072-.13h.617c-.472-.614-.617-1-.617-1s.995-.05 2.243-.54C11.188 22.497 11 21 11 21s.819.11 1.776-.189c-.993-3.104-4.92-8.445-4.276-13.314.736-5.565 5.597-7.408 6.5-3.001.401 1.958.877 5.458 1.5 8.504.358 1.752 1.119 3.454 1.708 4.596l1.104.413C20.134 17.481 21 17 21 17s.345.018.98.223C22.534 16.1 23.179 14.57 23.5 13c.623-3.046 1.099-6.546 1.5-8.504.903-4.407 5.764-2.564 6.5 3.001.661 4.995-3.489 10.486-4.347 13.55C28.171 21.306 29 21 29 21s-.268 1.357-1.604 2.013c1.183.441 2.104.487 2.104.487s-.145.386-.617 1h.617l-.072.13a3.24 3.24 0 0 1-1.166 1.205 5.1 5.1 0 0 1 3.521 1.894L32 28s-.601.526-1.434 1H32s-.072 1.052-1.663 2.013q-.27.162-.54.29c.379.214.712.51.972.874L31 32.5l-1.185.296a3.1 3.1 0 0 0-1.415.791L26.954 35c-1.577 1.735-3.987 3-6.954 3s-5.377-1.265-6.954-3" style="fill:none;stroke:#000;stroke-width:4px"/><path d="M11.234 2.494C12.788 1.533 14.5 2.057 15 4.496c.401 1.958.877 5.458 1.5 8.504.629 3.076 2.5 6 2.5 6s-6 5.751-6 2.997q0-.162-.024-.341c.61-.244-.788-19.486-1.742-19.162" style="fill:none;stroke:#000;stroke-width:4px"/><path d="M11.234 2.494C12.788 1.533 14.5 2.057 15 4.496c.401 1.958.877 5.458 1.5 8.504.629 3.076 2.5 6 2.5 6s-6 5.751-6 2.997q0-.162-.024-.341c.61-.244-.788-19.486-1.742-19.162" style="fill:#f0fff4"/><path d="M27.024 21.656a3 3 0 0 0-.024.341C27 24.751 21 19 21 19s1.871-2.924 2.5-6c.623-3.046 1.099-6.546 1.5-8.504.5-2.439 2.212-2.963 3.766-2.002-.954-.324-2.352 18.918-1.742 19.162" style="fill:none;stroke:#000;stroke-width:4px"/><path d="M27.024 21.656a3 3 0 0 0-.024.341C27 24.751 21 19 21 19s1.871-2.924 2.5-6c.623-3.046 1.099-6.546 1.5-8.504.5-2.439 2.212-2.963 3.766-2.002-.954-.324-2.352 18.918-1.742 19.162" style="fill:#f0fff4"/><path d="M12.976 21.656c-.379-2.898-5.183-8.813-4.476-14.159.329-2.485 1.48-4.228 2.734-5.003.954-.324 1.853-.092 2.266 1.506.31 1.199 1.441 6.687 1.5 8 .178 3.959-1 5.501-1 8 0 .911-.414 1.412-1.024 1.656M27.024 21.656C26.414 21.412 26 20.911 26 20c0-2.499-1.178-4.041-1-8 .059-1.313 1.19-6.801 1.5-8 .413-1.598 1.312-1.83 2.266-1.506 1.254.775 2.405 2.518 2.734 5.003.707 5.346-4.097 11.261-4.476 14.159" style="fill:#4fe64c"/><path d="M11.5 10.5s-.187 2.5 1 2.5 1-1.5 1-1.5M27.5 9.5s.127 1 1 1 1-2 1-2" style="fill:none;stroke:#19a116;stroke-width:1px"/><path d="M10.5 23.5s1.45-.073 3.047-.906A15 15 0 0 0 16 21h2v6s-4.087.192-5.606-1.153C10.876 24.502 10.5 23.5 10.5 23.5m19 0s-.376 1.002-1.894 2.347C26.087 27.192 22 27 22 27v-6h2s.984.826 2.453 1.594c1.597.833 3.047.906 3.047.906" style="fill:#4fe64c"/><path d="M28.3 24.497q.069.003.139.003H29.5l-.072.13a3.24 3.24 0 0 1-1.166 1.205 5.1 5.1 0 0 1 3.521 1.894L32 28s-.601.526-1.434 1H32s-.072 1.052-1.663 2.013q-.27.162-.54.29c.379.214.712.51.972.874L31 32.5l-1.185.296a3.1 3.1 0 0 0-1.415.791L26.954 35c-1.577 1.735-3.987 3-6.954 3s-5.377-1.265-6.954-3L11.6 33.587a3.1 3.1 0 0 0-1.415-.791L9 32.5l.231-.323c.26-.364.593-.66.972-.874a6 6 0 0 1-.54-.29C8.072 30.052 8 29 8 29h1.434C8.601 28.526 8 28 8 28l.217-.271a5.1 5.1 0 0 1 3.521-1.894c-.48-.288-.885-.7-1.166-1.205l-.072-.13h1.111c-.019.061.863.096 2.231.114 1.61.021 3.967-.914 6.245-.929 2.384-.016 4.39.882 5.962 1.116 1.175.176 2.26-.293 2.251-.304" style="fill:#f0fff4"/><path d="M28.3 24.497q.068.077.144.158a.498.498 0 0 1-.233.828s-2.161.562-3.808-.213a5.7 5.7 0 0 1-1.025-.616c-.589.554-1.181.806-1.181.806a.5.5 0 0 1-.197.04l-.118-.125q-.16.214-.337.408c-.591.652-1.255 1.124-1.255 1.124a.5.5 0 0 1-.755-.223l-.295-.741c-.23.267-.4.424-.4.424a.5.5 0 0 1-.622.046s-.896-.594-1.153-1.869a7.7 7.7 0 0 1-1.109.663c-1.91.931-4.101.271-4.101.271a.5.5 0 0 1-.35-.548s.021-.166.106-.43a3.1 3.1 0 0 0 1.12-.229C14.89 21.295 18.482 20.5 20 20.5c1.35 0 4.98.79 7.195 3.74.348.152.723.24 1.105.257" style="fill:#8cc19a"/><path d="M26.276 24.357c.874.657 1.474 1.815 1.474 3.143 0 2.104-1.497 3.75-3.25 3.75s-3.25-1.646-3.25-3.75c0-.698.165-1.35.449-1.905a.75.75 0 0 1 .532-.397 17.6 17.6 0 0 0 3.32-.94.75.75 0 0 1 .725.099m-11.827-.099c.938.367 1.987.695 3.32.94a.75.75 0 0 1 .532.397c.284.555.449 1.207.449 1.905 0 2.104-1.497 3.75-3.25 3.75s-3.25-1.646-3.25-3.75c0-1.328.6-2.486 1.474-3.143a.75.75 0 0 1 .725-.099" style="fill:#8cc19a"/><path d="M25.825 24.956C26.53 25.487 27 26.428 27 27.5c0 1.656-1.12 3-2.5 3s-2.5-1.344-2.5-3c0-.573.134-1.109.367-1.564a18.3 18.3 0 0 0 3.458-.98m-11.65 0c.978.383 2.07.724 3.458.98.233.455.367.991.367 1.564 0 1.656-1.12 3-2.5 3s-2.5-1.344-2.5-3c0-1.072.47-2.013 1.175-2.544" style="fill:#fff"/><path d="M23.95 25.75a1.75 1.75 0 1 1-.001 3.501 1.75 1.75 0 0 1 .001-3.501m-7.9 0a1.75 1.75 0 1 1-.001 3.501 1.75 1.75 0 0 1 .001-3.501" style="fill:#19562f"/><path d="m15 32 3-2.5h4l3 2.5v2H15z" style="fill:#f0fff4"/><path d="M16 31c.479-.747 1.272-1.5 4-1.5M24 31c-.479-.747-1.272-1.5-4-1.5" style="fill:none;stroke:#7da080;stroke-width:1px"/><path d="m16.5 35 1.719-1.474a2.74 2.74 0 0 1 3.562 0L23.5 35" style="fill:none;stroke:#466b50;stroke-width:1.2px"/><path d="M16.075 24.582a7 7 0 0 1-.338.175C13.997 25.605 12 25 12 25s.144-1.023 1.103-1.957l-.044-.008C11.213 22.695 11 21 11 21s1.241.167 2.452-.469l.012-.006c-.23.452 1.443 1.871 1.443 1.871-.116.155.155 2.23 1.168 2.186m8.354.144c.932.054 3.205-3.385 3.045-3.614C28.34 21.244 29 21 29 21s-.3 1.52-1.848 2.12l-.05.019c.081.331.157.686.398 1.103.134.231.318.482.582.758 0 0-1.967.523-3.466-.182zm-3.876-2.537s1.014 2.395 1.401 2.014C21.616 25.348 20 26.5 20 26.5s-.272-.689-.623-1.565A6.3 6.3 0 0 1 18.5 26s-.934-.637-1-2a5 5 0 0 1-.005-.379c.187.568 2.768-.976 3.058-1.432" style="fill:#4fe64c"/><path d="M13.464 20.525c1.456-.767 1.347-1.163 2.419-1.98.838-.64 1.481-.914 1.785-1.024a.64.64 0 0 1 .392.019l1.252.469C20.134 17.481 21 17 21 17s.908.047 2.495.863c1.592.819 1.867 2.499 3.25 3.051.252.101.498.163.729.198.16.229.396.381.834.428-.113.507-.641.915-1.237 1.448l-.186-.27c-.064.615.037 1.544.257 1.952-.88.141-1.781.11-2.713.056a5.2 5.2 0 0 1-1.094-.754C22.742 24.682 22 25 22 25s.014-.363-.01-.813l.003-.024-.004.005-.005-.08-.03.115c-.387.381-.923.614-1.486.706-.228-.362-.371-.682-.359-.994l.444-.726c-.29.456-1.421 1.405-2.001 1.567-.446-.341-.87-.567-1.057-1.135l.003-.08a7.2 7.2 0 0 1-1.423 1.041c-1.013.044-2.038-.005-3.089-.263.043-.559.228-.947.537-1.397a.4.4 0 0 0 .066-.095c.096-.135.202-.276.318-.431l-.382.314c-.63-.296-1.142-.66-1.482-1.121.762-.239 1.191-.612 1.421-1.064m4.022-1.429c-.062.559-.343 1.062-.926 1.561.552.425 1.099.679 1.525.781-.19.065-.571.14-1.209.04-.988-.155-1.601-.986-1.601-.986s.731-.112 1.338-.542c.386-.272.686-.612.873-.854m3.966 1.77c.42.118.826.315 1.186.749.473-.602.711-1.158.775-1.57.067.166.166.558.049 1.263-.165.986-.924 1.483-.924 1.483s-.228-.748-.652-1.36a7 7 0 0 0-.434-.565" style="fill:#27372d"/><path d="M17.486 19.096c-.062.559-.343 1.062-.926 1.561.552.425 1.099.679 1.525.781-.19.065-.571.14-1.209.04-.988-.155-1.601-.986-1.601-.986s.731-.112 1.338-.542c.386-.272.686-.612.873-.854m3.966 1.77c.42.118.826.315 1.186.749.473-.602.711-1.158.775-1.57.067.166.166.558.049 1.263-.165.986-.924 1.483-.924 1.483s-.228-.748-.652-1.36a7 7 0 0 0-.434-.565" style="fill:#4fe64c"/><path d="M22.481 22.504c.768-.448 2.204-.71 2.771.14.566.849.273 1.847-1.097 2.581-1.295.693-2.28.784-2.785-.198s-.06-1.839 1.111-2.523m-4.962 0c1.171.684 1.616 1.541 1.111 2.523s-1.49.891-2.785.198c-1.37-.734-1.663-1.732-1.097-2.581.567-.85 2.003-.588 2.771-.14" style="fill:#475247"/></svg>