<?xml version="1.0" encoding="UTF-8" standalone="no"?>
<!DOCTYPE svg PUBLIC "-//W3C//DTD SVG 1.1//EN" "http://www.w3.org/Graphics/SVG/1.1/DTD/svg11.dtd">
<svg width="100%" height="100%" viewBox="0 0 40 40" version="1.1" xmlns="http://www.w3.org/2000/svg" xmlns:xlink="http://www.w3.org/1999/xlink" xml:space="preserve" xmlns:serif="http://www.serif.com/" style="fill-rule:evenodd;clip-rule:evenodd;stroke-linecap:round;stroke-linejoin:round;stroke-miterlimit:1.5;">
    <rect id="ash_angry" x="0" y="0" width="40" height="40" style="fill:none;"/>
    <g id="outline">
        <path d="M13.046,35l-1.446,-1.413c-0.393,-0.384 -0.881,-0.657 -1.415,-0.791l-1.185,-0.296l0.231,-0.323c0.26,-0.364 0.593,-0.66 0.972,-0.874c-0.18,-0.085 -0.361,-0.182 -0.54,-0.29c-1.591,-0.961 -1.663,-2.013 -1.663,-2.013l1.434,0c-0.833,-0.474 -1.434,-1 -1.434,-1l0.217,-0.271c0.877,-1.096 2.154,-1.769 3.521,-1.894c-0.48,-0.288 -0.885,-0.7 -1.166,-1.205l-0.072,-0.13l0.617,-0c-0.472,-0.614 -0.617,-1 -0.617,-1c0,0 0.995,-0.05 2.243,-0.54c-1.555,-0.463 -1.743,-1.96 -1.743,-1.96c0,0 0.819,0.11 1.776,-0.189c-0.993,-3.104 -4.92,-8.445 -4.276,-13.314c0.736,-5.565 5.597,-7.408 6.5,-3.001c0.401,1.958 0.877,5.458 1.5,8.504c0.358,1.752 1.119,3.454 1.708,4.596l1.104,0.413c0.822,-0.528 1.688,-1.009 1.688,-1.009c0,0 0.345,0.018 0.98,0.223c0.554,-1.123 1.199,-2.653 1.52,-4.223c0.623,-3.046 1.099,-6.546 1.5,-8.504c0.903,-4.407 5.764,-2.564 6.5,3.001c0.661,4.995 -3.489,10.486 -4.347,13.55c1.018,0.259 1.847,-0.047 1.847,-0.047c0,-0 -0.268,1.357 -1.604,2.013c1.183,0.441 2.104,0.487 2.104,0.487c0,0 -0.145,0.386 -0.617,1l0.617,0l-0.072,0.13c-0.281,0.505 -0.686,0.917 -1.166,1.205c1.367,0.125 2.644,0.798 3.521,1.894l0.217,0.271c-0,0 -0.601,0.526 -1.434,1l1.434,0c0,0 -0.072,1.052 -1.663,2.013c-0.179,0.108 -0.36,0.205 -0.54,0.29c0.379,0.214 0.712,0.51 0.972,0.874l0.231,0.323l-1.185,0.296c-0.534,0.134 -1.022,0.407 -1.415,0.791l-1.446,1.413c-1.577,1.735 -3.987,3 -6.954,3c-2.967,-0 -5.377,-1.265 -6.954,-3Z" style="fill:none;stroke:#000;stroke-width:4px;"/>
    </g>
    <g id="ears-up" serif:id="ears up">
        <path d="M11.234,2.494c1.554,-0.961 3.266,-0.437 3.766,2.002c0.401,1.958 0.877,5.458 1.5,8.504c0.629,3.076 2.5,6 2.5,6c0,-0 -6,5.751 -6,2.997c0,-0.108 -0.008,-0.222 -0.024,-0.341c0.61,-0.244 -0.788,-19.486 -1.742,-19.162Z" style="fill:none;stroke:#000;stroke-width:4px;"/>
        <path d="M11.234,2.494c1.554,-0.961 3.266,-0.437 3.766,2.002c0.401,1.958 0.877,5.458 1.5,8.504c0.629,3.076 2.5,6 2.5,6c0,-0 -6,5.751 -6,2.997c0,-0.108 -0.008,-0.222 -0.024,-0.341c0.61,-0.244 -0.788,-19.486 -1.742,-19.162Z" style="fill:#f0fff4;"/>
        <path d="M27.024,21.656c-0.016,0.119 -0.024,0.233 -0.024,0.341c0,2.754 -6,-2.997 -6,-2.997c0,-0 1.871,-2.924 2.5,-6c0.623,-3.046 1.099,-6.546 1.5,-8.504c0.5,-2.439 2.212,-2.963 3.766,-2.002c-0.954,-0.324 -2.352,18.918 -1.742,19.162Z" style="fill:none;stroke:#000;stroke-width:4px;"/>
        <path d="M27.024,21.656c-0.016,0.119 -0.024,0.233 -0.024,0.341c0,2.754 -6,-2.997 -6,-2.997c0,-0 1.871,-2.924 2.5,-6c0.623,-3.046 1.099,-6.546 1.5,-8.504c0.5,-2.439 2.212,-2.963 3.766,-2.002c-0.954,-0.324 -2.352,18.918 -1.742,19.162Z" style="fill:#f0fff4;"/>
        <path d="M12.976,21.656c-0.379,-2.898 -5.183,-8.813 -4.476,-14.159c0.329,-2.485 1.48,-4.228 2.734,-5.003c0.954,-0.324 1.853,-0.092 2.266,1.506c0.31,1.199 1.441,6.687 1.5,8c0.178,3.959 -1,5.501 -1,8c0,0.911 -0.414,1.412 -1.024,1.656Z" style="fill:#4fe64c;"/>
        <path d="M27.024,21.656c-0.61,-0.244 -1.024,-0.745 -1.024,-1.656c0,-2.499 -1.178,-4.041 -1,-8c0.059,-1.313 1.19,-6.801 1.5,-8c0.413,-1.598 1.312,-1.83 2.266,-1.506c1.254,0.775 2.405,2.518 2.734,5.003c0.707,5.346 -4.097,11.261 -4.476,14.159Z" style="fill:#4fe64c;"/>
        <path d="M11.5,10.5c0,0 -0.187,2.5 1,2.5c1.187,0 1,-1.5 1,-1.5" style="fill:none;stroke:#19a116;stroke-width:1px;"/>
        <path d="M27.5,9.5c0,0 0.127,1 1,1c0.873,0 1,-2 1,-2" style="fill:none;stroke:#19a116;stroke-width:1px;"/>
    </g>
    <path d="M10.5,23.5c-0,0 1.45,-0.073 3.047,-0.906c1.469,-0.768 2.453,-1.594 2.453,-1.594l2,0l-0,6c-0,0 -4.087,0.192 -5.606,-1.153c-1.518,-1.345 -1.894,-2.347 -1.894,-2.347Zm19,0c0,0 -0.376,1.002 -1.894,2.347c-1.519,1.345 -5.606,1.153 -5.606,1.153l0,-6l2,0c0,0 0.984,0.826 2.453,1.594c1.597,0.833 3.047,0.906 3.047,0.906Z" style="fill:#4fe64c;"/>
    <g id="head">
        <path d="M28.3,24.497c0.046,0.002 0.092,0.003 0.139,0.003l1.061,0l-0.072,0.13c-0.281,0.505 -0.686,0.917 -1.166,1.205c1.367,0.125 2.644,0.798 3.521,1.894l0.217,0.271c-0,0 -0.601,0.526 -1.434,1l1.434,0c-0,0 -0.072,1.052 -1.663,2.013c-0.179,0.108 -0.36,0.205 -0.54,0.29c0.379,0.214 0.712,0.51 0.972,0.874l0.231,0.323l-1.185,0.296c-0.534,0.134 -1.022,0.407 -1.415,0.791l-1.446,1.413c-1.577,1.735 -3.987,3 -6.954,3c-2.967,0 -5.377,-1.265 -6.954,-3l-1.446,-1.413c-0.393,-0.384 -0.881,-0.657 -1.415,-0.791l-1.185,-0.296l0.231,-0.323c0.26,-0.364 0.593,-0.66 0.972,-0.874c-0.18,-0.085 -0.361,-0.182 -0.54,-0.29c-1.591,-0.961 -1.663,-2.013 -1.663,-2.013l1.434,0c-0.833,-0.474 -1.434,-1 -1.434,-1l0.217,-0.271c0.877,-1.096 2.154,-1.769 3.521,-1.894c-0.48,-0.288 -0.885,-0.7 -1.166,-1.205l-0.072,-0.13l1.061,-0c0.017,-0 0.034,-0 0.05,-0c-0.019,0.061 0.863,0.096 2.231,0.114c1.61,0.021 3.967,-0.914 6.245,-0.929c2.384,-0.016 4.39,0.882 5.962,1.116c1.175,0.176 2.26,-0.293 2.251,-0.304Z" style="fill:#f0fff4;"/>
        <path d="M28.3,24.497c0.045,0.051 0.093,0.104 0.144,0.158c0.122,0.127 0.168,0.31 0.12,0.48c-0.048,0.17 -0.182,0.303 -0.353,0.348c0,0 -2.161,0.562 -3.808,-0.213c-0.39,-0.183 -0.73,-0.393 -1.025,-0.616c-0.589,0.554 -1.181,0.806 -1.181,0.806c-0.062,0.026 -0.129,0.04 -0.197,0.04l-0.118,-0.125c-0.106,0.142 -0.22,0.279 -0.337,0.408c-0.591,0.652 -1.255,1.124 -1.255,1.124c-0.125,0.089 -0.284,0.116 -0.432,0.072c-0.147,-0.043 -0.267,-0.152 -0.323,-0.295c-0,-0 -0.116,-0.294 -0.295,-0.741c-0.23,0.267 -0.4,0.424 -0.4,0.424c-0.171,0.158 -0.429,0.178 -0.622,0.046c0,0 -0.896,-0.594 -1.153,-1.869c-0.315,0.226 -0.685,0.456 -1.109,0.663c-1.91,0.931 -4.101,0.271 -4.101,0.271c-0.236,-0.071 -0.384,-0.304 -0.35,-0.548c-0,0 0.021,-0.166 0.106,-0.43c0.386,-0.007 0.765,-0.085 1.12,-0.229c2.159,-2.976 5.751,-3.771 7.269,-3.771c1.35,0 4.98,0.79 7.195,3.74c0.348,0.152 0.723,0.24 1.105,0.257Z" style="fill:#8cc19a;"/>
    </g>
    <g id="face">
        <path d="M26.276,24.357c0.874,0.657 1.474,1.815 1.474,3.143c0,2.104 -1.497,3.75 -3.25,3.75c-1.753,-0 -3.25,-1.646 -3.25,-3.75c0,-0.698 0.165,-1.35 0.449,-1.905c0.106,-0.208 0.303,-0.355 0.532,-0.397c1.333,-0.245 2.382,-0.573 3.32,-0.94c0.243,-0.095 0.517,-0.058 0.725,0.099Zm-11.827,-0.099c0.938,0.367 1.987,0.695 3.32,0.94c0.229,0.042 0.426,0.189 0.532,0.397c0.284,0.555 0.449,1.207 0.449,1.905c-0,2.104 -1.497,3.75 -3.25,3.75c-1.753,-0 -3.25,-1.646 -3.25,-3.75c-0,-1.328 0.6,-2.486 1.474,-3.143c0.208,-0.157 0.482,-0.194 0.725,-0.099Z" style="fill:#8cc19a;"/>
        <path d="M25.825,24.956c0.705,0.531 1.175,1.472 1.175,2.544c-0,1.656 -1.12,3 -2.5,3c-1.38,-0 -2.5,-1.344 -2.5,-3c0,-0.573 0.134,-1.109 0.367,-1.564c1.388,-0.256 2.48,-0.597 3.458,-0.98Zm-11.65,-0c0.978,0.383 2.07,0.724 3.458,0.98c0.233,0.455 0.367,0.991 0.367,1.564c-0,1.656 -1.12,3 -2.5,3c-1.38,-0 -2.5,-1.344 -2.5,-3c0,-1.072 0.47,-2.013 1.175,-2.544Z" style="fill:#fff;"/>
        <path d="M23.95,25.75c0.966,0 1.75,0.784 1.75,1.75c0,0.966 -0.784,1.75 -1.75,1.75c-0.966,0 -1.75,-0.784 -1.75,-1.75c0,-0.966 0.784,-1.75 1.75,-1.75Zm-7.9,0c0.966,0 1.75,0.784 1.75,1.75c0,0.966 -0.784,1.75 -1.75,1.75c-0.966,0 -1.75,-0.784 -1.75,-1.75c0,-0.966 0.784,-1.75 1.75,-1.75Z" style="fill:#19562f;"/>
        <path d="M15,32l3,-2.5l4,0l3,2.5l0,2l-10,0l0,-2" style="fill:#f0fff4;"/>
        <path d="M16,31c0.479,-0.747 1.272,-1.5 4,-1.5" style="fill:none;stroke:#7da080;stroke-width:1px;"/>
        <path d="M24,31c-0.479,-0.747 -1.272,-1.5 -4,-1.5" style="fill:none;stroke:#7da080;stroke-width:1px;"/>
        <path d="M16.5,35c0,0 0.855,-0.733 1.719,-1.474c1.025,-0.878 2.537,-0.878 3.562,0c0.864,0.741 1.719,1.474 1.719,1.474" style="fill:none;stroke:#466b50;stroke-width:1.2px;"/>
    </g>
    <g id="hair">
        <path d="M16.075,24.582c-0.108,0.06 -0.221,0.118 -0.338,0.175c-1.74,0.848 -3.737,0.243 -3.737,0.243c0,0 0.144,-1.023 1.103,-1.957c-0.015,-0.003 -0.029,-0.005 -0.044,-0.008c-1.846,-0.34 -2.059,-2.035 -2.059,-2.035c0,0 1.241,0.167 2.452,-0.469l0.012,-0.006c-0.23,0.452 1.443,1.871 1.443,1.871c-0.116,0.155 0.155,2.23 1.168,2.186Zm8.354,0.144c0.932,0.054 3.205,-3.385 3.045,-3.614c0.866,0.132 1.526,-0.112 1.526,-0.112c0,0 -0.3,1.52 -1.848,2.12c-0.017,0.007 -0.034,0.013 -0.05,0.019c0.081,0.331 0.157,0.686 0.398,1.103c0.134,0.231 0.318,0.482 0.582,0.758c0,0 -1.967,0.523 -3.466,-0.182c-0.064,-0.03 -0.126,-0.061 -0.187,-0.092Zm-3.876,-2.537c-0,0 1.014,2.395 1.401,2.014c-0.338,1.145 -1.954,2.297 -1.954,2.297c0,0 -0.272,-0.689 -0.623,-1.565c-0.417,0.638 -0.877,1.065 -0.877,1.065c0,0 -0.934,-0.637 -1,-2c-0.007,-0.134 -0.008,-0.26 -0.005,-0.379c0.187,0.568 2.768,-0.976 3.058,-1.432Z" style="fill:#4fe64c;"/>
        <path d="M13.464,20.525c1.456,-0.767 1.347,-1.163 2.419,-1.98c0.838,-0.64 1.481,-0.914 1.785,-1.024c0.129,-0.035 0.266,-0.028 0.392,0.019l1.252,0.469c0.822,-0.528 1.688,-1.009 1.688,-1.009c0,0 0.908,0.047 2.495,0.863c1.592,0.819 1.867,2.499 3.25,3.051c0.252,0.101 0.498,0.163 0.729,0.198c0.16,0.229 0.396,0.381 0.834,0.428c-0.113,0.507 -0.641,0.915 -1.237,1.448l-0.186,-0.27c-0.064,0.615 0.037,1.544 0.257,1.952c-0.88,0.141 -1.781,0.11 -2.713,0.056c-0.433,-0.224 -0.794,-0.485 -1.094,-0.754c-0.593,0.71 -1.335,1.028 -1.335,1.028c0,0 0.014,-0.363 -0.01,-0.813c0.001,-0.008 0.002,-0.016 0.003,-0.024c-0.001,0.002 -0.003,0.003 -0.004,0.005c-0.002,-0.027 -0.004,-0.053 -0.005,-0.08c-0.009,0.038 -0.019,0.076 -0.03,0.115c-0.387,0.381 -0.923,0.614 -1.486,0.706c-0.228,-0.362 -0.371,-0.682 -0.359,-0.994l0.444,-0.726c-0.29,0.456 -1.421,1.405 -2.001,1.567c-0.446,-0.341 -0.87,-0.567 -1.057,-1.135c0.001,-0.027 0.002,-0.054 0.003,-0.08c-0.323,0.305 -0.799,0.693 -1.423,1.041c-1.013,0.044 -2.038,-0.005 -3.089,-0.263c0.043,-0.559 0.228,-0.947 0.537,-1.397c0.029,-0.033 0.053,-0.066 0.066,-0.095c0.096,-0.135 0.202,-0.276 0.318,-0.431l-0.382,0.314c-0.63,-0.296 -1.142,-0.66 -1.482,-1.121c0.762,-0.239 1.191,-0.612 1.421,-1.064Zm4.022,-1.429c-0.062,0.559 -0.343,1.062 -0.926,1.561c0.552,0.425 1.099,0.679 1.525,0.781c-0.19,0.065 -0.571,0.14 -1.209,0.04c-0.988,-0.155 -1.601,-0.986 -1.601,-0.986c0,-0 0.731,-0.112 1.338,-0.542c0.386,-0.272 0.686,-0.612 0.873,-0.854Zm3.966,1.77c0.42,0.118 0.826,0.315 1.186,0.749c0.473,-0.602 0.711,-1.158 0.775,-1.57c0.067,0.166 0.166,0.558 0.049,1.263c-0.165,0.986 -0.924,1.483 -0.924,1.483c-0,0 -0.228,-0.748 -0.652,-1.36c-0.159,-0.229 -0.307,-0.417 -0.434,-0.565Z" style="fill:#27372d;"/>
        <path d="M17.486,19.096c-0.062,0.559 -0.343,1.062 -0.926,1.561c0.552,0.425 1.099,0.679 1.525,0.781c-0.19,0.065 -0.571,0.14 -1.209,0.04c-0.988,-0.155 -1.601,-0.986 -1.601,-0.986c0,-0 0.731,-0.112 1.338,-0.542c0.386,-0.272 0.686,-0.612 0.873,-0.854Zm3.966,1.77c0.42,0.118 0.826,0.315 1.186,0.749c0.473,-0.602 0.711,-1.158 0.775,-1.57c0.067,0.166 0.166,0.558 0.049,1.263c-0.165,0.986 -0.924,1.483 -0.924,1.483c-0,0 -0.228,-0.748 -0.652,-1.36c-0.159,-0.229 -0.307,-0.417 -0.434,-0.565Z" style="fill:#4fe64c;"/>
    </g>
    <path d="M22.481,22.504c0.768,-0.448 2.204,-0.71 2.771,0.14c0.566,0.849 0.273,1.847 -1.097,2.581c-1.295,0.693 -2.28,0.784 -2.785,-0.198c-0.505,-0.982 -0.06,-1.839 1.111,-2.523Zm-4.962,-0c1.171,0.684 1.616,1.541 1.111,2.523c-0.505,0.982 -1.49,0.891 -2.785,0.198c-1.37,-0.734 -1.663,-1.732 -1.097,-2.581c0.567,-0.85 2.003,-0.588 2.771,-0.14Z" style="fill:#475247;"/>
</svg>
