<svg xmlns="http://www.w3.org/2000/svg" xml:space="preserve" style="fill-rule:evenodd;clip-rule:evenodd;stroke-linecap:round;stroke-linejoin:round;stroke-miterlimit:1.5" viewBox="0 0 40 40"><path d="M0 0h40v40H0z" style="fill:none"/><path d="M12.951 20.752c-.966-4.472-5.507-6.822-5.399-11.548.066-2.905.912-5.184 2.018-6.021 1.03-.781 2.285-.31 3.343 2.072.812 1.826 1.864 5.04 3.094 8.238.599 1.558 1.407 3.016 2.032 4.04l.021.007 1.252.469C20.134 17.481 21 17 21 17s.395.021 1.12.269c.599-1.003 1.324-2.347 1.873-3.776 1.23-3.198 2.282-6.412 3.094-8.238 1.058-2.382 2.313-2.853 3.343-2.072 1.106.837 1.952 3.116 2.018 6.021.11 4.813-4.602 7.162-5.448 11.796l-.001.004C28.086 21.337 29 21 29 21s-.268 1.357-1.604 2.013c1.183.441 2.104.487 2.104.487s-.145.386-.617 1h.617l-.072.13a3.24 3.24 0 0 1-1.166 1.205 5.1 5.1 0 0 1 3.521 1.894L32 28s-.601.526-1.434 1H32s-.072 1.052-1.663 2.013q-.27.162-.54.29c.379.214.712.51.972.874L31 32.5l-1.185.296a3.1 3.1 0 0 0-1.415.791L26.954 35c-1.577 1.735-3.987 3-6.954 3s-5.377-1.265-6.954-3L11.6 33.587a3.1 3.1 0 0 0-1.415-.791L9 32.5l.231-.323c.26-.364.593-.66.972-.874a6 6 0 0 1-.54-.29C8.072 30.052 8 29 8 29h1.434C8.601 28.526 8 28 8 28l.217-.271a5.1 5.1 0 0 1 3.521-1.894c-.48-.288-.885-.7-1.166-1.205l-.072-.13h.617c-.472-.614-.617-1-.617-1s.995-.05 2.243-.54C11.188 22.497 11 21 11 21s.921.124 1.951-.248" style="fill:none;stroke:#000;stroke-width:4px"/><path d="M26.916 21.294C26.067 23.334 21 19 21 19s1.866-2.576 2.993-5.507c1.23-3.198 2.282-6.412 3.094-8.238 1.058-2.382 2.313-2.853 3.343-2.072-.891-.124-3.996 17.844-3.514 18.111M9.57 3.183c1.03-.781 2.285-.31 3.343 2.072.812 1.826 1.864 5.04 3.094 8.238C17.134 16.424 19 19 19 19s-5.067 4.334-5.916 2.294c.482-.267-2.623-18.235-3.514-18.111" style="fill:#f0fff4"/><path d="M26.916 21.294c-.482-.267-.816-.681-.916-1.294-.307-1.885-.587-3.115-.367-6.298.204-2.964 2.142-7.212 2.49-8.401.525-1.795 1.416-2.242 2.307-2.118 1.106.837 1.952 3.116 2.018 6.021.11 4.813-4.602 7.162-5.448 11.796a1.4 1.4 0 0 1-.084.294m-13.832 0A1.4 1.4 0 0 1 13 21c-.846-4.634-5.558-6.983-5.448-11.796.066-2.905.912-5.184 2.018-6.021.891-.124 1.782.323 2.307 2.118.348 1.189 2.286 5.437 2.49 8.401.22 3.183-.06 4.413-.367 6.298-.1.613-.434 1.027-.916 1.294" style="fill:#4fe64c"/><path d="M10.5 11.5s-.187 2.5 1 2.5 1-1.5 1-1.5M28.5 9.5s.127 1 1 1 1-2 1-2" style="fill:none;stroke:#19a116;stroke-width:1px"/><path d="M10.5 23.5s1.45-.073 3.047-.906A15 15 0 0 0 16 21h2v6s-4.087.192-5.606-1.153C10.876 24.502 10.5 23.5 10.5 23.5m19 0s-.376 1.002-1.894 2.347C26.087 27.192 22 27 22 27v-6h2s.984.826 2.453 1.594c1.597.833 3.047.906 3.047.906" style="fill:#4fe64c"/><path d="M28.3 24.497q.069.003.139.003H29.5l-.072.13a3.24 3.24 0 0 1-1.166 1.205 5.1 5.1 0 0 1 3.521 1.894L32 28s-.601.526-1.434 1H32s-.072 1.052-1.663 2.013q-.27.162-.54.29c.379.214.712.51.972.874L31 32.5l-1.185.296a3.1 3.1 0 0 0-1.415.791L26.954 35c-1.577 1.735-3.987 3-6.954 3s-5.377-1.265-6.954-3L11.6 33.587a3.1 3.1 0 0 0-1.415-.791L9 32.5l.231-.323c.26-.364.593-.66.972-.874a6 6 0 0 1-.54-.29C8.072 30.052 8 29 8 29h1.434C8.601 28.526 8 28 8 28l.217-.271a5.1 5.1 0 0 1 3.521-1.894c-.48-.288-.885-.7-1.166-1.205l-.072-.13h1.111c-.019.061.863.096 2.231.114 1.61.021 3.967-.914 6.245-.929 2.384-.016 4.39.882 5.962 1.116 1.175.176 2.26-.293 2.251-.304" style="fill:#f0fff4"/><path d="M28.3 24.497q.068.077.144.158a.498.498 0 0 1-.233.828s-2.161.562-3.808-.213a5.7 5.7 0 0 1-1.025-.616c-.589.554-1.181.806-1.181.806a.5.5 0 0 1-.197.04l-.118-.125q-.16.214-.337.408c-.591.652-1.255 1.124-1.255 1.124a.5.5 0 0 1-.755-.223l-.295-.741c-.23.267-.4.424-.4.424a.5.5 0 0 1-.622.046s-.896-.594-1.153-1.869a7.7 7.7 0 0 1-1.109.663c-1.91.931-4.101.271-4.101.271a.5.5 0 0 1-.35-.548s.021-.166.106-.43a3.1 3.1 0 0 0 1.12-.229C14.89 21.295 18.482 20.5 20 20.5c1.35 0 4.98.79 7.195 3.74.348.152.723.24 1.105.257" style="fill:#8cc19a"/><path d="m15 32 3-2.5h4l3 2.5v2H15z" style="fill:#f0fff4"/><path d="M14.5 33.333 15 33c.225 1.824 1.83 2.727 3.5 3l1.5-1.5M25.5 33.333 25 33c-.225 1.824-1.83 2.727-3.5 3L20 34.5" style="fill:none;stroke:#466b50;stroke-width:1.2px"/><path d="M16 31c.479-.747 1.272-1.5 4-1.5M24 31c-.479-.747-1.272-1.5-4-1.5" style="fill:none;stroke:#7da080;stroke-width:1px"/><path d="M13 29a2 2 0 1 1 0 4h-1.5a2 2 0 1 1 0-4zM28.5 29a2 2 0 1 1 0 4H27a2 2 0 1 1 0-4z" style="fill:#ff727b"/><path d="M22.5 28.497c.642-1.546 3.413-1.559 4.5-.497M17.5 28.497c-.642-1.546-3.413-1.559-4.5-.497" style="fill:none;stroke:#000;stroke-width:1.5px"/><path d="M16.075 24.582a7 7 0 0 1-.338.175C13.997 25.605 12 25 12 25s.144-1.023 1.103-1.957l-.044-.008C11.213 22.695 11 21 11 21s1.241.167 2.452-.469l.012-.006c-.23.452 1.443 1.871 1.443 1.871-.116.155.155 2.23 1.168 2.186m8.354.144c.932.054 3.205-3.385 3.045-3.614C28.34 21.244 29 21 29 21s-.3 1.52-1.848 2.12l-.05.019c.081.331.157.686.398 1.103.134.231.318.482.582.758 0 0-1.967.523-3.466-.182zm-3.876-2.537s1.014 2.395 1.401 2.014C21.616 25.348 20 26.5 20 26.5s-.272-.689-.623-1.565A6.3 6.3 0 0 1 18.5 26s-.934-.637-1-2a5 5 0 0 1-.005-.379c.187.568 2.768-.976 3.058-1.432" style="fill:#4fe64c"/><path d="M13.464 20.525c1.456-.767 1.347-1.163 2.419-1.98.838-.64 1.481-.914 1.785-1.024a.64.64 0 0 1 .392.019l1.252.469C20.134 17.481 21 17 21 17s.908.047 2.495.863c1.592.819 1.867 2.499 3.25 3.051.252.101.498.163.729.198.16.229.396.381.834.428-.113.507-.641.915-1.237 1.448l-.186-.27c-.064.615.037 1.544.257 1.952-.88.141-1.781.11-2.713.056a5.2 5.2 0 0 1-1.094-.754C22.742 24.682 22 25 22 25s.014-.363-.01-.813l.003-.024-.004.005-.005-.08-.03.115c-.387.381-.923.614-1.486.706-.228-.362-.371-.682-.359-.994l.444-.726c-.29.456-1.421 1.405-2.001 1.567-.446-.341-.87-.567-1.057-1.135l.003-.08a7.2 7.2 0 0 1-1.423 1.041c-1.013.044-2.038-.005-3.089-.263.043-.559.228-.947.537-1.397a.4.4 0 0 0 .066-.095c.096-.135.202-.276.318-.431l-.382.314c-.63-.296-1.142-.66-1.482-1.121.762-.239 1.191-.612 1.421-1.064m4.022-1.429c-.062.559-.343 1.062-.926 1.561.552.425 1.099.679 1.525.781-.19.065-.571.14-1.209.04-.988-.155-1.601-.986-1.601-.986s.731-.112 1.338-.542c.386-.272.686-.612.873-.854m3.966 1.77c.42.118.826.315 1.186.749.473-.602.711-1.158.775-1.57.067.166.166.558.049 1.263-.165.986-.924 1.483-.924 1.483s-.228-.748-.652-1.36a7 7 0 0 0-.434-.565" style="fill:#27372d"/><path d="M17.486 19.096c-.062.559-.343 1.062-.926 1.561.552.425 1.099.679 1.525.781-.19.065-.571.14-1.209.04-.988-.155-1.601-.986-1.601-.986s.731-.112 1.338-.542c.386-.272.686-.612.873-.854m3.966 1.77c.42.118.826.315 1.186.749.473-.602.711-1.158.775-1.57.067.166.166.558.049 1.263-.165.986-.924 1.483-.924 1.483s-.228-.748-.652-1.36a7 7 0 0 0-.434-.565" style="fill:#4fe64c"/><path d="M14.109 22.617c1.281-.447 2.222-.228 2.641.793s-.29 1.712-1.658 2.247c-1.448.565-2.397.14-2.675-.842-.278-.983.854-1.905 1.692-2.198m11.782 0c.838.293 1.97 1.215 1.692 2.198s-1.227 1.407-2.675.842c-1.368-.535-2.077-1.225-1.658-2.247s1.36-1.24 2.641-.793" style="fill:#475247"/></svg>