<svg xmlns="http://www.w3.org/2000/svg" xml:space="preserve" style="fill-rule:evenodd;clip-rule:evenodd;stroke-linecap:round;stroke-linejoin:round;stroke-miterlimit:1.5" viewBox="0 0 40 40"><path d="M0 0h40v40H0z" style="fill:none"/><clipPath id="a"><path d="M0 0h40v40H0z"/></clipPath><g clip-path="url(#a)"><path d="M28.883 23.5h.617l-.072.13a3.24 3.24 0 0 1-1.166 1.205 5.1 5.1 0 0 1 3.521 1.894L32 27s-.601.526-1.434 1H32s-.072 1.052-1.663 2.013q-.27.162-.54.29c.379.214.712.51.972.874L31 31.5l-.837.209a3.1 3.1 0 0 0-1.518.896C27.336 35.41 23.833 38 20 38s-7.336-2.59-8.645-5.395a3.1 3.1 0 0 0-1.518-.896L9 31.5l.231-.323c.26-.364.593-.66.972-.874a6 6 0 0 1-.54-.29C8.072 29.052 8 28 8 28h1.434C8.601 27.526 8 27 8 27l.217-.271a5.1 5.1 0 0 1 3.521-1.894c-.48-.288-.885-.7-1.166-1.205l-.072-.13h.617c-.472-.614-.617-1-.617-1s.995-.05 2.243-.54C11.188 21.497 11 20 11 20s1.241.167 2.452-.469l.012-.006c-1.04-3.19-3.182-7.851-2.619-12.106.342-2.587 1.912-4.37 3.495-5.037C16.162 1.615 18 2.328 18 5c0 1.999.054 5.169.054 8.309 0 1.253.151 2.412.332 3.353l.926.347C20.134 16.481 21 16 21 16s.245.013.702.139c.14-.848.244-1.831.244-2.875 0-3.14.054-6.31.054-8.308 0-2.691 1.864-3.382 3.698-2.577 1.57.689 3.118 2.474 3.457 5.04.578 4.367-1.694 9.163-2.699 12.355q.136.078.289.14C27.94 20.391 29 20 29 20s-.268 1.357-1.604 2.013c1.183.441 2.104.487 2.104.487s-.145.386-.617 1" style="fill:none;stroke:#000;stroke-width:4px"/><path d="M19 6h2v11h-2z"/><path d="M25.943 22.42C25.39 24.049 21 19 21 19s.946-2.596.946-5.736S22 6.954 22 4.956c0-2.691 1.864-3.382 3.698-2.577-.865.074-.327 19.851.245 20.041M14.34 2.382C16.162 1.615 18 2.328 18 5c0 1.999.054 5.169.054 8.309S19 19 19 19s-4.39 5.049-4.943 3.42c.572-.19 1.131-19.954.283-20.038" style="fill:#f0fff4"/><path d="M25.943 22.42C25.371 22.23 25 21.799 25 21c0-2.499-1.453-5.037-1.453-9 0-1.239.003-6.801.313-8 .282-1.093.973-1.547 1.838-1.621 1.57.689 3.118 2.474 3.457 5.04C29.892 12.984 26 19.244 26 21.997q0 .26-.057.423m-11.886 0a1.3 1.3 0 0 1-.057-.423c0-2.753-3.892-9.013-3.155-14.578.342-2.587 1.912-4.37 3.495-5.037.848.084 1.522.541 1.8 1.618.31 1.199.313 6.761.313 8 0 3.963-1.453 6.501-1.453 9 0 .799-.371 1.23-.943 1.42" style="fill:#4fe64c"/><path d="M12.5 10.5s-.187 2.5 1 2.5 1-1.5 1-1.5M25.5 7.5s.127 1 1 1 1-2 1-2" style="fill:none;stroke:#19a116;stroke-width:1px"/><path d="M10.5 22.5s1.45-.073 3.047-.906A15 15 0 0 0 16 20h2v6s-4.087.192-5.606-1.153C10.876 23.502 10.5 22.5 10.5 22.5m19 0s-.376 1.002-1.894 2.347C26.087 26.192 22 26 22 26v-6h2s.984.826 2.453 1.594c1.597.833 3.047.906 3.047.906" style="fill:#4fe64c"/><path d="M14.185 35.971c-1.26-.948-2.256-2.136-2.83-3.366a3.1 3.1 0 0 0-1.518-.896L9 31.5l.231-.323c.26-.364.593-.66.972-.874a6 6 0 0 1-.54-.29C8.072 29.052 8 28 8 28h1.434C8.601 27.526 8 27 8 27l.217-.271a5.1 5.1 0 0 1 3.521-1.894c-.48-.288-.885-.7-1.166-1.205l-.072-.13h1.111c-.085.264 5.034-.274 5.348-.5.258 1.275 5.453.554 6.041 0 .296.223 5.345.548 5.3.497q.069.003.139.003H29.5l-.072.13a3.24 3.24 0 0 1-1.166 1.205 5.1 5.1 0 0 1 3.521 1.894L32 27s-.601.526-1.434 1H32s-.072 1.052-1.663 2.013q-.27.162-.54.29c.379.214.712.51.972.874L31 31.5l-.837.209a3.1 3.1 0 0 0-1.518.896c-.576 1.234-1.575 2.425-2.841 3.374.225-.508-11.619-.008-11.619-.008m9.328 1.313A9.3 9.3 0 0 1 20 38a9.2 9.2 0 0 1-3.5-.711c.056-.009.444-.916.5-.93.671-.127 1.435-.209 3-.209 1.557 0 2.808-.011 3.5.113.056.013-.043 1.012.013 1.021" style="fill:#f0fff4"/><path d="M28.3 23.497q.068.077.144.158a.498.498 0 0 1-.233.828s-2.161.562-3.808-.213a5.7 5.7 0 0 1-1.025-.616c-.589.554-1.181.806-1.181.806a.5.5 0 0 1-.383.004q-.13.165-.269.319c-.591.652-1.255 1.124-1.255 1.124a.5.5 0 0 1-.755-.223l-.295-.741c-.23.267-.4.424-.4.424a.5.5 0 0 1-.622.046s-.896-.594-1.153-1.869a7.7 7.7 0 0 1-1.109.663c-1.91.931-4.101.271-4.101.271a.5.5 0 0 1-.35-.548s.021-.166.106-.43a3.1 3.1 0 0 0 1.67-.521L14 22.5l.405.304C16.513 20.336 18.748 19.5 20 19.5s3.487.836 5.595 3.304L26 22.5l.719.479a3.1 3.1 0 0 0 1.581.518" style="fill:#8cc19a"/><path d="m14.185 35.971-.704-1.644a2.5 2.5 0 0 1 .53-2.752l.278-.279L15 33h10l.989-1.425c.723.723.933 1.813.53 2.752-.219.512-.49 1.144-.715 1.652-.693.519-1.465.965-2.291 1.305a3 3 0 0 1-.168-.033C22.653 37.127 21.557 37 20 37c-1.565 0-2.662.128-3.333.255a2 2 0 0 1-.167.034 10.5 10.5 0 0 1-2.315-1.318" style="fill:#82a78b"/><path d="M25.426 34.34c-1.175.11-3.141.16-5.426.16-1.943 0-4.31.038-5.417-.14l-.183-.427a1.5 1.5 0 0 1 .318-1.651L15 32h10l.282.282c.434.434.56 1.088.318 1.651zm-10.432.98c1.133-.486 3.245-.82 5.006-.82 2.057 0 4.038.298 5.012.797l-.152.343a1.105 1.105 0 0 1-1.295.634C22.839 36.142 21.672 36 20 36s-2.839.142-3.563.281a1.11 1.11 0 0 1-1.304-.638z" style="fill:#fff"/><path d="M14.583 34.36C15.879 34.211 18.057 34 20 34c2.285 0 4.251.192 5.426.34l-.414.957A43 43 0 0 0 20 35c-1.761 0-3.718.178-5.006.32z" style="fill:#999"/><ellipse cx="24.5" cy="26.5" rx="2.5" ry="3" style="fill:none;stroke:#8cc19a;stroke-width:1.5px;stroke-linecap:butt;stroke-miterlimit:2"/><ellipse cx="24.5" cy="26.5" rx="2.5" ry="3" style="fill:#fff"/><ellipse cx="15.5" cy="26.5" rx="2.5" ry="3" style="fill:none;stroke:#8cc19a;stroke-width:1.5px;stroke-linecap:butt;stroke-miterlimit:2"/><ellipse cx="15.5" cy="26.5" rx="2.5" ry="3" style="fill:#fff"/><circle cx="23.95" cy="26.5" r="1.25" style="fill:#19562f"/><circle cx="16.05" cy="26.5" r="1.25" style="fill:#19562f"/><path d="M14 31.5v-1h1.5L17 29l3-.5 3 .5 1.5 1.5H26v1h-1.25L24 32l-2 1-2-1-2 1-2-1-.5-.5z" style="fill:#f0fff4"/><path d="m20 32.721-1.167.778a.6.6 0 0 1-.316.101c-1.253.036-2.367-.445-3.22-1.4l-.607.203a.602.602 0 0 1-.38-1.139l1-.333a.6.6 0 0 1 .671.21c.596.799 1.406 1.238 2.336 1.26l1.35-.9a.6.6 0 0 1 .666 0l1.351.9c.93-.023 1.739-.461 2.335-1.26a.6.6 0 0 1 .671-.21l1 .333a.6.6 0 0 1-.38 1.139l-.607-.203c-.853.955-1.967 1.436-3.22 1.4a.6.6 0 0 1-.316-.101z" style="fill:#82a78b"/><path d="M16 30c.479-.747 1.272-1.5 4-1.5M24 30c-.479-.747-1.272-1.5-4-1.5" style="fill:none;stroke:#7da080;stroke-width:1px"/><path d="M15.949 23.65a7 7 0 0 1-.212.107C13.997 24.605 12 24 12 24s.144-1.023 1.103-1.957l-.044-.008C11.213 21.695 11 20 11 20s1.241.167 2.452-.469l.012-.006C13.234 19.977 15 21 15 21c-.541.718-.015 2.665.949 2.65m8.48.076c.932.054 2.507-2.111 2.571-2.726 0-.949.634-.659.474-.888C28.34 20.244 29 20 29 20s-.3 1.52-1.848 2.12l-.05.019c.081.331.157.686.398 1.103.134.231.318.482.582.758 0 0-1.967.523-3.466-.182zM21 22s.572 1.576.961 1.177C21.64 24.331 20 25.5 20 25.5s-.272-.689-.623-1.565A6.3 6.3 0 0 1 18.5 25s-.934-.637-1-2a5 5 0 0 1-.005-.379c.104.317.724-.454 1.505-.621.619-.132 1.872.202 2 0" style="fill:#4fe64c"/><path d="M13.464 19.525c1.456-.767 1.347-1.163 2.419-1.98.838-.64 1.481-.914 1.785-1.024a.64.64 0 0 1 .392.019l1.252.469C20.134 16.481 21 16 21 16s.908.047 2.495.863c1.592.819 1.867 2.499 3.25 3.051.252.101.498.163.729.198.16.229.396.381.834.428-.113.507-.641.915-1.237 1.448l-.186-.27c-.064.615.037 1.544.257 1.952-.88.141-1.781.11-2.713.056a5.2 5.2 0 0 1-1.094-.754C22.742 23.682 22 24 22 24s.016-.418-.016-.912q-.01.044-.023.089c-.389.399-.916.637-1.493.732-.228-.362-.371-.682-.359-.994l.444-.726c-.29.456-1.421 1.405-2.001 1.567-.446-.341-.87-.567-1.057-1.135l.003-.08a7.2 7.2 0 0 1-1.549 1.109 11.8 11.8 0 0 1-2.963-.331c.059-.762.38-1.204.921-1.923l-.384.316-.023-.014c-.619-.294-1.121-.654-1.457-1.109.762-.239 1.191-.612 1.421-1.064m7.988.341c.127.148.275.336.434.565.424.612.652 1.36.652 1.36s.759-.497.924-1.483c.117-.705.018-1.097-.049-1.263-.064.412-.302.968-.775 1.57-.36-.434-.766-.631-1.186-.749m-3.966-1.77a4.2 4.2 0 0 1-.873.854c-.607.43-1.338.542-1.338.542s.613.831 1.601.986c.638.1 1.019.025 1.209-.04-.426-.102-.973-.356-1.525-.781.583-.499.864-1.002.926-1.561" style="fill:#27372d"/><path d="M15.949 23.65a7 7 0 0 1-.212.107C13.997 24.605 12 24 12 24s.144-1.023 1.103-1.957l-.044-.008C11.213 21.695 11 20 11 20s1.241.167 2.452-.469l.012-.006c-.23.452-.659.825-1.421 1.064.336.455.838.815 1.457 1.109l.023.014.384-.316c-.541.719-.862 1.161-.921 1.923.98.24 1.999.346 2.963.331m8.48.076c.932.054 1.833.085 2.713-.056-.22-.408-.321-1.337-.257-1.952l.186.27c.596-.533 1.124-.941 1.237-1.448-.438-.047-.674-.199-.834-.428C28.34 20.244 29 20 29 20s-.3 1.52-1.848 2.12l-.05.019c.081.331.157.686.398 1.103.134.231.318.482.582.758 0 0-1.967.523-3.466-.182zm-3.876-1.537-.444.726c-.012.312.131.632.359.994.577-.095 1.104-.333 1.493-.732C21.64 24.331 20 25.5 20 25.5s-.272-.689-.623-1.565A6.3 6.3 0 0 1 18.5 25s-.934-.637-1-2a5 5 0 0 1-.005-.379c.187.568.611.794 1.057 1.135.58-.162 1.711-1.111 2.001-1.567m-3.067-4.093c-.062.559-.343 1.062-.926 1.561.552.425 1.099.679 1.525.781-.19.065-.571.14-1.209.04-.988-.155-1.601-.986-1.601-.986s.731-.112 1.338-.542c.386-.272.686-.612.873-.854m3.966 1.77c.42.118.826.315 1.186.749.473-.602.711-1.158.775-1.57.067.166.166.558.049 1.263-.165.986-.924 1.483-.924 1.483s-.228-.748-.652-1.36a7 7 0 0 0-.434-.565" style="fill:#4fe64c"/><path d="M14.777 19.586c1.33-.266 2.231.079 2.506 1.149s-.523 1.656-1.953 1.997c-1.511.36-2.393-.191-2.533-1.203-.139-1.012 1.108-1.769 1.98-1.943m10.446 0c.872.174 2.119.931 1.98 1.943s-1.022 1.563-2.533 1.203c-1.43-.341-2.227-.927-1.953-1.997.275-1.07 1.176-1.415 2.506-1.149" style="fill:#475247"/></g></svg>