<?xml version="1.0" encoding="UTF-8" standalone="no"?>
<!DOCTYPE svg PUBLIC "-//W3C//DTD SVG 1.1//EN" "http://www.w3.org/Graphics/SVG/1.1/DTD/svg11.dtd">
<svg width="100%" height="100%" viewBox="0 0 40 40" version="1.1" xmlns="http://www.w3.org/2000/svg" xmlns:xlink="http://www.w3.org/1999/xlink" xml:space="preserve" xmlns:serif="http://www.serif.com/" style="fill-rule:evenodd;clip-rule:evenodd;stroke-linecap:round;stroke-linejoin:round;stroke-miterlimit:1.5;">
    <rect id="ash_grimace" x="0" y="0" width="40" height="40" style="fill:none;"/>
    <clipPath id="_clip1">
        <rect x="0" y="0" width="40" height="40"/>
    </clipPath>
    <g clip-path="url(#_clip1)">
        <g id="outline">
            <path id="front-hair" serif:id="front hair" d="M28.883,23.5l0.617,0l-0.072,0.13c-0.281,0.505 -0.686,0.917 -1.166,1.205c1.367,0.125 2.644,0.798 3.521,1.894l0.217,0.271c0,0 -0.601,0.526 -1.434,1l1.434,0c0,0 -0.072,1.052 -1.663,2.013c-0.179,0.108 -0.36,0.205 -0.54,0.29c0.379,0.214 0.712,0.51 0.972,0.874l0.231,0.323l-0.837,0.209c-0.586,0.147 -1.112,0.46 -1.518,0.896c-1.309,2.805 -4.812,5.395 -8.645,5.395c-3.833,0 -7.336,-2.59 -8.645,-5.395c-0.406,-0.436 -0.932,-0.749 -1.518,-0.896l-0.837,-0.209l0.231,-0.323c0.26,-0.364 0.593,-0.66 0.972,-0.874c-0.18,-0.085 -0.361,-0.182 -0.54,-0.29c-1.591,-0.961 -1.663,-2.013 -1.663,-2.013l1.434,0c-0.833,-0.474 -1.434,-1 -1.434,-1l0.217,-0.271c0.877,-1.096 2.154,-1.769 3.521,-1.894c-0.48,-0.288 -0.885,-0.7 -1.166,-1.205l-0.072,-0.13l0.617,-0c-0.472,-0.614 -0.617,-1 -0.617,-1c-0,0 0.995,-0.05 2.243,-0.54c-1.555,-0.463 -1.743,-1.96 -1.743,-1.96c0,0 1.241,0.167 2.452,-0.469c0.004,-0.002 0.008,-0.004 0.012,-0.006c-1.04,-3.19 -3.182,-7.851 -2.619,-12.106c0.342,-2.587 1.912,-4.37 3.495,-5.037c1.822,-0.767 3.66,-0.054 3.66,2.618c0,1.999 0.054,5.169 0.054,8.309c-0,1.253 0.151,2.412 0.332,3.353l0.926,0.347c0.822,-0.528 1.688,-1.009 1.688,-1.009c0,0 0.245,0.013 0.702,0.139c0.14,-0.848 0.244,-1.831 0.244,-2.875c0,-3.14 0.054,-6.31 0.054,-8.308c0,-2.691 1.864,-3.382 3.698,-2.577c1.57,0.689 3.118,2.474 3.457,5.04c0.578,4.367 -1.694,9.163 -2.699,12.355c0.091,0.052 0.187,0.099 0.289,0.14c1.195,0.477 2.255,0.086 2.255,0.086c0,0 -0.268,1.357 -1.604,2.013c1.183,0.441 2.104,0.487 2.104,0.487c0,0 -0.145,0.386 -0.617,1Z" style="fill:none;stroke:#000;stroke-width:4px;"/>
            <rect x="19" y="6" width="2" height="11"/>
        </g>
        <g>
            <path d="M25.943,22.42c-0.553,1.629 -4.943,-3.42 -4.943,-3.42c0,0 0.946,-2.596 0.946,-5.736c0,-3.14 0.054,-6.31 0.054,-8.308c0,-2.691 1.864,-3.382 3.698,-2.577c-0.865,0.074 -0.327,19.851 0.245,20.041Zm-11.603,-20.038c1.822,-0.767 3.66,-0.054 3.66,2.618c0,1.999 0.054,5.169 0.054,8.309c-0,3.14 0.946,5.691 0.946,5.691c0,0 -4.39,5.049 -4.943,3.42c0.572,-0.19 1.131,-19.954 0.283,-20.038Z" style="fill:#f0fff4;"/>
            <path d="M25.943,22.42c-0.572,-0.19 -0.943,-0.621 -0.943,-1.42c0,-2.499 -1.453,-5.037 -1.453,-9c0,-1.239 0.003,-6.801 0.313,-8c0.282,-1.093 0.973,-1.547 1.838,-1.621c1.57,0.689 3.118,2.474 3.457,5.04c0.737,5.565 -3.155,11.825 -3.155,14.578c0,0.174 -0.02,0.313 -0.057,0.423Zm-11.886,-0c-0.037,-0.11 -0.057,-0.249 -0.057,-0.423c0,-2.753 -3.892,-9.013 -3.155,-14.578c0.342,-2.587 1.912,-4.37 3.495,-5.037c0.848,0.084 1.522,0.541 1.8,1.618c0.31,1.199 0.313,6.761 0.313,8c-0,3.963 -1.453,6.501 -1.453,9c0,0.799 -0.371,1.23 -0.943,1.42Z" style="fill:#4fe64c;"/>
            <path d="M12.5,10.5c0,0 -0.187,2.5 1,2.5c1.187,0 1,-1.5 1,-1.5" style="fill:none;stroke:#19a116;stroke-width:1px;"/>
            <path d="M25.5,7.5c0,0 0.127,1 1,1c0.873,0 1,-2 1,-2" style="fill:none;stroke:#19a116;stroke-width:1px;"/>
        </g>
        <path id="rear-hair" serif:id="rear hair" d="M10.5,22.5c0,0 1.45,-0.073 3.047,-0.906c1.469,-0.768 2.453,-1.594 2.453,-1.594l2,0l0,6c0,0 -4.087,0.192 -5.606,-1.153c-1.518,-1.345 -1.894,-2.347 -1.894,-2.347Zm19,0c0,0 -0.376,1.002 -1.894,2.347c-1.519,1.345 -5.606,1.153 -5.606,1.153l0,-6l2,0c0,0 0.984,0.826 2.453,1.594c1.597,0.833 3.047,0.906 3.047,0.906Z" style="fill:#4fe64c;"/>
        <g>
            <path id="head" d="M14.185,35.971c-1.26,-0.948 -2.256,-2.136 -2.83,-3.366c-0.406,-0.436 -0.932,-0.749 -1.518,-0.896l-0.837,-0.209l0.231,-0.323c0.26,-0.364 0.593,-0.66 0.972,-0.874c-0.18,-0.085 -0.361,-0.182 -0.54,-0.29c-1.591,-0.961 -1.663,-2.013 -1.663,-2.013l1.434,0c-0.833,-0.474 -1.434,-1 -1.434,-1l0.217,-0.271c0.877,-1.096 2.154,-1.769 3.521,-1.894c-0.48,-0.288 -0.885,-0.7 -1.166,-1.205l-0.072,-0.13l1.061,-0c0.017,-0 0.034,-0 0.05,-0c-0.085,0.264 5.034,-0.274 5.348,-0.5c0.258,1.275 5.453,0.554 6.041,-0c0.296,0.223 5.345,0.548 5.3,0.497c0.046,0.002 0.092,0.003 0.139,0.003l1.061,0l-0.072,0.13c-0.281,0.505 -0.686,0.917 -1.166,1.205c1.367,0.125 2.644,0.798 3.521,1.894l0.217,0.271c0,0 -0.601,0.526 -1.434,1l1.434,0c0,0 -0.072,1.052 -1.663,2.013c-0.179,0.108 -0.36,0.205 -0.54,0.29c0.379,0.214 0.712,0.51 0.972,0.874l0.231,0.323l-0.837,0.209c-0.586,0.147 -1.112,0.46 -1.518,0.896c-0.576,1.234 -1.575,2.425 -2.841,3.374c0.225,-0.508 -11.619,-0.008 -11.619,-0.008Zm9.328,1.313c-1.097,0.451 -2.288,0.716 -3.513,0.716c-1.22,0 -2.407,-0.262 -3.5,-0.711c0.056,-0.009 0.444,-0.916 0.5,-0.93c0.671,-0.127 1.435,-0.209 3,-0.209c1.557,-0 2.808,-0.011 3.5,0.113c0.056,0.013 -0.043,1.012 0.013,1.021Z" style="fill:#f0fff4;"/>
            <path id="head1" serif:id="head" d="M28.3,23.497c0.045,0.051 0.093,0.104 0.144,0.158c0.122,0.127 0.168,0.31 0.12,0.48c-0.048,0.17 -0.182,0.303 -0.353,0.348c0,0 -2.161,0.562 -3.808,-0.213c-0.39,-0.183 -0.73,-0.393 -1.025,-0.616c-0.589,0.554 -1.181,0.806 -1.181,0.806c-0.061,0.026 -0.128,0.04 -0.197,0.04c-0.066,0 -0.129,-0.013 -0.186,-0.036c-0.086,0.11 -0.177,0.217 -0.269,0.319c-0.591,0.652 -1.255,1.124 -1.255,1.124c-0.125,0.089 -0.284,0.116 -0.432,0.072c-0.147,-0.043 -0.267,-0.152 -0.323,-0.295c-0,-0 -0.116,-0.294 -0.295,-0.741c-0.23,0.267 -0.4,0.424 -0.4,0.424c-0.171,0.158 -0.429,0.178 -0.622,0.046c0,0 -0.896,-0.594 -1.153,-1.869c-0.315,0.226 -0.685,0.456 -1.109,0.663c-1.91,0.931 -4.101,0.271 -4.101,0.271c-0.236,-0.071 -0.384,-0.304 -0.35,-0.548c-0,0 0.021,-0.166 0.106,-0.43c0.595,-0.01 1.175,-0.19 1.67,-0.521l0.719,-0.479l0.405,0.304c2.108,-2.468 4.343,-3.304 5.595,-3.304c1.252,0 3.487,0.836 5.595,3.304l0.405,-0.304l0.719,0.479c0.471,0.314 1.018,0.493 1.581,0.518Z" style="fill:#8cc19a;"/>
            <path id="head2" serif:id="head" d="M14.185,35.971l-0.704,-1.644c-0.403,-0.939 -0.193,-2.029 0.53,-2.752l0.278,-0.279l0.711,1.704l10,-0l0.989,-1.425c0.723,0.723 0.933,1.813 0.53,2.752c-0.219,0.512 -0.49,1.144 -0.715,1.652c-0.693,0.519 -1.465,0.965 -2.291,1.305c-0.056,-0.009 -0.112,-0.02 -0.168,-0.033c-0.692,-0.124 -1.788,-0.251 -3.345,-0.251c-1.565,-0 -2.662,0.128 -3.333,0.255c-0.055,0.014 -0.111,0.025 -0.167,0.034c-0.835,-0.342 -1.616,-0.793 -2.315,-1.318Z" style="fill:#82a78b;"/>
            <path d="M25.426,34.34c-1.175,0.11 -3.141,0.16 -5.426,0.16c-1.943,0 -4.31,0.038 -5.417,-0.14l-0.183,-0.427c-0.242,-0.563 -0.116,-1.217 0.318,-1.651l0.282,-0.282l10,-0l0.282,0.282c0.434,0.434 0.56,1.088 0.318,1.651c-0.055,0.13 -0.114,0.266 -0.174,0.407Zm-10.432,0.98c1.133,-0.486 3.245,-0.82 5.006,-0.82c2.057,0 4.038,0.298 5.012,0.797c-0.053,0.119 -0.103,0.234 -0.152,0.343c-0.215,0.503 -0.766,0.772 -1.295,0.634c-0.726,-0.132 -1.893,-0.274 -3.565,-0.274c-1.672,-0 -2.839,0.142 -3.563,0.281c-0.533,0.139 -1.087,-0.132 -1.304,-0.638l-0.139,-0.323Z" style="fill:#fff;"/>
            <path d="M14.583,34.36c1.296,-0.149 3.474,-0.36 5.417,-0.36c2.285,-0 4.251,0.192 5.426,0.34c-0.136,0.315 -0.28,0.649 -0.414,0.957c-1.163,-0.138 -2.955,-0.297 -5.012,-0.297c-1.761,-0 -3.718,0.178 -5.006,0.32l-0.411,-0.96Z" style="fill:#999;"/>
        </g>
        <g id="face">
            <ellipse cx="24.5" cy="26.5" rx="2.5" ry="3" style="fill:none;stroke:#8cc19a;stroke-width:1.5px;stroke-linecap:butt;stroke-miterlimit:2;"/>
            <ellipse cx="24.5" cy="26.5" rx="2.5" ry="3" style="fill:#fff;"/>
            <ellipse cx="15.5" cy="26.5" rx="2.5" ry="3" style="fill:none;stroke:#8cc19a;stroke-width:1.5px;stroke-linecap:butt;stroke-miterlimit:2;"/>
            <ellipse cx="15.5" cy="26.5" rx="2.5" ry="3" style="fill:#fff;"/>
            <circle cx="23.95" cy="26.5" r="1.25" style="fill:#19562f;"/>
            <circle cx="16.05" cy="26.5" r="1.25" style="fill:#19562f;"/>
            <path d="M14,31.5l0,-1l1.5,0l1.5,-1.5l3,-0.5l3,0.5l1.5,1.5l1.5,-0l0,1l-1.25,-0l-0.75,0.5l-2,1l-2,-1l-2,1l-2,-1l-0.5,-0.5l-1.5,0Z" style="fill:#f0fff4;"/>
            <path d="M20,32.721l-1.167,0.778c-0.094,0.063 -0.203,0.097 -0.316,0.101c-1.253,0.036 -2.367,-0.445 -3.22,-1.4l-0.607,0.203c-0.314,0.104 -0.654,-0.066 -0.759,-0.38c-0.105,-0.314 0.065,-0.654 0.379,-0.759l1,-0.333c0.246,-0.082 0.516,0.003 0.671,0.21c0.596,0.799 1.406,1.238 2.336,1.26l1.35,-0.9c0.202,-0.134 0.464,-0.134 0.666,0c0.038,0.025 1.35,0.9 1.351,0.9c0.93,-0.023 1.739,-0.461 2.335,-1.26c0.155,-0.207 0.425,-0.292 0.671,-0.21l1,0.333c0.314,0.105 0.484,0.445 0.379,0.759c-0.105,0.314 -0.445,0.484 -0.759,0.38c0,-0 -0.607,-0.203 -0.607,-0.203c-0.853,0.955 -1.967,1.436 -3.22,1.4c-0.113,-0.004 -0.222,-0.038 -0.316,-0.101l-1.167,-0.778Z" style="fill:#82a78b;"/>
            <path d="M16,30c0.479,-0.747 1.272,-1.5 4,-1.5" style="fill:none;stroke:#7da080;stroke-width:1px;"/>
            <path d="M24,30c-0.479,-0.747 -1.272,-1.5 -4,-1.5" style="fill:none;stroke:#7da080;stroke-width:1px;"/>
        </g>
        <g id="front-hair1" serif:id="front hair">
            <path id="front-hair2" serif:id="front hair" d="M15.949,23.65c-0.069,0.036 -0.139,0.072 -0.212,0.107c-1.74,0.848 -3.737,0.243 -3.737,0.243c0,0 0.144,-1.023 1.103,-1.957c-0.015,-0.003 -0.029,-0.005 -0.044,-0.008c-1.846,-0.34 -2.059,-2.035 -2.059,-2.035c0,0 1.241,0.167 2.452,-0.469c0.004,-0.002 0.008,-0.004 0.012,-0.006c-0.23,0.452 1.536,1.475 1.536,1.475c-0.541,0.718 -0.015,2.665 0.949,2.65Zm8.48,0.076c0.932,0.054 2.507,-2.111 2.571,-2.726c0,-0.949 0.634,-0.659 0.474,-0.888c0.866,0.132 1.526,-0.112 1.526,-0.112c0,0 -0.3,1.52 -1.848,2.12c-0.017,0.007 -0.034,0.013 -0.05,0.019c0.081,0.331 0.157,0.686 0.398,1.103c0.134,0.231 0.318,0.482 0.582,0.758c0,0 -1.967,0.523 -3.466,-0.182c-0.064,-0.03 -0.126,-0.061 -0.187,-0.092Zm-3.429,-1.726c0,0 0.572,1.576 0.961,1.177c-0.321,1.154 -1.961,2.323 -1.961,2.323c0,0 -0.272,-0.689 -0.623,-1.565c-0.417,0.638 -0.877,1.065 -0.877,1.065c0,0 -0.934,-0.637 -1,-2c-0.007,-0.134 -0.008,-0.26 -0.005,-0.379c0.104,0.317 0.724,-0.454 1.505,-0.621c0.619,-0.132 1.872,0.202 2,0Z" style="fill:#4fe64c;"/>
            <path id="front-hair3" serif:id="front hair" d="M13.464,19.525c1.456,-0.767 1.347,-1.163 2.419,-1.98c0.838,-0.64 1.481,-0.914 1.785,-1.024c0.129,-0.035 0.266,-0.028 0.392,0.019l1.252,0.469c0.822,-0.528 1.688,-1.009 1.688,-1.009c0,0 0.908,0.047 2.495,0.863c1.592,0.819 1.867,2.499 3.25,3.051c0.252,0.101 0.498,0.163 0.729,0.198c0.16,0.229 0.396,0.381 0.834,0.428c-0.113,0.507 -0.641,0.915 -1.237,1.448l-0.186,-0.27c-0.064,0.615 0.037,1.544 0.257,1.952c-0.88,0.141 -1.781,0.11 -2.713,0.056c-0.433,-0.224 -0.794,-0.485 -1.094,-0.754c-0.593,0.71 -1.335,1.028 -1.335,1.028c0,0 0.016,-0.418 -0.016,-0.912c-0.007,0.029 -0.014,0.059 -0.023,0.089c-0.389,0.399 -0.916,0.637 -1.493,0.732c-0.228,-0.362 -0.371,-0.682 -0.359,-0.994l0.444,-0.726c-0.29,0.456 -1.421,1.405 -2.001,1.567c-0.446,-0.341 -0.87,-0.567 -1.057,-1.135c0.001,-0.027 0.002,-0.054 0.003,-0.08c-0.344,0.325 -0.863,0.745 -1.549,1.109c-0.964,0.015 -1.983,-0.091 -2.963,-0.331c0.059,-0.762 0.38,-1.204 0.921,-1.923l-0.384,0.316c-0.006,-0.005 -0.014,-0.01 -0.023,-0.014c-0.619,-0.294 -1.121,-0.654 -1.457,-1.109c0.762,-0.239 1.191,-0.612 1.421,-1.064Zm7.988,0.341c0.127,0.148 0.275,0.336 0.434,0.565c0.424,0.612 0.652,1.36 0.652,1.36c-0,0 0.759,-0.497 0.924,-1.483c0.117,-0.705 0.018,-1.097 -0.049,-1.263c-0.064,0.412 -0.302,0.968 -0.775,1.57c-0.36,-0.434 -0.766,-0.631 -1.186,-0.749Zm-3.966,-1.77c-0.187,0.242 -0.487,0.582 -0.873,0.854c-0.607,0.43 -1.338,0.542 -1.338,0.542c0,-0 0.613,0.831 1.601,0.986c0.638,0.1 1.019,0.025 1.209,-0.04c-0.426,-0.102 -0.973,-0.356 -1.525,-0.781c0.583,-0.499 0.864,-1.002 0.926,-1.561Z" style="fill:#27372d;"/>
            <path id="front-hair4" serif:id="front hair" d="M15.949,23.65c-0.069,0.036 -0.139,0.072 -0.212,0.107c-1.74,0.848 -3.737,0.243 -3.737,0.243c0,0 0.144,-1.023 1.103,-1.957c-0.015,-0.003 -0.029,-0.005 -0.044,-0.008c-1.846,-0.34 -2.059,-2.035 -2.059,-2.035c0,0 1.241,0.167 2.452,-0.469c0.004,-0.002 0.008,-0.004 0.012,-0.006c-0.23,0.452 -0.659,0.825 -1.421,1.064c0.336,0.455 0.838,0.815 1.457,1.109c0.009,0.004 0.017,0.009 0.023,0.014l0.384,-0.316c-0.541,0.719 -0.862,1.161 -0.921,1.923c0.98,0.24 1.999,0.346 2.963,0.331Zm8.48,0.076c0.932,0.054 1.833,0.085 2.713,-0.056c-0.22,-0.408 -0.321,-1.337 -0.257,-1.952l0.186,0.27c0.596,-0.533 1.124,-0.941 1.237,-1.448c-0.438,-0.047 -0.674,-0.199 -0.834,-0.428c0.866,0.132 1.526,-0.112 1.526,-0.112c0,0 -0.3,1.52 -1.848,2.12c-0.017,0.007 -0.034,0.013 -0.05,0.019c0.081,0.331 0.157,0.686 0.398,1.103c0.134,0.231 0.318,0.482 0.582,0.758c0,0 -1.967,0.523 -3.466,-0.182c-0.064,-0.03 -0.126,-0.061 -0.187,-0.092Zm-3.876,-1.537l-0.444,0.726c-0.012,0.312 0.131,0.632 0.359,0.994c0.577,-0.095 1.104,-0.333 1.493,-0.732c-0.321,1.154 -1.961,2.323 -1.961,2.323c0,0 -0.272,-0.689 -0.623,-1.565c-0.417,0.638 -0.877,1.065 -0.877,1.065c0,0 -0.934,-0.637 -1,-2c-0.007,-0.134 -0.008,-0.26 -0.005,-0.379c0.187,0.568 0.611,0.794 1.057,1.135c0.58,-0.162 1.711,-1.111 2.001,-1.567Zm-3.067,-4.093c-0.062,0.559 -0.343,1.062 -0.926,1.561c0.552,0.425 1.099,0.679 1.525,0.781c-0.19,0.065 -0.571,0.14 -1.209,0.04c-0.988,-0.155 -1.601,-0.986 -1.601,-0.986c0,-0 0.731,-0.112 1.338,-0.542c0.386,-0.272 0.686,-0.612 0.873,-0.854Zm3.966,1.77c0.42,0.118 0.826,0.315 1.186,0.749c0.473,-0.602 0.711,-1.158 0.775,-1.57c0.067,0.166 0.166,0.558 0.049,1.263c-0.165,0.986 -0.924,1.483 -0.924,1.483c-0,0 -0.228,-0.748 -0.652,-1.36c-0.159,-0.229 -0.307,-0.417 -0.434,-0.565Z" style="fill:#4fe64c;"/>
        </g>
        <path d="M14.777,19.586c1.33,-0.266 2.231,0.079 2.506,1.149c0.274,1.07 -0.523,1.656 -1.953,1.997c-1.511,0.36 -2.393,-0.191 -2.533,-1.203c-0.139,-1.012 1.108,-1.769 1.98,-1.943Zm10.446,-0c0.872,0.174 2.119,0.931 1.98,1.943c-0.14,1.012 -1.022,1.563 -2.533,1.203c-1.43,-0.341 -2.227,-0.927 -1.953,-1.997c0.275,-1.07 1.176,-1.415 2.506,-1.149Z" style="fill:#475247;"/>
    </g>
</svg>
