<?xml version="1.0" encoding="UTF-8" standalone="no"?>
<!DOCTYPE svg PUBLIC "-//W3C//DTD SVG 1.1//EN" "http://www.w3.org/Graphics/SVG/1.1/DTD/svg11.dtd">
<svg width="100%" height="100%" viewBox="0 0 40 40" version="1.1" xmlns="http://www.w3.org/2000/svg" xmlns:xlink="http://www.w3.org/1999/xlink" xml:space="preserve" xmlns:serif="http://www.serif.com/" style="fill-rule:evenodd;clip-rule:evenodd;stroke-linecap:round;stroke-linejoin:round;stroke-miterlimit:1.5;">
    <rect id="ash_hearts" x="0" y="0" width="40" height="40" style="fill:none;"/>
    <g id="outline">
        <path d="M27.153,21.047c1.018,0.259 1.847,-0.047 1.847,-0.047c0,0 -0.268,1.357 -1.604,2.013c1.183,0.441 2.104,0.487 2.104,0.487c0,-0 -0.145,0.386 -0.617,1l0.617,0l-0.072,0.13c-0.281,0.505 -0.686,0.917 -1.166,1.205c0.665,0.061 1.31,0.251 1.897,0.558c0.65,-0.134 1.3,-0.023 1.771,0.25c1.324,0.763 1.782,2.296 0.985,3.675c0.797,-1.379 2.352,-1.749 3.676,-0.985c1.323,0.764 2.253,3.381 -0.811,5.346c-3.581,2.297 -6.228,1.464 -6.228,1.464c-0,0 -0.81,-0.743 -1.361,-2.353l-1.237,1.21c-1.577,1.735 -3.987,3 -6.954,3c-2.967,0 -5.377,-1.265 -6.954,-3l-1.446,-1.413c-0.393,-0.384 -0.881,-0.657 -1.415,-0.791l-1.185,-0.296l0.231,-0.323c0.26,-0.364 0.593,-0.66 0.972,-0.874c-0.18,-0.085 -0.361,-0.182 -0.54,-0.29c-1.591,-0.961 -1.663,-2.013 -1.663,-2.013l1.434,0c-0.833,-0.474 -1.434,-1 -1.434,-1l0.217,-0.271c0.274,-0.343 0.587,-0.644 0.93,-0.9c-1.065,-0.195 -2.455,-0.682 -3.993,-1.808c-2.938,-2.149 -1.848,-4.704 -0.481,-5.386c1.368,-0.681 2.898,-0.217 3.608,1.209c-0.71,-1.426 -0.159,-2.927 1.209,-3.608c0.438,-0.218 1.011,-0.297 1.588,-0.186c-1.409,-2.86 -3.007,-6.311 -2.578,-9.553c0.329,-2.485 1.48,-4.228 2.734,-5.003c1.554,-0.961 3.266,-0.437 3.766,2.002c0.401,1.958 0.877,5.458 1.5,8.504c0.358,1.752 1.119,3.454 1.708,4.596l1.104,0.413c0.822,-0.528 1.688,-1.009 1.688,-1.009c0,0 0.345,0.018 0.98,0.223c0.373,-0.755 0.786,-1.695 1.115,-2.706c-0.102,0.022 -0.157,0.029 -0.157,0.029c-0,-0 -2.881,-0.924 -4.626,-5.221c-1.492,-3.677 0.982,-5.422 2.641,-5.27c1.659,0.152 2.812,1.459 2.653,3.188c0.091,-0.989 0.579,-1.765 1.291,-2.219c0.035,-0.186 0.069,-0.363 0.103,-0.528c0.5,-2.439 2.212,-2.963 3.766,-2.002c1.254,0.775 2.405,2.518 2.734,5.003c0.661,4.995 -3.489,10.486 -4.347,13.55Z" style="fill:none;stroke:#000;stroke-width:4px;"/>
        <rect x="16" y="12" width="7" height="6"/>
    </g>
    <g id="ears-upright" serif:id="ears upright">
        <path d="M11.234,2.494c1.554,-0.961 3.266,-0.437 3.766,2.002c0.401,1.958 0.877,5.458 1.5,8.504c0.629,3.076 2.5,6 2.5,6c0,0 -6,5.751 -6,2.997c0,-0.108 -0.008,-0.222 -0.024,-0.341c0.61,-0.244 -0.788,-19.486 -1.742,-19.162Zm15.79,19.162c-0.016,0.119 -0.024,0.233 -0.024,0.341c0,2.754 -6,-2.997 -6,-2.997c0,0 1.871,-2.924 2.5,-6c0.623,-3.046 1.099,-6.546 1.5,-8.504c0.5,-2.439 2.212,-2.963 3.766,-2.002c-0.954,-0.324 -2.352,18.918 -1.742,19.162Z" style="fill:#f0fff4;"/>
        <path d="M12.976,21.656c-0.379,-2.898 -5.183,-8.813 -4.476,-14.159c0.329,-2.485 1.48,-4.228 2.734,-5.003c0.954,-0.324 1.853,-0.092 2.266,1.506c0.31,1.199 1.441,6.687 1.5,8c0.178,3.959 -1,5.501 -1,8c0,0.911 -0.414,1.412 -1.024,1.656Zm14.048,0c-0.61,-0.244 -1.024,-0.745 -1.024,-1.656c0,-2.499 -1.178,-4.041 -1,-8c0.059,-1.313 1.19,-6.801 1.5,-8c0.413,-1.598 1.312,-1.83 2.266,-1.506c1.254,0.775 2.405,2.518 2.734,5.003c0.707,5.346 -4.097,11.261 -4.476,14.159Z" style="fill:#4fe64c;"/>
        <path d="M11.5,10.5c0,0 -0.187,2.5 1,2.5c1.187,0 1,-1.5 1,-1.5" style="fill:none;stroke:#19a116;stroke-width:1px;"/>
        <path d="M27.5,9.5c0,0 0.127,1 1,1c0.873,0 1,-2 1,-2" style="fill:none;stroke:#19a116;stroke-width:1px;"/>
    </g>
    <path id="rear-hair" serif:id="rear hair" d="M10.5,23.5c-0,0 1.45,-0.073 3.047,-0.906c1.469,-0.768 2.453,-1.594 2.453,-1.594l2,0l-0,6c-0,0 -4.087,0.192 -5.606,-1.153c-1.518,-1.345 -1.894,-2.347 -1.894,-2.347Zm19,0c0,0 -0.376,1.002 -1.894,2.347c-1.519,1.345 -5.606,1.153 -5.606,1.153l0,-6l2,0c0,0 0.984,0.826 2.453,1.594c1.597,0.833 3.047,0.906 3.047,0.906Z" style="fill:#4fe64c;"/>
    <g id="head">
        <path d="M28.3,24.497c0.046,0.002 0.092,0.003 0.139,0.003l1.061,0l-0.072,0.13c-0.281,0.505 -0.686,0.917 -1.166,1.205c1.367,0.125 2.644,0.798 3.521,1.894l0.217,0.271c-0,0 -0.601,0.526 -1.434,1l1.434,0c-0,0 -0.072,1.052 -1.663,2.013c-0.179,0.108 -0.36,0.205 -0.54,0.29c0.379,0.214 0.712,0.51 0.972,0.874l0.231,0.323l-1.185,0.296c-0.534,0.134 -1.022,0.407 -1.415,0.791l-1.446,1.413c-1.577,1.735 -3.987,3 -6.954,3c-2.967,0 -5.377,-1.265 -6.954,-3l-1.446,-1.413c-0.393,-0.384 -0.881,-0.657 -1.415,-0.791l-1.185,-0.296l0.231,-0.323c0.26,-0.364 0.593,-0.66 0.972,-0.874c-0.18,-0.085 -0.361,-0.182 -0.54,-0.29c-1.591,-0.961 -1.663,-2.013 -1.663,-2.013l1.434,0c-0.833,-0.474 -1.434,-1 -1.434,-1l0.217,-0.271c0.877,-1.096 2.154,-1.769 3.521,-1.894c-0.48,-0.288 -0.885,-0.7 -1.166,-1.205l-0.072,-0.13l1.061,-0c0.017,-0 0.034,-0 0.05,-0c-0.085,0.264 5.075,-0.274 5.389,-0.5c1.182,0.269 5.412,0.554 6,-0c0.296,0.223 5.345,0.548 5.3,0.497Z" style="fill:#f0fff4;"/>
        <path d="M28.3,24.497c0.045,0.051 0.093,0.104 0.144,0.158c0.122,0.127 0.168,0.31 0.12,0.48c-0.048,0.17 -0.182,0.303 -0.353,0.348c0,0 -2.161,0.562 -3.808,-0.213c-0.39,-0.183 -0.73,-0.393 -1.025,-0.616c-0.589,0.554 -1.181,0.806 -1.181,0.806c-0.062,0.026 -0.129,0.04 -0.197,0.04l-0.118,-0.125c-0.106,0.142 -0.22,0.279 -0.337,0.408c-0.591,0.652 -1.255,1.124 -1.255,1.124c-0.125,0.089 -0.284,0.116 -0.432,0.072c-0.147,-0.043 -0.267,-0.152 -0.323,-0.295c-0,-0 -0.116,-0.294 -0.295,-0.741c-0.23,0.267 -0.4,0.424 -0.4,0.424c-0.171,0.158 -0.429,0.178 -0.622,0.046c0,0 -0.896,-0.594 -1.153,-1.869c-0.315,0.226 -0.685,0.456 -1.109,0.663c-1.91,0.931 -4.101,0.271 -4.101,0.271c-0.236,-0.071 -0.384,-0.304 -0.35,-0.548c-0,0 0.021,-0.166 0.106,-0.43c0.386,-0.007 0.765,-0.085 1.12,-0.229c2.159,-2.976 5.751,-3.771 7.269,-3.771c1.35,0 4.98,0.79 7.195,3.74c0.348,0.152 0.723,0.24 1.105,0.257Z" style="fill:#8cc19a;"/>
    </g>
    <g id="face">
        <path d="M14.5,33.333l1,-0.333c0.225,1.824 1.33,2.727 3,3l1.5,-1.5" style="fill:none;stroke:#466b50;stroke-width:1.2px;"/>
        <path d="M25.5,33.333l-1,-0.333c-0.225,1.824 -1.33,2.727 -3,3l-1.5,-1.5" style="fill:none;stroke:#466b50;stroke-width:1.2px;"/>
        <path d="M16,31c0.479,-0.747 1.272,-1.5 4,-1.5" style="fill:none;stroke:#7da080;stroke-width:1px;"/>
        <path d="M24,31c-0.479,-0.747 -1.272,-1.5 -4,-1.5" style="fill:none;stroke:#7da080;stroke-width:1px;"/>
        <path d="M22.5,28.497c-0,-0 0.086,-0.13 0.223,-0.335c0.457,-0.684 1.18,-1.145 1.993,-1.271c0.812,-0.126 1.641,0.095 2.283,0.608c0.001,0.001 0.001,0.001 0.001,0.001" style="fill:none;stroke:#000;stroke-width:1.5px;"/>
        <path d="M17.5,28.5c-0,0 -0.087,-0.131 -0.225,-0.337c-0.456,-0.684 -1.178,-1.146 -1.991,-1.272c-0.813,-0.126 -1.641,0.094 -2.283,0.608c-0.001,0.001 -0.001,0.001 -0.001,0.001" style="fill:none;stroke:#000;stroke-width:1.5px;"/>
    </g>
    <g id="front-hair" serif:id="front hair">
        <path id="front-hair1" serif:id="front hair" d="M15.949,24.65c-0.069,0.036 -0.139,0.072 -0.212,0.107c-1.74,0.848 -3.737,0.243 -3.737,0.243c0,0 0.144,-1.023 1.103,-1.957c-0.015,-0.003 -0.029,-0.005 -0.044,-0.008c-1.846,-0.34 -2.059,-2.035 -2.059,-2.035c0,0 1.241,0.167 2.452,-0.469c0.004,-0.002 0.008,-0.004 0.012,-0.006c-0.23,0.452 1.536,1.475 1.536,1.475c-0.541,0.718 -0.015,2.665 0.949,2.65Zm8.48,0.076c0.932,0.054 2.507,-2.111 2.571,-2.726c-0,-0.949 0.634,-0.659 0.474,-0.888c0.866,0.132 1.526,-0.112 1.526,-0.112c0,0 -0.3,1.52 -1.848,2.12c-0.017,0.007 -0.034,0.013 -0.05,0.019c0.081,0.331 0.157,0.686 0.398,1.103c0.134,0.231 0.318,0.482 0.582,0.758c0,0 -1.967,0.523 -3.466,-0.182c-0.064,-0.03 -0.126,-0.061 -0.187,-0.092Zm-3.429,-1.726c0,0 0.572,1.576 0.961,1.177c-0.321,1.154 -1.961,2.323 -1.961,2.323c0,0 -0.272,-0.689 -0.623,-1.565c-0.417,0.638 -0.877,1.065 -0.877,1.065c0,0 -0.934,-0.637 -1,-2c-0.007,-0.134 -0.008,-0.26 -0.005,-0.379c0.104,0.317 0.724,-0.454 1.505,-0.621c0.619,-0.132 1.872,0.202 2,0Z" style="fill:#4fe64c;"/>
        <path id="front-hair2" serif:id="front hair" d="M13.464,20.525c1.456,-0.767 1.347,-1.163 2.419,-1.98c0.838,-0.64 1.481,-0.914 1.785,-1.024c0.129,-0.035 0.266,-0.028 0.392,0.019l1.252,0.469c0.822,-0.528 1.688,-1.009 1.688,-1.009c0,0 0.908,0.047 2.495,0.863c1.592,0.819 1.867,2.499 3.25,3.051c0.252,0.101 0.498,0.163 0.729,0.198c0.16,0.229 0.396,0.381 0.834,0.428c-0.113,0.507 -0.641,0.915 -1.237,1.448l-0.186,-0.27c-0.064,0.615 0.037,1.544 0.257,1.952c-0.88,0.141 -1.781,0.11 -2.713,0.056c-0.433,-0.224 -0.794,-0.485 -1.094,-0.754c-0.593,0.71 -1.335,1.028 -1.335,1.028c0,0 0.016,-0.418 -0.016,-0.912c-0.007,0.029 -0.014,0.059 -0.023,0.089c-0.389,0.399 -0.916,0.637 -1.493,0.732c-0.228,-0.362 -0.371,-0.682 -0.359,-0.994l0.444,-0.726c-0.29,0.456 -1.421,1.405 -2.001,1.567c-0.446,-0.341 -0.87,-0.567 -1.057,-1.135c0.001,-0.027 0.002,-0.054 0.003,-0.08c-0.344,0.325 -0.863,0.745 -1.549,1.109c-0.964,0.015 -1.983,-0.091 -2.963,-0.331c0.059,-0.762 0.38,-1.204 0.921,-1.923l-0.384,0.316c-0.006,-0.005 -0.014,-0.01 -0.023,-0.014c-0.619,-0.294 -1.121,-0.654 -1.457,-1.109c0.762,-0.239 1.191,-0.612 1.421,-1.064Zm7.988,0.341c0.127,0.148 0.275,0.336 0.434,0.565c0.424,0.612 0.652,1.36 0.652,1.36c-0,0 0.759,-0.497 0.924,-1.483c0.117,-0.705 0.018,-1.097 -0.049,-1.263c-0.064,0.412 -0.302,0.968 -0.775,1.57c-0.36,-0.434 -0.766,-0.631 -1.186,-0.749Zm-3.966,-1.77c-0.187,0.242 -0.487,0.582 -0.873,0.854c-0.607,0.43 -1.338,0.542 -1.338,0.542c0,-0 0.613,0.831 1.601,0.986c0.638,0.1 1.019,0.025 1.209,-0.04c-0.426,-0.102 -0.973,-0.356 -1.525,-0.781c0.583,-0.499 0.864,-1.002 0.926,-1.561Z" style="fill:#27372d;"/>
        <path id="front-hair3" serif:id="front hair" d="M15.949,24.65c-0.069,0.036 -0.139,0.072 -0.212,0.107c-1.74,0.848 -3.737,0.243 -3.737,0.243c0,0 0.144,-1.023 1.103,-1.957c-0.015,-0.003 -0.029,-0.005 -0.044,-0.008c-1.846,-0.34 -2.059,-2.035 -2.059,-2.035c0,0 1.241,0.167 2.452,-0.469c0.004,-0.002 0.008,-0.004 0.012,-0.006c-0.23,0.452 -0.659,0.825 -1.421,1.064c0.336,0.455 0.838,0.815 1.457,1.109c0.009,0.004 0.017,0.009 0.023,0.014l0.384,-0.316c-0.541,0.719 -0.862,1.161 -0.921,1.923c0.98,0.24 1.999,0.346 2.963,0.331Zm8.48,0.076c0.932,0.054 1.833,0.085 2.713,-0.056c-0.22,-0.408 -0.321,-1.337 -0.257,-1.952l0.186,0.27c0.596,-0.533 1.124,-0.941 1.237,-1.448c-0.438,-0.047 -0.674,-0.199 -0.834,-0.428c0.866,0.132 1.526,-0.112 1.526,-0.112c0,0 -0.3,1.52 -1.848,2.12c-0.017,0.007 -0.034,0.013 -0.05,0.019c0.081,0.331 0.157,0.686 0.398,1.103c0.134,0.231 0.318,0.482 0.582,0.758c0,0 -1.967,0.523 -3.466,-0.182c-0.064,-0.03 -0.126,-0.061 -0.187,-0.092Zm-3.876,-1.537l-0.444,0.726c-0.012,0.312 0.131,0.632 0.359,0.994c0.577,-0.095 1.104,-0.333 1.493,-0.732c-0.321,1.154 -1.961,2.323 -1.961,2.323c0,0 -0.272,-0.689 -0.623,-1.565c-0.417,0.638 -0.877,1.065 -0.877,1.065c0,0 -0.934,-0.637 -1,-2c-0.007,-0.134 -0.008,-0.26 -0.005,-0.379c0.187,0.568 0.611,0.794 1.057,1.135c0.58,-0.162 1.711,-1.111 2.001,-1.567Zm-3.067,-4.093c-0.062,0.559 -0.343,1.062 -0.926,1.561c0.552,0.425 1.099,0.679 1.525,0.781c-0.19,0.065 -0.571,0.14 -1.209,0.04c-0.988,-0.155 -1.601,-0.986 -1.601,-0.986c0,-0 0.731,-0.112 1.338,-0.542c0.386,-0.272 0.686,-0.612 0.873,-0.854Zm3.966,1.77c0.42,0.118 0.826,0.315 1.186,0.749c0.473,-0.602 0.711,-1.158 0.775,-1.57c0.067,0.166 0.166,0.558 0.049,1.263c-0.165,0.986 -0.924,1.483 -0.924,1.483c-0,0 -0.228,-0.748 -0.652,-1.36c-0.159,-0.229 -0.307,-0.417 -0.434,-0.565Z" style="fill:#4fe64c;"/>
    </g>
    <path d="M14.777,21.086c1.33,-0.266 2.231,0.079 2.506,1.149c0.274,1.07 -0.523,1.656 -1.953,1.997c-1.511,0.36 -2.393,-0.191 -2.533,-1.203c-0.139,-1.012 1.108,-1.769 1.98,-1.943Zm10.446,-0c0.872,0.174 2.119,0.931 1.98,1.943c-0.14,1.012 -1.022,1.563 -2.533,1.203c-1.43,-0.341 -2.227,-0.927 -1.953,-1.997c0.275,-1.07 1.176,-1.415 2.506,-1.149Z" style="fill:#475247;"/>
    <g id="hearts">
        <path d="M22.938,14.546c-0,-0 -2.881,-0.924 -4.626,-5.221c-1.492,-3.677 0.982,-5.422 2.641,-5.27c1.659,0.152 2.812,1.459 2.653,3.188c0.159,-1.729 1.53,-2.805 3.189,-2.653c1.659,0.152 3.775,2.318 1.639,5.663c-2.496,3.908 -5.496,4.293 -5.496,4.293Zm-11.658,12.319c0,0 -2.693,0.668 -6.126,-1.844c-2.938,-2.149 -1.848,-4.704 -0.481,-5.386c1.368,-0.681 2.898,-0.217 3.608,1.209c-0.71,-1.426 -0.159,-2.927 1.209,-3.608c1.368,-0.681 4.063,-0.011 4.009,3.629c-0.063,4.253 -2.219,6 -2.219,6Zm18.272,9.278c-0,0 -2.044,-1.876 -1.846,-6.125c0.169,-3.637 2.901,-4.139 4.224,-3.375c1.324,0.763 1.782,2.296 0.985,3.675c0.797,-1.379 2.352,-1.749 3.676,-0.985c1.323,0.764 2.253,3.381 -0.811,5.346c-3.581,2.297 -6.228,1.464 -6.228,1.464Z" style="fill:#fd4d60;"/>
    </g>
</svg>
