<?xml version="1.0" encoding="UTF-8" standalone="no"?>
<!DOCTYPE svg PUBLIC "-//W3C//DTD SVG 1.1//EN" "http://www.w3.org/Graphics/SVG/1.1/DTD/svg11.dtd">
<svg width="100%" height="100%" viewBox="0 0 40 40" version="1.1" xmlns="http://www.w3.org/2000/svg" xmlns:xlink="http://www.w3.org/1999/xlink" xml:space="preserve" xmlns:serif="http://www.serif.com/" style="fill-rule:evenodd;clip-rule:evenodd;stroke-linecap:round;stroke-linejoin:round;stroke-miterlimit:1.5;">
    <rect id="ash_paw" x="0" y="0" width="40" height="40" style="fill:none;"/>
    <clipPath id="_clip1">
        <rect x="0" y="0" width="40" height="40"/>
    </clipPath>
    <g clip-path="url(#_clip1)">
        <path d="M9.604,11.392c0,-0 -0.576,-7.61 3.899,-9.097c3.672,-1.22 6.497,1.733 6.497,1.733c-0,0 2.825,-2.953 6.497,-1.733c4.475,1.487 3.899,9.097 3.899,9.097c-0,-0 3.588,0.364 4.331,3.898c0.719,3.413 -1.541,7.538 -1.727,9.53c-0.186,1.991 -0,13.18 -0,13.18l-26,0c-0,0 0.186,-11.189 -0,-13.18c-0.186,-1.992 -2.446,-6.117 -1.727,-9.53c0.743,-3.534 4.331,-3.898 4.331,-3.898Z" style="fill:none;stroke:#000;stroke-width:4px;"/>
        <path d="M9.604,11.392c0,-0 -0.576,-7.61 3.899,-9.097c3.672,-1.22 6.497,1.733 6.497,1.733c-0,0 2.825,-2.953 6.497,-1.733c4.475,1.487 3.899,9.097 3.899,9.097c-0,-0 3.588,0.364 4.331,3.898c0.719,3.413 -1.541,7.538 -1.727,9.53c-0.186,1.991 -0,13.18 -0,13.18l-26,0c-0,0 0.186,-11.189 -0,-13.18c-0.186,-1.992 -2.446,-6.117 -1.727,-9.53c0.743,-3.534 4.331,-3.898 4.331,-3.898Z" style="fill:#f0fff4;"/>
        <path d="M21.299,9.659c0,-1.949 0.552,-4.765 3.033,-4.765c2.385,0 3.032,2.684 3.032,4.765c-0,2.081 -0.647,4.765 -3.032,4.765c-2.481,-0 -3.033,-2.816 -3.033,-4.765Zm5.632,8.663c-0,-1.948 0.552,-4.764 3.032,-4.764c2.385,-0 3.032,2.684 3.032,4.764c-0,2.081 -0.647,4.765 -3.032,4.765c-2.48,0 -3.032,-2.816 -3.032,-4.765Zm-19.926,0c0,-1.948 0.552,-4.764 3.032,-4.764c2.386,-0 3.032,2.684 3.032,4.764c0,2.081 -0.646,4.765 -3.032,4.765c-2.48,0 -3.032,-2.816 -3.032,-4.765Zm12.995,-2.165c2.842,-0 3.126,1.782 4.364,3.913c1.385,2.384 3.94,5.094 1.62,6.782c-1.902,1.383 -4.058,-0.733 -5.984,-0.733c-1.926,0 -4.082,2.116 -5.984,0.733c-2.32,-1.688 0.235,-4.398 1.62,-6.782c1.238,-2.131 1.522,-3.913 4.364,-3.913Zm-7.364,-6.498c0,-1.949 0.552,-4.765 3.032,-4.765c2.386,0 3.033,2.684 3.033,4.765c-0,2.081 -0.647,4.765 -3.033,4.765c-2.48,-0 -3.032,-2.816 -3.032,-4.765Z" style="fill:#4fe64c;"/>
    </g>
</svg>
