<svg xmlns="http://www.w3.org/2000/svg" xml:space="preserve" style="fill-rule:evenodd;clip-rule:evenodd;stroke-linecap:round;stroke-linejoin:round;stroke-miterlimit:1.5" viewBox="0 0 40 40"><path d="M0 0h40v40H0z" style="fill:none"/><clipPath id="a"><path d="M0 0h40v40H0z"/></clipPath><g clip-path="url(#a)"><path d="M9.604 11.392s-.576-7.61 3.899-9.097C17.175 1.075 20 4.028 20 4.028s2.825-2.953 6.497-1.733c4.475 1.487 3.899 9.097 3.899 9.097s3.588.364 4.331 3.898c.719 3.413-1.541 7.538-1.727 9.53S33 38 33 38H7s.186-11.189 0-13.18c-.186-1.992-2.446-6.117-1.727-9.53.743-3.534 4.331-3.898 4.331-3.898" style="fill:none;stroke:#000;stroke-width:4px"/><path d="M9.604 11.392s-.576-7.61 3.899-9.097C17.175 1.075 20 4.028 20 4.028s2.825-2.953 6.497-1.733c4.475 1.487 3.899 9.097 3.899 9.097s3.588.364 4.331 3.898c.719 3.413-1.541 7.538-1.727 9.53S33 38 33 38H7s.186-11.189 0-13.18c-.186-1.992-2.446-6.117-1.727-9.53.743-3.534 4.331-3.898 4.331-3.898" style="fill:#f0fff4"/><path d="M21.299 9.659c0-1.949.552-4.765 3.033-4.765 2.385 0 3.032 2.684 3.032 4.765s-.647 4.765-3.032 4.765c-2.481 0-3.033-2.816-3.033-4.765m5.632 8.663c0-1.948.552-4.764 3.032-4.764 2.385 0 3.032 2.684 3.032 4.764s-.647 4.765-3.032 4.765c-2.48 0-3.032-2.816-3.032-4.765m-19.926 0c0-1.948.552-4.764 3.032-4.764 2.386 0 3.032 2.684 3.032 4.764s-.646 4.765-3.032 4.765c-2.48 0-3.032-2.816-3.032-4.765M20 16.157c2.842 0 3.126 1.782 4.364 3.913 1.385 2.384 3.94 5.094 1.62 6.782-1.902 1.383-4.058-.733-5.984-.733s-4.082 2.116-5.984.733c-2.32-1.688.235-4.398 1.62-6.782 1.238-2.131 1.522-3.913 4.364-3.913m-7.364-6.498c0-1.949.552-4.765 3.032-4.765 2.386 0 3.033 2.684 3.033 4.765s-.647 4.765-3.033 4.765c-2.48 0-3.032-2.816-3.032-4.765" style="fill:#4fe64c"/></g></svg>