<svg xmlns="http://www.w3.org/2000/svg" xml:space="preserve" style="fill-rule:evenodd;clip-rule:evenodd;stroke-linecap:round;stroke-linejoin:round;stroke-miterlimit:1.5" viewBox="0 0 40 40"><path d="M0 0h40v40H0z" style="fill:none"/><path d="M16.398 4.179a6 6 0 0 1 1.27-.658.64.64 0 0 1 .392.019l1.252.469C20.134 3.481 21 3 21 3s.908.047 2.495.863c.234.121.439.259.624.411 2.711.54 7.25 2.138 8.881 6.843 2.386 6.883 2.592 14.439 1.5 19.277-1.092 4.837-3.571 5.836-5.5 5.495-2.168-.383-4.708-6.47-2.5-12.598.361-1.002.672-1.916.932-2.758l-.478.467c-1.577 1.735-3.987 3-6.954 3s-5.377-1.265-6.954-3l-.478-.467c.26.842.571 1.756.932 2.758 2.208 6.128-.332 12.215-2.5 12.598-1.929.341-4.408-.658-5.5-5.495C4.408 25.556 4.614 18 7 11.117c1.74-5.019 6.79-6.503 9.398-6.938" style="fill:none;stroke:#000;stroke-width:4px"/><path d="M13.247 22.58q.122.348.253.711c2.208 6.128-.332 12.215-2.5 12.598-1.929.341-4.408-.658-5.5-5.495C4.408 25.556 4.614 18 7 11.117a9.27 9.27 0 0 1 3.009-4.253c-.005.036 2.53 2.884 3.168 6.145.519 2.653-2.594.33-2.754 2.241-.101 1.215 2.751 7.268 2.824 7.33" style="fill:none;stroke:#000;stroke-width:4px"/><path d="M13.247 22.58q.122.348.253.711c2.208 6.128-.332 12.215-2.5 12.598-1.929.341-4.408-.658-5.5-5.495C4.408 25.556 4.614 18 7 11.117a9.27 9.27 0 0 1 3.009-4.253c-.005.036 2.53 2.884 3.168 6.145.519 2.653-2.594.33-2.754 2.241-.101 1.215 2.751 7.268 2.824 7.33" style="fill:#f0fff4"/><path d="M29.991 6.864A9.27 9.27 0 0 1 33 11.117c2.386 6.883 2.592 14.439 1.5 19.277-1.092 4.837-3.571 5.836-5.5 5.495-2.168-.383-4.708-6.47-2.5-12.598.046-.128 2.085-2.982 3-7.291.381-1.794-.65-4.546-.618-6.303.036-1.944 1.112-2.807 1.109-2.833" style="fill:none;stroke:#000;stroke-width:4px"/><path d="M29.991 6.864A9.27 9.27 0 0 1 33 11.117c2.386 6.883 2.592 14.439 1.5 19.277-1.092 4.837-3.571 5.836-5.5 5.495-2.168-.383-4.708-6.47-2.5-12.598.046-.128 2.085-2.982 3-7.291.381-1.794-.65-4.546-.618-6.303.036-1.944 1.112-2.807 1.109-2.833" style="fill:#f0fff4"/><path d="M16 5s-3.266.426-5.81 3.183c-1.705 1.847-3.044 6.198-3.381 8.748-.63 4.755-1.056 9.255.473 12.759s2.542 3.648 3.562 3.648c1.019 0 3.249-2.612 2.102-8.855s-3.34-7.968-.319-13.187C14.029 8.875 16 8 16 8zM24 5s3.266.426 5.81 3.183c1.705 1.847 3.044 6.198 3.381 8.748.63 4.755 1.056 9.255-.473 12.759s-2.542 3.648-3.562 3.648c-1.019 0-3.249-2.612-2.102-8.855s3.34-7.968.319-13.187C25.971 8.875 24 8 24 8z" style="fill:#4fe64c"/><path d="M13.247 22.58q-.495-.42-.92-.884l-1.426-1.394a2.1 2.1 0 0 0-.958-.536l-1.186-.296a1 1 0 0 1-.565-1.559l.225-.316q.054-.075.111-.147c-1.53-1.182-1.526-2.38-1.526-2.38-.013-.2.033-.397.132-.568a1 1 0 0 1 .09-1.131l.212-.265a6.1 6.1 0 0 1 2.372-1.801 4 4 0 0 1-.11-.188l-.07-.126a.99.99 0 0 1 .002-.982l-.052-.118-.013-.035a.998.998 0 0 1 .885-1.353l.086-.007c-.451-.703-.528-1.369-.528-1.369a1 1 0 0 1 .001-.261C13.416 4.124 18 4 18 4v3.044s-3.988.835-5.5 4.073c-1.453 3.109-1.229 5.824.747 11.463M26.753 22.58c1.976-5.639 2.2-8.354.747-11.463C25.988 7.879 22 7.044 22 7.044V4s4.584.124 7.991 2.864a1 1 0 0 1-.01.33s-.116.61-.558 1.295a.1.1 0 0 1 .019.013L29.5 8.5a1 1 0 0 1 .869 1.494q.003.009.001.013a.99.99 0 0 1 .002.982l-.07.126a4 4 0 0 1-.11.188 6.1 6.1 0 0 1 2.372 1.801l.006.008.206.257a1 1 0 0 1 .09 1.131 1 1 0 0 1 .132.568s.004 1.198-1.526 2.38q.057.072.111.147l.006.009.219.307a1.001 1.001 0 0 1-.565 1.559l-1.186.296a2.1 2.1 0 0 0-.958.536l-1.414 1.381q-.43.473-.932.897" style="fill:#628f6e"/><path d="M29.5 22.5s.127 1 1 1 1-2 1-2M9.5 27.5s-.187 2.5 1 2.5 1-1.5 1-1.5" style="fill:none;stroke:#19a116;stroke-width:1px"/><path d="M10.5 9.5s1.45-.073 3.047-.906A15 15 0 0 0 16 7h2v6s-4.087.192-5.606-1.153C10.876 10.502 10.5 9.5 10.5 9.5m19 0s-.376 1.002-1.894 2.347C26.087 13.192 22 13 22 13V7h2s.984.826 2.453 1.594c1.597.833 3.047.906 3.047.906" style="fill:#4fe64c"/><path d="M28.3 10.497q.069.003.139.003H29.5l-.072.13a3.24 3.24 0 0 1-1.166 1.205 5.1 5.1 0 0 1 3.521 1.894L32 14s-.601.526-1.434 1H32s-.072 1.052-1.663 2.013q-.27.162-.54.29c.379.214.712.51.972.874L31 18.5l-1.185.296a3.1 3.1 0 0 0-1.415.791L26.954 21c-1.577 1.735-3.987 3-6.954 3s-5.377-1.265-6.954-3L11.6 19.587a3.1 3.1 0 0 0-1.415-.791L9 18.5l.231-.323c.26-.364.593-.66.972-.874a6 6 0 0 1-.54-.29C8.072 16.052 8 15 8 15h1.434C8.601 14.526 8 14 8 14l.217-.271a5.1 5.1 0 0 1 3.521-1.894c-.48-.288-.885-.7-1.166-1.205l-.072-.13h1.111c-.012.038.669.481 2.389.347 1.912-.15 4.993-.881 7.452-.842 2.042.032 4.429.853 5.487.842.574-.007 1.364-.347 1.361-.35" style="fill:#f0fff4"/><path d="M28.3 10.497q.068.077.144.158a.498.498 0 0 1-.233.828s-2.161.562-3.808-.213a5.7 5.7 0 0 1-1.025-.616c-.589.554-1.181.806-1.181.806a.5.5 0 0 1-.197.04l-.118-.125q-.16.214-.337.408c-.591.652-1.255 1.124-1.255 1.124a.5.5 0 0 1-.755-.223l-.295-.741c-.23.267-.4.424-.4.424a.5.5 0 0 1-.622.046s-.896-.594-1.153-1.869a7.7 7.7 0 0 1-1.109.663c-1.91.931-4.101.271-4.101.271a.5.5 0 0 1-.35-.548s.021-.166.106-.43a3.1 3.1 0 0 0 1.12-.229C14.89 7.295 18.482 6.5 20 6.5c1.35 0 4.98.79 7.195 3.74.348.152.723.24 1.105.257" style="fill:#8cc19a"/><path d="M13.287 11.12c1.062-.172 2.143-.5 3.048-.946a.75.75 0 0 1 .734.039c.985.626 1.681 1.857 1.681 3.287 0 2.104-1.497 3.75-3.25 3.75s-3.25-1.646-3.25-3.75c0-.738.185-1.424.498-1.999a.75.75 0 0 1 .539-.381m13.965.381c.313.575.498 1.261.498 1.999 0 2.104-1.497 3.75-3.25 3.75s-3.25-1.646-3.25-3.75c0-1.43.696-2.661 1.681-3.287a.75.75 0 0 1 .734-.039c.905.446 1.986.774 3.048.946a.75.75 0 0 1 .539.381" style="fill:#8cc19a"/><path d="M13.407 11.86c1.136-.184 2.292-.536 3.26-1.013C17.459 11.35 18 12.35 18 13.5c0 1.656-1.12 3-2.5 3s-2.5-1.344-2.5-3c0-.605.15-1.169.407-1.64m13.186 0c.257.471.407 1.035.407 1.64 0 1.656-1.12 3-2.5 3s-2.5-1.344-2.5-3c0-1.15.541-2.15 1.333-2.653.968.477 2.124.829 3.26 1.013" style="fill:#fff"/><path d="M23.95 11.5c.966 0 1.75.896 1.75 2s-.784 2-1.75 2-1.75-.896-1.75-2 .784-2 1.75-2m-7.9 0c.966 0 1.75.896 1.75 2s-.784 2-1.75 2-1.75-.896-1.75-2 .784-2 1.75-2" style="fill:#19562f"/><path d="m15 18 3-2.5h4l3 2.5v2H15z" style="fill:#f0fff4"/><path d="m17 21 1.378-.919a2.93 2.93 0 0 1 3.244 0L23 21" style="fill:none;stroke:#466b50;stroke-width:1.2px"/><path d="M20 16c-2.425 0-3.154.606-3.579 1.27a.5.5 0 0 1-.842-.54C16.111 15.9 16.968 15 20 15s3.889.9 4.421 1.73a.5.5 0 0 1-.842.54C23.154 16.606 22.425 16 20 16" style="fill:#7da080"/><path d="m28 16-2.42 4.149a2.78 2.78 0 0 0 .436 3.367l.018.018a2.78 2.78 0 0 0 3.932 0l.018-.018a2.78 2.78 0 0 0 .436-3.367z" style="fill:#0090fb"/><path d="M13.464 6.525c1.456-.767 1.347-1.163 2.419-1.98.838-.64 1.481-.914 1.785-1.024a.64.64 0 0 1 .392.019l1.252.469C20.134 3.481 21 3 21 3s.908.047 2.495.863c1.592.819 1.867 2.499 3.25 3.051.252.101.498.163.729.198.464.148.732.149 1.171.195-.113.507-.954 1.428-1.614 1.818l.046.402c-.063.615.109.935.33 1.344-.881.14-2.046.077-2.978-.145a5.2 5.2 0 0 1-1.094-.754C22.742 10.682 22 11 22 11s.014-.363-.01-.813l.003-.024-.004.005-.005-.08-.03.115c-.387.381-1.113 1.345-1.676 1.437-.228-.362-.765-.766-.753-1.078 0 0-.596.553-1.177.714-.446-.34-.666-1.087-.853-1.655l.003-.08a7.2 7.2 0 0 1-1.423 1.041c-1.013.044-2.284.255-3.335-.003.036-.467.339-1.313.562-1.677 0 0-1.439-1.048-1.78-1.51.763-.239 1.508-.471 1.942-.867" style="fill:#27372d"/><path d="M16.075 10.582a7 7 0 0 1-.338.175C13.997 11.605 12 11 12 11s.144-1.023 1.103-1.957l-.044-.008C11.213 8.695 11 7 11 7s1.241.167 2.452-.469l.012-.006c-.23.452-.659.825-1.421 1.064.34.461.852.825 1.482 1.121l.382-.314q-.147.193-.27.364.258.115.54.217l-.797.164a2.5 2.5 0 0 0-.394 1.178c1.051.258 2.076.307 3.089.263m8.354.144c.932.054 1.833.085 2.713-.056-.22-.408-.321-1.337-.257-1.952l.186.27c.596-.533 1.124-.941 1.237-1.448-.438-.047-.674-.199-.834-.428C28.34 7.244 29 7 29 7s-.3 1.52-1.848 2.12l-.05.019c.081.331.157.686.398 1.103.134.231.318.482.582.758 0 0-1.967.523-3.466-.182zm-3.876-1.537-.444.726c-.012.312.131.632.359.994.563-.092 1.099-.325 1.486-.706C21.616 11.348 20 12.5 20 12.5s-.272-.689-.623-1.565A6.3 6.3 0 0 1 18.5 12s-.934-.637-1-2a5 5 0 0 1-.005-.379c.187.568.611.794 1.057 1.135.58-.162 1.711-1.111 2.001-1.567m1.436.979.004-.005-.003.024zm-.537-3.302c.42.118.826.315 1.186.749.473-.602.711-1.158.775-1.57.067.166.166.558.049 1.263-.165.986-.924 1.483-.924 1.483s-.228-.748-.652-1.36a7 7 0 0 0-.434-.565m-3.966-1.77c-.062.559-.343 1.062-.926 1.561.552.425 1.099.679 1.525.781-.19.065-.571.14-1.209.04-.988-.155-1.601-.986-1.601-.986s.731-.112 1.338-.542c.386-.272.686-.612.873-.854" style="fill:#4fe64c"/><path d="M14.351 6.691c1.205-.622 2.167-.538 2.726.414.558.953-.047 1.736-1.327 2.458-1.353.763-2.353.475-2.766-.459-.414-.934.577-2.006 1.367-2.413m11.298 0c.79.407 1.781 1.479 1.367 2.413s-1.413 1.222-2.766.459c-1.28-.722-1.885-1.505-1.327-2.458.559-.952 1.521-1.036 2.726-.414" style="fill:#475247"/></svg>