<?xml version="1.0" encoding="UTF-8" standalone="no"?>
<!DOCTYPE svg PUBLIC "-//W3C//DTD SVG 1.1//EN" "http://www.w3.org/Graphics/SVG/1.1/DTD/svg11.dtd">
<svg width="100%" height="100%" viewBox="0 0 40 40" version="1.1" xmlns="http://www.w3.org/2000/svg" xmlns:xlink="http://www.w3.org/1999/xlink" xml:space="preserve" xmlns:serif="http://www.serif.com/" style="fill-rule:evenodd;clip-rule:evenodd;stroke-linecap:round;stroke-linejoin:round;stroke-miterlimit:1.5;">
    <rect id="ash_sad" x="0" y="0" width="40" height="40" style="fill:none;"/>
    <g id="outline">
        <path d="M16.398,4.179c0.585,-0.385 1.032,-0.572 1.27,-0.658c0.129,-0.035 0.266,-0.028 0.392,0.019l1.252,0.469c0.822,-0.528 1.688,-1.009 1.688,-1.009c0,0 0.908,0.047 2.495,0.863c0.234,0.121 0.439,0.259 0.624,0.411c2.711,0.54 7.25,2.138 8.881,6.843c2.386,6.883 2.592,14.439 1.5,19.277c-1.092,4.837 -3.571,5.836 -5.5,5.495c-2.168,-0.383 -4.708,-6.47 -2.5,-12.598c0.361,-1.002 0.672,-1.916 0.932,-2.758l-0.478,0.467c-1.577,1.735 -3.987,3 -6.954,3c-2.967,-0 -5.377,-1.265 -6.954,-3l-0.478,-0.467c0.26,0.842 0.571,1.756 0.932,2.758c2.208,6.128 -0.332,12.215 -2.5,12.598c-1.929,0.341 -4.408,-0.658 -5.5,-5.495c-1.092,-4.838 -0.886,-12.394 1.5,-19.277c1.74,-5.019 6.79,-6.503 9.398,-6.938Z" style="fill:none;stroke:#000;stroke-width:4px;"/>
    </g>
    <g id="ears-down" serif:id="ears down">
        <path d="M13.247,22.58c0.081,0.232 0.166,0.469 0.253,0.711c2.208,6.128 -0.332,12.215 -2.5,12.598c-1.929,0.341 -4.408,-0.658 -5.5,-5.495c-1.092,-4.838 -0.886,-12.394 1.5,-19.277c0.645,-1.862 1.746,-3.238 3.009,-4.253c-0.005,0.036 2.53,2.884 3.168,6.145c0.519,2.653 -2.594,0.33 -2.754,2.241c-0.101,1.215 2.751,7.268 2.824,7.33Z" style="fill:none;stroke:#000;stroke-width:4px;"/>
        <path d="M13.247,22.58c0.081,0.232 0.166,0.469 0.253,0.711c2.208,6.128 -0.332,12.215 -2.5,12.598c-1.929,0.341 -4.408,-0.658 -5.5,-5.495c-1.092,-4.838 -0.886,-12.394 1.5,-19.277c0.645,-1.862 1.746,-3.238 3.009,-4.253c-0.005,0.036 2.53,2.884 3.168,6.145c0.519,2.653 -2.594,0.33 -2.754,2.241c-0.101,1.215 2.751,7.268 2.824,7.33Z" style="fill:#f0fff4;"/>
        <path d="M29.991,6.864c1.263,1.015 2.364,2.391 3.009,4.253c2.386,6.883 2.592,14.439 1.5,19.277c-1.092,4.837 -3.571,5.836 -5.5,5.495c-2.168,-0.383 -4.708,-6.47 -2.5,-12.598c0.046,-0.128 2.085,-2.982 3,-7.291c0.381,-1.794 -0.65,-4.546 -0.618,-6.303c0.036,-1.944 1.112,-2.807 1.109,-2.833Z" style="fill:none;stroke:#000;stroke-width:4px;"/>
        <path d="M29.991,6.864c1.263,1.015 2.364,2.391 3.009,4.253c2.386,6.883 2.592,14.439 1.5,19.277c-1.092,4.837 -3.571,5.836 -5.5,5.495c-2.168,-0.383 -4.708,-6.47 -2.5,-12.598c0.046,-0.128 2.085,-2.982 3,-7.291c0.381,-1.794 -0.65,-4.546 -0.618,-6.303c0.036,-1.944 1.112,-2.807 1.109,-2.833Z" style="fill:#f0fff4;"/>
        <path d="M16,5c0,0 -3.266,0.426 -5.81,3.183c-1.705,1.847 -3.044,6.198 -3.381,8.748c-0.63,4.755 -1.056,9.255 0.473,12.759c1.529,3.503 2.542,3.648 3.562,3.648c1.019,0 3.249,-2.612 2.102,-8.855c-1.147,-6.243 -3.34,-7.968 -0.319,-13.187c1.402,-2.421 3.373,-3.296 3.373,-3.296l0,-3Z" style="fill:#4fe64c;"/>
        <path d="M24,5c0,0 3.266,0.426 5.81,3.183c1.705,1.847 3.044,6.198 3.381,8.748c0.63,4.755 1.056,9.255 -0.473,12.759c-1.529,3.503 -2.542,3.648 -3.562,3.648c-1.019,0 -3.249,-2.612 -2.102,-8.855c1.147,-6.243 3.34,-7.968 0.319,-13.187c-1.402,-2.421 -3.373,-3.296 -3.373,-3.296l0,-3Z" style="fill:#4fe64c;"/>
        <path d="M13.247,22.58c-0.33,-0.279 -0.637,-0.575 -0.92,-0.884l-1.426,-1.394c-0.266,-0.26 -0.597,-0.445 -0.958,-0.536l-1.186,-0.296c-0.434,-0.108 -0.757,-0.502 -0.757,-0.97c0,-0.22 0.071,-0.423 0.192,-0.589l0.225,-0.316c0.036,-0.05 0.073,-0.099 0.111,-0.147c-1.53,-1.182 -1.526,-2.38 -1.526,-2.38c-0.013,-0.2 0.033,-0.397 0.132,-0.568c-0.085,-0.147 -0.134,-0.318 -0.134,-0.5c-0,-0.239 0.084,-0.459 0.224,-0.631l0.212,-0.265c0.64,-0.8 1.459,-1.412 2.372,-1.801c-0.038,-0.062 -0.075,-0.124 -0.11,-0.188l-0.07,-0.126c-0.082,-0.144 -0.128,-0.311 -0.128,-0.489c0,-0.179 0.047,-0.348 0.13,-0.493c-0.027,-0.059 -0.044,-0.099 -0.052,-0.118c-0.004,-0.012 -0.009,-0.023 -0.013,-0.035c-0.039,-0.103 -0.062,-0.213 -0.065,-0.329c-0.013,-0.542 0.408,-0.997 0.95,-1.024c0,0 0.03,-0.002 0.086,-0.007c-0.451,-0.703 -0.528,-1.369 -0.528,-1.369c-0.011,-0.088 -0.01,-0.176 0.001,-0.261c3.407,-2.74 7.991,-2.864 7.991,-2.864l0,3.044c0,-0 -3.988,0.835 -5.5,4.073c-1.453,3.109 -1.229,5.824 0.747,11.463Z" style="fill:#628f6e;"/>
        <path d="M26.753,22.58c1.976,-5.639 2.2,-8.354 0.747,-11.463c-1.512,-3.238 -5.5,-4.073 -5.5,-4.073l0,-3.044c0,-0 4.584,0.124 7.991,2.864c0.015,0.108 0.012,0.219 -0.01,0.33c0,-0 -0.116,0.61 -0.558,1.295c0.004,0.001 0.011,0.005 0.019,0.013c0.019,-0.001 0.039,-0.002 0.058,-0.002c0.552,0 1,0.448 1,1c0,0.18 -0.048,0.349 -0.131,0.494c0.002,0.006 0.002,0.01 0.001,0.013c0.083,0.145 0.13,0.314 0.13,0.493c-0,0.178 -0.046,0.345 -0.128,0.489l-0.07,0.126c-0.035,0.064 -0.072,0.126 -0.11,0.188c0.913,0.389 1.732,1.001 2.372,1.801c0.002,0.003 0.004,0.005 0.006,0.008l0.206,0.257c0.14,0.172 0.224,0.392 0.224,0.631c0,0.182 -0.049,0.353 -0.134,0.5c0.086,0.149 0.134,0.321 0.134,0.5c0,0.023 -0.001,0.046 -0.002,0.068c-0,0 0.004,1.198 -1.526,2.38c0.038,0.048 0.075,0.097 0.111,0.147c0.002,0.003 0.004,0.006 0.006,0.009l0.219,0.307c0.121,0.166 0.192,0.369 0.192,0.589c0,0.468 -0.323,0.862 -0.757,0.97l-1.186,0.296c-0.361,0.091 -0.692,0.276 -0.958,0.536c-0,0 -1.402,1.37 -1.414,1.381c-0.287,0.314 -0.598,0.615 -0.932,0.897Z" style="fill:#628f6e;"/>
        <path d="M29.5,22.5c0,0 0.127,1 1,1c0.873,0 1,-2 1,-2" style="fill:none;stroke:#19a116;stroke-width:1px;"/>
        <path d="M9.5,27.5c0,0 -0.187,2.5 1,2.5c1.187,0 1,-1.5 1,-1.5" style="fill:none;stroke:#19a116;stroke-width:1px;"/>
    </g>
    <path d="M10.5,9.5c-0,0 1.45,-0.073 3.047,-0.906c1.469,-0.768 2.453,-1.594 2.453,-1.594l2,0l-0,6c-0,0 -4.087,0.192 -5.606,-1.153c-1.518,-1.345 -1.894,-2.347 -1.894,-2.347Zm19,0c-0,0 -0.376,1.002 -1.894,2.347c-1.519,1.345 -5.606,1.153 -5.606,1.153l-0,-6l2,0c-0,0 0.984,0.826 2.453,1.594c1.597,0.833 3.047,0.906 3.047,0.906Z" style="fill:#4fe64c;"/>
    <g>
        <path d="M28.3,10.497c0.046,0.002 0.092,0.003 0.139,0.003l1.061,0l-0.072,0.13c-0.281,0.505 -0.686,0.917 -1.166,1.205c1.367,0.125 2.644,0.798 3.521,1.894l0.217,0.271c0,0 -0.601,0.526 -1.434,1l1.434,0c0,0 -0.072,1.052 -1.663,2.013c-0.179,0.108 -0.36,0.205 -0.54,0.29c0.379,0.214 0.712,0.51 0.972,0.874l0.231,0.323l-1.185,0.296c-0.534,0.134 -1.022,0.407 -1.415,0.791l-1.446,1.413c-1.577,1.735 -3.987,3 -6.954,3c-2.967,-0 -5.377,-1.265 -6.954,-3l-1.446,-1.413c-0.393,-0.384 -0.881,-0.657 -1.415,-0.791l-1.185,-0.296l0.231,-0.323c0.26,-0.364 0.593,-0.66 0.972,-0.874c-0.18,-0.085 -0.361,-0.182 -0.54,-0.29c-1.591,-0.961 -1.663,-2.013 -1.663,-2.013l1.434,0c-0.833,-0.474 -1.434,-1 -1.434,-1l0.217,-0.271c0.877,-1.096 2.154,-1.769 3.521,-1.894c-0.48,-0.288 -0.885,-0.7 -1.166,-1.205l-0.072,-0.13l1.061,-0c0.017,-0 0.034,-0 0.05,-0c-0.012,0.038 0.669,0.481 2.389,0.347c1.912,-0.15 4.993,-0.881 7.452,-0.842c2.042,0.032 4.429,0.853 5.487,0.842c0.574,-0.007 1.364,-0.347 1.361,-0.35Z" style="fill:#f0fff4;"/>
        <path d="M28.3,10.497c0.045,0.051 0.093,0.104 0.144,0.158c0.122,0.127 0.168,0.31 0.12,0.48c-0.048,0.17 -0.182,0.303 -0.353,0.348c0,0 -2.161,0.562 -3.808,-0.213c-0.39,-0.183 -0.73,-0.393 -1.025,-0.616c-0.589,0.554 -1.181,0.806 -1.181,0.806c-0.062,0.026 -0.129,0.04 -0.197,0.04l-0.118,-0.125c-0.106,0.142 -0.22,0.279 -0.337,0.408c-0.591,0.652 -1.255,1.124 -1.255,1.124c-0.125,0.089 -0.284,0.116 -0.432,0.072c-0.147,-0.043 -0.267,-0.152 -0.323,-0.295c-0,-0 -0.116,-0.294 -0.295,-0.741c-0.23,0.267 -0.4,0.424 -0.4,0.424c-0.171,0.158 -0.429,0.178 -0.622,0.046c0,0 -0.896,-0.594 -1.153,-1.869c-0.315,0.226 -0.685,0.456 -1.109,0.663c-1.91,0.931 -4.101,0.271 -4.101,0.271c-0.236,-0.071 -0.384,-0.304 -0.35,-0.548c-0,0 0.021,-0.166 0.106,-0.43c0.386,-0.007 0.765,-0.085 1.12,-0.229c2.159,-2.976 5.751,-3.771 7.269,-3.771c1.35,0 4.98,0.79 7.195,3.74c0.348,0.152 0.723,0.24 1.105,0.257Z" style="fill:#8cc19a;"/>
    </g>
    <g id="face">
        <path d="M13.287,11.12c1.062,-0.172 2.143,-0.5 3.048,-0.946c0.235,-0.116 0.513,-0.101 0.734,0.039c0.985,0.626 1.681,1.857 1.681,3.287c0,2.104 -1.497,3.75 -3.25,3.75c-1.753,-0 -3.25,-1.646 -3.25,-3.75c0,-0.738 0.185,-1.424 0.498,-1.999c0.111,-0.204 0.31,-0.344 0.539,-0.381Zm13.965,0.381c0.313,0.575 0.498,1.261 0.498,1.999c-0,2.104 -1.497,3.75 -3.25,3.75c-1.753,-0 -3.25,-1.646 -3.25,-3.75c-0,-1.43 0.696,-2.661 1.681,-3.287c0.221,-0.14 0.499,-0.155 0.734,-0.039c0.905,0.446 1.986,0.774 3.048,0.946c0.229,0.037 0.428,0.177 0.539,0.381Z" style="fill:#8cc19a;"/>
        <path d="M13.407,11.86c1.136,-0.184 2.292,-0.536 3.26,-1.013c0.792,0.503 1.333,1.503 1.333,2.653c0,1.656 -1.12,3 -2.5,3c-1.38,0 -2.5,-1.344 -2.5,-3c0,-0.605 0.15,-1.169 0.407,-1.64Zm13.186,0c0.257,0.471 0.407,1.035 0.407,1.64c-0,1.656 -1.12,3 -2.5,3c-1.38,0 -2.5,-1.344 -2.5,-3c-0,-1.15 0.541,-2.15 1.333,-2.653c0.968,0.477 2.124,0.829 3.26,1.013Z" style="fill:#fff;"/>
        <path d="M23.95,11.5c0.966,0 1.75,0.896 1.75,2c0,1.104 -0.784,2 -1.75,2c-0.966,0 -1.75,-0.896 -1.75,-2c0,-1.104 0.784,-2 1.75,-2Zm-7.9,0c0.966,0 1.75,0.896 1.75,2c0,1.104 -0.784,2 -1.75,2c-0.966,0 -1.75,-0.896 -1.75,-2c0,-1.104 0.784,-2 1.75,-2Z" style="fill:#19562f;"/>
        <path d="M15,18l3,-2.5l4,0l3,2.5l0,2l-10,0l0,-2" style="fill:#f0fff4;"/>
        <path d="M17,21c0,0 0.671,-0.447 1.378,-0.919c0.982,-0.654 2.262,-0.654 3.244,0c0.707,0.472 1.378,0.919 1.378,0.919" style="fill:none;stroke:#466b50;stroke-width:1.2px;"/>
        <path d="M20,16c-2.425,0 -3.154,0.606 -3.579,1.27c-0.149,0.232 -0.459,0.3 -0.691,0.151c-0.232,-0.149 -0.3,-0.459 -0.151,-0.691c0.532,-0.83 1.389,-1.73 4.421,-1.73c3.032,0 3.889,0.9 4.421,1.73c0.149,0.232 0.081,0.542 -0.151,0.691c-0.232,0.149 -0.542,0.081 -0.691,-0.151c-0.425,-0.664 -1.154,-1.27 -3.579,-1.27Z" style="fill:#7da080;"/>
        <path d="M28,16c0,0 -1.392,2.386 -2.42,4.149c-0.636,1.091 -0.458,2.473 0.436,3.367c0.006,0.006 0.012,0.012 0.018,0.018c1.086,1.086 2.846,1.086 3.932,-0c0.006,-0.006 0.012,-0.012 0.018,-0.018c0.894,-0.894 1.072,-2.276 0.436,-3.367c-1.028,-1.763 -2.42,-4.149 -2.42,-4.149Z" style="fill:#0090fb;"/>
    </g>
    <g id="hair">
        <path d="M13.464,6.525c1.456,-0.767 1.347,-1.163 2.419,-1.98c0.838,-0.64 1.481,-0.914 1.785,-1.024c0.129,-0.035 0.266,-0.028 0.392,0.019l1.252,0.469c0.822,-0.528 1.688,-1.009 1.688,-1.009c0,0 0.908,0.047 2.495,0.863c1.592,0.819 1.867,2.499 3.25,3.051c0.252,0.101 0.498,0.163 0.729,0.198c0.464,0.148 0.732,0.149 1.171,0.195c-0.113,0.507 -0.954,1.428 -1.614,1.818l0.046,0.402c-0.063,0.615 0.109,0.935 0.33,1.344c-0.881,0.14 -2.046,0.077 -2.978,-0.145c-0.433,-0.224 -0.794,-0.485 -1.094,-0.754c-0.593,0.71 -1.335,1.028 -1.335,1.028c0,0 0.014,-0.363 -0.01,-0.813c0.001,-0.008 0.002,-0.016 0.003,-0.024c-0.001,0.002 -0.003,0.003 -0.004,0.005c-0.002,-0.027 -0.004,-0.053 -0.005,-0.08c-0.009,0.038 -0.019,0.076 -0.03,0.115c-0.387,0.381 -1.113,1.345 -1.676,1.437c-0.228,-0.362 -0.765,-0.766 -0.753,-1.078c0,-0 -0.596,0.553 -1.177,0.714c-0.446,-0.34 -0.666,-1.087 -0.853,-1.655c0.001,-0.027 0.002,-0.054 0.003,-0.08c-0.323,0.305 -0.799,0.693 -1.423,1.041c-1.013,0.044 -2.284,0.255 -3.335,-0.003c0.036,-0.467 0.339,-1.313 0.562,-1.677c0,0 -1.439,-1.048 -1.78,-1.51c0.763,-0.239 1.508,-0.471 1.942,-0.867Z" style="fill:#27372d;"/>
        <path d="M16.075,10.582c-0.108,0.06 -0.221,0.118 -0.338,0.175c-1.74,0.848 -3.737,0.243 -3.737,0.243c0,0 0.144,-1.023 1.103,-1.957c-0.015,-0.003 -0.029,-0.005 -0.044,-0.008c-1.846,-0.34 -2.059,-2.035 -2.059,-2.035c0,0 1.241,0.167 2.452,-0.469l0.012,-0.006c-0.23,0.452 -0.659,0.825 -1.421,1.064c0.34,0.461 0.852,0.825 1.482,1.121l0.382,-0.314c-0.098,0.129 -0.188,0.25 -0.27,0.364c0.172,0.077 0.352,0.149 0.54,0.217l-0.797,0.164c-0.223,0.364 -0.358,0.711 -0.394,1.178c1.051,0.258 2.076,0.307 3.089,0.263Zm8.354,0.144c0.932,0.054 1.833,0.085 2.713,-0.056c-0.22,-0.408 -0.321,-1.337 -0.257,-1.952l0.186,0.27c0.596,-0.533 1.124,-0.941 1.237,-1.448c-0.438,-0.047 -0.674,-0.199 -0.834,-0.428c0.866,0.132 1.526,-0.112 1.526,-0.112c0,0 -0.3,1.52 -1.848,2.12c-0.017,0.007 -0.034,0.013 -0.05,0.019c0.081,0.331 0.157,0.686 0.398,1.103c0.134,0.231 0.318,0.482 0.582,0.758c0,0 -1.967,0.523 -3.466,-0.182c-0.064,-0.03 -0.126,-0.061 -0.187,-0.092Zm-3.876,-1.537l-0.444,0.726c-0.012,0.312 0.131,0.632 0.359,0.994c0.563,-0.092 1.099,-0.325 1.486,-0.706c-0.338,1.145 -1.954,2.297 -1.954,2.297c0,0 -0.272,-0.689 -0.623,-1.565c-0.417,0.638 -0.877,1.065 -0.877,1.065c0,0 -0.934,-0.637 -1,-2c-0.007,-0.134 -0.008,-0.26 -0.005,-0.379c0.187,0.568 0.611,0.794 1.057,1.135c0.58,-0.162 1.711,-1.111 2.001,-1.567Zm1.436,0.979l0.004,-0.005c-0.001,0.008 -0.002,0.016 -0.003,0.024l-0.001,-0.019Zm-0.537,-3.302c0.42,0.118 0.826,0.315 1.186,0.749c0.473,-0.602 0.711,-1.158 0.775,-1.57c0.067,0.166 0.166,0.558 0.049,1.263c-0.165,0.986 -0.924,1.483 -0.924,1.483c-0,0 -0.228,-0.748 -0.652,-1.36c-0.159,-0.229 -0.307,-0.417 -0.434,-0.565Zm-3.966,-1.77c-0.062,0.559 -0.343,1.062 -0.926,1.561c0.552,0.425 1.099,0.679 1.525,0.781c-0.19,0.065 -0.571,0.14 -1.209,0.04c-0.988,-0.155 -1.601,-0.986 -1.601,-0.986c0,-0 0.731,-0.112 1.338,-0.542c0.386,-0.272 0.686,-0.612 0.873,-0.854Z" style="fill:#4fe64c;"/>
    </g>
    <path d="M14.351,6.691c1.205,-0.622 2.167,-0.538 2.726,0.414c0.558,0.953 -0.047,1.736 -1.327,2.458c-1.353,0.763 -2.353,0.475 -2.766,-0.459c-0.414,-0.934 0.577,-2.006 1.367,-2.413Zm11.298,-0c0.79,0.407 1.781,1.479 1.367,2.413c-0.413,0.934 -1.413,1.222 -2.766,0.459c-1.28,-0.722 -1.885,-1.505 -1.327,-2.458c0.559,-0.952 1.521,-1.036 2.726,-0.414Z" style="fill:#475247;"/>
</svg>
