<svg xmlns="http://www.w3.org/2000/svg" xml:space="preserve" style="fill-rule:evenodd;clip-rule:evenodd;stroke-linecap:round;stroke-linejoin:round;stroke-miterlimit:1.5" viewBox="0 0 40 40"><path d="M0 0h40v40H0z" style="fill:none"/><clipPath id="a"><path d="M0 0h40v40H0z"/></clipPath><g clip-path="url(#a)"><path d="M12.568 22.533c.26.842.571 1.756.932 2.758 2.208 6.128-.332 12.215-2.5 12.598-1.929.341-4.408-.658-5.5-5.495C4.408 27.556 4.614 20 7 13.117c1.74-5.019 6.79-6.503 9.398-6.938a6 6 0 0 1 1.27-.658.64.64 0 0 1 .392.019l1.252.469C20.134 5.481 21 5 21 5s.908.047 2.495.863c.234.121.439.259.624.411q.416.082.881.2V5h6v4.797a9.2 9.2 0 0 1 2 3.32c2.386 6.883 2.592 14.439 1.5 19.277-1.092 4.837-3.571 5.836-5.5 5.495-2.168-.383-4.708-6.47-2.5-12.598.361-1.002.672-1.916.932-2.758l-.478.467c-1.577 1.735-3.987 3-6.954 3s-5.377-1.265-6.954-3zM38 2v6h-6V2z" style="stroke:#000;stroke-width:4px"/><path d="M13.247 24.58q.122.348.253.711c2.208 6.128-.332 12.215-2.5 12.598-1.929.341-4.408-.658-5.5-5.495C4.408 27.556 4.614 20 7 13.117a9.27 9.27 0 0 1 3.009-4.253c-.003.024 1.918 1.31 1.991 3.136.104 2.597-1.57 6.287-1 9 .424 2.018 2.147 3.496 2.247 3.58M29.991 8.864A9.27 9.27 0 0 1 33 13.117c2.386 6.883 2.592 14.439 1.5 19.277-1.092 4.837-3.571 5.836-5.5 5.495-2.168-.383-4.708-6.47-2.5-12.598q.131-.363.253-.711c.092-.077 1.879-1.857 2.247-3.58.572-2.679-1.103-6.389-1-9 .072-1.819 1.995-3.104 1.991-3.136" style="fill:none;stroke:#000;stroke-width:4px"/><path d="M13.247 24.58q.122.348.253.711c2.208 6.128-.332 12.215-2.5 12.598-1.929.341-4.408-.658-5.5-5.495C4.408 27.556 4.614 20 7 13.117a9.27 9.27 0 0 1 3.009-4.253c-.003.024 1.918 1.31 1.991 3.136.104 2.597-1.57 6.287-1 9 .424 2.018 2.147 3.496 2.247 3.58M29.991 8.864A9.27 9.27 0 0 1 33 13.117c2.386 6.883 2.592 14.439 1.5 19.277-1.092 4.837-3.571 5.836-5.5 5.495-2.168-.383-4.708-6.47-2.5-12.598q.131-.363.253-.711c.092-.077 1.879-1.857 2.247-3.58.572-2.679-1.103-6.389-1-9 .072-1.819 1.995-3.104 1.991-3.136" style="fill:#f0fff4"/><path d="M16 7v3s-1.971.875-3.373 3.296c-3.021 5.219-.828 6.944.319 13.187s-1.083 8.855-2.102 8.855c-1.02 0-2.033-.145-3.562-3.648s-1.103-8.004-.473-12.759c.337-2.55 1.676-6.901 3.381-8.748C12.734 7.426 16 7 16 7m8 0s3.266.426 5.81 3.183c1.705 1.847 3.044 6.198 3.381 8.748.63 4.755 1.056 9.255-.473 12.759s-2.542 3.648-3.562 3.648c-1.019 0-3.249-2.612-2.102-8.855s3.34-7.968.319-13.187C25.971 10.875 24 10 24 10z" style="fill:#4fe64c"/><path d="M13.247 24.58q-.495-.42-.92-.884l-1.426-1.394a2.1 2.1 0 0 0-.958-.536l-1.186-.296a1 1 0 0 1-.565-1.559l.225-.316q.054-.075.111-.147c-1.53-1.182-1.526-2.38-1.526-2.38-.013-.2.033-.397.132-.568a1 1 0 0 1 .09-1.131l.212-.265a6.1 6.1 0 0 1 2.372-1.801 4 4 0 0 1-.11-.188l-.07-.126a.99.99 0 0 1 .002-.982l-.052-.118-.013-.035a.998.998 0 0 1 .885-1.353l.086-.007c-.451-.703-.528-1.369-.528-1.369a1 1 0 0 1 .001-.261C13.416 6.124 18 6 18 6v3.044s-3.988.835-5.5 4.073c-1.453 3.109-1.229 5.824.747 11.463m13.506 0c1.976-5.639 2.2-8.354.747-11.463C25.988 9.879 22 9.044 22 9.044V6s4.584.124 7.991 2.864a1 1 0 0 1-.01.33s-.116.61-.558 1.295q.125.013.127.012A1 1 0 0 1 30.366 12a1 1 0 0 1 .006.989l-.07.126a4 4 0 0 1-.11.188 6.1 6.1 0 0 1 2.372 1.801l.212.265a1 1 0 0 1 .143.236 1 1 0 0 1-.053.895c.099.171.145.368.132.568 0 0 .004 1.198-1.526 2.38q.057.072.111.147l.225.316a1 1 0 0 1 .126.232 1.001 1.001 0 0 1-.691 1.327l-1.186.296a2.1 2.1 0 0 0-.958.536l-1.414 1.381q-.43.472-.932.897" style="fill:#628f6e"/><path d="M9.5 29.5s-.187 2.5 1 2.5 1-1.5 1-1.5M29.5 24.5s.127 1 1 1 1-2 1-2" style="fill:none;stroke:#19a116;stroke-width:1px"/><path d="M10.5 11.5s1.45-.073 3.047-.906A15 15 0 0 0 16 9h2v6s-4.087.192-5.606-1.153C10.876 12.502 10.5 11.5 10.5 11.5M29.5 11.5s-1.45-.073-3.047-.906A15 15 0 0 1 24 9h-2v6s4.087.192 5.606-1.153C29.124 12.502 29.5 11.5 29.5 11.5" style="fill:#4fe64c"/><path d="M9.336 20.038c.242-.301.537-.549.867-.735a6 6 0 0 1-.54-.29C8.072 18.052 8 17 8 17h1.434C8.601 16.526 8 16 8 16l.217-.271a5.1 5.1 0 0 1 3.521-1.894c-.48-.288-.885-.7-1.166-1.205l-.072-.13h1.111c-.085.264 5.075-.274 5.389-.5.258 1.275 6.412.554 7 0 .296.223 4.345.548 4.3.497q.069.003.139.003H29.5l-.072.13a3.24 3.24 0 0 1-1.166 1.205 5.1 5.1 0 0 1 3.521 1.894L32 16s-.601.526-1.434 1H32s-.072 1.052-1.663 2.013q-.27.162-.54.29c.379.214.712.51.972.874L31 20.5l-1.185.296a3.1 3.1 0 0 0-1.415.791L26.954 23c-1.577 1.735-3.987 3-6.954 3l-.128-.001C16.963 25.963 14.6 24.71 13.046 23L11.6 21.587a3.1 3.1 0 0 0-1.415-.791L9 20.5l.231-.323q.051-.072.105-.139" style="fill:#f0fff4"/><path d="M28.3 12.497q.068.077.144.158a.498.498 0 0 1-.233.828s-2.161.562-3.808-.213a5.7 5.7 0 0 1-1.025-.616c-.589.554-1.181.806-1.181.806a.5.5 0 0 1-.383.004q-.13.166-.269.319c-.591.652-1.255 1.124-1.255 1.124a.5.5 0 0 1-.755-.223l-.295-.741c-.23.267-.4.424-.4.424a.5.5 0 0 1-.622.046s-.896-.594-1.153-1.869a7.7 7.7 0 0 1-1.109.663c-1.91.931-4.101.271-4.101.271a.5.5 0 0 1-.35-.548s.021-.166.106-.43a3.1 3.1 0 0 0 1.12-.229C14.89 9.295 18.482 8.5 20 8.5c1.35 0 4.98.79 7.195 3.74.348.152.723.24 1.105.257" style="fill:#8cc19a"/><path d="M20 20.5c1.466 0 2.078 1.001 2.329 1.736a.54.54 0 0 1-.514.713C21.383 23 20.763 23 20 23s-1.383 0-1.815-.051a.542.542 0 0 1-.514-.713c.251-.735.863-1.736 2.329-1.736"/><path d="M16 19c.479-.747 1.272-1.5 4-1.5M24 19c-.479-.747-1.272-1.5-4-1.5" style="fill:none;stroke:#7da080;stroke-width:1px"/><path d="M15.949 12.65a7 7 0 0 1-.212.107C13.997 13.605 12 13 12 13s.144-1.023 1.103-1.957l-.044-.008C11.213 10.695 11 9 11 9s1.241.167 2.452-.469l.012-.006C13.234 8.977 15 10 15 10c-.541.718-.015 2.665.949 2.65m8.48.076c.932.054 2.507-2.111 2.571-2.726 0-.949.634-.659.474-.888C28.34 9.244 29 9 29 9s-.3 1.52-1.848 2.12l-.05.019c.081.331.157.686.398 1.103.134.231.318.482.582.758 0 0-1.967.523-3.466-.182zM21 11s.572 1.576.961 1.177C21.64 13.331 20 14.5 20 14.5s-.272-.689-.623-1.565A6.3 6.3 0 0 1 18.5 14s-.934-.637-1-2a5 5 0 0 1-.005-.379c.104.317.724-.454 1.505-.621.619-.132 1.872.202 2 0" style="fill:#4fe64c"/><path d="M13.464 8.525c1.456-.767 1.347-1.163 2.419-1.98.838-.64 1.481-.914 1.785-1.024a.64.64 0 0 1 .392.019l1.252.469C20.134 5.481 21 5 21 5s.908.047 2.495.863c1.592.819 1.867 2.499 3.25 3.051.252.101.498.163.729.198.16.229.396.381.834.428-.113.507-.641.915-1.237 1.448l-.186-.27c-.064.615.037 1.544.257 1.952-.88.141-1.781.11-2.713.056a5.2 5.2 0 0 1-1.094-.754C22.742 12.682 22 13 22 13s.016-.418-.016-.912q-.01.044-.023.089c-.389.399-.916.637-1.493.732-.228-.362-.371-.682-.359-.994l.444-.726c-.29.456-1.421 1.405-2.001 1.567-.446-.341-.87-.567-1.057-1.135l.003-.08a7.2 7.2 0 0 1-1.549 1.109 11.8 11.8 0 0 1-2.963-.331c.059-.762.38-1.204.921-1.923l-.384.316-.023-.014c-.619-.294-1.121-.654-1.457-1.109.762-.239 1.191-.612 1.421-1.064m7.988.341c.127.148.275.336.434.565.424.612.652 1.36.652 1.36s.759-.497.924-1.483c.117-.705.018-1.097-.049-1.263-.064.412-.302.968-.775 1.57-.36-.434-.766-.631-1.186-.749m-3.966-1.77a4.2 4.2 0 0 1-.873.854c-.607.43-1.338.542-1.338.542s.613.831 1.601.986c.638.1 1.019.025 1.209-.04-.426-.102-.973-.356-1.525-.781.583-.499.864-1.002.926-1.561" style="fill:#27372d"/><path d="M15.949 12.65a7 7 0 0 1-.212.107C13.997 13.605 12 13 12 13s.144-1.023 1.103-1.957l-.044-.008C11.213 10.695 11 9 11 9s1.241.167 2.452-.469l.012-.006c-.23.452-.659.825-1.421 1.064.336.455.838.815 1.457 1.109l.023.014.384-.316c-.541.719-.862 1.161-.921 1.923.98.24 1.999.346 2.963.331m8.48.076c.932.054 1.833.085 2.713-.056-.22-.408-.321-1.337-.257-1.952l.186.27c.596-.533 1.124-.941 1.237-1.448-.438-.047-.674-.199-.834-.428C28.34 9.244 29 9 29 9s-.3 1.52-1.848 2.12l-.05.019c.081.331.157.686.398 1.103.134.231.318.482.582.758 0 0-1.967.523-3.466-.182zm-3.876-1.537-.444.726c-.012.312.131.632.359.994.577-.095 1.104-.333 1.493-.732C21.64 13.331 20 14.5 20 14.5s-.272-.689-.623-1.565A6.3 6.3 0 0 1 18.5 14s-.934-.637-1-2a5 5 0 0 1-.005-.379c.187.568.611.794 1.057 1.135.58-.162 1.711-1.111 2.001-1.567m-3.067-4.093c-.062.559-.343 1.062-.926 1.561.552.425 1.099.679 1.525.781-.19.065-.571.14-1.209.04-.988-.155-1.601-.986-1.601-.986s.731-.112 1.338-.542c.386-.272.686-.612.873-.854m3.966 1.77c.42.118.826.315 1.186.749.473-.602.711-1.158.775-1.57.067.166.166.558.049 1.263-.165.986-.924 1.483-.924 1.483s-.228-.748-.652-1.36a7 7 0 0 0-.434-.565" style="fill:#4fe64c"/><path d="M14.777 9.739c1.33-.266 2.231.08 2.506 1.15s-.523 1.656-1.953 1.997c-1.511.36-2.393-.192-2.533-1.203-.139-1.012 1.108-1.769 1.98-1.944m10.446 0c.872.175 2.119.932 1.98 1.944-.14 1.011-1.022 1.563-2.533 1.203-1.43-.341-2.227-.927-1.953-1.997.275-1.07 1.176-1.416 2.506-1.15" style="fill:#475247"/><path d="M22.5 16c1.25 1.438 3.502 1.335 4.5 0M17.5 16c-1.25 1.438-3.502 1.335-4.5 0" style="fill:none;stroke:#000;stroke-width:1.5px"/><path d="M30 3V2a2 2 0 0 1 2-2h6a2 2 0 0 1 2 2v6a2 2 0 0 1-2 2h-5v1a2 2 0 0 1-2 2h-6a2 2 0 0 1-2-2V5a2 2 0 0 1 2-2z" style="fill-opacity:.54"/><path d="M25 7V5h6v1.414L28.414 9H31v2h-6V9.586L27.586 7zm7-3V2h6v1.414L35.414 6H38v2h-6V6.586L34.586 4z" style="fill:#c27fff"/></g></svg>