<svg xmlns="http://www.w3.org/2000/svg" xml:space="preserve" style="fill-rule:evenodd;clip-rule:evenodd;stroke-linecap:round;stroke-linejoin:round;stroke-miterlimit:1.5" viewBox="0 0 40 40"><path d="M0 0h40v40H0z" style="fill:none"/><clipPath id="a"><path d="M0 0h40v40H0z"/></clipPath><g clip-path="url(#a)"><path d="M17 6.636c-3.896 0-6.772 3.192-5.83 5.823 1.039 2.902 7.653 4.73 12.696 6.344 9.727 3.112 10.719 7.454 10.318 10.568C33.61 33.844 28.52 37.523 27 38H9.115c11.349-1.902 18.222-6.519 17.632-9.964-.596-3.479-6.016-5.629-11.392-7.994-5.517-2.427-8.539-4.877-8.92-8.279-.462-4.117 3.713-7.416 9.238-8.789q.185-.074.388-.13C17.923 2.332 20.428 2 23.877 2s6.935 1.353 8.477 2.559c2.502 1.956 2.203 4.047-.173 5.423-1.42.822-1.123 4.657-3.181 4.657-2.479 0-1.57-4.819-4.049-4.819-2.467 0-1.963 2.666-4.182 2.319-2.21-.346-1.837-5.503-3.769-5.503" style="fill:none;stroke:#000;stroke-width:4px"/><path d="M15.761 16.004c.738 1.045.381 2.968 2.287 3.683 4.195 1.573 8.695 3.925 9.758 7.145 1.453 4.404-4.654 7.704-6.967 11.168H27c1.52-.477 6.61-4.156 7.184-8.629.401-3.114-.591-7.456-10.318-10.568-2.611-.836-5.644-1.729-8.105-2.799" style="fill:#1d2f23"/><path d="M20.839 38H9.115c11.349-1.902 18.222-6.519 17.632-9.964-.596-3.479-6.016-5.629-11.392-7.994-5.517-2.427-8.539-4.877-8.92-8.279-.481-4.284 4.059-7.682 9.916-8.946L17 6.636c-3.896 0-6.772 3.192-5.83 5.823.501 1.399 2.298 2.549 4.591 3.545.738 1.045 1.855 1.955 3.761 2.669 4.195 1.574 9.202 4.709 10.264 7.929 1.454 4.403-3.548 8.671-8.947 11.398" style="fill:none;stroke:#000;stroke-width:4px"/><path d="M20.839 38H9.115c11.349-1.902 18.222-6.519 17.632-9.964-.596-3.479-6.016-5.629-11.392-7.994-5.517-2.427-8.539-4.877-8.92-8.279-.481-4.284 4.059-7.682 9.916-8.946L17 6.636c-3.896 0-6.772 3.192-5.83 5.823.501 1.399 2.298 2.549 4.591 3.545.738 1.045 1.855 1.955 3.761 2.669 4.195 1.574 9.202 4.709 10.264 7.929 1.454 4.403-3.548 8.671-8.947 11.398" style="fill:#f0fff4"/><path d="M16.061 2.844C17.923 2.332 20.428 2 23.877 2s6.935 1.353 8.477 2.559c2.502 1.956 2.203 4.047-.173 5.423-1.42.822-1.123 4.657-3.181 4.657-2.479 0-1.57-4.819-4.049-4.819-2.467 0-1.963 2.666-4.182 2.319-2.21-.346-1.837-5.503-3.769-5.503-1.61 0-2.558-.549-2.803-1.44-.253-.921.468-1.968 1.864-2.352" style="fill:#4fe64c"/></g></svg>