<?xml version="1.0" encoding="UTF-8" standalone="no"?>
<!DOCTYPE svg PUBLIC "-//W3C//DTD SVG 1.1//EN" "http://www.w3.org/Graphics/SVG/1.1/DTD/svg11.dtd">
<svg width="100%" height="100%" viewBox="0 0 40 40" version="1.1" xmlns="http://www.w3.org/2000/svg" xmlns:xlink="http://www.w3.org/1999/xlink" xml:space="preserve" xmlns:serif="http://www.serif.com/" style="fill-rule:evenodd;clip-rule:evenodd;stroke-linecap:round;stroke-linejoin:round;stroke-miterlimit:1.5;">
    <rect id="ash_tail" x="0" y="0" width="40" height="40" style="fill:none;"/>
    <clipPath id="_clip1">
        <rect x="0" y="0" width="40" height="40"/>
    </clipPath>
    <g clip-path="url(#_clip1)">
        <path d="M17,6.636c-3.896,0 -6.772,3.192 -5.83,5.823c1.039,2.902 7.653,4.73 12.696,6.344c9.727,3.112 10.719,7.454 10.318,10.568c-0.574,4.473 -5.664,8.152 -7.184,8.629l-17.885,0c11.349,-1.902 18.222,-6.519 17.632,-9.964c-0.596,-3.479 -6.016,-5.629 -11.392,-7.994c-5.517,-2.427 -8.539,-4.877 -8.92,-8.279c-0.462,-4.117 3.713,-7.416 9.238,-8.789c0.123,-0.049 0.253,-0.093 0.388,-0.13c1.862,-0.512 4.367,-0.844 7.816,-0.844c3.449,0 6.935,1.353 8.477,2.559c2.502,1.956 2.203,4.047 -0.173,5.423c-1.42,0.822 -1.123,4.657 -3.181,4.657c-2.479,-0 -1.57,-4.819 -4.049,-4.819c-2.467,-0 -1.963,2.666 -4.182,2.319c-2.21,-0.346 -1.837,-5.503 -3.769,-5.503Z" style="fill:none;stroke:#000;stroke-width:4px;"/>
        <g>
            <path d="M15.761,16.004c0.738,1.045 0.381,2.968 2.287,3.683c4.195,1.573 8.695,3.925 9.758,7.145c1.453,4.404 -4.654,7.704 -6.967,11.168l6.161,0c1.52,-0.477 6.61,-4.156 7.184,-8.629c0.401,-3.114 -0.591,-7.456 -10.318,-10.568c-2.611,-0.836 -5.644,-1.729 -8.105,-2.799Z" style="fill:#1d2f23;"/>
            <path d="M20.839,38l-11.724,0c11.349,-1.902 18.222,-6.519 17.632,-9.964c-0.596,-3.479 -6.016,-5.629 -11.392,-7.994c-5.517,-2.427 -8.539,-4.877 -8.92,-8.279c-0.481,-4.284 4.059,-7.682 9.916,-8.946l0.649,3.819c-3.896,0 -6.772,3.192 -5.83,5.823c0.501,1.399 2.298,2.549 4.591,3.545c0.738,1.045 1.855,1.955 3.761,2.669c4.195,1.574 9.202,4.709 10.264,7.929c1.454,4.403 -3.548,8.671 -8.947,11.398Z" style="fill:none;stroke:#000;stroke-width:4px;"/>
            <path d="M20.839,38l-11.724,0c11.349,-1.902 18.222,-6.519 17.632,-9.964c-0.596,-3.479 -6.016,-5.629 -11.392,-7.994c-5.517,-2.427 -8.539,-4.877 -8.92,-8.279c-0.481,-4.284 4.059,-7.682 9.916,-8.946l0.649,3.819c-3.896,0 -6.772,3.192 -5.83,5.823c0.501,1.399 2.298,2.549 4.591,3.545c0.738,1.045 1.855,1.955 3.761,2.669c4.195,1.574 9.202,4.709 10.264,7.929c1.454,4.403 -3.548,8.671 -8.947,11.398Z" style="fill:#f0fff4;"/>
            <path d="M16.061,2.844c1.862,-0.512 4.367,-0.844 7.816,-0.844c3.449,0 6.935,1.353 8.477,2.559c2.502,1.956 2.203,4.047 -0.173,5.423c-1.42,0.822 -1.123,4.657 -3.181,4.657c-2.479,-0 -1.57,-4.819 -4.049,-4.819c-2.467,-0 -1.963,2.666 -4.182,2.319c-2.21,-0.346 -1.837,-5.503 -3.769,-5.503c-1.61,0 -2.558,-0.549 -2.803,-1.44c-0.253,-0.921 0.468,-1.968 1.864,-2.352Z" style="fill:#4fe64c;"/>
        </g>
    </g>
</svg>
