<?xml version="1.0" encoding="UTF-8" standalone="no"?>
<!DOCTYPE svg PUBLIC "-//W3C//DTD SVG 1.1//EN" "http://www.w3.org/Graphics/SVG/1.1/DTD/svg11.dtd">
<svg width="100%" height="100%" viewBox="0 0 40 40" version="1.1" xmlns="http://www.w3.org/2000/svg" xmlns:xlink="http://www.w3.org/1999/xlink" xml:space="preserve" xmlns:serif="http://www.serif.com/" style="fill-rule:evenodd;clip-rule:evenodd;stroke-linecap:round;stroke-linejoin:round;stroke-miterlimit:1.5;">
    <rect id="ash_thinking" x="0" y="0" width="40" height="40" style="fill:none;"/>
    <g id="outline">
        <path d="M14.348,28.477c-0.083,3.995 -1.809,7.14 -3.348,7.412c-1.929,0.341 -4.408,-0.658 -5.5,-5.495c-1.092,-4.838 -0.886,-12.394 1.5,-19.277c1.74,-5.019 6.79,-6.503 9.398,-6.938c0.585,-0.385 1.032,-0.572 1.27,-0.658c0.129,-0.035 0.266,-0.028 0.392,0.019l1.252,0.469c0.822,-0.528 1.688,-1.009 1.688,-1.009c0,0 0.908,0.047 2.495,0.863c0.234,0.121 0.439,0.259 0.624,0.411c2.711,0.54 7.25,2.138 8.881,6.843c2.386,6.883 2.592,14.439 1.5,19.277c-1.092,4.837 -3.571,5.836 -5.5,5.495c-2.168,-0.383 -4.708,-6.47 -2.5,-12.598c0.361,-1.002 0.672,-1.916 0.932,-2.758l-0.478,0.467c-1.577,1.735 -3.987,3 -6.954,3c-0.411,-0 -0.812,-0.024 -1.201,-0.071c-0.047,0.074 -0.102,0.142 -0.165,0.205c-0.235,0.234 -0.552,0.366 -0.884,0.366l-2.75,0l-0,2.5c0,0.53 -0.211,1.039 -0.586,1.414c-0.021,0.022 -0.044,0.043 -0.066,0.063Z" style="stroke:#000;stroke-width:4px;"/>
    </g>
    <g id="down-ears" serif:id="down ears">
        <path d="M14.268,29.719c-0.367,3.388 -1.892,5.927 -3.268,6.17c-1.929,0.341 -4.408,-0.658 -5.5,-5.495c-1.092,-4.838 -0.886,-12.394 1.5,-19.277c0.645,-1.862 1.746,-3.238 3.009,-4.253c-0.003,0.024 1.918,1.31 1.991,3.136c0.095,2.385 -1.309,5.692 -1.097,8.318c-0.346,-0.206 2.972,11.584 3.365,11.401Zm15.723,-22.855c1.263,1.015 2.364,2.391 3.009,4.253c2.386,6.883 2.592,14.439 1.5,19.277c-1.092,4.837 -3.571,5.836 -5.5,5.495c-2.168,-0.383 -4.708,-6.47 -2.5,-12.598c0.087,-0.242 0.172,-0.479 0.253,-0.711c0.092,-0.077 1.879,-1.857 2.247,-3.58c0.572,-2.679 -1.103,-6.389 -1,-9c0.072,-1.819 1.995,-3.104 1.991,-3.136Z" style="fill:none;stroke:#000;stroke-width:4px;"/>
        <path d="M14.268,29.719c-0.367,3.388 -1.892,5.927 -3.268,6.17c-1.929,0.341 -4.408,-0.658 -5.5,-5.495c-1.092,-4.838 -0.886,-12.394 1.5,-19.277c0.645,-1.862 1.746,-3.238 3.009,-4.253c-0.003,0.024 1.918,1.31 1.991,3.136c0.095,2.385 -1.309,5.692 -1.097,8.318c-0.346,-0.206 2.972,11.584 3.365,11.401Zm15.723,-22.855c1.263,1.015 2.364,2.391 3.009,4.253c2.386,6.883 2.592,14.439 1.5,19.277c-1.092,4.837 -3.571,5.836 -5.5,5.495c-2.168,-0.383 -4.708,-6.47 -2.5,-12.598c0.087,-0.242 0.172,-0.479 0.253,-0.711c0.092,-0.077 1.879,-1.857 2.247,-3.58c0.572,-2.679 -1.103,-6.389 -1,-9c0.072,-1.819 1.995,-3.104 1.991,-3.136Z" style="fill:#f0fff4;"/>
        <path d="M9.5,27.5c0,0 -0.187,2.5 1,2.5c1.187,0 1,-1.5 1,-1.5" style="fill:none;stroke:#19a116;stroke-width:1px;"/>
        <path d="M29.5,22.5c0,0 0.127,1 1,1c0.873,0 1,-2 1,-2" style="fill:none;stroke:#19a116;stroke-width:1px;"/>
        <path d="M16,5l0,3c0,0 -1.971,0.875 -3.373,3.296c-3.021,5.219 -0.828,6.944 0.319,13.187c1.147,6.243 -1.083,8.855 -2.102,8.855c-1.02,0 -2.033,-0.145 -3.562,-3.648c-1.529,-3.504 -1.103,-8.004 -0.473,-12.759c0.337,-2.55 1.676,-6.901 3.381,-8.748c2.544,-2.757 5.81,-3.183 5.81,-3.183Zm8,0c0,0 3.266,0.426 5.81,3.183c1.705,1.847 3.044,6.198 3.381,8.748c0.63,4.755 1.056,9.255 -0.473,12.759c-1.529,3.503 -2.542,3.648 -3.562,3.648c-1.019,0 -3.249,-2.612 -2.102,-8.855c1.147,-6.243 3.34,-7.968 0.319,-13.187c-1.402,-2.421 -3.373,-3.296 -3.373,-3.296l0,-3Z" style="fill:#4fe64c;"/>
        <path d="M14.268,29.719c-0.393,0.183 -0.826,0.281 -1.268,0.281l-3.5,0c-1.105,-0 -2,-0.895 -2,-2l0,-7.75c0,-1.243 1.007,-2.25 2.25,-2.25c0.409,-0 0.807,0.112 1.153,0.318c0.019,0.233 0.051,0.461 0.097,0.682c0.424,2.018 2.147,3.496 2.247,3.58c0.081,0.232 0.166,0.469 0.253,0.711c0.807,2.241 0.98,4.475 0.768,6.428Z" style="fill:#628f6e;"/>
        <path d="M13.247,22.58c-0.33,-0.279 -0.637,-0.575 -0.92,-0.884l-1.426,-1.394c-0.266,-0.26 -0.597,-0.445 -0.958,-0.536l-1.186,-0.296c-0.434,-0.108 -0.757,-0.502 -0.757,-0.97c-0,-0.22 0.071,-0.423 0.192,-0.589l0.225,-0.316c0.036,-0.05 0.073,-0.099 0.111,-0.147c-1.53,-1.182 -1.526,-2.38 -1.526,-2.38c-0.013,-0.2 0.033,-0.397 0.132,-0.568c-0.085,-0.147 -0.134,-0.318 -0.134,-0.5c0,-0.239 0.084,-0.459 0.224,-0.631l0.212,-0.265c0.64,-0.8 1.459,-1.412 2.372,-1.801c-0.038,-0.062 -0.075,-0.124 -0.11,-0.188l-0.07,-0.126c-0.082,-0.144 -0.128,-0.311 -0.128,-0.489c0,-0.179 0.047,-0.348 0.13,-0.493c-0.027,-0.059 -0.044,-0.099 -0.052,-0.118c-0.006,-0.017 -0.011,-0.029 -0.013,-0.035c-0.039,-0.103 -0.062,-0.213 -0.065,-0.329c-0.013,-0.542 0.408,-0.997 0.95,-1.024c0,0 0.03,-0.002 0.086,-0.007c-0.451,-0.703 -0.528,-1.369 -0.528,-1.369c-0.011,-0.088 -0.01,-0.176 0.001,-0.261c3.407,-2.74 7.991,-2.864 7.991,-2.864l0,3.044c0,-0 -3.988,0.835 -5.5,4.073c-1.453,3.109 -1.229,5.824 0.747,11.463Zm13.506,0c1.976,-5.639 2.2,-8.354 0.747,-11.463c-1.512,-3.238 -5.5,-4.073 -5.5,-4.073l0,-3.044c0,-0 4.584,0.124 7.991,2.864c0.015,0.108 0.012,0.219 -0.01,0.33c0,-0 -0.116,0.61 -0.558,1.295c0.082,0.009 0.127,0.012 0.127,0.012c0.529,0.026 0.95,0.464 0.95,0.999c0,0.182 -0.049,0.353 -0.134,0.5c0.085,0.147 0.134,0.318 0.134,0.5c0,0.178 -0.046,0.345 -0.128,0.489l-0.07,0.126c-0.035,0.064 -0.072,0.126 -0.11,0.188c0.913,0.389 1.732,1.001 2.372,1.801c0.002,0.003 0.212,0.265 0.212,0.265c0.026,0.033 0.05,0.066 0.071,0.1c0.028,0.044 0.052,0.09 0.072,0.136c0.052,0.121 0.081,0.255 0.081,0.395c0,0.182 -0.049,0.353 -0.134,0.5c0.099,0.171 0.145,0.368 0.132,0.568c-0,0 0.004,1.198 -1.526,2.38c0.038,0.048 0.075,0.097 0.111,0.147c0.002,0.003 0.225,0.316 0.225,0.316c0.032,0.044 0.059,0.088 0.082,0.132c0.017,0.033 0.032,0.066 0.044,0.1c0.043,0.111 0.066,0.231 0.066,0.357c0,0.468 -0.323,0.862 -0.757,0.97l-1.186,0.296c-0.361,0.091 -0.692,0.276 -0.958,0.536c-0,0 -1.402,1.37 -1.414,1.381c-0.287,0.314 -0.598,0.615 -0.932,0.897Z" style="fill:#628f6e;"/>
    </g>
    <path d="M10.5,9.5c0,-0 1.45,-0.073 3.047,-0.906c1.469,-0.768 2.453,-1.594 2.453,-1.594l2,-0l0,6c0,-0 -4.087,0.192 -5.606,-1.153c-1.518,-1.345 -1.894,-2.347 -1.894,-2.347Zm19,-0c0,-0 -0.376,1.002 -1.894,2.347c-1.519,1.345 -5.606,1.153 -5.606,1.153l0,-6l2,-0c0,-0 0.984,0.826 2.453,1.594c1.597,0.833 3.047,0.906 3.047,0.906Z" style="fill:#4fe64c;"/>
    <g>
        <path id="head" d="M28.3,10.497c0.046,0.002 0.092,0.003 0.139,0.003l1.061,-0l-0.072,0.13c-0.281,0.505 -0.686,0.917 -1.166,1.205c1.367,0.125 2.644,0.798 3.521,1.894l0.217,0.271c0,-0 -0.601,0.526 -1.434,1l1.434,-0c0,-0 -0.072,1.052 -1.663,2.013c-0.179,0.108 -0.36,0.205 -0.54,0.29c0.379,0.214 0.712,0.51 0.972,0.874l0.231,0.323l-1.185,0.296c-0.534,0.134 -1.022,0.407 -1.415,0.791l-1.446,1.413c-1.577,1.735 -3.987,3 -6.954,3c-0.043,-0 -0.086,-0 -0.128,-0.001c0.084,-0.238 -6.826,-2.999 -6.826,-2.999l-1.065,-1.041c-0.064,-0.489 -0.613,-0.856 -0.998,-1.173c-0.584,-0.48 -1.513,-0.773 -1.647,-0.748c0.242,-0.301 0.537,-0.549 0.867,-0.735c-0.18,-0.085 -0.361,-0.182 -0.54,-0.29c-1.591,-0.961 -1.663,-2.013 -1.663,-2.013l1.434,-0c-0.833,-0.474 -1.434,-1 -1.434,-1l0.217,-0.271c0.877,-1.096 2.154,-1.769 3.521,-1.894c-0.48,-0.288 -0.885,-0.7 -1.166,-1.205l-0.072,-0.13l1.061,-0c0.017,-0 0.034,-0 0.05,-0c-0.085,0.264 5.075,-0.274 5.389,-0.5c0.258,1.275 6.412,0.554 7,-0c0.296,0.223 4.345,0.548 4.3,0.497Z" style="fill:#f0fff4;"/>
        <path id="head1" serif:id="head" d="M28.3,10.497c0.045,0.051 0.093,0.104 0.144,0.158c0.122,0.127 0.168,0.31 0.12,0.48c-0.048,0.17 -0.182,0.303 -0.353,0.348c0,0 -2.161,0.562 -3.808,-0.213c-0.39,-0.183 -0.73,-0.393 -1.025,-0.616c-0.589,0.554 -1.181,0.806 -1.181,0.806c-0.061,0.026 -0.128,0.04 -0.197,0.04c-0.066,-0 -0.129,-0.013 -0.186,-0.036c-0.086,0.11 -0.177,0.217 -0.269,0.319c-0.591,0.652 -1.255,1.124 -1.255,1.124c-0.125,0.089 -0.284,0.116 -0.432,0.072c-0.147,-0.043 -0.267,-0.152 -0.323,-0.295c-0,-0 -0.116,-0.294 -0.295,-0.741c-0.23,0.267 -0.4,0.424 -0.4,0.424c-0.171,0.158 -0.429,0.178 -0.622,0.046c0,0 -0.896,-0.594 -1.153,-1.869c-0.315,0.226 -0.685,0.456 -1.109,0.663c-1.91,0.931 -4.101,0.271 -4.101,0.271c-0.236,-0.071 -0.384,-0.304 -0.35,-0.548c-0,0 0.021,-0.166 0.106,-0.43c0.386,-0.007 0.765,-0.085 1.12,-0.229c2.159,-2.976 5.751,-3.771 7.269,-3.771c1.35,-0 4.98,0.79 7.195,3.74c0.348,0.152 0.723,0.24 1.105,0.257Z" style="fill:#8cc19a;"/>
        <path id="head2" serif:id="head" d="M11.981,19.959l-0.381,-0.372c-0.393,-0.384 -0.881,-0.657 -1.415,-0.791l-1.185,-0.296l0.231,-0.323c0.034,-0.048 0.069,-0.094 0.105,-0.139c0.134,-0.025 0.273,-0.038 0.414,-0.038c0.597,-0 1.169,0.237 1.591,0.659c0.353,0.353 0.576,0.811 0.64,1.3Zm7.891,4.04c-2.909,-0.036 -5.272,-1.289 -6.826,-2.999l4.704,-0c1.243,-0 2.25,1.007 2.25,2.25c0,0.258 -0.044,0.511 -0.128,0.749Z" style="fill:#628f6e;"/>
    </g>
    <path id="front-hair" serif:id="front hair" d="M21.984,10.088c-0.258,1.182 -1.984,2.412 -1.984,2.412c0,0 -0.272,-0.689 -0.623,-1.565c-0.417,0.638 -0.877,1.065 -0.877,1.065c0,0 -0.934,-0.637 -1,-2c-0.008,-0.165 -0.008,-0.318 -0.002,-0.459c-0.379,0.358 -0.968,0.83 -1.761,1.216c-1.74,0.848 -3.737,0.243 -3.737,0.243c0,0 0.144,-1.023 1.103,-1.957c-0.015,-0.003 -0.029,-0.005 -0.044,-0.008c-1.846,-0.34 -2.059,-2.035 -2.059,-2.035c0,-0 1.241,0.167 2.452,-0.469c1.469,-0.771 1.356,-1.167 2.431,-1.986c0.838,-0.64 1.481,-0.914 1.785,-1.024c0.129,-0.035 0.266,-0.028 0.392,0.019l1.252,0.469c0.822,-0.528 1.688,-1.009 1.688,-1.009c0,-0 0.908,0.047 2.495,0.863c1.592,0.819 1.867,2.499 3.25,3.051c1.195,0.477 2.255,0.086 2.255,0.086c0,0 -0.3,1.52 -1.848,2.12c-0.017,0.007 -0.034,0.013 -0.05,0.019c0.081,0.331 0.157,0.686 0.398,1.103c0.134,0.231 0.318,0.482 0.582,0.758c0,0 -1.967,0.523 -3.466,-0.182c-0.518,-0.244 -0.94,-0.539 -1.281,-0.846c-0.593,0.71 -1.335,1.028 -1.335,1.028c0,0 0.016,-0.418 -0.016,-0.912Z" style="fill:none;"/>
    <g id="face">
        <ellipse cx="15.5" cy="13.5" rx="2.5" ry="3" style="fill:none;stroke:#8cc19a;stroke-width:1.5px;stroke-linecap:butt;stroke-miterlimit:2;"/>
        <ellipse cx="15.5" cy="13.5" rx="2.5" ry="3" style="fill:#fff;"/>
        <clipPath id="_clip1">
            <ellipse cx="15.5" cy="13.5" rx="2.5" ry="3"/>
        </clipPath>
        <g clip-path="url(#_clip1)">
            <ellipse cx="14.25" cy="12.75" rx="1.25" ry="1.75" style="fill:#19562f;"/>
        </g>
        <path d="M26.965,13l-4.93,0c-0.023,0.163 -0.035,0.33 -0.035,0.5c-0,1.656 1.12,3 2.5,3c1.38,0 2.5,-1.344 2.5,-3c-0,-0.17 -0.012,-0.337 -0.035,-0.5Z" style="fill:none;stroke:#8cc19a;stroke-width:1.5px;stroke-linecap:butt;stroke-miterlimit:2;"/>
        <path d="M26.965,13l-4.93,0c-0.023,0.163 -0.035,0.33 -0.035,0.5c-0,1.656 1.12,3 2.5,3c1.38,0 2.5,-1.344 2.5,-3c-0,-0.17 -0.012,-0.337 -0.035,-0.5Z" style="fill:#fff;"/>
        <clipPath id="_clip2">
            <path d="M26.965,13l-4.93,0c-0.023,0.163 -0.035,0.33 -0.035,0.5c-0,1.656 1.12,3 2.5,3c1.38,0 2.5,-1.344 2.5,-3c-0,-0.17 -0.012,-0.337 -0.035,-0.5Z"/>
        </clipPath>
        <g clip-path="url(#_clip2)">
            <ellipse cx="23.25" cy="12.75" rx="1.25" ry="1.75" style="fill:#19562f;"/>
        </g>
        <path d="M15,18l3,-2.5l4,0l3,2.5l0,2l-10,0l0,-2" style="fill:#f0fff4;"/>
        <path d="M17,20c-0,0 0.89,-0.445 1.7,-0.85c0.818,-0.409 1.782,-0.409 2.6,-0c0.81,0.405 1.7,0.85 1.7,0.85" style="fill:none;stroke:#466b50;stroke-width:1.2px;"/>
        <path d="M16,17c0.479,-0.995 1.272,-2 4,-2" style="fill:none;stroke:#7da080;stroke-width:1px;"/>
        <path d="M24,17c-0.479,-0.995 -1.272,-2 -4,-2" style="fill:none;stroke:#7da080;stroke-width:1px;"/>
    </g>
    <g id="front-hair1" serif:id="front hair">
        <path id="front-hair2" serif:id="front hair" d="M15.949,10.65c-0.069,0.036 -0.139,0.072 -0.212,0.107c-1.74,0.848 -3.737,0.243 -3.737,0.243c0,-0 0.144,-1.023 1.103,-1.957c-0.015,-0.003 -0.029,-0.005 -0.044,-0.008c-1.846,-0.34 -2.059,-2.035 -2.059,-2.035c0,-0 1.241,0.167 2.452,-0.469c0.004,-0.002 0.008,-0.004 0.012,-0.006c-0.23,0.452 1.536,1.475 1.536,1.475c-0.541,0.718 -0.015,2.665 0.949,2.65Zm8.48,0.076c0.932,0.054 2.507,-2.111 2.571,-2.726c0,-0.949 0.634,-0.659 0.474,-0.888c0.866,0.132 1.526,-0.112 1.526,-0.112c0,-0 -0.3,1.52 -1.848,2.12c-0.017,0.007 -0.034,0.013 -0.05,0.019c0.081,0.331 0.157,0.686 0.398,1.103c0.134,0.231 0.318,0.482 0.582,0.758c0,-0 -1.967,0.523 -3.466,-0.182c-0.064,-0.03 -0.126,-0.061 -0.187,-0.092Zm-3.429,-1.726c0,-0 0.572,1.576 0.961,1.177c-0.321,1.154 -1.961,2.323 -1.961,2.323c0,-0 -0.272,-0.689 -0.623,-1.565c-0.417,0.638 -0.877,1.065 -0.877,1.065c0,-0 -0.934,-0.637 -1,-2c-0.007,-0.134 -0.008,-0.26 -0.005,-0.379c0.104,0.317 0.724,-0.454 1.505,-0.621c0.619,-0.132 1.872,0.202 2,-0Z" style="fill:#4fe64c;"/>
        <path id="front-hair3" serif:id="front hair" d="M13.464,6.525c1.456,-0.767 1.347,-1.163 2.419,-1.98c0.838,-0.64 1.481,-0.914 1.785,-1.024c0.129,-0.035 0.266,-0.028 0.392,0.019l1.252,0.469c0.822,-0.528 1.688,-1.009 1.688,-1.009c0,-0 0.908,0.047 2.495,0.863c1.592,0.819 1.867,2.499 3.25,3.051c0.252,0.101 0.498,0.163 0.729,0.198c0.16,0.229 0.396,0.381 0.834,0.428c-0.113,0.507 -0.641,0.915 -1.237,1.448l-0.186,-0.27c-0.064,0.615 0.037,1.544 0.257,1.952c-0.88,0.141 -1.781,0.11 -2.713,0.056c-0.433,-0.224 -0.794,-0.485 -1.094,-0.754c-0.593,0.71 -1.335,1.028 -1.335,1.028c0,-0 0.016,-0.418 -0.016,-0.912c-0.007,0.029 -0.014,0.059 -0.023,0.089c-0.389,0.399 -0.916,0.637 -1.493,0.732c-0.228,-0.362 -0.371,-0.682 -0.359,-0.994l0.444,-0.726c-0.29,0.456 -1.421,1.405 -2.001,1.567c-0.446,-0.341 -0.87,-0.567 -1.057,-1.135c0.001,-0.027 0.002,-0.054 0.003,-0.08c-0.344,0.325 -0.863,0.745 -1.549,1.109c-0.964,0.015 -1.983,-0.091 -2.963,-0.331c0.059,-0.762 0.38,-1.204 0.921,-1.923l-0.384,0.316c-0.006,-0.005 -0.014,-0.01 -0.023,-0.014c-0.619,-0.294 -1.121,-0.654 -1.457,-1.109c0.762,-0.239 1.191,-0.612 1.421,-1.064Z" style="fill:#27372d;"/>
        <path id="front-hair4" serif:id="front hair" d="M15.949,10.65c-0.069,0.036 -0.139,0.072 -0.212,0.107c-1.74,0.848 -3.737,0.243 -3.737,0.243c0,-0 0.144,-1.023 1.103,-1.957c-0.015,-0.003 -0.029,-0.005 -0.044,-0.008c-1.846,-0.34 -2.059,-2.035 -2.059,-2.035c0,-0 1.241,0.167 2.452,-0.469c0.004,-0.002 0.008,-0.004 0.012,-0.006c-0.23,0.452 -0.659,0.825 -1.421,1.064c0.336,0.455 0.838,0.815 1.457,1.109c0.009,0.004 0.017,0.009 0.023,0.014l0.384,-0.316c-0.541,0.719 -0.862,1.161 -0.921,1.923c0.98,0.24 1.999,0.346 2.963,0.331Zm8.48,0.076c0.932,0.054 1.833,0.085 2.713,-0.056c-0.22,-0.408 -0.321,-1.337 -0.257,-1.952l0.186,0.27c0.596,-0.533 1.124,-0.941 1.237,-1.448c-0.438,-0.047 -0.674,-0.199 -0.834,-0.428c0.866,0.132 1.526,-0.112 1.526,-0.112c0,-0 -0.3,1.52 -1.848,2.12c-0.017,0.007 -0.034,0.013 -0.05,0.019c0.081,0.331 0.157,0.686 0.398,1.103c0.134,0.231 0.318,0.482 0.582,0.758c0,-0 -1.967,0.523 -3.466,-0.182c-0.064,-0.03 -0.126,-0.061 -0.187,-0.092Zm-3.876,-1.537l-0.444,0.726c-0.012,0.312 0.131,0.632 0.359,0.994c0.577,-0.095 1.104,-0.333 1.493,-0.732c-0.321,1.154 -1.961,2.323 -1.961,2.323c0,-0 -0.272,-0.689 -0.623,-1.565c-0.417,0.638 -0.877,1.065 -0.877,1.065c0,-0 -0.934,-0.637 -1,-2c-0.007,-0.134 -0.008,-0.26 -0.005,-0.379c0.187,0.568 0.611,0.794 1.057,1.135c0.58,-0.162 1.711,-1.111 2.001,-1.567Zm-3.067,-4.093c-0.062,0.559 -0.343,1.062 -0.926,1.561c0.391,0.301 0.779,0.516 1.123,0.652c0.142,0.057 0.15,0.2 -0.064,0.213c-0.194,0.012 -0.44,0.004 -0.743,-0.044c-0.988,-0.155 -1.601,-0.986 -1.601,-0.986c0,-0 0.731,-0.112 1.338,-0.542c0.386,-0.272 0.686,-0.612 0.873,-0.854Zm3.966,1.77c0.42,0.118 0.826,0.315 1.186,0.749c0.473,-0.602 0.711,-1.158 0.775,-1.57c0.067,0.166 0.166,0.558 0.049,1.263c-0.165,0.986 -0.924,1.483 -0.924,1.483c-0,0 -0.228,-0.748 -0.652,-1.36c-0.159,-0.229 -0.307,-0.417 -0.434,-0.565Z" style="fill:#4fe64c;"/>
    </g>
    <path d="M15.887,5.815c1.353,0.095 2.131,0.667 2.113,1.771c-0.019,1.104 -0.942,1.459 -2.411,1.41c-1.553,-0.052 -2.258,-0.818 -2.125,-1.83c0.133,-1.013 1.536,-1.413 2.423,-1.351Zm8.226,2.5c0.887,-0.062 2.29,0.338 2.423,1.351c0.133,1.012 -0.572,1.778 -2.125,1.83c-1.469,0.049 -2.392,-0.306 -2.411,-1.41c-0.018,-1.104 0.76,-1.676 2.113,-1.771Z" style="fill:#475247;"/>
    <path d="M8.5,28c0,0.552 0.448,1 1,1c0.929,0 2.34,0 3.5,0c0.53,0 1.039,-0.211 1.414,-0.586c0.375,-0.375 0.586,-0.884 0.586,-1.414l0,-2.5l2.75,0c0.332,0 0.649,-0.132 0.884,-0.366c0.234,-0.235 0.366,-0.552 0.366,-0.884c-0,-0.69 -0.56,-1.25 -1.25,-1.25l-6.75,0l0,-1.75c0,-0.332 -0.132,-0.649 -0.366,-0.884c-0.235,-0.234 -0.552,-0.366 -0.884,-0.366c-0.69,0 -1.25,0.56 -1.25,1.25c0,2.008 0,5.914 -0,7.75Z" style="fill:#f0fff4;"/>
</svg>
