<svg xmlns="http://www.w3.org/2000/svg" xml:space="preserve" style="fill-rule:evenodd;clip-rule:evenodd;stroke-linecap:round;stroke-linejoin:round;stroke-miterlimit:1.5" viewBox="0 0 40 40"><path d="M0 0h40v40H0z" style="fill:none"/><path d="M14.348 28.477c-.083 3.995-1.809 7.14-3.348 7.412-1.929.341-4.408-.658-5.5-5.495C4.408 25.556 4.614 18 7 11.117c1.74-5.019 6.79-6.503 9.398-6.938a6 6 0 0 1 1.27-.658.64.64 0 0 1 .392.019l1.252.469C20.134 3.481 21 3 21 3s.908.047 2.495.863c.234.121.439.259.624.411 2.711.54 7.25 2.138 8.881 6.843 2.386 6.883 2.592 14.439 1.5 19.277-1.092 4.837-3.571 5.836-5.5 5.495-2.168-.383-4.708-6.47-2.5-12.598.361-1.002.672-1.916.932-2.758l-.478.467c-1.577 1.735-3.987 3-6.954 3q-.617 0-1.201-.071a1.252 1.252 0 0 1-1.049.571H15V27a2 2 0 0 1-.652 1.477" style="stroke:#000;stroke-width:4px"/><path d="M14.268 29.719c-.367 3.388-1.892 5.927-3.268 6.17-1.929.341-4.408-.658-5.5-5.495C4.408 25.556 4.614 18 7 11.117a9.27 9.27 0 0 1 3.009-4.253C10.006 6.888 11.927 8.174 12 10c.095 2.385-1.309 5.692-1.097 8.318-.346-.206 2.972 11.584 3.365 11.401M29.991 6.864A9.27 9.27 0 0 1 33 11.117c2.386 6.883 2.592 14.439 1.5 19.277-1.092 4.837-3.571 5.836-5.5 5.495-2.168-.383-4.708-6.47-2.5-12.598q.131-.363.253-.711c.092-.077 1.879-1.857 2.247-3.58.572-2.679-1.103-6.389-1-9 .072-1.819 1.995-3.104 1.991-3.136" style="fill:none;stroke:#000;stroke-width:4px"/><path d="M14.268 29.719c-.367 3.388-1.892 5.927-3.268 6.17-1.929.341-4.408-.658-5.5-5.495C4.408 25.556 4.614 18 7 11.117a9.27 9.27 0 0 1 3.009-4.253C10.006 6.888 11.927 8.174 12 10c.095 2.385-1.309 5.692-1.097 8.318-.346-.206 2.972 11.584 3.365 11.401M29.991 6.864A9.27 9.27 0 0 1 33 11.117c2.386 6.883 2.592 14.439 1.5 19.277-1.092 4.837-3.571 5.836-5.5 5.495-2.168-.383-4.708-6.47-2.5-12.598q.131-.363.253-.711c.092-.077 1.879-1.857 2.247-3.58.572-2.679-1.103-6.389-1-9 .072-1.819 1.995-3.104 1.991-3.136" style="fill:#f0fff4"/><path d="M9.5 27.5s-.187 2.5 1 2.5 1-1.5 1-1.5M29.5 22.5s.127 1 1 1 1-2 1-2" style="fill:none;stroke:#19a116;stroke-width:1px"/><path d="M16 5v3s-1.971.875-3.373 3.296c-3.021 5.219-.828 6.944.319 13.187s-1.083 8.855-2.102 8.855c-1.02 0-2.033-.145-3.562-3.648s-1.103-8.004-.473-12.759c.337-2.55 1.676-6.901 3.381-8.748C12.734 5.426 16 5 16 5m8 0s3.266.426 5.81 3.183c1.705 1.847 3.044 6.198 3.381 8.748.63 4.755 1.056 9.255-.473 12.759s-2.542 3.648-3.562 3.648c-1.019 0-3.249-2.612-2.102-8.855s3.34-7.968.319-13.187C25.971 8.875 24 8 24 8z" style="fill:#4fe64c"/><path d="M14.268 29.719A3 3 0 0 1 13 30H9.5a2 2 0 0 1-2-2v-7.75a2.25 2.25 0 0 1 3.403-1.932q.028.35.097.682c.424 2.018 2.147 3.496 2.247 3.58q.122.348.253.711c.807 2.241.98 4.475.768 6.428" style="fill:#628f6e"/><path d="M13.247 22.58q-.495-.42-.92-.884l-1.426-1.394a2.1 2.1 0 0 0-.958-.536l-1.186-.296a1 1 0 0 1-.565-1.559l.225-.316q.054-.075.111-.147c-1.53-1.182-1.526-2.38-1.526-2.38-.013-.2.033-.397.132-.568a1 1 0 0 1 .09-1.131l.212-.265a6.1 6.1 0 0 1 2.372-1.801 4 4 0 0 1-.11-.188l-.07-.126a.99.99 0 0 1 .002-.982l-.052-.118-.013-.035a.998.998 0 0 1 .885-1.353l.086-.007c-.451-.703-.528-1.369-.528-1.369a1 1 0 0 1 .001-.261C13.416 4.124 18 4 18 4v3.044s-3.988.835-5.5 4.073c-1.453 3.109-1.229 5.824.747 11.463m13.506 0c1.976-5.639 2.2-8.354.747-11.463C25.988 7.879 22 7.044 22 7.044V4s4.584.124 7.991 2.864a1 1 0 0 1-.01.33s-.116.61-.558 1.295q.125.013.127.012A1 1 0 0 1 30.366 10a1 1 0 0 1 .006.989l-.07.126a4 4 0 0 1-.11.188 6.1 6.1 0 0 1 2.372 1.801l.212.265a1 1 0 0 1 .143.236 1 1 0 0 1-.053.895c.099.171.145.368.132.568 0 0 .004 1.198-1.526 2.38q.057.072.111.147l.225.316a1 1 0 0 1 .126.232 1.001 1.001 0 0 1-.691 1.327l-1.186.296a2.1 2.1 0 0 0-.958.536l-1.414 1.381q-.43.472-.932.897" style="fill:#628f6e"/><path d="M10.5 9.5s1.45-.073 3.047-.906A15 15 0 0 0 16 7h2v6s-4.087.192-5.606-1.153C10.876 10.502 10.5 9.5 10.5 9.5m19 0s-.376 1.002-1.894 2.347C26.087 13.192 22 13 22 13V7h2s.984.826 2.453 1.594c1.597.833 3.047.906 3.047.906" style="fill:#4fe64c"/><path d="M28.3 10.497q.069.003.139.003H29.5l-.072.13a3.24 3.24 0 0 1-1.166 1.205 5.1 5.1 0 0 1 3.521 1.894L32 14s-.601.526-1.434 1H32s-.072 1.052-1.663 2.013q-.27.162-.54.29c.379.214.712.51.972.874L31 18.5l-1.185.296a3.1 3.1 0 0 0-1.415.791L26.954 21c-1.577 1.735-3.987 3-6.954 3l-.128-.001c.084-.238-6.826-2.999-6.826-2.999l-1.065-1.041c-.064-.489-.613-.856-.998-1.173-.584-.48-1.513-.773-1.647-.748.242-.301.537-.549.867-.735a6 6 0 0 1-.54-.29C8.072 16.052 8 15 8 15h1.434C8.601 14.526 8 14 8 14l.217-.271a5.1 5.1 0 0 1 3.521-1.894c-.48-.288-.885-.7-1.166-1.205l-.072-.13h1.111c-.085.264 5.075-.274 5.389-.5.258 1.275 6.412.554 7 0 .296.223 4.345.548 4.3.497" style="fill:#f0fff4"/><path d="M28.3 10.497q.068.077.144.158a.498.498 0 0 1-.233.828s-2.161.562-3.808-.213a5.7 5.7 0 0 1-1.025-.616c-.589.554-1.181.806-1.181.806a.5.5 0 0 1-.383.004q-.13.166-.269.319c-.591.652-1.255 1.124-1.255 1.124a.5.5 0 0 1-.755-.223l-.295-.741c-.23.267-.4.424-.4.424a.5.5 0 0 1-.622.046s-.896-.594-1.153-1.869a7.7 7.7 0 0 1-1.109.663c-1.91.931-4.101.271-4.101.271a.5.5 0 0 1-.35-.548s.021-.166.106-.43a3.1 3.1 0 0 0 1.12-.229C14.89 7.295 18.482 6.5 20 6.5c1.35 0 4.98.79 7.195 3.74.348.152.723.24 1.105.257" style="fill:#8cc19a"/><path d="m11.981 19.959-.381-.372a3.1 3.1 0 0 0-1.415-.791L9 18.5l.231-.323q.051-.072.105-.139a2.26 2.26 0 0 1 2.005.621c.353.353.576.811.64 1.3m7.891 4.04C16.963 23.963 14.6 22.71 13.046 21h4.704a2.25 2.25 0 0 1 2.122 2.999" style="fill:#628f6e"/><path d="M21.984 10.088C21.726 11.27 20 12.5 20 12.5s-.272-.689-.623-1.565A6.3 6.3 0 0 1 18.5 12s-.934-.637-1-2a5 5 0 0 1-.002-.459c-.379.358-.968.83-1.761 1.216C13.997 11.605 12 11 12 11s.144-1.023 1.103-1.957l-.044-.008C11.213 8.695 11 7 11 7s1.241.167 2.452-.469c1.469-.771 1.356-1.167 2.431-1.986.838-.64 1.481-.914 1.785-1.024a.64.64 0 0 1 .392.019l1.252.469C20.134 3.481 21 3 21 3s.908.047 2.495.863c1.592.819 1.867 2.499 3.25 3.051C27.94 7.391 29 7 29 7s-.3 1.52-1.848 2.12l-.05.019c.081.331.157.686.398 1.103.134.231.318.482.582.758 0 0-1.967.523-3.466-.182a5.3 5.3 0 0 1-1.281-.846C22.742 10.682 22 11 22 11s.016-.418-.016-.912" style="fill:none"/><ellipse cx="15.5" cy="13.5" rx="2.5" ry="3" style="fill:none;stroke:#8cc19a;stroke-width:1.5px;stroke-linecap:butt;stroke-miterlimit:2"/><ellipse cx="15.5" cy="13.5" rx="2.5" ry="3" style="fill:#fff"/><clipPath id="a"><ellipse cx="15.5" cy="13.5" rx="2.5" ry="3"/></clipPath><g clip-path="url(#a)"><ellipse cx="14.25" cy="12.75" rx="1.25" ry="1.75" style="fill:#19562f"/></g><path d="M26.965 13h-4.93q-.035.245-.035.5c0 1.656 1.12 3 2.5 3s2.5-1.344 2.5-3q0-.255-.035-.5Z" style="fill:none;stroke:#8cc19a;stroke-width:1.5px;stroke-linecap:butt;stroke-miterlimit:2"/><path d="M26.965 13h-4.93q-.035.245-.035.5c0 1.656 1.12 3 2.5 3s2.5-1.344 2.5-3q0-.255-.035-.5" style="fill:#fff"/><clipPath id="b"><path d="M26.965 13h-4.93q-.035.245-.035.5c0 1.656 1.12 3 2.5 3s2.5-1.344 2.5-3q0-.255-.035-.5"/></clipPath><g clip-path="url(#b)"><ellipse cx="23.25" cy="12.75" rx="1.25" ry="1.75" style="fill:#19562f"/></g><path d="m15 18 3-2.5h4l3 2.5v2H15z" style="fill:#f0fff4"/><path d="m17 20 1.7-.85a2.9 2.9 0 0 1 2.6 0L23 20" style="fill:none;stroke:#466b50;stroke-width:1.2px"/><path d="M16 17c.479-.995 1.272-2 4-2M24 17c-.479-.995-1.272-2-4-2" style="fill:none;stroke:#7da080;stroke-width:1px"/><path d="M15.949 10.65a7 7 0 0 1-.212.107C13.997 11.605 12 11 12 11s.144-1.023 1.103-1.957l-.044-.008C11.213 8.695 11 7 11 7s1.241.167 2.452-.469l.012-.006C13.234 6.977 15 8 15 8c-.541.718-.015 2.665.949 2.65m8.48.076C25.361 10.78 26.936 8.615 27 8c0-.949.634-.659.474-.888C28.34 7.244 29 7 29 7s-.3 1.52-1.848 2.12l-.05.019c.081.331.157.686.398 1.103.134.231.318.482.582.758 0 0-1.967.523-3.466-.182zM21 9s.572 1.576.961 1.177C21.64 11.331 20 12.5 20 12.5s-.272-.689-.623-1.565A6.3 6.3 0 0 1 18.5 12s-.934-.637-1-2a5 5 0 0 1-.005-.379c.104.317.724-.454 1.505-.621.619-.132 1.872.202 2 0" style="fill:#4fe64c"/><path d="M13.464 6.525c1.456-.767 1.347-1.163 2.419-1.98.838-.64 1.481-.914 1.785-1.024a.64.64 0 0 1 .392.019l1.252.469C20.134 3.481 21 3 21 3s.908.047 2.495.863c1.592.819 1.867 2.499 3.25 3.051.252.101.498.163.729.198.16.229.396.381.834.428-.113.507-.641.915-1.237 1.448l-.186-.27c-.064.615.037 1.544.257 1.952-.88.141-1.781.11-2.713.056a5.2 5.2 0 0 1-1.094-.754C22.742 10.682 22 11 22 11s.016-.418-.016-.912q-.01.044-.023.089c-.389.399-.916.637-1.493.732-.228-.362-.371-.682-.359-.994l.444-.726c-.29.456-1.421 1.405-2.001 1.567-.446-.341-.87-.567-1.057-1.135l.003-.08a7.2 7.2 0 0 1-1.549 1.109 11.8 11.8 0 0 1-2.963-.331c.059-.762.38-1.204.921-1.923l-.384.316-.023-.014c-.619-.294-1.121-.654-1.457-1.109.762-.239 1.191-.612 1.421-1.064" style="fill:#27372d"/><path d="M15.949 10.65a7 7 0 0 1-.212.107C13.997 11.605 12 11 12 11s.144-1.023 1.103-1.957l-.044-.008C11.213 8.695 11 7 11 7s1.241.167 2.452-.469l.012-.006c-.23.452-.659.825-1.421 1.064.336.455.838.815 1.457 1.109l.023.014.384-.316c-.541.719-.862 1.161-.921 1.923.98.24 1.999.346 2.963.331m8.48.076c.932.054 1.833.085 2.713-.056-.22-.408-.321-1.337-.257-1.952l.186.27c.596-.533 1.124-.941 1.237-1.448-.438-.047-.674-.199-.834-.428C28.34 7.244 29 7 29 7s-.3 1.52-1.848 2.12l-.05.019c.081.331.157.686.398 1.103.134.231.318.482.582.758 0 0-1.967.523-3.466-.182zm-3.876-1.537-.444.726c-.012.312.131.632.359.994.577-.095 1.104-.333 1.493-.732C21.64 11.331 20 12.5 20 12.5s-.272-.689-.623-1.565A6.3 6.3 0 0 1 18.5 12s-.934-.637-1-2a5 5 0 0 1-.005-.379c.187.568.611.794 1.057 1.135.58-.162 1.711-1.111 2.001-1.567m-3.067-4.093c-.062.559-.343 1.062-.926 1.561.391.301.779.516 1.123.652.142.057.15.2-.064.213a3.4 3.4 0 0 1-.743-.044c-.988-.155-1.601-.986-1.601-.986s.731-.112 1.338-.542c.386-.272.686-.612.873-.854m3.966 1.77c.42.118.826.315 1.186.749.473-.602.711-1.158.775-1.57.067.166.166.558.049 1.263-.165.986-.924 1.483-.924 1.483s-.228-.748-.652-1.36a7 7 0 0 0-.434-.565" style="fill:#4fe64c"/><path d="M15.887 5.815c1.353.095 2.131.667 2.113 1.771-.019 1.104-.942 1.459-2.411 1.41-1.553-.052-2.258-.818-2.125-1.83S15 5.753 15.887 5.815m8.226 2.5c.887-.062 2.29.338 2.423 1.351s-.572 1.778-2.125 1.83c-1.469.049-2.392-.306-2.411-1.41-.018-1.104.76-1.676 2.113-1.771" style="fill:#475247"/><path d="M8.5 28a1 1 0 0 0 1 1H13a2 2 0 0 0 2-2v-2.5h2.75A1.25 1.25 0 0 0 19 23.25c0-.69-.56-1.25-1.25-1.25H11v-1.75A1.25 1.25 0 0 0 9.75 19c-.69 0-1.25.56-1.25 1.25z" style="fill:#f0fff4"/></svg>