<svg xmlns="http://www.w3.org/2000/svg" xml:space="preserve" style="fill-rule:evenodd;clip-rule:evenodd;stroke-linecap:round;stroke-linejoin:round;stroke-miterlimit:1.5" viewBox="0 0 40 40"><path d="M0 0h40v40H0z" style="fill:none"/><clipPath id="a"><path d="M0 0h40v40H0z"/></clipPath><g clip-path="url(#a)"><path d="M12.696 18.835c-1.329-3.898-5.244-6.238-5.144-10.631.127-5.612 3.168-8.887 5.361-3.949.812 1.826 1.864 5.04 3.094 8.238a24 24 0 0 0 1.48 3.098l.181-.07a.64.64 0 0 1 .392.019l1.252.469C20.134 15.481 21 15 21 15s.569.03 1.593.447a24 24 0 0 0 1.4-2.954c1.23-3.198 2.282-6.412 3.094-8.238 2.193-4.938 5.234-1.663 5.361 3.949.102 4.479-3.97 6.824-5.218 10.861C28.212 19.291 29 19 29 19s-.268 1.357-1.604 2.013c1.183.441 2.104.487 2.104.487s-.145.386-.617 1h.617l-.072.13a3.24 3.24 0 0 1-1.166 1.205 5.1 5.1 0 0 1 3.521 1.894L32 26s-.601.526-1.434 1H32s-.072 1.052-1.663 2.013q-.27.162-.54.29c.379.214.712.51.972.874L31 30.5l-1.185.296a3.1 3.1 0 0 0-1.415.791l-.591.578c-1.104 1.925-2.928 3.675-5.271 4.435A3.01 3.01 0 0 1 20 38h-.002a3 3 0 0 1-2.537-1.4c-2.342-.76-4.166-2.511-5.27-4.435l-.591-.578a3.1 3.1 0 0 0-1.415-.791L9 30.5l.231-.323c.26-.364.593-.66.972-.874a6 6 0 0 1-.54-.29C8.072 28.052 8 27 8 27h1.434C8.601 26.526 8 26 8 26l.217-.271a5.1 5.1 0 0 1 3.521-1.894c-.48-.288-.885-.7-1.166-1.205l-.072-.13h.617c-.472-.614-.617-1-.617-1s.995-.05 2.243-.54C11.188 20.497 11 19 11 19s.774.104 1.696-.165" style="fill:none;stroke:#000;stroke-width:4px"/><path d="M26.916 20.294C26.067 22.334 21 18 21 18s1.866-2.576 2.993-5.507c1.23-3.198 2.282-6.412 3.094-8.238 1.058-2.382 2.313-2.853 3.343-2.072-.891-.124-3.996 17.844-3.514 18.111M9.57 2.183c1.03-.781 2.285-.31 3.343 2.072.812 1.826 1.864 5.04 3.094 8.238C17.134 15.424 19 18 19 18s-5.067 4.334-5.916 2.294c.482-.267-2.623-18.235-3.514-18.111" style="fill:#f0fff4"/><path d="M26.916 20.294c-.482-.267-.816-.681-.916-1.294-.307-1.885-.587-3.115-.367-6.298.204-2.964 2.142-7.212 2.49-8.401.525-1.795 1.416-2.242 2.307-2.118 1.106.837 1.952 3.116 2.018 6.021.11 4.813-4.602 7.162-5.448 11.796a1.4 1.4 0 0 1-.084.294m-13.832 0A1.4 1.4 0 0 1 13 20c-.846-4.634-5.558-6.983-5.448-11.796.066-2.905.912-5.184 2.018-6.021.891-.124 1.782.323 2.307 2.118.348 1.189 2.286 5.437 2.49 8.401.22 3.183-.06 4.413-.367 6.298-.1.613-.434 1.027-.916 1.294" style="fill:#4fe64c"/><path d="M10.5 10.5s-.187 2.5 1 2.5 1-1.5 1-1.5M28.5 8.5s.127 1 1 1 1-2 1-2" style="fill:none;stroke:#19a116;stroke-width:1px"/><path d="M10.5 21.5s1.45-.073 3.047-.906A15 15 0 0 0 16 19h2v6s-4.087.192-5.606-1.153C10.876 22.502 10.5 21.5 10.5 21.5m19 0s-.376 1.002-1.894 2.347C26.087 25.192 22 25 22 25v-6h2s.984.826 2.453 1.594c1.597.833 3.047.906 3.047.906" style="fill:#4fe64c"/><path d="M28.3 22.497q.069.003.139.003H29.5l-.072.13a3.24 3.24 0 0 1-1.166 1.205 5.1 5.1 0 0 1 3.521 1.894L32 26s-.601.526-1.434 1H32s-.072 1.052-1.663 2.013q-.27.162-.54.29c.379.214.712.51.972.874L31 30.5l-1.185.296a3.1 3.1 0 0 0-1.415.791l-.591.578C26.333 34.739 23.57 37 20 37s-6.333-2.261-7.809-4.835l-.591-.578a3.1 3.1 0 0 0-1.415-.791L9 30.5l.231-.323c.26-.364.593-.66.972-.874a6 6 0 0 1-.54-.29C8.072 28.052 8 27 8 27h1.434C8.601 26.526 8 26 8 26l.217-.271a5.1 5.1 0 0 1 3.521-1.894c-.48-.288-.885-.7-1.166-1.205l-.072-.13h1.111c-.085.264 5.075-.274 5.389-.5.258 1.275 6.61-.183 7 0 1.647.775 4.345.548 4.3.497" style="fill:#f0fff4"/><path d="M28.3 22.497q.068.077.144.158a.498.498 0 0 1-.233.828s-2.161.562-3.808-.213a5.7 5.7 0 0 1-1.025-.616c-.589.554-1.181.806-1.181.806a.5.5 0 0 1-.383.004q-.13.165-.269.319c-.591.652-1.255 1.124-1.255 1.124a.5.5 0 0 1-.755-.223l-.295-.741c-.23.267-.4.424-.4.424a.5.5 0 0 1-.622.046s-.896-.594-1.153-1.869a7.7 7.7 0 0 1-1.109.663c-1.91.931-4.101.271-4.101.271a.5.5 0 0 1-.35-.548s.021-.166.106-.43a3.1 3.1 0 0 0 1.12-.229C14.89 19.295 18.482 18.5 20 18.5c1.35 0 4.98.79 7.195 3.74.348.152.723.24 1.105.257" style="fill:#8cc19a"/><path d="M17.5 26.5c-.607-1.412-2.911-2.275-4.5-.5M22.5 26.5c.607-1.412 2.911-2.275 4.5-.5" style="fill:none;stroke:#000;stroke-width:1.5px"/><path d="M24.642 30.358c.488 1.003.626 2.65-.114 3.787a3.2 3.2 0 0 1-.777.806c-.769-.911-6.733-.911-7.502 0a3.2 3.2 0 0 1-.777-.806c-.74-1.137-.602-2.784-.114-3.787L17 32h2l1-1 1 1h2z"/><path d="M17.027 35.405a4.4 4.4 0 0 1-.778-.454 4 4 0 0 1 .751-.692l1 .743c0 .136-.991.27-.973.403M23 34.259a4 4 0 0 1 .751.692 4.4 4.4 0 0 1-.778.454c.018-.133-.973-.267-.973-.403z" style="fill:#179114"/><path d="M17 35.002v-.743a4.1 4.1 0 0 1 2.375-.759h1.25c.866 0 1.693.274 2.375.759v.743A3 3 0 0 1 20 38h-.002A3 3 0 0 1 17 35.002" style="fill:#4fe64c"/><path d="m14.5 30.333 1-.333c.504 1.574 1.712 2.491 3 2.5L20 31M25.5 30.333l-1-.333c-.504 1.574-1.712 2.491-3 2.5L20 31" style="fill:none;stroke:#466b50;stroke-width:1.2px"/><path d="M16 28.5c.479-.747 1.272-1.5 4-1.5M24 28.5c-.479-.747-1.272-1.5-4-1.5" style="fill:none;stroke:#7da080;stroke-width:1px"/><path d="M15.949 22.65a7 7 0 0 1-.212.107C13.997 23.605 12 23 12 23s.144-1.023 1.103-1.957l-.044-.008C11.213 20.695 11 19 11 19s1.241.167 2.452-.469l.012-.006C13.234 18.977 15 20 15 20c-.541.718-.015 2.665.949 2.65m8.48.076c.932.054 2.507-2.111 2.571-2.726 0-.949.634-.659.474-.888C28.34 19.244 29 19 29 19s-.3 1.52-1.848 2.12l-.05.019c.081.331.157.686.398 1.103.134.231.318.482.582.758 0 0-1.967.523-3.466-.182zM21 21s.572 1.576.961 1.177C21.64 23.331 20 24.5 20 24.5s-.272-.689-.623-1.565A6.3 6.3 0 0 1 18.5 24s-.934-.637-1-2a5 5 0 0 1-.005-.379c.104.317.724-.454 1.505-.621.619-.132 1.872.202 2 0" style="fill:#4fe64c"/><path d="M13.464 18.525c1.456-.767 1.347-1.163 2.419-1.98.838-.64 1.481-.914 1.785-1.024a.64.64 0 0 1 .392.019l1.252.469C20.134 15.481 21 15 21 15s.908.047 2.495.863c1.592.819 1.867 2.499 3.25 3.051.252.101.498.163.729.198.16.229.396.381.834.428-.113.507-.641.915-1.237 1.448l-.186-.27c-.064.615.037 1.544.257 1.952-.88.141-1.781.11-2.713.056a5.2 5.2 0 0 1-1.094-.754C22.742 22.682 22 23 22 23s.016-.418-.016-.912q-.01.044-.023.089c-.389.399-.916.637-1.493.732-.228-.362-.371-.682-.359-.994l.444-.726c-.29.456-1.421 1.405-2.001 1.567-.446-.341-.87-.567-1.057-1.135l.003-.08a7.2 7.2 0 0 1-1.549 1.109 11.8 11.8 0 0 1-2.963-.331c.059-.762.38-1.204.921-1.923l-.384.316-.023-.014c-.619-.294-1.121-.654-1.457-1.109.762-.239 1.191-.612 1.421-1.064m7.988.341c.127.148.275.336.434.565.424.612.652 1.36.652 1.36s.759-.497.924-1.483c.117-.705.018-1.097-.049-1.263-.064.412-.302.968-.775 1.57-.36-.434-.766-.631-1.186-.749m-3.966-1.77a4.2 4.2 0 0 1-.873.854c-.607.43-1.338.542-1.338.542s.613.831 1.601.986c.638.1 1.019.025 1.209-.04-.426-.102-.973-.356-1.525-.781.583-.499.864-1.002.926-1.561" style="fill:#27372d"/><path d="M15.949 22.65a7 7 0 0 1-.212.107C13.997 23.605 12 23 12 23s.144-1.023 1.103-1.957l-.044-.008C11.213 20.695 11 19 11 19s1.241.167 2.452-.469l.012-.006c-.23.452-.659.825-1.421 1.064.336.455.838.815 1.457 1.109l.023.014.384-.316c-.541.719-.862 1.161-.921 1.923.98.24 1.999.346 2.963.331m8.48.076c.932.054 1.833.085 2.713-.056-.22-.408-.321-1.337-.257-1.952l.186.27c.596-.533 1.124-.941 1.237-1.448-.438-.047-.674-.199-.834-.428C28.34 19.244 29 19 29 19s-.3 1.52-1.848 2.12l-.05.019c.081.331.157.686.398 1.103.134.231.318.482.582.758 0 0-1.967.523-3.466-.182zm-3.876-1.537-.444.726c-.012.312.131.632.359.994.577-.095 1.104-.333 1.493-.732C21.64 23.331 20 24.5 20 24.5s-.272-.689-.623-1.565A6.3 6.3 0 0 1 18.5 24s-.934-.637-1-2a5 5 0 0 1-.005-.379c.187.568.611.794 1.057 1.135.58-.162 1.711-1.111 2.001-1.567m-3.067-4.093c-.062.559-.343 1.062-.926 1.561.552.425 1.099.679 1.525.781-.19.065-.571.14-1.209.04-.988-.155-1.601-.986-1.601-.986s.731-.112 1.338-.542c.386-.272.686-.612.873-.854m3.966 1.77c.42.118.826.315 1.186.749.473-.602.711-1.158.775-1.57.067.166.166.558.049 1.263-.165.986-.924 1.483-.924 1.483s-.228-.748-.652-1.36a7 7 0 0 0-.434-.565" style="fill:#4fe64c"/><path d="M14.777 19.739c1.33-.266 2.231.08 2.506 1.15s-.523 1.656-1.953 1.997c-1.511.36-2.393-.192-2.533-1.203-.139-1.012 1.108-1.769 1.98-1.944m10.446 0c.872.175 2.119.932 1.98 1.944-.14 1.011-1.022 1.563-2.533 1.203-1.43-.341-2.227-.927-1.953-1.997.275-1.07 1.176-1.416 2.506-1.15" style="fill:#475247"/></g></svg>