<svg xmlns="http://www.w3.org/2000/svg" xml:space="preserve" style="enable-background:new 0 0 960 191" viewBox="0 0 960 191">
	<style>
		.page-heading-title { fill: var(--color-accent); }
		.page-heading-subtitle { fill: var(--color-text); }
		.page-heading-scribbles { fill: var(--color-accent); }
		.page-heading-shadow { fill: var(--color-accent-alt); }
	</style>
	<defs>
		<path id="page-heading-title" d="M52.1 4h13.1c7.2 0 11.3 3.8 11.3 9.9 0 4.2-2.2 6.7-6.1 7.8v.3c4.6 1.1 7.2 3.9 7.2 8.9C77.6 37 73.4 41 66.3 41H52.1V4zm10.8 15.7c3.7 0 5.4-1.1 5.4-4.3v-1.6c0-3.2-1.7-4.2-5.4-4.2h-3v10.1h3zm1 15.7c3.8 0 5.5-1.1 5.5-4.5v-1.5c0-3.3-1.8-4.5-5.5-4.5h-4v10.4h4zM90 41V4h23.8v6.5H98V19h15.2v6.5H98v9h15.8V41H90zM127.9 41V4h23.8v6.5h-15.8V19h15.2v6.5h-15.2v9h15.8V41h-23.8zM165.5 41V4h14.4c7.3 0 11.4 4.6 11.4 11.8s-4.1 11.8-11.4 11.8h-6.3V41h-8.1zm8-19.9h4.3c3.7 0 5-1.3 5-4.6V15c0-3.2-1.3-4.6-5-4.6h-4.3v10.7zM200.9 35.9l4.6-5.1c2.7 3 6.1 4.3 9.4 4.3 3.8 0 5.9-1.7 5.9-4.9 0-2.6-1.4-3.8-5-4.4l-3.9-.6c-6.7-1.1-9.5-5.2-9.5-10.6 0-7.1 5-11.2 13.4-11.2 5.7 0 10.1 1.9 12.7 4.9l-4.5 5c-2-2.2-4.7-3.5-8.1-3.5-3.6 0-5.4 1.5-5.4 4.4 0 2.5 1.5 3.7 5.1 4.3l3.9.7c6 1.1 9.4 4.6 9.4 10.4 0 6.9-4.9 12-14.2 12-6.2 0-11-2.2-13.8-5.7zM278.9 41v-5.9h8V9.9h-8V4h24v5.9h-8v25.2h8V41h-24zM323.4 16.4h-.6V41H316V4h9.6l8.5 24.6h.6V4h6.8v37h-9.6l-8.5-24.6zM408.3 10.5V41h-8V10.5h-10.7V4H419v6.5h-10.7zM446.9 25.5h-9.4V41h-8V4h8v15h9.4V4h8v37h-8V25.5zM468.3 41V4H492v6.5h-15.8V19h15.2v6.5h-15.2v9H492V41h-23.7zM562.6 24.5l.4-10.3h-.5l-6.9 19-6.9-19h-.5l.4 10.3V41h-6.9V4h9.4l4.6 12.5h.4L560.8 4h8.8v37h-6.9V24.5zM588.4 4v23.4c0 4.7.4 7.8 5.1 7.8s5.1-3.1 5.1-7.8V4h8v22.4c0 10.1-2.2 15.3-13.1 15.3s-13.1-5.1-13.1-15.3V4h8zM620.2 41V4h8v30.5h16V41h-24zM673.1 10.5V41h-8V10.5h-10.7V4h29.4v6.5h-10.7zM694.9 41v-5.9h8V9.9h-8V4h24v5.9h-8v25.2h8V41h-24zM739.1 41l-9.9-37h8.9l4.4 18.8 2.2 10.7h.4l2.2-10.7L751.8 4h8.5l-9.9 37h-11.3zM770.9 41V4h23.8v6.5h-15.8V19h15.2v6.5h-15.2v9h15.8V41h-23.8zM816.4 41h-7.9V4h14.4c7.3 0 11.4 4.6 11.4 11.8 0 5.2-2.4 9.3-6.6 10.4L835 41h-8.7L820 27.3h-3.7V41zm4.5-19.9c3.7 0 5-1.3 5-4.6V15c0-3.2-1.3-4.6-5-4.6h-4.6v10.7h4.6zM843.9 35.9l4.6-5.1c2.7 3 6.1 4.3 9.4 4.3 3.8 0 5.9-1.7 5.9-4.9 0-2.6-1.4-3.8-5-4.4l-3.9-.6c-6.7-1.1-9.5-5.2-9.5-10.6 0-7.1 5-11.2 13.4-11.2 5.7 0 10.1 1.9 12.7 4.9l-4.5 5c-2-2.2-4.7-3.5-8.1-3.5-3.6 0-5.4 1.5-5.4 4.4 0 2.5 1.5 3.7 5.1 4.3l3.9.7c6 1.1 9.4 4.6 9.4 10.4 0 6.9-4.9 12-14.2 12-6.2 0-11-2.2-13.8-5.7zM884.3 41V4h23.8v6.5h-15.8V19h15.2v6.5h-15.2v9h15.8V41h-23.8zM200.7 74.5c0-12.1 4.6-19.1 14.5-19.1 10 0 14.5 7 14.5 19.1 0 12.1-4.6 19.1-14.5 19.1s-14.5-7-14.5-19.1zm20.6 3.2v-6.4c0-5.9-1.5-9.5-6-9.5s-6 3.6-6 9.5v6.5c0 5.9 1.5 9.5 6 9.5s6-3.6 6-9.6zM241.3 93V56H266v6.5h-16.7V71h14.9v6.5h-14.9V93h-8zM335.7 76.5l.4-10.3h-.5l-6.9 19-6.9-19h-.5l.4 10.3V93h-6.9V56h9.4l4.6 12.5h.4l4.6-12.5h8.8v37h-6.9V76.5zM361.5 56v23.4c0 4.7.4 7.8 5.1 7.8s5.1-3.1 5.1-7.8V56h8v22.4c0 10.1-2.2 15.3-13.1 15.3s-13.1-5.1-13.1-15.3V56h8zM393.3 93V56h8v30.5h16V93h-24zM446.2 62.5V93h-8V62.5h-10.7V56h29.4v6.5h-10.7zM468 93v-5.9h8V61.9h-8V56h24v5.9h-8v25.2h8V93h-24zM505.9 93V56h14.4c7.3 0 11.4 4.6 11.4 11.8s-4.1 11.8-11.4 11.8H514V93h-8.1zm8-19.9h4.3c3.7 0 5-1.3 5-4.6V67c0-3.2-1.3-4.6-5-4.6h-4.3v10.7zM544.6 93V56h8v30.5h16V93h-24zM581.5 93v-5.9h8V61.9h-8V56h24v5.9h-8v25.2h8V93h-24zM617.5 74.5c0-12.1 4.7-19.1 14.6-19.1 7.7 0 11.7 4.2 13.2 10.7l-7.5 1.8c-.8-3.5-2.1-6-5.9-6-4.3 0-6 3.6-6 9.5v6.5c0 5.9 1.7 9.5 6 9.5 3.7 0 5.1-2.5 5.9-6l7.5 1.8c-1.5 6.5-5.5 10.7-13.2 10.7-9.9-.3-14.6-7.3-14.6-19.4zM657.1 93v-5.9h8V61.9h-8V56h24v5.9h-8v25.2h8V93h-24zM710.9 62.5V93h-8V62.5h-10.7V56h29.4v6.5h-10.7zM740.8 93V79.9L729 56h8.9l3.9 8.6 2.9 7.3h.4l2.9-7.3 4-8.6h8.6l-11.8 23.9V93h-8z"/>
	</defs>
	
	<use class="page-heading-shadow" href="#page-heading-title" x="-6" y="10" opacity=".36" />
	<use class="page-heading-shadow" href="#page-heading-title" x="-5" y="-3" opacity=".47" />
	<use class="page-heading-shadow" href="#page-heading-title" x="-1" y="9" opacity=".22" />
	<use class="page-heading-shadow" href="#page-heading-title" x="8" y="1" opacity=".17" />
	<use class="page-heading-shadow" href="#page-heading-title" x="-3" y="5" opacity=".09" />
	<use class="page-heading-title" href="#page-heading-title" />
	<g class="page-heading-subtitle">
		<path d="m148.9 134.1.1-7.8h-.3l-5.2 12.9-5.2-12.9h-.3l.1 7.8v12.3h-3.2v-25.1h4.4l4.2 10.6h.2l4.2-10.6h4.2v25.1h-3.2v-12.3zM171 127.9h3.4l-9.2 22.4c-.9 2.2-2.1 3.3-5 3.3h-2.9v-2.8h4.3l1.9-4.8-7.5-18.2h3.5l3.1 7.8 2.6 6.7h.2l2.6-6.7 3-7.7zM200.1 137.2c0-6 3.5-9.8 8.6-9.8s8.4 3.8 8.4 9.1v1.4h-13.6v.8c0 3.1 2.1 5.3 5.5 5.3 2.4 0 4.3-1.2 5.3-3.1l2.3 1.8c-1.2 2.4-3.8 4.1-7.6 4.1-5.6.1-8.9-3.7-8.9-9.6zm3.4-1.8v.3h10.1v-.4c0-3.1-2-5.2-4.9-5.2-3 0-5.2 2.2-5.2 5.3zM221.4 146.4l6.9-9.4-6.7-9.1h4l2.7 3.7 2.1 3h.2l2.1-3 2.6-3.7h3.8l-6.8 9.1 7 9.5h-4l-3-4.2-2-2.9h-.2l-2 2.9-2.9 4.2h-3.8zM244.4 127.9h3.4v3.1h.2c1.1-2.3 3-3.5 5.7-3.5 4.5 0 7.2 3.5 7.2 9.7 0 6.2-2.8 9.7-7.2 9.7-2.7 0-4.6-1.3-5.7-3.5h-.2v10.3h-3.4v-25.8zm12.9 10.8v-3.1c0-3.2-1.8-5.3-5-5.3-2.4 0-4.5 1.3-4.5 3.6v6.5c0 2.4 2.1 3.6 4.5 3.6 3.1 0 5-2.1 5-5.3zM265.2 137.2c0-6 3.5-9.8 8.6-9.8s8.4 3.8 8.4 9.1v1.4h-13.6v.8c0 3.1 2.1 5.3 5.5 5.3 2.4 0 4.3-1.2 5.3-3.1l2.3 1.8c-1.2 2.4-3.8 4.1-7.6 4.1-5.5.1-8.9-3.7-8.9-9.6zm3.5-1.8v.3h10.1v-.4c0-3.1-2-5.2-4.9-5.2-3 0-5.2 2.2-5.2 5.3zM287.4 143.7h5.2v-13h-5.2v-2.8h8.6v4.8h.2c.7-2.5 2.4-4.8 6.2-4.8h2.5v3.3h-3.6c-3.5 0-5.3 2.2-5.3 5v7.6h7.1v2.8h-15.7v-2.9zM310.1 143.7h6.5v-13h-6.5v-2.8h9.9v15.8h6.2v2.8h-16.1v-2.8zm5.8-21.6v-.7c0-1.1.7-2 2.5-2s2.5.9 2.5 2v.7c0 1.1-.7 1.9-2.5 1.9s-2.5-.8-2.5-1.9zM330.3 137.2c0-6 3.5-9.8 8.6-9.8s8.4 3.8 8.4 9.1v1.4h-13.6v.8c0 3.1 2.1 5.3 5.5 5.3 2.4 0 4.3-1.2 5.3-3.1l2.3 1.8c-1.2 2.4-3.8 4.1-7.6 4.1-5.5.1-8.9-3.7-8.9-9.6zm3.5-1.8v.3h10.1v-.4c0-3.1-2-5.2-4.9-5.2-3 0-5.2 2.2-5.2 5.3zM353.1 146.4v-18.6h3.4v3.1h.1c.8-1.9 2.3-3.5 5.4-3.5 3.8 0 6.4 2.6 6.4 7.1v12H365v-11.4c0-3.2-1.4-4.8-4.2-4.8-2.2 0-4.4 1.1-4.4 3.4v12.7h-3.3zM374.3 137.1c0-5.9 3.3-9.7 8.6-9.7 3.7 0 6 1.8 7.1 4.3l-2.6 1.4c-.7-1.8-2.2-3-4.4-3-3.2 0-5.1 2.2-5.1 5.3v3.2c0 3.1 1.8 5.3 5.1 5.3 2.4 0 3.9-1.2 4.8-3.1l2.4 1.6c-1.1 2.5-3.5 4.4-7.3 4.4-5.4.1-8.6-3.8-8.6-9.7zM395.5 137.2c0-6 3.5-9.8 8.6-9.8s8.4 3.8 8.4 9.1v1.4h-13.6v.8c0 3.1 2.1 5.3 5.5 5.3 2.4 0 4.3-1.2 5.3-3.1l2.3 1.8c-1.2 2.4-3.8 4.1-7.6 4.1-5.6.1-8.9-3.7-8.9-9.6zm3.4-1.8v.3H409v-.4c0-3.1-2-5.2-4.9-5.2-3 0-5.2 2.2-5.2 5.3zM417.2 143.3l2.1-1.9c1.7 1.8 3.7 2.8 6.6 2.8 2.7 0 4.6-.9 4.6-3 0-1.8-1.4-2.2-3.1-2.5l-2.9-.4c-2.8-.4-6.3-1.3-6.3-5.2 0-3.7 3.2-5.7 7.7-5.7 3.4 0 5.9 1.1 7.6 3l-2.1 2c-.9-1.1-2.6-2.3-5.7-2.3-2.7 0-4.3 1-4.3 2.7 0 1.8 1.5 2.3 3.1 2.5l2.9.4c2.8.4 6.3 1.3 6.3 5.2 0 3.7-3.1 5.9-8 5.9-3.8.1-6.7-1.3-8.5-3.5zM476.1 146.4c-2.2 0-3.2-1.3-3.4-3.1h-.2c-.8 2.2-2.6 3.5-5.6 3.5-3.8 0-6.3-2.1-6.3-5.6 0-3.5 2.5-5.5 8.1-5.5h3.8V134c0-2.6-1.5-4-4.2-4-2.5 0-3.9 1-4.9 2.7l-2.1-1.7c1-1.9 3.4-3.7 7.3-3.7 4.5 0 7.3 2.3 7.3 6.4v9.8h2.5v2.8h-2.3zm-3.6-5.4v-2.9h-3.8c-3.2 0-4.7.9-4.7 2.7v.8c0 1.8 1.4 2.7 3.7 2.7 2.8-.1 4.8-1.5 4.8-3.3zM483.3 146.4v-18.6h3.4v3.1h.1c.8-1.9 2.3-3.5 5.4-3.5 3.8 0 6.4 2.6 6.4 7.1v12h-3.4v-11.4c0-3.2-1.4-4.8-4.2-4.8-2.2 0-4.4 1.1-4.4 3.4v12.7h-3.3zM516.9 143.3h-.2c-1.1 2.3-3 3.5-5.7 3.5-4.5 0-7.2-3.5-7.2-9.7 0-6.2 2.8-9.7 7.2-9.7 2.7 0 4.6 1.3 5.7 3.5h.2v-11.2h3.4v26.6h-3.4v-3zm0-2.9v-6.5c0-2.4-2.1-3.6-4.5-3.6-3.2 0-5 2.1-5 5.3v3.1c0 3.2 1.8 5.3 5 5.3 2.4 0 4.5-1.2 4.5-3.6zM548.3 127.9h3.4v3.1h.2c1.1-2.3 3-3.5 5.7-3.5 4.5 0 7.2 3.5 7.2 9.7 0 6.2-2.8 9.7-7.2 9.7-2.7 0-4.6-1.3-5.7-3.5h-.2v10.3h-3.4v-25.8zm12.9 10.8v-3.1c0-3.2-1.8-5.3-5-5.3-2.4 0-4.5 1.3-4.5 3.6v6.5c0 2.4 2.1 3.6 4.5 3.6 3.2 0 5-2.1 5-5.3zM569.1 137.1c0-5.9 3.3-9.7 8.6-9.7s8.6 3.8 8.6 9.7c0 5.9-3.3 9.7-8.6 9.7s-8.6-3.7-8.6-9.7zm13.7 1.4v-2.7c0-3.7-2-5.6-5.1-5.6s-5.1 1.8-5.1 5.6v2.7c0 3.7 2 5.6 5.1 5.6s5.1-1.8 5.1-5.6zM591.9 146.4v-18.6h3.4v3.1h.1c.8-1.9 2.3-3.5 5.4-3.5 3.8 0 6.4 2.6 6.4 7.1v12h-3.4v-11.4c0-3.2-1.4-4.8-4.2-4.8-2.2 0-4.4 1.1-4.4 3.4v12.7h-3.3zM625.4 143.3h-.2c-1.1 2.3-3 3.5-5.7 3.5-4.5 0-7.2-3.5-7.2-9.7 0-6.2 2.8-9.7 7.2-9.7 2.7 0 4.6 1.3 5.7 3.5h.2v-11.2h3.4v26.6h-3.4v-3zm0-2.9v-6.5c0-2.4-2.1-3.6-4.5-3.6-3.2 0-5 2.1-5 5.3v3.1c0 3.2 1.8 5.3 5 5.3 2.4 0 4.5-1.2 4.5-3.6zM634.3 137.2c0-6 3.5-9.8 8.6-9.8s8.4 3.8 8.4 9.1v1.4h-13.6v.8c0 3.1 2.1 5.3 5.5 5.3 2.4 0 4.3-1.2 5.3-3.1l2.3 1.8c-1.2 2.4-3.8 4.1-7.6 4.1-5.5.1-8.9-3.7-8.9-9.6zm3.5-1.8v.3h10.1v-.4c0-3.1-2-5.2-4.9-5.2-3.1 0-5.2 2.2-5.2 5.3zM656.4 143.7h5.2v-13h-5.2v-2.8h8.6v4.8h.2c.7-2.5 2.4-4.8 6.2-4.8h2.5v3.3h-3.6c-3.5 0-5.3 2.2-5.3 5v7.6h7.1v2.8h-15.7v-2.9zM679.2 143.7h6.5v-13h-6.5v-2.8h9.9v15.8h6.2v2.8h-16.1v-2.8zm5.8-21.6v-.7c0-1.1.7-2 2.5-2s2.5.9 2.5 2v.7c0 1.1-.7 1.9-2.5 1.9-1.9.1-2.5-.8-2.5-1.9zM700.4 146.4v-18.6h3.4v3.1h.1c.8-1.9 2.3-3.5 5.4-3.5 3.8 0 6.4 2.6 6.4 7.1v12h-3.4v-11.4c0-3.2-1.4-4.8-4.2-4.8-2.2 0-4.4 1.1-4.4 3.4v12.7h-3.3zM729.7 154.1c-6.2 0-8.6-1.7-8.6-4.5 0-2 1.2-3.1 3.1-3.6v-.4c-1.2-.5-1.8-1.3-1.8-2.6 0-1.9 1.4-2.7 3.4-3.2v-.2c-2.3-1-3.6-3-3.6-5.7 0-3.9 2.9-6.4 7.4-6.4 1.4 0 2.6.2 3.6.7v-.5c0-1.4.7-2.5 2.4-2.5h3.4v2.8h-4.3v1.1c1.5 1.1 2.3 2.8 2.3 4.9 0 3.9-3 6.4-7.5 6.4-.7 0-1.4 0-2-.2-1 .3-2.4.8-2.4 2s1.2 1.4 3 1.4h4.1c4.9 0 7 2 7 5 .1 3.7-3.1 5.5-9.5 5.5zm2.6-7.7h-6.4c-1.1.5-1.7 1.2-1.7 2.3 0 1.5 1.1 2.8 4.1 2.8h2.9c3.2 0 5-1 5-2.8-.1-1.4-1.1-2.3-3.9-2.3zm1.2-12v-1c0-2.1-1.3-3.5-4-3.5s-3.9 1.4-3.9 3.5v1c0 2.1 1.2 3.5 3.9 3.5 2.8 0 4-1.4 4-3.5zM742.8 143.3l2.1-1.9c1.7 1.8 3.7 2.8 6.6 2.8 2.7 0 4.6-.9 4.6-3 0-1.8-1.4-2.2-3.1-2.5l-2.9-.4c-2.8-.4-6.3-1.3-6.3-5.2 0-3.7 3.2-5.7 7.7-5.7 3.4 0 5.9 1.1 7.6 3l-2.1 2c-.9-1.1-2.6-2.3-5.7-2.3-2.7 0-4.3 1-4.3 2.7 0 1.8 1.5 2.3 3.1 2.5l2.9.4c2.8.4 6.3 1.3 6.3 5.2 0 3.7-3.1 5.9-8 5.9-3.7.1-6.6-1.3-8.5-3.5zM786.2 137.1c0-5.9 3.3-9.7 8.6-9.7s8.6 3.8 8.6 9.7c0 5.9-3.3 9.7-8.6 9.7s-8.6-3.7-8.6-9.7zm13.7 1.4v-2.7c0-3.7-2-5.6-5.1-5.6s-5.1 1.8-5.1 5.6v2.7c0 3.7 2 5.6 5.1 5.6s5.1-1.8 5.1-5.6zM809 146.4v-18.6h3.4v3.1h.1c.8-1.9 2.3-3.5 5.4-3.5 3.8 0 6.4 2.6 6.4 7.1v12h-3.4v-11.4c0-3.2-1.4-4.8-4.2-4.8-2.2 0-4.4 1.1-4.4 3.4v12.7H809zM211.8 163.9h3.4v3.1h.2c1.1-2.3 3-3.5 5.7-3.5 4.5 0 7.2 3.5 7.2 9.7 0 6.2-2.8 9.7-7.2 9.7-2.7 0-4.6-1.3-5.7-3.5h-.2v10.3h-3.4v-25.8zm12.9 10.8v-3.1c0-3.2-1.8-5.3-5-5.3-2.4 0-4.5 1.3-4.5 3.6v6.5c0 2.4 2.1 3.6 4.5 3.6 3.2 0 5-2.1 5-5.3zM232.5 173.1c0-5.9 3.3-9.7 8.6-9.7s8.6 3.8 8.6 9.7c0 5.9-3.3 9.7-8.6 9.7s-8.6-3.7-8.6-9.7zm13.7 1.4v-2.7c0-3.7-2-5.6-5.1-5.6s-5.1 1.8-5.1 5.6v2.7c0 3.7 2 5.6 5.1 5.6s5.1-1.8 5.1-5.6zM263.9 182.4c-3 0-4.5-1.8-4.5-4.5v-11.3h-6v-2.8h4.3c1.3 0 1.8-.5 1.8-1.8v-4.8h3.2v6.6h8.3v2.8h-8.3v13h8.3v2.8h-7.1zM276.1 173.2c0-6 3.5-9.8 8.6-9.8s8.4 3.8 8.4 9.1v1.4h-13.6v.8c0 3.1 2.1 5.3 5.5 5.3 2.4 0 4.3-1.2 5.3-3.1l2.3 1.8c-1.2 2.4-3.8 4.1-7.6 4.1-5.6.1-8.9-3.7-8.9-9.6zm3.4-1.8v.3h10.1v-.4c0-3.1-2-5.2-4.9-5.2-3 0-5.2 2.2-5.2 5.3zM298.8 182.4v-18.6h3.4v3.1h.1c.8-1.9 2.3-3.5 5.4-3.5 3.8 0 6.4 2.6 6.4 7.1v12h-3.4v-11.4c0-3.2-1.4-4.8-4.2-4.8-2.2 0-4.4 1.1-4.4 3.4v12.7h-3.3zM329 182.4c-3 0-4.5-1.8-4.5-4.5v-11.3h-6v-2.8h4.3c1.3 0 1.8-.5 1.8-1.8v-4.8h3.2v6.6h8.3v2.8H328v13h8.3v2.8H329zM342.6 179.7h6.5v-13h-6.5v-2.8h9.9v15.8h6.2v2.8h-16.1v-2.8zm5.8-21.6v-.7c0-1.1.7-2 2.5-2s2.5.9 2.5 2v.7c0 1.1-.7 1.9-2.5 1.9s-2.5-.8-2.5-1.9zM378.4 182.4c-2.2 0-3.2-1.3-3.4-3.1h-.2c-.8 2.2-2.6 3.5-5.6 3.5-3.8 0-6.3-2.1-6.3-5.6 0-3.5 2.5-5.5 8.1-5.5h3.8V170c0-2.6-1.5-4-4.2-4-2.5 0-3.9 1-4.9 2.7l-2.1-1.7c1-1.9 3.4-3.7 7.3-3.7 4.5 0 7.3 2.3 7.3 6.4v9.8h2.5v2.8h-2.3zm-3.6-5.4v-2.9H371c-3.2 0-4.7.9-4.7 2.7v.8c0 1.8 1.4 2.7 3.7 2.7 2.8-.1 4.8-1.5 4.8-3.3zM385.1 179.7h6.3v-21.1h-6.3v-2.8h9.7v23.9h6.4v2.8h-16.1v-2.8zM406.8 179.7h6.3v-21.1h-6.3v-2.8h9.7v23.9h6.4v2.8h-16.1v-2.8zM442.4 163.9h3.4l-9.2 22.4c-.9 2.2-2.1 3.3-5 3.3h-2.9v-2.8h4.3l1.9-4.8-7.5-18.2h3.5l3.1 7.8 2.6 6.7h.2l2.6-6.7 3-7.7zM472.3 155.8h3.4V167h.2c1.1-2.3 3-3.5 5.7-3.5 4.4 0 7.2 3.5 7.2 9.7 0 6.2-2.8 9.7-7.2 9.7-2.7 0-4.6-1.3-5.7-3.5h-.2v3.1h-3.4v-26.7zm12.9 18.9v-3.1c0-3.2-1.8-5.3-5-5.3-2.4 0-4.5 1.3-4.5 3.6v6.5c0 2.4 2.1 3.6 4.5 3.6 3.2 0 5-2.1 5-5.3zM493.2 173.2c0-6 3.5-9.8 8.6-9.8s8.4 3.8 8.4 9.1v1.4h-13.6v.8c0 3.1 2.1 5.3 5.5 5.3 2.4 0 4.3-1.2 5.3-3.1l2.3 1.8c-1.2 2.4-3.8 4.1-7.6 4.1-5.6.1-8.9-3.7-8.9-9.6zm3.4-1.8v.3h10.1v-.4c0-3.1-2-5.2-4.9-5.2-3 0-5.2 2.2-5.2 5.3zM516.3 179.7h6.5v-13h-6.5v-2.8h9.9v15.8h6.2v2.8h-16.1v-2.8zm5.8-21.6v-.7c0-1.1.7-2 2.5-2s2.5.9 2.5 2v.7c0 1.1-.7 1.9-2.5 1.9-1.8.1-2.5-.8-2.5-1.9zM537.6 182.4v-18.6h3.4v3.1h.1c.8-1.9 2.3-3.5 5.4-3.5 3.8 0 6.4 2.6 6.4 7.1v12h-3.4v-11.4c0-3.2-1.4-4.8-4.2-4.8-2.2 0-4.4 1.1-4.4 3.4v12.7h-3.3zM566.8 190.1c-6.2 0-8.6-1.7-8.6-4.5 0-2 1.2-3.1 3.1-3.6v-.4c-1.2-.5-1.8-1.3-1.8-2.6 0-1.9 1.4-2.7 3.4-3.2v-.2c-2.3-1-3.6-3-3.6-5.7 0-3.9 2.9-6.4 7.4-6.4 1.4 0 2.6.2 3.6.7v-.5c0-1.4.7-2.5 2.4-2.5h3.4v2.8h-4.3v1.1c1.5 1.1 2.3 2.8 2.3 4.9 0 3.9-3 6.4-7.5 6.4-.7 0-1.4 0-2-.2-1 .3-2.4.8-2.4 2s1.2 1.4 3 1.4h4.1c4.9 0 7 2 7 5 .1 3.7-3.1 5.5-9.5 5.5zm2.6-7.7H563c-1.1.5-1.7 1.2-1.7 2.3 0 1.5 1.1 2.8 4.1 2.8h2.9c3.2 0 5-1 5-2.8 0-1.4-1-2.3-3.9-2.3zm1.3-12v-1c0-2.1-1.3-3.5-4-3.5s-3.9 1.4-3.9 3.5v1c0 2.1 1.2 3.5 3.9 3.5s4-1.4 4-3.5zM602.6 163.9h3.4v3.1h.2c1.1-2.3 3-3.5 5.7-3.5 4.5 0 7.2 3.5 7.2 9.7 0 6.2-2.8 9.7-7.2 9.7-2.7 0-4.6-1.3-5.7-3.5h-.2v10.3h-3.4v-25.8zm12.9 10.8v-3.1c0-3.2-1.8-5.3-5-5.3-2.4 0-4.5 1.3-4.5 3.6v6.5c0 2.4 2.1 3.6 4.5 3.6 3.2 0 5-2.1 5-5.3zM623.9 179.7h6.3v-21.1h-6.3v-2.8h9.7v23.9h6.4v2.8h-16.1v-2.8zM657.8 179.3h-.1c-.8 1.9-2.3 3.5-5.4 3.5-3.8 0-6.4-2.6-6.4-7.1v-12h3.4v11.4c0 3.2 1.4 4.8 4.2 4.8 2.2 0 4.4-1.1 4.4-3.4v-12.7h3.4v18.6h-3.4v-3.1zM667.3 179.7h5.2v-13h-5.2v-2.8h8.6v4.8h.2c.7-2.5 2.4-4.8 6.2-4.8h2.5v3.3h-3.6c-3.5 0-5.3 2.2-5.3 5v7.6h7.1v2.8h-15.7v-2.9zM704.1 182.4c-2.2 0-3.2-1.3-3.4-3.1h-.2c-.8 2.2-2.6 3.5-5.6 3.5-3.8 0-6.3-2.1-6.3-5.6 0-3.5 2.5-5.5 8.1-5.5h3.8V170c0-2.6-1.5-4-4.2-4-2.5 0-3.9 1-4.9 2.7l-2.1-1.7c1-1.9 3.4-3.7 7.3-3.7 4.5 0 7.3 2.3 7.3 6.4v9.8h2.5v2.8h-2.3zm-3.7-5.4v-2.9h-3.8c-3.2 0-4.7.9-4.7 2.7v.8c0 1.8 1.4 2.7 3.7 2.7 2.8-.1 4.8-1.5 4.8-3.3zM710.8 179.7h6.3v-21.1h-6.3v-2.8h9.7v23.9h6.4v2.8h-16.1v-2.8zM737.6 180.4v-.8c0-1.3.8-2.3 2.9-2.3s2.9 1 2.9 2.3v.8c0 1.3-.8 2.3-2.9 2.3s-2.9-1-2.9-2.3z"/>
	</g>
	<g class="page-heading-scribbles">
		<path d="M128.8 133.7h.2-.2zM129.4 133.9c.1 0 .3-.1.2-.2-.1.1-.1 0-.2.2-.2-.1-.2-.1-.2-.2h-.2c.1.1.3.2.4.2.1 0 0 0 0 0zM138.1 130.9c-.1 0 0 0 0 0zM142.8 130l-.1.1s.1 0 .1-.1zM143.2 130.9s0 .1 0 0zM138.1 130.9l.2.1c-.1-.2-.1-.1-.2-.1zM130.7 133.6c-.1 0-.1 0 0 0zM136.2 132.6v.2-.2zM134.4 133.7s-.1-.3-.2-.4v.2c.1.1.2.1.2.2zM131.1 134.2zM137.4 131.9l.1.1-.1-.1zM174.5 148.7zM176.1 150.2zM143.6 132.1zM154.8 144c-.3-.3.3-.6-.1-.9.1.2-.2.7.1.9zM130.7 133.6c.1 0 0 0 0 0zM154.8 143.1c-.1 0-.1 0 0 0zM145.2 134.3c.1 0 .2-.1.2-.1s-.1 0-.2.1zM144.9 131.8zM146.4 135.5c0 .1-.1.1 0 .1s.1 0 0-.1c0 .1 0 .1 0 0zM146.9 137.1c.1 0 .1 0 0 0v-.1.1zM172.6 144.3l-.1.1c.1 0 .2.2.1-.1zM130.7 133.7c0-.1 0-.1 0 0 0-.1 0 0 0 0zM150.7 134.5v.3c.1-.1.1-.2 0-.3zM164.2 135.7zM150.9 135.5c-.2.1-.3.2-.3.2h.1l.2-.2zM172.5 144.4z"/>
		<path d="M173.3 146c-.1-.2-.2 0-.3-.1-.1-.3.1-.2.2-.3-.1-.2-.3-.2-.3-.4h.1c-.2-.1-.1-.6-.4-.7-.1.1-.2.1-.3.1 0-.1-.2-.2-.1-.2 0 .1.1.1.1.1l-.1-.1c.2-.2.1.1.3.1-.1-.2-.3-.4-.3-.6.2-.1.2.4.3.1v.3c.3-.3 0 .2.3-.1 0-.4-.2-.4-.2-.7-.1-.1-.2.1-.3 0-.3-.4.5-.5.1-.8-.2-.1-.5 0-.4-.3h.3c-.1-.4-.4-.1-.3-.5.1 0 .2.3.2.2.1-.3-.2-.1-.2-.3l.2-.1c-.1-.4-.4-.7-.6-1.1.1 0 .2 0 .2-.1-.2-.2-.3-.5-.4-.8l-.3-.9h-.3s0-.2.1-.1c-.1-.2-.1.1-.3.1-.1-.1 0-.2.1-.2-.4-.2-1.1-.5-1.3-1h.1c-.2-.3-.6.2-.7-.2h.1c-.3-.2-.6-.4-.9-.5-.3-.2-.6-.3-.8-.6-.2.4-.7-.4-.8.2-.4-.3-.3-.4-.9-.7-.2 0-.2.4-.4.5v-.3c-.1.1-.2.3-.2.4l-.2-.4-.2.1c.1 0 .2.1.2.2-.3.2-.7-.1-.8-.3-.2.2-.4.3-.6.5 0-.1.1-.2.1-.3-.2.4-.2-.3-.4.1.1.1.1.2.1.3-.2-.1-.6 0-.8.2l-.1-.2c-.5.1-.8.6-1.3.8.2 0 .4.4.3.5l-.3-.3c.1.3.2 0 .2.4-.2.1-.4-.3-.4-.5l-.1.2c-.1-.1-.1-.2-.2-.3.1.3-.6-.1-.4.3l-.1-.1c-.4.3-.5.5-.8.8.2.3 0 .3.1.6-.3.1-.7 0-1 .2-.1.3.1.3.2.5-.2-.3-.5-.1-.5-.4-.3.2-.4.3-.6.8.1.1.2.1.3.2 0 .1-.3 0-.3-.2-.1.3-.5.3-.8.2-.4-.1-.6-.2-.7.2-.1.2-.1.3-.2.5-.2 0 0-.3-.2-.5-.2.8-.6 0-.8.5-.2-.5-.3-.6-.5-.5-.2.1-.4.1-.5-.3v.3c-.1.2 0-.2-.1-.3 0 .2 0 .3-.1.4-.4.1-.6-.2-.8-.5-.1-.2-.1-.4-.2-.5v-.5c0-.2-1.2.9-.9.2.2-.1.3-.2.5-.3-.4 0-.5-.2-.6-.5-.1-.3-.1-.5-.5-.7.1 0 .3-.1.3 0 .4-.3-.1-.5-.4-.3 0-.1.3-.1.5-.2.2-.2-.6-.1-.2-.3h.2c-.2 0 0-.4-.5-.2.2-.3-.3-.4-.1-.7-.6 0 .2-.5-.6-.3.9-.2.6-.6.2-.7.3 0 .2-.2.6-.2-.1-.2-.3-.3-.7-.2 1-.6-1-.5.3-1.1-.6-.5-1.2-1-1.6-1.4.9-.3.3.6 1.2.2-.5-.4-1.4-.4-1.5-1.1 0-.2.4-.1.6-.1-.6-.4-.6-1.2-1.3-1.3.1-.1.2-.1.3-.1-.1-.1-.1-.3-.4 0h.2c-.4.5-1.3.5-1.5.7 1-.7-.1-.6 1.2-1.5-.1 0-.3.1-.5.3 0-.1.1-.3.4-.4-.5-.1-.7.3-1 .1.1-.2.2-.2.4-.3-.4.2-.8.4-1 .1.1-.1.1-.2.2-.2-.5-.3-1.3.5-1.6-.1.5-.7-.1-.3.2-1.1-.1 0-.3.1-.4.1v.4c-.3-.1-.6.4-.8.1l.3-.3h-.5l.2.3c-.3.3-.2.9-.4.6.1-.1-.2-.1-.3-.5-.2.2-.3.5-.4.3 0-.2.1-.8 0-.9-.1.6-.6.2-.7.8v-.6l-.1.5c-.1-.1-.2-.2-.2-.5-.4 0 .2.9-.2.6 0 0 0-.1.1-.2-.5-.1-.7.4-1.1.4-.3-.6.3-.3 0-.8-.3.2-.5.5-.7.7-.2.3-.3.5-.6.6h.1c.4.8-.5-.2-.5.3 0-.1-.2-.5-.1-.4-.3.1-.5.6-.7 1.1l-.1-.2c-.3 0-.5.2-.7.3.1.2 0 .3.2.5-.6-.3-.7 0-.8.4-.1.3-.2.6-.7.5v-.2l-.2.4c.2.2.2.1.4.2.1.2 0 .4 0 .4 0-.3-.3-.4-.5-.5.1.1.1.2.2.2-.5-.3.3.5-.1.4l-.1-.1c0 .1 0 .4-.2.4-.2-.2 0-.2-.1-.4-.1.1.1.7-.3.6 0-.1.1-.2.1-.3-.4-.2-.3-.1-.4-.1h-.3.1c.2.8-.3.4-.3 1 0-.5-.1-.2-.2-.5-.1 0-.2-.1-.3-.2 0 .3-.3 0-.3.4 0-.1-.1.1-.2-.2-.1.2.1.1.1.2-.1.2-.2.2-.4.2s-.4 0-.5.3c-.3.3-.3.5-.6.6-.1-.1.1-.3.1-.3-.2-.1-.3 0-.5.1 0-.1 0-.1-.1-.2-.1 0-.1.2-.3.1 0-.1.1-.2.1-.2-.1.1-.3.2-.5.2 0-.1.1-.1.2-.2-.2.1-.5.1-.6.2l.1.1c-.1 0 0-.1 0-.1.2-.1.2 0 .2.1h-.1c.1.3.5 0 .7 0l-.1.2c.1-.1.2-.1.2-.2.1.1.1.2 0 .2.2.1.1-.1.3 0l.2-.1c0 .1.1.2-.1.2.4.1.5-.3.6-.1.4-.2 0-.2.2-.6l.4.5v-.3s.1 0 .2.1c.1-.2-.1-.1 0-.3.3.2.5-.3.7.1 0-.2-.3-.1-.1-.3.3.4.2-.2.5-.1.1.3-.2.2.1.4-.1-.5.4-.1.5-.2-.2-.3.2-.3.4-.6.1.1.6-.1.9-.1v.1c-.2-.4.1-.5.1-.7.2.2.2.3.2.5l.2-.1c-.1-.1-.1-.2 0-.4l.2.3c.2-.1.1-.6.6-.6-.2-.3-.8-.7-.7-1.1.1.2.3.4.3.5 0 0 0-.2.1-.2l.1.3c.2 0-.1-.3 0-.3.2.2.2.1.3.3 0 0-.2 0-.1.1.1 0 .4 0 .5.2-.1-.1-.2-.3-.2-.4.2-.2.3.2.5.3-.1-.2.2-.1-.1-.5.1 0 .2.1.3.2 0-.2.4-.3 0-.7.1-.6.8-.2 1.1-.6l.1.1c.1-.3.4-.3.4-.7.1 0 .3.2.3.4.1-.2 0-.4.4-.2 0 .3.2.2-.1.3.3.1.4.3.4-.2.1.4.3.5.4.4l-.2-.3c.1-.1.2-.1.3-.1l.1.6c.3.3.3 0 .4-.2.1-.3.3-.5.4.2.1-.4-.2-.3-.1-.8.2.1.3 1 .4 1 .1.4.3-.9.5-.6 0-.2.1-.9.3-1 .2.1 0 1-.1 1.2v-.1c-.1.1-.1.1-.1.4l.1-.2c0 .3.2.3.1.7.2-.2.1-.4.1-.5.1.4.3.1.4.4 0-.1.1-.4.1-.4.2.4.3-.4.6-.3 0 .4-.4.8-.1.6 0 .3-.3.6-.4.7.4-.4.1.4.1.5l-.2.1c.1-.1.1 0 .1 0l.3-.4c0 .1 0 .1-.1.3.2-.2.5-.7.8-1-.1.2.4-.1 0 .4 0-.3-.4.5-.6.5.1 0 .1 0 .1.1s-.1.1-.1.1c-.3.5.5-.5.7-.3-.3.2-.5.5-.4.5 0-.1.4-.4.7-.6-.1.3.3 0 .3.1v-.2c.3-.2.3-.1.5-.1-.2.2-.2 0-.3.1.6-.2-.4.6.1.5-.2.2-.6.4-.7.5.5-.1-.4.4.1.4.4-.3.3-.2.8-.3l-.5-.2c.2 0 .5-.1.7-.1 0-.1-.4-.1-.3-.2.4-.1.3 0 .6-.3-.6.5.5.1.2.5l-1.1.5c-.4.4.8.2.6.7l.2-.2c.5-.1.1.2.4.3-.4.1-.5.2-.7.4.3-.1.1.3.8.1l-.5.3c-.1.4 1.2 0 1.2.4-.4 0-.7.2-1 .1 0 .1 0 .2.3.2-.2.1.6.2.3.4.2 0 .6-.1.6 0h-.2c.2 0 .3.1.7-.1-1.1.6.3.9-.5 1.5.2.2.4.5.5.7-.1 0-.2.1-.2 0-.2.4 1.1-.1.8.3-.5.4-.4-.1-.5.1-1.1.5.3.4-.2.9h-.1c-.3.3.6.3.7.6 0 0-.1 0-.2.1.6-.1 1 .2 1.3.4-.4.2-.3 0-.6.3.1.1.6-.4.8-.3-.2.2-.2.5-.6.8l-.2-.2c-.4.5.2.3.3.5l-.2.2c.4.3.9-.2 1.2.2l.1-.2c.6-.3-.1.4.4.2l-.3.6c.3 0 .9-.2 1.1-.1-.4.4-.8.3-1.2.4.1.1.5.3.8.1-.1 0-.2.1-.3 0 .4-.3.8-.4 1.1-.3-.6 1.1.6.6.6 1.6.4-.1.7 0 1 .1.3.1.7.2 1.1.2-.3-.9.2 0 .1-1 .2-.1.2-.1.2 0 .2.2.4.3.6.5.2.2-.1.2-.1.4.4 0 .2.4.6.5-.1-.3 0-.5.3-.4-.1-.1-.3-.2-.4-.3.4-.6.6.6 1 0l-.1.3c.1-.1.4-.2.6-.4.2-.2.3-.4.3-.8.1.1.2.3.2.4.6-.2.7-1.3 1.3-1.2l.1.2c.1-.1-.1-.4.1-.3 0 .1.1.2.1.2 0-.1 0-.5.2-.4v.3c.6-.1.3-1 .5-1.3.4.5.8.4 1 .3v.1c.5-.3.4-1 .7-1.5.6.3 1-.4 1.5-.4-.1-.1-.2-.4-.1-.5.1 0 .1-.5.3 0 .3.4.4.1.5.1l-.2-.6c.4.3.6.1.8 0 .2-.1.4-.3.6.1.1-.2.2-.2.3-.3v.3c.3.1.4.1.7 0l-.1.2c.2 0 .4-.8.6-.8l-.1.4c.4 0 .5.5 1 .3 0 .1-.1.2-.2.1.2 0 .4.5.6 0-.2.3.3.2.5.2l-.2.2c.3-.1.4-.2.6-.1 0 .1-.1.2-.1.1 0 .2.3 0 .3.2h-.2c.1.1.2.1.4.1.2.1.2.4 0 .5.1 0 .3 0 .4.1-.1.1-.1 0-.2 0 .1.3.5.3.4.6-.1 0-.1.1-.1.1l-.2-.4c-.2.1-.1.3-.5.3.2.1.7.2.7.4l-.1.1c0 .1 0 .1.1.1v.2c-.1.1 0 .3.1.4.2-.1.2.1.3-.1l-.1-.1c0-.1-.1-.2-.1-.3.1 0 .3.1.2.3h.4c-.2.2-.3.6-.4.7.2.3.4.8.7.9.1.1-.1.1-.1.2-.1 0-.1-.1-.1-.1.1.2.2.6.5.6 0 .3-.2-.1-.1.2h-.1c-.1.8.9 1 .7 1.8v-.1c.1.9.8 1.7 1.1 2.5.1.2.2.2.4.3l-.1.1c.1.1.2.1.3.1.3.2.2.7.8.8v-.1c.1.1.5.3.4.3h.1c.1.1.3.1.4.1.3.2-.1.1.3.3.2.1.5.1.4.1-.1 0-.2-.1-.2-.1h.2c.1-.1.2-.1-.1-.4l-.3-.1-.1-.1.2.1c-.1-.1-.2-.1-.3-.1 0 0 0-.1-.1-.1h-.3c0-.1.1 0 0-.1-.1 0 0 .2-.1.1s0-.1-.2-.2h.1c-.1 0-.3-.2-.4-.2-.1-.1-.3-.3-.2-.4 0 0-.2-.1-.3-.2.3 0-.3-.3-.1-.4-.2 0-.3-.4-.6-.6h.1c-.1-.1 0-.2 0-.3-.2.1-.3-.2-.4-.2.1-.3.2 0 .4-.1-.1.1-.3-.3-.3-.1 0-.2 0-.1.1-.3-.2.1-.1-.1-.2-.2 0-.3.2-.1.1-.3-.3-.2-.1 0-.1 0zm-2-5.7.1.1-.1-.1zm-.2-.5c0 .1 0 .1.1.2-.1 0-.1.1-.2 0 .1.1.1-.1.1-.2zm-1 1.6c-.1-.1 0-.1 0-.1.1 0 .1 0 0 .1h.1-.1zM170.5 141.4zM138 130.9zM164.9 135.5zM135 131.4s-.1 0 0 0c-.1 0-.1 0 0 0zM134 132.1h-.2.2zM133.3 132.5v.1-.1z"/>
		<path d="M148 129.3c0 .1 0 .1 0 0 .2.1.1 0 0 0zM142.6 127.9c.1-.1.1-.2.2-.2-.1-.2-.1-.2-.2.2zM150.7 134.4s0 .1 0 0zM143.1 127.7c-.1-.1-.2-.1-.2-.1 0 .1.1.1.2.1zM129.9 133.7zM129.9 133.7c-.1 0 0 0 0 0zM129.7 133.7h.1-.1zM131 133.6c0-.1 0-.1 0 0zM131.3 133.5c-.1 0-.2-.1-.3 0v.1c.1-.2.3 0 .3-.1zM133.1 134h-.3c.1.1.2.2.1.2.4.2-.2-.1.2-.2zM134.1 133.7c-.1.1.1.1.1.2 0-.1.1-.2-.1-.2zM139.9 130.3l.2.4c.1-.1-.1-.2-.2-.4zM140.4 127.6l-.2-.2v.4c.1-.1.1-.2.2-.2zM141.7 130.8l-.1.1.1-.2zM146.4 137l.6-.2c-.2-.1-.8.1-.6.2zM149.7 141.7c-.1.2-.1.5.2.4-.1-.1-.1-.4-.2-.4zM164.2 138.5v.2l.1-.2zM189 127zM189 126.6c0-.1-.1-.1-.1-.1 0 .1 0 .1.1.1v.2-.2zM188.9 121.1zM188.8 117.6h.1-.1zM189.2 116.9c0 .1 0 .1 0 0 0 .1.1 0 0 0zM188.9 121.1l.1-.1c-.1 0-.1.1-.1.1zM188.7 125.9zM189.3 122.6h.1-.1zM189.3 123.7h-.3.1c.1.1.1.1.2 0zM189 125.6zM189.3 121.7h.1-.1zM172.4 96.3zM171.2 95.5h.1zM189.7 115.7zM186.3 106.1c-.4.3-.7.1-1.1.5.2-.1.8-.2 1.1-.5zM188.7 125.9c0-.1 0-.1 0 0zM185.2 106.6zM188.9 113.3c-.1 0-.2.1-.2.1.1 0 .1-.1.2-.1zM188.6 115.3zM188 112.5s.1 0 0 0zM187.7 111.6s-.1 0 0 0zM174.7 98c0-.1 0-.2.1-.2-.1.1-.2.1-.1.2zM188.7 125.9zM184 113.8v-.2s-.1.1 0 .2zM179.1 102.8zM183.7 113.2c.2-.1.3-.1.3-.2h-.1l-.2.2zM174.8 97.8z"/>
		<path d="M173.8 97.6c.1.1.2-.2.3-.3.2 0 0 .2 0 .4.1 0 .3-.2.4-.1 0 0 0 .1-.1.1.2-.1.3.2.5 0v.1c.1-.2.1-.3.2-.4.1 0 .2-.1.1.1 0 0-.1 0-.1.1h.1c-.1.3-.1 0-.2.2.2 0 .4-.2.5 0-.1.3-.2 0-.3.3l-.1-.2c-.1.5-.1-.1-.2.4.1.2.3 0 .3.2.1-.1.1-.2.3-.4.4-.1-.3.9.1.6.2-.2.4-.5.4-.2l-.3.3c.1.2.4-.4.4-.1-.1.1-.2 0-.2.1-.1.4.2-.1.3-.1l-.2.3c.2.1.5 0 .7.1-.1.1-.2.2-.2.3.3 0 .4.5.4.9l.3-.2s-.1.2-.2.2c0 .2.2-.2.3-.3.1 0-.1.2-.2.3.3-.1.9-.2.7.3l-.1.1c0 .2.7-.5.5-.1h-.1c.1.4.6.4.3 1.1.5-.4 0 .5.7-.2-.2.5-.4.5-.5 1 0 .1.5-.3.7-.3l-.4.3.5-.3-.4.5h.1s.1-.2.3-.3c.3 0-.1.5-.3.7h.5c-.2.1-.3.1-.4.2.5-.2-.4.4 0 .2.1-.1.3-.2.3-.3-.2.3-.1.4 0 .4l-.3.2c0 .3.4.3.5.5.1-.2.7-.6.8-.5l-.5.4c.3-.2.1-.2.6-.4 0 .1-.5.4-.7.5h.2c-.1.1-.2.1-.4.3.3-.2-.4.5.2.2l-.1.1c.1.2.3.2.5.4.4-.3.4-.2.8-.3-.1.2-.3.6-.2.7.3 0 .4-.2.7-.3-.4.3-.3.4-.6.5.2.2.2.2.7.2.2-.1.2-.2.4-.3.1 0-.1.2-.3.3h-.1c.8-.1-.9 1.3.1 1.1h-.1.6c0 .1-.4.1-.6.3.9-.1.1.5.7.4-1.3.8.4.5-.4 1.2l.3-.2c.3-.1-.2.2-.2.2.2-.1.3-.2.5-.2.6.3 0 1.2-.1 1.8 0 .2 1.7-.6 1.1 0l-.6.2c.9.1.3.8 1.1.9-.1 0-.3.1-.3.1-.4.2.1.3.5.2 0 .1-.3.1-.5.2-.2.2.6 0 .2.2h-.2c.2 0 0 .3.5 0-.2.2.3.2.1.4.6-.1-.2.3.6.1-.8.3-.6.5-.1.4-.3 0-.2.2-.6.2 0 .1.2.1.6 0-.9.5.9.1-.3.6.5.2.9.4 1.2.6-.8.2-.2-.3-1 0 .4.2 1.1.1 1 .5-.1.1-.3.1-.5.1.4.2.1.5.6.7h-.2s-.1.1.3 0h-.1c.5-.2 1.1-.1 1.4-.1-1 .2-.2.3-1.4.5h.5c-.1.1-.2.1-.4.1.2.1.6 0 .6.1-.2 0-.2 0-.4.1.3 0 .7 0 .6.2-.1 0-.2.1-.2 0 .1.2.9.2.7.5-.7.1-.2.1-.8.3l.2.1.3-.1c0 .1.5.1.3.3h-.3l.2.2.2-.2c.3.1.7-.2.6 0-.1 0 0 .1-.3.3.2 0 .4 0 .3.2-.2.1-.6.1-.7.1.5 0 .2.3.7.2-.1 0-.4.1-.5.1h.4c-.1.1-.2.1-.4.1 0 .2.7-.2.4.1h-.1c-.1.2.3.3.2.6-.5.1-.2-.1-.6 0 .2.2.7.4.7.7v-.1c.7-.1-.3.2.1.3h-.3c-.1.2.2.3.5.6h-.2c-.1.1 0 .3-.1.4.2 0 .1.1.4 0-.7.5.5.6 0 1 0 0-.1-.1-.1 0l.2.2c.2 0 .1-.1.3-.1.1 0 .2.1.2.1-.2-.1-.3 0-.4.1h.2c-.3.2.4 0 .2.2h-.1c.1.1.2.1.2.2-.2.1-.1-.1-.3 0 0 .1.4.2.2.3-.1 0-.1-.1-.1-.1-.2.1-.2.1-.2.2l-.1.2.1-.1c.5.1.1.3.5.4-.3-.1-.2 0-.4 0 0 .1-.1.1-.1.1.2.1-.1.2.2.2-.1 0 0 .1-.1.1.1.1.1 0 .2 0 .2.2-.1.4.2.6.1.2.3.2.3.4 0 .1-.1 0-.1 0v.3h-.1c0 .1.1 0 .1.2 0 0-.1 0-.1-.1 0 .1.1.2.1.3l-.1-.1c0 .1.1.3.1.3v-.1c-.1-.1 0-.1 0-.1v.1c.1-.1 0-.3-.1-.4l.1.1-.1-.1s.1-.1.1 0c.1-.1-.1-.1 0-.2v-.1h.1c.1-.2-.1-.3 0-.4-.1-.2-.1 0-.3-.2l.4-.2h-.2s0-.1.1-.1c-.1-.1-.1 0-.2 0 .1-.1-.1-.3.2-.4-.1 0-.1.1-.2 0 .3-.1-.1-.1.1-.3.2 0 .1.1.2 0-.3 0 .1-.2 0-.3-.3 0-.1-.2-.2-.3.1 0 .1-.3.2-.5h.1c-.3 0-.3-.2-.3-.3h.4v-.1c-.1 0-.2 0-.2-.1h.3c0-.1-.3-.2-.1-.5-.3 0-.7.2-.9.1.1 0 .4-.1.4 0 0 0-.1 0-.1-.1h.2c.1-.1-.2 0-.2-.1.2 0 .1-.1.3-.1 0 0-.1.1 0 .1 0-.1.1-.2.3-.2h-.3c0-.1.2-.1.3-.2-.1 0 0-.1-.3-.1 0 0 .1-.1.2-.1-.1-.1-.1-.3-.4-.2-.4-.2.1-.5 0-.7h.1c-.2-.1-.1-.3-.4-.4 0 0 .2-.1.4-.1-.1-.1-.3-.1-.1-.3.2.1.2-.1.2.1.1-.2.3-.2-.1-.3.3 0 .4-.2.3-.2l-.2.1c-.1-.1 0-.1 0-.2h.5c.5-.4-1-.3-.1-.8-.3 0-.2.2-.6.2 0-.1.7-.4.7-.5.3-.2-.7 0-.6-.3-.2.1-.6.2-.8.1 0-.1.7-.3.9-.3 0 0 0 .1-.1.1.1 0 .2.1.3 0h-.2c.2-.1.1-.3.4-.3-.2-.1-.3 0-.4.1.2-.2 0-.3.1-.5-.1.1-.3.1-.3.1.2-.3-.4 0-.5-.2.3-.2.7-.1.4-.2.2-.2.5-.1.7-.1-.4-.1.2-.4.3-.5l.2.1c-.1 0-.1-.1-.1-.1l-.4.1c.1-.1.1-.1.2-.1-.3 0-.6.2-1 .2.2-.1-.2-.1.3-.3-.1.3.5-.1.6 0-.1 0-.1-.1 0-.1h.1c.4-.3-.6 0-.6-.2.3 0 .5-.2.5-.2 0 .1-.5.2-.7.1.2-.2-.2-.1-.2-.2l-.1.1c-.3 0-.3 0-.4-.1.2-.1.2 0 .3 0-.5 0 .5-.4.1-.4.2-.1.6-.2.7-.3-.4-.1.4-.3 0-.4-.4.2-.3.1-.7.1l.3.2h-.6c0 .1.3.1.2.2-.4 0-.2 0-.6.1.6-.3-.4-.1 0-.4l1-.3c.4-.3-.6-.2-.4-.5l-.2.1c-.4.1-.1-.1-.3-.2.4-.1.5-.2.7-.3-.3.1 0-.2-.7 0l.4-.3c.1-.3-1.1.1-1-.2.4-.1.6-.2.9-.2 0-.1 0-.1-.2-.1.2-.1-.5 0-.2-.2-.2 0-.5.1-.5 0 .1 0 .2-.1.2-.1-.2.1-.3 0-.7.2 1.1-.6-.3-.5.7-1-.2-.1-.3-.2-.4-.4.1 0 .2-.1.2 0 .3-.3-1.1.3-.8-.1.6-.3.4 0 .6-.1 1.2-.5-.2-.2.4-.6h.1c.4-.3-.5-.1-.5-.3 0 0 .1 0 .2-.1-.7.1-.9 0-1.2-.1.5-.1.3 0 .7-.2-.1 0-.8.3-.9.2.2-.1.4-.3.9-.5l.1.1c.6-.3-.1-.2 0-.3l.3-.1c-.2-.2-.9.1-.9-.1l-.2.1c-.8.2.4-.3-.2-.2l.7-.3c-.2 0-.8 0-1-.1.6-.2.9-.1 1.3-.1 0-.1-.2-.2-.5-.1h.2c-.6.1-.9.1-1 0 1.4-.6.2-.6 1.2-1.2-.6 0 0-.7-.3-.9-1 .6-.1-.1-1.2.5-.1 0-.1-.1 0-.1l.5-.5c.3-.2.3-.1.5-.2 0-.2.4-.3.7-.6-.4.2-.6.2-.5.1l-.4.4c-.7.1.8-.7.1-.6l.4-.1c-.3 0-.2-.4-1.2-.1.1-.1.4-.3.5-.3 0-.4-1.3-.1-.9-.6l.3-.1c-.1 0-.5.2-.3 0 .1-.1.3-.1.3-.2-.1 0-.5.1-.4 0l.3-.1c.2-.5-.9 0-1.2-.1.7-.4.8-.8.8-1l.1-.1c-.1-.4-.9-.1-1.4-.2.6-.7-.1-.8 0-1.3-.1.1-.5.4-.6.4.1-.2-.6.2 0-.3.5-.5.3-.5.2-.6l-.7.6c.8-1.1-1-.3-.2-1.2-.2.1-.3 0-.5.1l.4-.3c-.1-.2-.1-.3-.4-.5l.3-.2c-.1-.1-1.1.8-1.2.7l.5-.5c-.2-.2 0-.8-.6-.5.1-.1.2-.2.3-.2-.1-.1-.1-.6-.7.1.4-.4-.2-.2-.5-.1l.3-.3c-.4.3-.5.4-.8.4 0-.1.2-.3.2-.2 0-.2-.3.2-.3 0l.2-.2c-.1-.1-.2 0-.4.2-.2.1-.2-.2 0-.5-.1.2-.4.3-.4.2l.2-.2c0-.3-.5.1-.5-.2.1-.1.1-.1.1-.2.2.1.3.2.2.2.2-.3.1-.4.5-.7-.3.1-.8.5-.8.3V97h-.1v-.1c.1-.2-.1-.2-.1-.2-.2.3-.2.2-.3.5h.1s.1 0 .2.1c-.2.1-.3.2-.2 0l-.4.4c.2-.4.1-.7.3-1-.3.1-.6-.1-1 .3-.1 0 0-.2 0-.3.1 0 .1 0 .2-.1-.2.1-.4-.1-.6.2-.1-.2.3-.2 0-.3l.1-.1c-.1-.3-.3-.2-.6-.1s-.5.2-.6-.2v.1c-.4-.4-1.1-.2-1.5-.6-.1-.1-.2 0-.3.1v-.1l-.2.1c-.2 0-.3-.3-.6-.2v.1c-.1 0-.3 0-.3-.1h-.4c-.2 0 .1-.1-.2-.1h-.3.1-.1l.1.1.1.1-.1-.1c.1.1.1.1.2.1l.1.1h.2s-.1 0 0 .1c.1 0 0-.1.1-.1.1.1 0 .1.1.1h-.1c.1 0 .2.1.2.1 0 .1.2.1.2.2h.2c-.2.1.2.2.1.4.1-.1.3.1.5.1h-.1c.1.1.1.2.1.3.1-.2.2-.2.4-.3 0 .3-.2.2-.2.4.1-.2.2-.1.3-.2v.3c.1-.3.1 0 .2-.1 0 .2-.1.3 0 .3-.7.3-.9.3-.9.3zm2.9 1.5zm.2.2s0-.1 0 0c0-.2.1-.3.1-.3-.1.1-.1.2-.1.3zm.9-2.3c.1 0 0 0 0 .1V97l-.1.1c.1 0 .1-.1.1-.1zM177.5 97.3s0 .1 0 0zM188.9 121.2c-.1 0 0 0 0 0zM178.8 102.7l.1-.1-.1.1zM188.1 122.9zM188.2 123.6l-.1.1.1-.1zM188.3 124.1zM185.5 116.1c-.2 0-.1 0 0 0zM187.2 118.3h-.2.2zM184 113.8z"/>
		<path d="M187 118.1c-.1.1 0 .1 0 .1s.1 0 0-.1zM188.8 126.4zM188.8 126.4zM188.9 126.5c0-.1 0 0 0 0zM188.7 125.7c-.1 0 0 0 0 0zM188.6 125.5v.2c0-.1.1-.2 0-.2zM189.1 124.5v.2c.1 0 .1-.1.1 0 .2-.3-.1 0-.1-.2zM189.2 123.9c0 .1.1 0 .1 0h-.1zM189 119.8h.3c0-.1-.1 0-.3 0zM187.1 119.4l-.2.1h.4zM189.6 118.5l-.1-.1zM188.2 111.6l-.6.2c.1 0 .8-.2.6-.2zM186.6 108.9c.3-.1.4-.3.1-.2 0 .1-.2.2-.1.2zM182.6 100.5h.2-.2zM163.7 103.3c0-.2-.1-.5-.2-.5l.1.7.1-.2zM162.9 102.2c0 .3.1.9.3 1.5-.1-.6 0-.4-.1-1.1 0-.1.2.2.2.4 0-.2.1.1.1-.3-.2-.5-.4-.5-.4 0-.1-.2-.1-.3-.1-.5zM155.8 103.2zM151.4 104v-.1.1zM150.5 103.5zM155.8 103.2l-.2-.2c0 .2.1.1.2.2zM162.4 104v-.2.2zM157.5 102.1v-.3.3zM158.9 101.6s.1.5.2.8c0-.2-.1-.3 0-.4-.1-.1-.2-.2-.2-.4zM161.4 101.9c.1 0 0 0 0 0zM156.4 102.3c0-.1-.1-.1-.1-.2.1.1.1.1.1.2zM117.4 117.6zM115 115.4c0-.1 0-.2-.1-.3l.1.3zM149 103.2c0-.1 0-.1 0 0zM136.9 107c.3.4-.1.7.3 1.2-.1-.2 0-.9-.3-1.2zM162.3 104zM137.2 108.2zM146 104.4c0 .1.1.2.1.2 0-.1 0-.1-.1-.2zM148.5 104.5zM145 105.5c0-.1 0-.1 0 0-.1 0 0 0 0 0 0-.1 0-.1 0 0zM143.8 105.8s0 .1.1.1l-.1-.1zM121 116.3c-.1-.1-.1-.3-.2-.5.2.4 0 .6.2.5zM162.3 103.7v.2-.2zM146.2 109.8h-.2.2zM129.9 113.8c0 .1 0 0 0 0zM145.4 110c-.1-.2-.2-.3-.2-.3v.1l.2.2zM120.9 115.9z"/>
		<path d="M119.9 117.5c.2 0-.1-.7-.2-1.1.2-.3.2.5.4.8.1-.2 0-.9.1-.9 0 .1.1.2.1.3 0-.6.4-.2.4-.9 0 .1.1.1.1.2-.1-.3-.2-.7-.3-1 .1 0 0-.5.2 0-.1 0 0 .2 0 .3v-.2c.3.6-.1.3.1.8.1-.3.2-.9.3-.7.2.6-.2.3.1.8l-.3-.2c.4 1-.1 0 .3 1 .3.1.2-.4.5-.3 0-.4-.2-.5-.2-.9.2-.8.8 1.6.8.6-.1-.5-.3-1.3.1-.9l.1.8c.3 0-.2-1.1.3-.7 0 .3-.1.3-.1.4.3.5 0-.5.1-.5l.2.6c.2-.2.4-.7.7-.9 0 .2 0 .4.2.6.3-.4.8-.1 1.3.1v-.6s.1.2.1.4c.2.2-.1-.4-.1-.6.1-.1.2.3.2.5.1-.6.4-1.2.9-.7v.2c.3.2-.1-1.2.3-.8v.1c.5.1.9-.5 1.5.2-.2-.8.6.2.3-.9.4.5.4.7.9 1 .1 0-.1-.7 0-.9l.2.6v-.7l.3.7.1-.2c-.1 0-.2-.2-.2-.4.1-.3.5.3.6.6l.3-.6c.1.2 0 .3 0 .5.1-.7.2.6.3 0-.1-.1-.1-.4-.1-.5.2.3.4.3.6.1l.1.4c.3 0 .6-.4.9-.5-.2-.2-.3-.9-.3-1l.2.6c0-.4-.2-.2-.2-.7.1 0 .3.7.3.9l.1-.3c.1.2.1.3.1.5 0-.4.4.6.4-.1l.1.2c.3-.1.4-.4.7-.5-.1-.5 0-.5 0-.9.3.1.6.5.8.4.1-.3-.1-.5-.1-.8.2.5.4.4.4.8.3-.2.4-.2.6-.7-.1-.2-.2-.3-.2-.4 0-.1.2.2.3.4v.1c.2-.9 1.4 1.2 1.4 0v.1l.2-.6c.2 0 0 .4.2.7.1-.9.6 0 .8-.7.7 1.4.8-.3 1.4.5l-.1-.3c0-.4.2.2.2.2-.1-.3-.2-.3-.2-.5.6-.6 1.6.1 2.4.2.3 0-.3-1.8.2-1.1l.1.7c.3-.9 1.1-.3 1.5-1.1 0 .2.1.3 0 .4.2.4.4-.1.3-.5.1 0 .1.3.2.5.2.2.1-.7.3-.2v.2c0-.2.4 0 .1-.6.3.2.3-.3.6-.1-.1-.6.4.2.2-.7.2.9.5.6.6.2 0 .3.2.2.2.6.1-.1.2-.3.1-.7.6 1 .3-1 .8.3.3-.6.6-1 .9-1.3.2.9-.4.2-.1 1.1.3-.5.3-1.3.7-1.2.1.1.1.4.1.5.3-.5.7-.1.9-.7v.3c.1 0 .2.1.1-.3v.1c-.3-.5-.1-1.3-.2-1.6.2 1.2.4.2.6 1.7 0-.1 0-.3-.1-.5.1.1.1.2.2.5.2-.3 0-.7.2-.7.1.2 0 .3.1.5 0-.4 0-.8.2-.7 0 .1.1.3 0 .3.3-.1.2-1.1.7-.9.1.9.2.2.4 1l.1-.3-.2-.3c.2 0 .1-.6.3-.4v.3l.3-.2-.2-.2c.1-.4-.3-.9 0-.8 0 .1.2 0 .4.4 0-.3 0-.5.2-.4.1.2.2.8.3.9-.1-.6.3-.3.2-.9 0 .2.1.5.1.6l-.1-.5c.1.1.1.2.2.5.2 0-.3-.9 0-.6v.2c.3.1.4-.4.7-.3.3.7-.2.2.1.8.3-.2.5-1.1.8-1l-.1-.1c-.2-1 .4.4.4-.1 0 .1.1.6.1.5.3.1.4-.4.6-.8v.3c.2.2.4 0 .6.1 0-.3.1-.3-.1-.6.9 1.4.6-1 1.4.1v.3l.3-.3c-.2-.4-.1-.3-.3-.6 0-.3 0-.5.1-.5-.1.3.2.7.3.9 0-.1-.1-.3-.1-.4.4.7-.2-.9.2-.4l.1.2c.1-.1.1-.5.2-.4.2.5 0 .3.1.7.1-.1 0-1.1.3-.6 0 .2-.1.2-.1.3.3.6.3.4.4.5l.3.2-.1-.1c-.2-1.4.3-.3.3-1.3 0 .9.1.5.2 1.1.1.1.2.3.3.5 0-.5.3.3.2-.4.1.2.1 0 .2.5.1-.2-.1-.3-.2-.6 0-.7.7.6.8-.3.2-.4 0-1.1.2-1.5.2.3.1.7.1.7.2.2.3.2.4-.1 0 .2.1.3.2.5.1-.1-.1-.7.1-.5 0 .2.1.6.1.8.1-.2.1-.6.2-.8.1.3.1.5.1.7.1-.2.3-.4.2-.9l-.1-.2s.2.4.1.5c0 .4-.2-.1-.3-.3l.1-.1c-.4-1.1-.3.3-.5.3l-.2-.8v.7c-.1-.2-.3-.6-.2-.8-.2-.4 0 .3-.3-.1v-.1l-.1.3c0-.2-.2-.6-.1-.5-.4-.4-.2.7-.5.1v-.1c-.2.4.1.6.1 1.4l-.6-1.4.1.6s-.1 0-.2-.3c0 .4.1.2.1.6-.3-.5-.4.4-.7-.6.1.5.2.3.2.7-.3-1-.1.2-.4-.2-.1-.5.1-.3-.2-.7.2.9-.3-.1-.4.1.2.7-.2.4-.3.7-.1-.2-.5-.3-.7-.5v-.1c.2.7-.1.6-.2.8-.1-.4-.1-.6-.1-.8h-.1v.5l-.1-.5c-.2.1-.2.7-.5.4.1.5.6 1.3.4 1.7-.1-.3-.2-.7-.2-.8 0 0 0 .2-.1.1v-.5c-.2-.2.1.4 0 .4-.1-.4-.1-.3-.2-.6 0 0 .1.1.1 0-.1 0-.3-.2-.4-.5.1.2.1.5.1.6-.2.1-.2-.4-.3-.6 0 .3-.2 0 0 .6-.1 0-.1-.3-.2-.4 0 .3-.4.2-.1.8-.1.6-.7-.1-.9.2l-.1-.2c-.1.3-.4.2-.4.7-.1 0-.2-.3-.3-.5-.1.2-.1.4-.3.1 0-.4-.1-.3.1-.3-.2-.1-.3-.4-.4.2-.1-.5-.3-.6-.3-.4l.2.3c-.1.1-.2.1-.3.1l-.1-.7c-.6-.7-.3 1.5-.9.3 0 .5.3.3.3.8-.2 0-.6-.9-.7-.9-.3-.3.1 1-.3.8.1.2.3.8.2 1.1-.2 0-.5-.9-.4-1.1 0 0 .1 0 .1.1 0-.1.1-.2-.1-.4v.2c-.1-.2-.4-.1-.4-.5-.1.3.1.4.2.5-.3-.3-.3.1-.6-.1.1.1.2.4.1.4-.4-.2 0 .5-.2.6-.2-.3-.2-.8-.3-.5-.2-.2-.2-.6-.2-.8-.1.5-.5-.2-.6-.2l.1-.2c0 .1-.1.1-.1.2l.2.4c-.1-.1-.1 0-.2-.2 0 .3.3.7.3 1.2-.1-.2-.2.3-.4-.3.3.1-.2-.6 0-.8 0 .1-.1.1-.2 0v-.2c-.4-.5.1.7-.2.8-.1-.4-.2-.6-.3-.5.1 0 .2.6.2.8-.2-.2-.1.2-.2.2l.1.1c.1.4 0 .3-.1.5-.1-.3.1-.2 0-.3 0 .6-.5-.5-.5-.1-.1-.2-.2-.6-.3-.8-.1.5-.3-.4-.5 0 .2.4.2.3.1.8l.3-.4v.7c.1 0 .1-.3.2-.3 0 .4 0 .3.1.7-.3-.6-.2.5-.5.1l-.3-1.1c-.4-.4-.3.7-.7.5l.2.2c.1.5-.2.1-.2.3-.1-.4-.2-.5-.3-.7.1.3-.2 0-.1.8l-.3-.5c-.3-.1 0 1.2-.3 1.1 0-.4-.2-.7-.1-1-.1 0-.2 0-.1.2-.1-.2-.1.6-.3.2 0 .2.1.6 0 .6 0-.1-.1-.2-.1-.2.1.2-.1.3.1.7-.6-1.1-.7.3-1.2-.7-.1.2-.3.4-.5.4 0-.1-.1-.2 0-.2-.3-.3.2 1.1-.2.8-.3-.6 0-.4-.1-.6-.4-1.2-.3.3-.6-.4v-.1c-.3-.4-.2.6-.4.5 0 0 0-.1-.1-.2 0 .7-.2 1-.3 1.2-.1-.5 0-.3-.2-.8-.1.1.3.8.1 1-.1-.3-.3-.4-.5-1l.2-.1c-.3-.7-.2.1-.3 0l-.1-.3c-.2.2 0 .9-.3 1l.1.2c.1.8-.3-.4-.3.2l-.3-.6c-.1.2-.2.8-.3 1-.1-.6.1-.9.1-1.3-.1 0-.3.2-.3.5 0-.1 0-.3.1-.2 0 .6 0 1-.3 1-.4-1.5-.6-.2-1.1-1.3-.2.6-.8 0-1.2.2.5 1.1-.1.1.2 1.2-.1.1-.1.1-.2 0l-.5-.6c-.2-.3 0-.3-.1-.5-.2 0-.2-.5-.5-.7.1.4.1.6-.1.5l.3.5c-.1.7-.5-.9-.7-.2v-.4c-.1.3-.6.2-.5 1.1-.1-.1-.2-.4-.1-.5-.4 0-.6 1.2-1 .7l-.1-.3c0 .1 0 .6-.1.3 0-.1-.1-.3-.1-.3 0 .1 0 .6-.2.4v-.3c-.5-.3-.3.9-.6 1.2-.2-.8-.6-1-.8-1.1v-.1c-.5 0-.5.9-.8 1.3-.5-.9-.9-.2-1.5-.6.1.1.2.7.1.8-.1-.1-.1.7-.3-.1-.3-.7-.4-.5-.6-.5l.3 1c-.8-1.4-.9.8-1.4-.4 0 .3-.1.3-.2.6l-.1-.5c-.3-.1-.4-.1-.7.1v-.4c-.2 0 .2 1.6.1 1.7l-.3-.8c-.3.1-.8-.5-.9.3 0-.1-.1-.4 0-.4-.2 0-.7-.4-.4.7-.2-.7-.3 0-.4.4l-.1-.5c0 .7.1.9 0 1.2-.1-.1-.2-.4-.1-.3-.2-.2 0 .5-.3.3v-.4c-.2 0-.1.2-.1.6 0 .2-.3 0-.5-.5.1.3.1.7-.1.6-.1-.2-.1-.3-.1-.4-.4-.3-.2.7-.6.3-.1-.2-.1-.3-.1-.3.2 0 .4-.1.4 0-.1-.5-.3-.5-.4-1.3 0 .4 0 1.3-.3 1.1 0 0 0-.1-.1-.2v-.1c-.1 0-.1 0-.1.1-.1-.1-.1-.1-.2-.1-.1-.4-.3-.2-.4-.2.2.5 0 .5.3.9v-.2c.1 0 .1-.1.2-.1 0 .3 0 .5-.2.3.1.4.1.7.1.9-.3-.7-.7-1.1-.8-1.5-.2.4-.6.4-.5 1.4 0 .2-.2-.3-.2-.4 0-.1.1-.1.1-.3-.1.3-.4.2-.3.9-.3-.3-.1-.7-.3-.5v-.2c-.8-1-.3 2-1.3.8.1.1.1.1.1.2-.8-.5-1.2 1-2.1.1-.2-.2-.1.3-.1.7l-.2-.6v.7c-.1.6-.9-1.3-.9-.3l.2.4c-.1 0-.3.3-.4-.1 0 .1.1.4 0 .2l-.1-.3-.2.6c-.3-.2-.3-1.2-.7-1.2-.1.2-.1 1 0 1.2.1 0 .2.2.3.5l-.1.2c.2.9.4 1.8.9 2.4v-.6l.2.4-.2.1c.2.4.2 0 .2-.3.1.2.2.4.2.5v-.9c.1.3.1.7.3.9 0-.4-.3-.8-.2-1.1.2.4.3.7.3.3.1.2.1.4.1.5 0-.3.2-.2.1-.7.2.5.3-.2.5.6 0-.2 0-.7.1-.8.1 1.1.4 0 .6 1.1-.1-.9.3-.5.4-1.1v.2c.1 0 .3.3.4.5-.2-.8-.1-1-.1-1.5.4.7.2.9.4 1.6-.2-.6.1-.7-.1-1.2.2.4.2.2.4.8-.2-.9.1-.2 0-.8.3.4.3.9.4.5.5.5.4.9.4.9zm3.9-2.8zm.4-.2h-.2c-.1-.2-.1-.4-.1-.4.1.2.2.3.3.4zm-1.8-3.5c0-.1.1 0 .1.1 0 0-.1 0-.1.1v.1-.3z"/>
		<path d="M122.5 111.7c-.1.1-.1.1 0 0 0 .1 0 .1.1.2-.1-.1-.1-.1-.1-.2zM155.8 103.2s0 .1 0 0c0 .1 0 .1 0 0zM129.5 114.2v-.2.2zM158.4 104.5s0 .1.1.1c-.1 0-.1 0-.1-.1zM159.3 104.4l.2.2-.2-.2zM160 104.5c0-.1 0-.2-.1-.2l.1.2zM149.6 108.1s-.1 0 0 0c-.1.2-.1.1 0 0zM152.4 106v.3s.1 0 0-.3zM146.2 109.8s0-.1 0 0c0-.1 0-.1 0 0zM152.2 106.3c.1.1.1.1.1 0s-.1-.1-.1 0zM163 103.9zM163 103.8zM163.1 103.6v.2c-.1 0 0 0 0-.2zM162 103.9v.2c.1 0 .1-.1 0-.2z"/>
		<path d="M161.8 104c.1 0 .3.4.3.2v-.2c0 .4-.4-.3-.3 0zM160 101.9l.3.1c-.1-.2-.2-.5-.1-.5-.6-.6.1.4-.2.4zM159.2 101.8c.1-.1-.1-.3-.1-.4 0 .2-.1.3.1.4zM154.1 103.2l-.1-.5c-.1.1.1.2.1.5zM153.9 106.1l.2.2-.1-.4zM152.3 102.7v-.1l-.1.3zM143.9 105.3l.2.6c0-.2-.2-.8-.2-.6zM140.4 106.9c-.1-.3-.3-.5-.3-.1.1 0 .3.2.3.1zM129.1 109v-.2.2zM173.4 106.9c0-.2-.1-.5-.2-.4l.1.7.1-.3zM172.5 105.9c0 .3.1.9.3 1.5-.1-.6 0-.4-.1-1.1.1-.1.2.2.2.4 0-.2.2.1.1-.3-.2-.5-.4-.4-.4 0 0-.2-.1-.4-.1-.5zM164.7 107.1zM159.9 108.1v-.2.2zM158.9 107.6s.1 0 0 0c0 0 0-.1 0 0zM164.7 107.1l-.2-.2c.1.2.1.1.2.2zM171.9 107.7v-.2.2zM166.6 105.9v-.3.3zM168.1 105.4s.1.5.2.8v-.4c-.1-.1-.1-.3-.2-.4zM170.9 105.6zM165.4 106.2c0-.1-.1-.1-.1-.2.1 0 .1.1.1.2zM122.4 123s0-.1 0 0zM119.8 120.9c0-.1 0-.2-.1-.3l.1.3zM157.3 107.3zM144 111.6c.3.4-.1.7.3 1.2-.1-.2-.1-.9-.3-1.2zM171.9 107.6c-.1.1-.1.1 0 0-.1.1-.1.1 0 0zM144.3 112.8zM154 108.6c0 .1.1.2.1.2s-.1-.1-.1-.2zM156.7 108.7zM152.9 109.8s-.1-.1-.1 0h.1c-.1-.1-.1-.1 0 0zM151.5 110.2s0 .1.1.1c0-.1 0-.1-.1-.1zM126.4 121.6c-.1-.1-.1-.3-.2-.5.2.4 0 .6.2.5zM171.8 107.4v.2c.1-.1 0-.2 0-.2zM154.1 114h-.2c0 .1.1.1.2 0zM136.1 118.7c0 .1 0 0 0 0zM153.2 114.3c-.1-.2-.2-.3-.2-.3v.1l.2.2zM126.2 121.1z"/>
		<path d="M125.2 122.8c.2 0-.1-.7-.2-1.1.2-.3.3.5.5.8.1-.2 0-.9.1-.9 0 .1.1.2.1.3 0-.6.5-.2.5-.9 0 .1.1.1.1.2-.1-.3-.2-.7-.3-1 .1 0 0-.5.2 0-.1 0 0 .2 0 .3v-.2c.3.6-.1.3.1.8.1-.3.2-.9.4-.7.2.6-.3.3.1.8l-.3-.2c.5 1-.2 0 .3 1 .3.1.2-.4.6-.3 0-.4-.2-.5-.2-.9.2-.8.8 1.5.9.6 0-.5-.3-1.3.1-.9l.1.8c.3 0-.1-1.1.3-.7 0 .3-.2.3-.1.4.4.5 0-.5.2-.5l.2.6c.3-.2.5-.8.8-1 0 .2 0 .4.2.6.3-.4.9-.2 1.4.1v-.6s.1.2.1.4c.2.2-.1-.4-.1-.6.1-.1.2.3.2.5.1-.6.5-1.3 1-.7v.2c.3.2-.1-1.2.3-.8v.1c.6.1 1-.6 1.6.2-.2-.8.6.2.3-.9.4.5.4.7.9 1 .1 0 0-.8.1-.9l.2.6v-.7l.3.7.1-.2c-.1 0-.2-.2-.2-.4.1-.3.6.3.7.6l.3-.6c.1.2 0 .3 0 .5.1-.7.2.6.3 0-.1-.1-.1-.4-.1-.5.2.3.5.3.6 0l.1.4c.4 0 .7-.4 1-.5-.2-.2-.4-.9-.3-1l.2.6c0-.4-.2-.2-.2-.7.2 0 .3.7.3.9l.1-.3c.1.2.1.3.1.5 0-.4.5.5.4-.2l.1.2c.4-.1.5-.4.8-.5-.2-.5 0-.5 0-.9.3.1.7.5.9.3.1-.3-.1-.5-.1-.8.2.5.4.4.4.8.3-.2.4-.2.7-.7-.1-.2-.2-.3-.2-.4.1-.1.2.2.3.4v.1c.3-.9 1.5 1.1 1.6 0v.1l.2-.6c.2 0 0 .4.2.7.2-.9.7-.1.9-.7.7 1.4.9-.4 1.5.4l-.1-.3c0-.4.2.2.3.2-.1-.3-.2-.3-.2-.5.7-.6 1.8 0 2.7.1.3 0-.3-1.8.3-1.1l.1.7c.4-.9 1.2-.3 1.6-1.1 0 .2.1.3 0 .4.3.4.5-.1.4-.5.1 0 .1.3.2.5.2.2.1-.7.3-.2v.2c0-.2.4-.1.2-.6.3.2.4-.4.6-.1-.1-.6.5.2.3-.7.2.9.6.6.6.1 0 .3.2.2.3.6.2-.1.3-.3.1-.7.6 1 .3-1 .9.3.3-.6.7-1 1-1.4.2.9-.4.2-.2 1.1.3-.5.3-1.3.8-1.2.1.1.1.4.1.6.3-.5.8-.1 1-.7v.3c.1 0 .2.1.1-.3v.1c-.3-.5-.1-1.3-.1-1.6.2 1.2.4.2.7 1.7 0-.1 0-.3-.1-.6.1.1.2.2.2.5.2-.3 0-.7.2-.7.1.2 0 .3.1.5 0-.4 0-.8.3-.7 0 .1.1.3 0 .3.3-.2.3-1.2.7-.9.1.9.2.2.4.9l.1-.3-.2-.3c.2 0 .2-.6.4-.4v.3l.3-.2-.3-.2c.1-.4-.3-.9 0-.8 0 .1.2 0 .4.4 0-.3 0-.5.2-.4.1.2.2.8.3.9-.1-.6.4-.3.3-1 0 .2.1.5.1.6l-.1-.5c.1.1.2.2.2.5.3 0-.3-.9.1-.6v.2c.3.1.5-.5.8-.3.3.7-.2.2.1.8.3-.2.5-1.1.9-1l-.1-.1c-.2-1 .4.4.5-.1 0 .1.1.6.1.5.3.1.4-.4.7-.8v.3c.2.2.4 0 .6.1 0-.3.1-.3-.1-.6.9 1.3.7-1.1 1.5 0-.1 0-.1.3 0 .3l.3-.3c-.2-.4-.1-.3-.3-.6 0-.3 0-.5.1-.5-.1.3.2.7.4.9-.1-.1-.1-.3-.1-.4.4.7-.2-.9.2-.4l.1.2c.1-.1.1-.5.2-.4.2.5 0 .3.1.7.1-.1 0-1.1.3-.6 0 .2-.1.2-.1.4.3.6.3.4.4.5l.3.2-.1-.1c-.2-1.4.3-.4.3-1.3 0 .9.1.5.2 1.1.1.1.3.3.3.5 0-.5.3.3.3-.4.1.2.1 0 .2.5.1-.2-.1-.3-.2-.6.1-.7.8.6.9-.4.2-.4.1-1.1.2-1.5.2.3.1.7.1.7.2.2.3.1.4-.1 0 .2.1.3.2.5.1-.1-.1-.7.1-.5 0 .2.1.6.1.8.1-.2.1-.6.2-.8.1.3.1.5.1.7.1-.2.3-.4.2-.9l-.2-.2s.2.4.1.5c0 .4-.2-.1-.3-.3l.1-.1c-.4-1.1-.3.3-.6.3l-.1-.8v.7c-.1-.2-.3-.6-.2-.8-.3-.4 0 .3-.3-.1v-.1l-.1.3c0-.2-.2-.6-.1-.5-.4-.4-.2.7-.5.1v-.1c-.3.4.1.6.1 1.4l-.6-1.4.1.6s-.1 0-.2-.3c0 .4.1.2.1.6-.3-.5-.4.4-.7-.5.1.5.3.3.2.7-.3-1-.2.2-.5-.2-.1-.5.1-.3-.2-.7.2.9-.4-.1-.4.1.2.7-.2.4-.4.7-.1-.2-.5-.3-.8-.5v-.1c.2.7-.1.6-.2.8-.1-.4-.1-.6-.1-.8h-.1c0 .2 0 .4-.1.5l-.1-.5c-.2.1-.2.7-.6.5.1.5.6 1.3.4 1.7-.1-.3-.2-.7-.2-.8 0 0 0 .2-.1.1v-.5c-.2-.2 0 .4-.1.4-.1-.4-.1-.3-.2-.6 0 0 .1.1.1 0-.1 0-.3-.2-.4-.5.1.2.1.5.1.6-.2.1-.2-.4-.4-.6 0 .3-.2 0 0 .6-.1 0-.1-.2-.2-.4 0 .3-.4.2-.2.8-.2.7-.8-.1-1 .2l-.1-.2c-.1.3-.4.3-.4.7-.1 0-.2-.3-.3-.5-.1.2-.1.4-.4.2.1-.4-.1-.3.1-.3-.2-.1-.4-.4-.4.2-.1-.5-.3-.6-.4-.4l.2.3c-.1.1-.2.1-.3.1l-.1-.7c-.6-.7-.3 1.5-1 .3 0 .5.3.3.4.8-.2 0-.7-.9-.7-.9-.4-.3 0 1-.3.8.1.2.3.8.2 1.1-.2 0-.5-.9-.4-1.1 0 0 .1 0 .1.1 0-.1.1-.2-.1-.4v.2c-.2-.2-.4-.1-.5-.5-.1.3 0 .4.2.5-.3-.3-.4.1-.7-.1.1.1.2.4.1.4-.4-.2 0 .5-.2.6-.2-.3-.2-.8-.3-.5-.2-.2-.2-.6-.2-.8-.1.5-.5-.2-.6-.2l.1-.2c0 .1-.1.1-.2.2l.2.4c-.1-.1-.1 0-.2-.2 0 .3.3.7.3 1.2-.2-.2-.2.3-.4-.3.3.1-.2-.6 0-.8 0 .1-.1.1-.2 0v-.2c-.4-.5.1.7-.2.8-.1-.4-.3-.6-.3-.5.1 0 .2.6.2.8-.3-.2-.1.3-.2.3l.1.1c.1.4 0 .3-.1.5-.1-.3.1-.2 0-.3 0 .6-.5-.5-.6-.1-.2-.2-.2-.6-.3-.8-.1.5-.4-.4-.5 0 .2.4.2.3.1.8l.3-.4v.7c.1 0 .2-.4.2-.3 0 .4 0 .3.1.7-.4-.6-.2.5-.5.1l-.3-1.1c-.4-.4-.3.7-.7.5l.2.2c.1.5-.2.1-.3.3-.1-.4-.2-.5-.3-.7.1.3-.3 0-.1.8l-.3-.5c-.3-.1 0 1.2-.3 1.1 0-.4-.2-.7-.1-1-.1 0-.2 0-.1.2-.1-.2-.1.6-.3.2 0 .2.1.6 0 .6 0-.1-.1-.2-.1-.2.1.2-.1.3.1.7-.6-1.1-.8.3-1.3-.6l-.5.5c0-.1-.1-.2 0-.2-.4-.3.2 1.1-.2.8-.3-.6.1-.4-.1-.6-.4-1.2-.3.3-.7-.4v-.1c-.3-.4-.2.6-.5.6 0 0 0-.1-.1-.2 0 .7-.2 1-.4 1.2-.1-.5 0-.3-.2-.8-.1.1.3.8.1 1-.1-.2-.4-.4-.5-1l.2-.1c-.3-.7-.2.1-.4 0l-.1-.3c-.3.2-.1.9-.4 1l.1.2c0 .8-.3-.4-.3.2l-.3-.7c-.1.2-.2.8-.4 1.1 0-.6.1-1 .2-1.3-.1 0-.4.2-.3.6 0-.1 0-.3.1-.2 0 .6-.1 1-.3 1-.4-1.5-.7-.2-1.2-1.3-.2.7-.9 0-1.3.2.5 1.1-.1.1.2 1.2-.1.1-.1.1-.2 0l-.5-.6c-.2-.3 0-.3-.1-.5-.3 0-.2-.5-.5-.7.2.4.1.6-.1.5l.3.5c-.2.7-.6-.9-.7-.2v-.4c-.1.3-.6.2-.5 1.2-.1-.1-.2-.4-.2-.5-.5 0-.6 1.3-1.1.8l-.1-.3c-.1.1 0 .6-.2.3 0-.1-.1-.3-.1-.3 0 .1-.1.6-.2.4v-.3c-.5-.3-.4 1-.7 1.3-.2-.8-.6-1-.8-1.1v-.1c-.5 0-.6.9-.9 1.4-.5-.8-1-.1-1.6-.5.1.1.2.7.1.8-.2-.1-.1.7-.3-.1-.3-.7-.4-.5-.6-.4l.3 1c-.9-1.4-1 .9-1.6-.4 0 .3-.2.3-.2.6l-.2-.5c-.3-.1-.5-.1-.8.1v-.4c-.2 0 .2 1.6 0 1.7l-.3-.8c-.3.1-.9-.5-1 .3 0-.1-.1-.4 0-.4-.2 0-.8-.4-.4.7-.2-.7-.4 0-.5.4l-.1-.5c0 .7.1.9-.1 1.2-.1-.1-.2-.4-.1-.3-.3-.2 0 .5-.3.3v-.4c-.2 0-.1.2-.1.6-.1.2-.4 0-.5-.5.1.3.1.7-.1.6-.1-.2-.1-.3-.1-.4-.4-.3-.3.8-.6.3-.1-.2-.1-.3-.1-.3.2-.1.4-.1.4 0-.1-.5-.4-.5-.4-1.3 0 .4-.1 1.3-.3 1.1 0 0 0-.1-.1-.2v-.1c-.1 0-.1 0-.1.1-.1-.1-.1-.1-.2-.1-.1-.4-.3-.2-.4-.1.2.5 0 .5.3.9 0 0 0-.1.1-.1v-.1c.1 0 .1-.1.2-.1 0 .3 0 .5-.2.3.1.4.1.7.1.9-.3-.7-.7-1-.9-1.5-.2.4-.6.4-.5 1.5 0 .2-.2-.3-.3-.4 0-.1.1-.1.1-.3-.1.3-.5.2-.3 1-.3-.3-.1-.7-.3-.5v-.2c-.9-1-.4 2.1-1.4.8.1.1.1.1.1.2-.9-.4-1.3 1-2.3.2-.3-.1-.2.3-.2.7l-.2-.6v.7c-.2.6-.9-1.3-1-.2l.2.4c-.2 0-.4.4-.5-.1 0 .1.1.4 0 .2l-.1-.3-.2.6c-.3-.1-.3-1.2-.7-1.2-.1.2-.1 1 0 1.2.1 0 .2.1.3.5l-.1.2c.2.9.4 1.8.9 2.4l.1-.6.2.4-.2.1c.2.4.2 0 .2-.3.1.2.2.4.2.5v-.9c.1.3.1.7.3.9 0-.4-.3-.8-.2-1.1.2.4.3.7.3.3.1.2.1.4.1.5 0-.3.3-.2.2-.7.3.5.3-.2.6.6 0-.2 0-.7.1-.8.1 1.1.4 0 .7 1.1-.1-1 .4-.5.5-1.1v.2c.2 0 .3.3.4.4-.2-.8 0-1-.1-1.5.4.7.2.9.4 1.6-.2-.6.1-.7-.1-1.2.3.4.2.2.4.8-.3-.9.1-.2 0-.8.3.4.3.9.4.5 0-.2-.1.2-.1.2zm4.3-3s-.1 0 0 0c-.1 0 0 0 0 0zm.4-.2h-.2c-.1-.2-.1-.4-.1-.4.1.2.2.3.3.4zm-1.9-3.5c0-.1.1 0 .1.1 0 0-.1 0-.1.1v.1-.3z"/>
		<path d="M128.1 116.9c0 .1 0 .1.1.2-.1-.1-.1-.2-.1-.2zM164.8 107.1s0 .1 0 0c0 .1 0 .1 0 0zM135.8 119.1l-.1-.2v.2zM167.5 108.3s0 .1.1.1c0 0-.1 0-.1-.1zM168.5 108.2l.2.2c-.1-.2-.1-.2-.2-.2zM169.3 108.2c0-.1 0-.2-.1-.2l.1.2zM157.8 112.3c-.1.1 0 .1 0 0zM160.9 110v.3c.1 0 .1 0 0-.3zM154.1 114zM160.7 110.3c.1.1.1.1.2 0-.1 0-.2-.1-.2 0zM172.6 107.6c0-.1 0-.1 0 0zM172.6 107.5c0-.1 0-.1 0 0zM172.7 107.3v.2-.2zM171.5 107.6v.2c.1 0 .1-.1 0-.2z"/>
		<path d="M171.3 107.7c.1 0 .3.4.4.2v-.2c-.1.4-.5-.3-.4 0zM169.3 105.7l.3.1c-.1-.2-.2-.5-.1-.5-.5-.6.2.4-.2.4zM168.5 105.6c.1-.1-.1-.3-.1-.4-.1.2-.1.2.1.4zM162.9 107.2l-.1-.5c-.1.1 0 .2.1.5zM162.6 110l.2.3-.1-.4zM160.9 106.7l.1-.1-.2.3zM151.7 109.6l.2.6c0-.1-.2-.8-.2-.6zM147.8 111.4c-.1-.3-.3-.5-.3-.1.1 0 .3.2.3.1zM135.4 113.9v-.2l-.1.2zM171 115zM171.3 115.2c.1 0 .1.1.1 0h-.1l-.1-.1-.1-.1c.1.1.1.2.2.2zM175.7 118.5c0-.1 0 0 0 0zM178.4 120.5s0 .1 0 0c0 .1 0 .1 0 0zM178.7 121.1zM175.7 118.5v.1c.1-.1.1-.1 0-.1zM172 115.5zM174.4 117.7zM173.5 117l.1-.1c0 .1 0 .1-.1.1zM172.1 115.8zM175.1 118.2s0 .1 0 0c0 .1 0 0 0 0zM199 114.9zM200 114zM179.4 122zM187.7 127.6c0-.3.4-.2.2-.6.1.1-.3.3-.2.6zM172 115.5c.1.1 0 .1 0 0zM188 127zM181.5 123.3v-.1.1zM180.2 122zM182.5 123.6zM183.3 124.1zM196.8 117h.1c-.1 0 0-.2-.1 0zM172 115.5zM183.7 121.8l.1.1s-.1 0-.1-.1zM191.9 122.1c0-.1 0-.1 0 0zM184.2 122.2v.2h.1l-.1-.2zM196.9 117z"/>
		<path d="M197.5 116.1c-.1.1 0 .1.1.2-.1.2-.1 0-.2 0-.1.1 0 .2-.1.3h-.1c0 .2-.2.2-.2.4.1 0 .1.1.2.1 0 .1 0 .2-.1.1v-.1.1c-.2-.1 0-.1-.1-.2-.1.1-.1.3-.2.4-.1-.1.1-.2-.1-.2l.2-.1c-.3-.1.1-.1-.2-.1-.2.1-.1.2-.3.3 0 .1.1.1.2.2-.1.3-.5-.1-.5.2.1.1.2.3 0 .3l-.1-.2c-.2.1.2.3-.1.3 0-.1.1-.2 0-.2-.2 0 0 .1-.1.2l-.2-.1-.3.6c0-.1-.1-.1-.1-.1-.1.3-.5.5-.8.6l.1.2s-.1 0-.1-.1c-.1 0 .1.1.1.2s-.1 0-.2-.1c0 .3-.1.7-.4.7v-.1c-.2.1.2.4 0 .4-.3.2-.4.6-.9.6.2.3-.4.2 0 .5-.3 0-.3-.1-.7 0-.1 0 .2.3.1.4l-.2-.2.1.3-.3-.2v.1s.1 0 .2.1c0 .2-.4.1-.5 0l-.1.4c-.1-.1-.1-.1-.1-.2.1.3-.2-.2-.2.1.1 0 .1.1.2.2-.2 0-.3.1-.3.2l-.1-.1c-.2.1-.3.4-.5.6.1 0 .4.2.3.3l-.2-.2c.1.2.1 0 .2.2-.1.1-.3-.2-.3-.3v.2l-.2-.2c.1.2-.4 0-.2.2l-.1-.1c-.2.2-.2.4-.3.5.2.2.1.2.2.4-.2.1-.5.1-.6.2 0 .2.1.2.2.3-.2-.2-.3 0-.4-.2-.1.1-.1.2-.1.3v.1s0 .1.1.2.1.1.2.1c0 .1-.1 0-.2-.1.1.2-.1.2-.2 0-.1-.1-.1-.3-.1 0v.3-.4c0 .2-.1.2-.1.1s0-.1-.1 0c.1-.2.1-.3.1-.3l-.1-.1c-.2-.1-.4-.1-.4-.4l-.1.2c-.2.1 0-.1 0-.2-.1.1 0 .2-.1.2-.6-.1-.8-.9-1.2-1.3-.2-.2-.6.7-.6.2l.2-.2c-.6.1-.7-.5-1.3-.4.1 0 .1-.1.2-.1.1-.2-.3-.2-.4 0 0-.1.1-.2.1-.3 0-.2-.4.1-.3-.1 0 0 .1 0 .1-.1-.1.1-.2-.2-.3.1-.1-.2-.3-.1-.3-.3-.2.2-.2-.3-.4.1.2-.4 0-.4-.2-.3.1-.1 0-.2.1-.3-.1-.1-.2 0-.3.1.1-.5-.6.1-.3-.5-.4 0-.8 0-1.1-.1.2-.3.3.1.5-.2-.3 0-.7.2-.9 0 0-.1.1-.1.2-.2-.3 0-.5-.3-.8-.3 0 0 .1 0 .1-.1-.1 0-.1-.1-.2 0h.1c-.1.3-.5.3-.5.4.4-.4-.1-.2.3-.7l-.2.2c0-.1 0-.1.1-.2-.2 0-.3.2-.4.1 0-.1.1-.1.2-.1-.2.1-.3.2-.4 0l.1-.1c-.2-.1-.6.1-.7-.1.3-.2 0-.1.1-.4h-.2v.1c-.1-.1-.3 0-.4-.1l.1-.1-.2-.1.1.2c-.2.1-.2.3-.3.2 0 0-.1-.1-.1-.2-.1 0-.2.1-.2 0s.2-.2.2-.3c-.2.2-.3-.1-.5.1.1 0 .1-.2.1-.2l-.1.1c0-.1 0-.1.1-.2-.1-.1-.1.3-.2.1h.1c-.1-.2-.4-.1-.5-.3.1-.2.2 0 .2-.2-.3-.1-.7 0-.8-.2-.2.3-.1-.2-.3-.2l.1-.1c-.1-.1-.4-.1-.6-.2h.1l-.3-.3c-.1 0-.1 0-.1.1-.1-.5-.7-.2-.8-.6h.1l-.3-.1v.2h-.2c.1 0 .1-.1.1-.2l-.1.1c0-.2-.1.2-.2 0-.1 0-.2 0-.2-.1s.1 0 .1-.1c-.1 0-.3.1-.3-.1h.2c0-.2-.1-.1-.1-.2l-.1-.1c-.3.1-.3-.1-.5-.1.2 0 .1-.1.1-.1s-.1-.1 0-.1c-.1 0-.1-.1-.3-.1 0 0-.1 0 0-.1-.1 0 0 .1 0 .1-.2 0-.3-.3-.6-.3-.2-.1-.3 0-.5-.1 0-.1.1 0 .1 0-.1-.1-.2-.1-.2-.2-.1 0-.1 0-.2-.1h.1c-.1 0-.2-.1-.3-.1h.1c-.1 0-.3-.1-.3-.1h.1c.1 0 .1.1.1.1h-.1c0 .1.2.1.4.2h-.1.2s0 .1 0 0c.1.1.1 0 .1.1h.1s0 .1-.1 0c.1.1.3.1.3.2.2.1.1 0 .3 0v.2h.1s.1.1 0 .1h.1c.1.1.3.2.2.3.1 0-.1-.1.1-.1-.1.2.1.1.2.2-.1.1-.1 0-.1.1.1-.1.2.2.3.2.1-.1.2.1.4.1 0 0 .2.2.3.4.1-.1.2 0 .3 0-.1.1-.1.1-.2.1l.1.1h.2l-.1.1c.1.1.3 0 .4.2.1-.1.1-.4.3-.3 0 .1-.1.2-.1.2h.1l-.1.1c0 .1.1-.1.1 0-.1.1 0 .1-.1.1 0 0 0-.1-.1-.1.1.1.1.2.1.2 0-.1.1-.1.1-.1.1.1 0 .1 0 .2.1 0 .1.1.2-.1v.1c.1 0 .3.2.3 0 .3 0 .4.4.6.4v.1c.2 0 .3.1.4.1v.2c.1 0 .2 0 .2.1-.2 0 0 .1-.1 0 .1.1 0 .2.3.2-.1.1 0 .2 0 .2v-.2c.1 0 .1.1.2.1l-.2.2c.1.4.7-.1.6.4.2-.1-.1-.2.1-.3.1.1 0 .5 0 .5.1.2.3-.2.4 0 0-.1.1-.3.3-.3.1.1-.1.4-.2.4v-.1c-.1 0-.1 0-.1.1l.1-.1c0 .1.2.2 0 .3.1 0 .1-.1.1-.2.1.2.2.2.3.3 0-.1 0-.2.1-.1.1.2.2-.1.4 0 0 .2-.2.3 0 .3 0 .1-.1.2-.2.3.2-.1.2.3.2.4h-.1.1l.1-.2c0 .1.1.1 0 .2.1-.1.2-.3.3-.4 0 .1.2 0 .1.3-.1-.2-.1.2-.3.2 0 0 .1 0 .1.1h-.1c0 .3.2-.2.4-.1-.1.1-.1.3-.1.3-.1-.1.1-.2.2-.3 0 .2.2 0 .2.1v-.1c.1-.1.1-.1.3 0-.1.1-.1 0-.1.1.2-.2 0 .4.2.3 0 .1-.2.2-.2.3.2-.1 0 .3.2.2.1-.2 0-.2.3-.3h-.3l.3-.2h-.2c.2-.1.1-.1.2-.2-.1.3.3 0 .3.2l-.3.4c0 .3.4 0 .6.2v-.1c.1-.2.1.1.3 0-.1.1-.1.2-.1.3.1-.1.1.1.4-.2v.3c.1.2.5-.3.6-.1-.2.1-.2.3-.3.3.1 0 .1.1.2 0 0 .1.3-.1.2.1l.2-.2-.1.1c.1-.1.2 0 .2-.2-.2.6.5.3.4.8.2 0 .3.1.4.1 0 0-.1.1-.1 0 .1.3.4-.4.5-.1-.1.3-.2.1-.2.2-.3.5.3.1.2.5 0 .2.3-.1.5.1l-.1.1c.3-.2.5-.2.7-.2l-.3.3c.1 0 .2-.4.4-.3 0 .1 0 .3-.2.5l-.1-.1c-.1.3.2.1.2.2l-.1.1c.2.1.4-.2.6-.1v-.1c.3-.3 0 .2.2.1l-.2.3c.1 0 .5-.2.6-.1-.2.2-.5.2-.6.3.1 0 .2.1.4 0 0 0-.1.1-.1 0 .3-.2.5-.3.6-.2-.4.6.3.4 0 1 .2 0 .3.1.4.2 0 .1.1.1.1.2 0 0 0 .1.1.1s.1.1.2.1c.1-.6.1.1.4-.5.1 0 .1.1.1.1 0 .2.1.4.2.6 0 .2-.1.1-.2.2.3.2 0 .3.2.7 0-.3.1-.3.3-.1l-.2-.5c.4-.1.3.8.7.7 0 .1-.1.1-.1.2.1 0 .1 0 .2.1 0 0 .1 0 .1.1l.1-.1c.1-.2.2-.6.2-.9 0 .1.1.2.1.3.2-.2.3-.6.5-.9.1-.3.2-.5.5-.6l.1.1c0-.1-.1-.3.1-.3l.1.1c0-.1-.1-.3 0-.3l.1.2c.3-.1 0-.6.1-.9.3.3.6.2.7.1.2-.2.1-.7.2-1 .5.1.6-.4.9-.5-.1 0-.2-.2-.2-.3.1 0-.1-.3.2-.1.3.2.3 0 .4-.1l-.3-.3c.7.2.3-.8.9-.5v-.3l.2.2c.2-.1.3-.2.4-.4l.1.1c.1-.1-.4-.6-.3-.7l.3.2c.2-.2.5-.2.4-.6l.1.1c.1-.1.4-.2.1-.5.2.2.2-.2.2-.4l.1.1c-.1-.3-.2-.3-.1-.5l.1.1c.2 0-.1-.2.1-.3l.1.1c.1-.1 0-.1 0-.3 0-.1.2-.2.3-.1-.1-.1-.1-.2 0-.3.1 0 .1.1.1.1.2-.1 0-.4.3-.4h.1l-.2.2c.1.1.2 0 .3.3 0-.2-.1-.5 0-.6h.1v-.1s.1 0 .1-.1c.1.1.1-.1.2-.1-.1-.1-.1-.2-.2-.2v.1l-.1.1c0-.1-.1-.2.1-.2-.1-.1-.1-.2-.1-.3.2.1.4 0 .6.1.1-.2.2-.4.1-.7 0-.1.1 0 .1 0v.1c0-.1.2-.3.1-.4.2-.1.1.2.2 0v.1c.4-.2.1-.8.6-1h-.1c.4-.3.6-.9 1-1.2.1-.1.1-.2.1-.2h.1v-.2c.1-.2.3-.2.4-.5.1-.1.2-.3.2-.2v-.1l.1-.2c.1-.1 0 .1.2-.2.1-.1.2-.2.1-.2l-.1.1.1-.1-.1.1-.1.1.1-.1c-.1 0-.1.1-.1.1h-.1l-.1.1s0-.1-.1 0c0 .1.1 0 0 .1-.1 0-.1 0-.1.1s-.2.1-.2.2c-.1 0-.2.2-.2.1 0 0-.1.1-.1.2 0-.2-.2.2-.3.1 0 .1-.2.3-.3.4-.1.1-.1.1-.2.1.1.1 0 .2 0 .3-.2 0-.1-.1-.2-.2.1.1-.1.2 0 .2h-.2c.1.1 0 .1 0 .2-.2 0-.1-.1-.2.1-1 1.4-.9 1.3-.9 1.3zm-2.2 2.7zm-.2.3c0-.1.1-.1 0 0 .1-.1.2 0 .2 0-.1-.1-.1 0-.2 0zm1.3.3s0-.1 0 0c0-.1 0-.1 0 0zM196.3 119.1zM175.7 118.4z"/>
		<path d="m192 121.7.1.1v-.1zM174.6 117.1zM174.1 116.8c-.1-.1-.1-.1 0 0zM173.6 116.4c0 .1 0 .1 0 0zM181.1 120.6c.1 0 0 0 0 0zM178.6 119.7h.1c0-.1 0-.1-.1 0zM183.7 121.8zM178.8 119.7zM171.6 115.3zM171.6 115.3c-.1 0 0 0 0 0zM171.5 115.3zM172.2 115.7c0-.1 0-.1 0 0zM172.4 115.8s-.1-.1-.2-.1c.1-.1.1.1.2.1zM173 116.5l-.1-.1v.1c0 .1-.1-.2.1 0zM173.4 116.9c-.1-.1 0 0 0 0zM176.7 119.3l-.1.1.1-.1zM177.8 119v-.2l-.1.2zM177.5 120.3h-.1.2zM183 124.2l.1-.3c0 .1-.2.3-.1.3zM185.6 125.6c-.1.1 0 .3.1.2-.1-.1-.1-.2-.1-.2zM193.2 123.7v.1-.1zM126.6 95.4c.1 0 .3-.1.3-.1l-.4.1h.1zM127.1 94.8c-.2 0-.6 0-.9.2h.7c.1.1-.1.2-.2.2.1 0-.1.1.2.1.3-.2.3-.3 0-.4.1-.1.2-.1.2-.1zM122.8 88.6zM117.9 87.6s0-.1 0 0c0-.1-.1-.1 0 0zM116.9 87.3zM122.8 88.6l-.1-.2c0 .1.1.1.1.2zM125.9 94.2h.1-.1zM124.8 89.5c.1 0 .1 0 .2-.1l-.2.1zM126.1 90.7s-.3.2-.4.3c.1-.1.2-.1.2-.1l.2-.2zM127 93.3c.1 0 0 0 0 0zM123.9 88.7s0-.1.1-.1c-.1 0-.1.1-.1.1zM126 97.2s.1 0 0 0zM127.4 95.2H127.7zM115.1 87.6zM111.5 101.5c.2-.3.5.1.7-.3-.2.1-.6.1-.7.3zM125.9 94.1zM112.1 101.2c.1 0 .1 0 0 0zM112.2 90.5c.1 0 .1 0 .1.1 0-.1 0-.1-.1-.1zM114.6 88.8c-.1 0 0 0 0 0zM111.9 92c-.1.1-.1 0 0 0-.1.1-.1.1 0 0-.1.1-.1 0 0 0zM111.3 93.4s.1 0 0 0zM125.8 100.6c.1 0 .2 0 .3.1-.3-.1-.3-.3-.3-.1zM126 94.1h-.2.2zM114.3 93.3l-.1.1c.1 0 .1-.1.1-.1zM119.8 104.8c.1-.1.1-.1 0 0zM114.1 93.9h-.3H114.1zM126.1 100.6z"/>
		<path d="M125.6 99.3c0 .2.4.2.7.2.1.2-.4 0-.6 0 .1.1.5.3.4.4h-.2c.3.2-.1.4.3.7h-.1c.2.1.5.1.6.2 0 .1.2.3-.1.2 0 0-.1-.1-.2-.1l.1.1c-.4-.1-.1-.2-.4-.3.1.2.3.5.2.6-.4-.1 0-.3-.4-.3l.2-.1c-.7-.1.1-.1-.6-.2-.2.2.1.3-.1.5.2.2.3.1.5.3.2.5-1.1-.2-.7.2.2.2.7.5.3.5l-.4-.3c-.2.2.5.5.1.5-.1-.1 0-.2-.1-.2-.4-.1.2.2.1.4l-.4-.2c-.1.2 0 .6-.2.9l-.3-.3c-.1.4-.6.5-1 .5l.1.4-.2-.2c-.2 0 .1.2.2.3 0 .1-.2-.1-.2-.2 0 .4-.2.9-.6.7v-.1c-.2-.1.1.8-.2.5v-.1c-.4 0-.8.5-1.2 0 0 .5-.4-.2-.4.6-.3-.3-.2-.5-.5-.7-.1 0-.1.5-.2.5v-.4l-.2.4-.1-.5-.1.1s.1.2.1.3c-.2.2-.4-.3-.3-.5l-.4.3c0-.2.1-.2.2-.3-.3.4 0-.4-.2-.1 0 .1-.1.2-.1.3 0-.3-.2-.3-.4-.2l.1-.2c-.2-.1-.6-.1-.8-.2 0 .2-.2.6-.3.6l.1-.4c-.2.2 0 .2-.2.4-.1-.1.1-.5.2-.5l-.2.1c0-.1.1-.2.2-.3-.2.2 0-.5-.3-.1l.1-.1c-.2-.2-.4-.1-.7-.2-.2.3-.2.2-.5.3-.1-.2-.1-.5-.3-.7-.2 0-.2.2-.4.3.2-.2 0-.4.3-.5-.2-.1-.3-.2-.7-.3-.1.1-.1.2-.2.2s0-.2.1-.3c-.3 0-.3-.3-.3-.6s.1-.6-.3-.5l-.5-.1c0-.2.3 0 .4-.2-.6 0-.2-.5-.6-.6.8-.6-.4-.7.1-1.2l-.2.1c-.2 0 .1-.1.1-.2-.2.1-.2.1-.3.1-.5-.6 0-1.4.1-2.1.1-.2-1.2-.1-.6-.4l.4.1c-.5-.5 0-1-.3-1.5.1 0 .2.1.2.1.3-.1.1-.4-.2-.4 0-.1.2 0 .4 0 .2-.1-.3-.3 0-.3l.1.1c-.1-.1.1-.3-.2-.3.2-.1 0-.4.2-.5-.3-.2.3-.2-.2-.5.5.2.5-.1.4-.3.1.1.2 0 .4.1 0-.1 0-.3-.3-.4.7.1-.2-.7.6-.4-.1-.5 0-.9.2-1.3.4.4-.2.3.3.7 0-.4-.2-.9.1-1 .1 0 .1.2.2.3.1-.4.5-.4.5-.8v.2c0-.1.2 0 0-.2v.1c-.3-.3-.2-.8-.3-.9.3.7.4 0 .7.9 0-.1 0-.2-.1-.3.1 0 .1.1.2.3.1-.2-.1-.4.1-.5.1.1 0 .2.1.3 0-.3 0-.5.2-.5 0 .1.1.2 0 .2.2-.2.2-.8.6-.7.1.5.2.1.3.6 0-.1.1-.1.1-.2l-.1-.2c.1 0 .2-.4.4-.3l-.1.2.3-.1-.2-.1c.1-.3-.1-.6.1-.5 0 .1.2 0 .3.2.1-.2.1-.3.3-.2v.6c0-.4.3-.1.4-.5v.4l.1-.3c.1.1.1.2.1.3.2.1-.1-.6.2-.3 0 0 0 .1-.1.1.2.1.5-.2.7 0 0 .5-.2.1-.2.5.3-.1.8-.4 1.1-.2v-.1c.2-.6.1.4.4.1-.1 0-.2.3-.1.3.2.2.5 0 .9 0l-.1.1c.1.2.3.2.4.4.1-.1.2-.1.3-.3 0 .5.2.5.4.5s.5 0 .4.4c0 0-.2 0-.2.1.1 0 .2 0 .4.1.2-.2.1-.2.2-.4.1-.1.3-.1.4-.1-.2 0-.3.4-.4.5l.2-.2c-.2.5.4-.4.4 0l-.1.1c.1 0 .3-.1.4 0-.2.3-.2 0-.4.2.1.1.6-.2.5.1h-.3c-.2.4-.1.3-.1.4v.3-.1c.8-.4.3.2.9 0-.6.1-.3.2-.6.4 0 .1-.1.3-.2.3.3-.1-.1.3.4.1-.1.1.1.1-.2.3.2.1.2-.1.3-.2.5 0-.1.7.5.7.3.1.7 0 1 .1-.1.2-.4.1-.4.1-.1.2 0 .3.2.4-.1 0-.2.1-.3.2.1.1.4-.1.3.1-.1 0-.3.1-.5.1.1.1.4.1.6.2-.2.1-.3 0-.5.1.1.1.3.3.6.2l.1-.1-.3.1c-.3 0 0-.2.2-.3l.1.1c.6-.3-.3-.3-.3-.5l.5-.1h-.5c.1-.1.4-.2.5-.2.2-.2-.2 0 0-.3h.1l-.2-.1c.1 0 .3-.2.3-.1.1-.4-.5-.2-.2-.5-.3-.2-.4.1-.9.1l.7-.6-.3.2s0-.1.1-.2c-.3 0-.1.1-.4.2.2-.3-.4-.3.1-.7-.3.1-.1.3-.4.2.5-.4-.2-.1-.1-.4.3-.2.3.1.4-.2-.5.3-.1-.3-.3-.4-.3.3-.3-.1-.6-.2.1-.1-.1-.5-.2-.8l.1-.1c-.3.3-.5.1-.6.1.2-.2.3-.3.4-.3l-.1-.1c-.1.1-.2.1-.3.1l.2-.2c-.2-.1-.6.1-.7-.3-.2.3-.4.8-.7.9.1-.1.3-.4.4-.4 0 0-.1.1-.1 0l.3-.2c0-.2-.2.2-.2.1.1-.2 0-.2.2-.3 0 0 0 .1.1.1-.1-.1-.1-.3 0-.5-.1.1-.2.3-.3.3-.2-.1.1-.3.1-.5-.1.1-.2-.1-.3.2-.1 0 0-.2.1-.3-.2.1-.5-.2-.6.2-.5.2-.6-.5-1-.5v-.1c-.2.1-.5-.1-.7.1-.1 0-.1-.3 0-.4-.2 0-.2.2-.4-.1.2-.2 0-.2.2-.1-.2-.2-.2-.4-.5-.1.1-.3-.1-.4-.2-.3l.1.2c-.1 0-.2 0-.3-.1l.1-.4c-.2-.3-.4-.1-.6.1-.2.2-.4.3-.6-.1-.1.3.3.2.1.5-.2-.1-.4-.6-.5-.6-.3-.2-.2.6-.5.5.1.1.1.5 0 .7-.2 0-.3-.6-.2-.7 0 0 .1 0 .1.1.1-.1.1-.1 0-.3v.2c-.1-.1-.4-.1-.4-.3-.1.2 0 .3.1.3-.3-.2-.4.1-.7 0 .1.1.2.2.1.2-.4-.1-.1.3-.3.5-.2-.2-.1-.5-.3-.3-.2-.1-.2-.4-.2-.5-.1.4-.5 0-.7 0l.1-.2-.2.2.2.2c-.1 0-.2 0-.2-.1 0 .2.3.4.2.7-.2-.1-.2.3-.4 0 .4-.1-.2-.3 0-.5 0 .1-.1.1-.2.1v-.1c-.5-.1.1.5-.2.6-.1-.2-.3-.3-.3-.2.1-.1.3.3.2.5-.3 0-.1.2-.2.3h.1c.1.2 0 .2-.1.4-.1-.1 0-.2-.1-.2.1.4-.5-.1-.5.2-.2 0-.3-.3-.4-.3 0 .4-.4 0-.5.3.3.2.2.1.3.4l.2-.5.1.5c.1-.1.1-.3.2-.3.1.3 0 .2.2.3-.4-.2-.1.4-.4.3l-.5-.5c-.5 0-.1.7-.5.9h.2c.2.2-.1.2-.1.4-.2-.2-.3-.1-.5-.2.2.1-.2.2.2.5h-.4c-.3.2.4.7.2.9-.2-.2-.4-.2-.5-.4-.1.1-.1.2 0 .2-.2 0 .2.4-.1.4.1.1.3.2.2.3-.1 0-.1-.1-.1-.1.1.1.1.2.4.2-.8 0-.3.8-1 .8v.7c-.1 0-.1 0-.1-.1-.3.2.7.3.3.6-.4.1-.2-.2-.3-.1-.8-.1 0 .4-.5.5v-.1c-.3.1.2.4.2.7h-.1c.4.2.5.5.6.8-.3-.1-.2-.1-.5-.1 0 .1.5 0 .6.2-.2.1-.3.2-.7.2v-.2c-.4.1 0 .3 0 .4h-.2c.1.3.6.3.6.6h.1c.5.1-.3.2.1.3h-.5c.1.1.5.4.7.6-.4 0-.6-.3-.8-.4 0 .1.1.4.3.4-.1 0-.2-.1-.1-.1.4.1.6.2.7.5-.9.2-.1.7-.8 1 .5.3.1.9.4 1.4.6-.5.1.1.8-.2.1.1.1.1.1.2l-.2.5c-.2.2-.2 0-.4.1.1.3-.2.2-.3.5.2-.2.4-.1.4.1l.2-.4c.5.1-.4.6.1.7h-.3c.2.1.4.7 1 .5-.1.1-.2.2-.3.2.2.5 1.1.4 1.1.9l-.2.1c.1 0 .4-.1.3.1-.1 0-.2.1-.1.1s.4-.1.4.1l-.2.1c.2.5.9.1 1.2.2-.3.4-.2.8-.1 1l-.1.1c.4.4 1 .2 1.6.2 0 .3.2.5.5.7.3.1.6.2.8.5 0-.1.1-.4.2-.4.1.1.4-.3.3.2 0 .5.2.4.4.5l.2-.6c.1.5.5.5.8.4.3-.1.6-.2.7.2.1-.2.3-.1.4-.3v.4c.4.1.5.1 1 0l-.1.3c.3 0 .1-1.1.3-1.1l.2.5c.4-.1 1 .2 1.2-.4 0 .1.1.2 0 .3.2 0 .9 0 .5-.6.2.4.4-.1.5-.4l.1.3c-.1-.5-.1-.6 0-.8.1 0 .2.2.1.2.3 0 0-.4.2-.3l.1.2c.2-.1.1-.2 0-.5 0-.2.3-.2.6.1-.1-.2-.2-.4 0-.4.1.1.1.2.1.2.4-.1.1-.6.5-.6.1.1.1.1.2.1-.2.2-.4.3-.4.3.2.2.4.1.6.6 0-.3-.2-.9.1-.9 0 0 .1 0 .1.1.1 0 .1-.1.1-.1.1 0 .1 0 .2-.1.2.2.3-.1.4-.2-.3-.2-.1-.3-.5-.4v.2c0 .1-.1.1-.2.2-.1-.2-.1-.3.1-.3-.1-.2-.3-.4-.4-.5.5.2.8.1 1.1.2 0-.4.3-.8-.2-1.2 0-.1.2 0 .3 0 0 .1 0 .1.1.2-.1-.2.2-.5-.2-.8.3-.1.3.3.4 0l.1.1c.5-.1.3-.5.1-.8-.2-.3-.3-.6.2-.8h-.2c.3-.3.3-.7.3-1.1 0-.4 0-.8.3-1.2.1-.2-.1-.2-.4-.4h.4l-.4-.2c-.3-.3.9-.6.3-1l-.2.1c0-.1-.2-.4.1-.4 0 0-.3 0-.1-.1h.2c-.1-.1-.3-.2-.4-.3.1-.3.8-.1.7-.5-.1-.1-.7-.3-.8-.2 0 .1-.1.2-.3.2l-.1-.1c-.6.1-1.2.2-1.5.6l.4.1-.3.1-.1-.2c-.2.1 0 .1.2.2-.1 0-.2.1-.3.1l.6.1c-.2.1-.5 0-.6.1.3 0 .5-.2.7-.1-.2.1-.5.1-.2.2h-.3c.2.1.1.2.4.2-.3.1.1.3-.4.4.1 0 .4.1.5.2-.7-.1 0 .3-.7.3.6.1.3.4.6.6 0 0-.1 0-.1-.1-.1.1-.2.1-.3.2.5 0 .6.2.9.4-.5.1-.6-.1-1-.1.4 0 .4.3.7.3-.3.1-.2.1-.6.1.6.1.1.1.4.3-.3.1-.6-.1-.4.1l-.6-.6zm-.8 4c0-.1 0-.1 0 0 0-.1 0-.1 0 0zm-.3.2.1-.1c.1.1.2.2.1.2.1 0-.1 0-.2-.1zm2.4 1c0 .1-.1.1-.1 0 0 0 0-.1.1-.1v.1zM126.6 104.1zM122.8 88.6s0 .1 0 0c0 .1 0 0 0 0zM120.2 104.6v.1-.1zM124 90.9c-.1 0-.1 0 0 0-.1 0-.1 0 0 0zM124.5 91.5v.2-.2z"/>
		<path d="M124.8 92.2c.1 0 .1-.1.1-.1l-.1.1zM116 90.6s0 .1 0 0c0 .2 0 .1 0 0zM118.5 88.8c0 .1-.1.1-.1.2.1 0 .1 0 .1-.2zM114.3 93.3zM118.3 89c.1.1.1 0 .1 0h-.1zM126.1 94.7c0 .1 0 .1 0 0zM126.1 94.8c.1 0 0-.1 0 0zM126.3 94.8h-.1.1zM125.9 93.9h-.1.1zM125.7 93.6c0 .1-.2.3-.1.3h.1c-.1.1.2-.3 0-.3zM126.5 91.8l.1.3c.1-.1.2-.3.3-.2.1-.5-.3.2-.4-.1zM126.1 91c.1.1.2-.1.2-.2l-.2.2zM121.2 87.7l.1-.3c-.2 0-.1.1-.1.3zM119.8 89.1l.1.2.1-.2zM119.3 86.8h.1l-.2.1zM111.1 93.1l.4.1c-.1-.1-.5-.3-.4-.1zM111 97.6c-.2.1-.3.2-.1.3 0-.2.1-.3.1-.3zM118.8 107.6l-.1.1h.2zM149.2 97.6c-.1-.1-.3-.2-.3-.1l.3.3v-.2zM148.2 97.7c.1.2.3.5.7.7-.2-.3-.1-.3-.4-.6 0-.1.2-.1.3 0-.1-.1.2-.1 0-.3-.3-.1-.4.1-.3.4-.2 0-.2-.1-.3-.2zM142.7 93.5zM140.9 88.1h.1s-.1-.1-.1 0zM141 87s.1 0 0 0zM142.7 93.5l.1-.2c-.2 0-.1.1-.1.2zM147.8 99.6v-.2.2zM144 95.5h.2-.2zM145.1 97s-.3.2-.4.3c.1-.1.2-.1.2-.1 0-.1.1-.2.2-.2zM146.8 98.5c0-.1 0-.1 0 0zM143.5 94.3l.1-.1-.1.1zM127.8 86.8s.1 0 0 0zM128.9 84.2h.2zM140.9 85.2c.1 0 .1 0 0 0zM140.7 92.8c.2-.3.5.1.7-.2-.1 0-.6-.1-.7.2zM147.7 99.6s-.1 0-.1.1c0-.1.1-.1.1-.1zM141.4 92.6c0-.1 0 0 0 0zM139.6 81.3c-.1 0-.1.1-.1.1s0-.1.1-.1zM140 84.4c0-.1 0-.1 0 0zM137.5 82.6s-.1.1 0 .1v-.1c-.1 0-.1 0 0 0zM138 84.1h.1l-.1-.1zM129.3 91.7c.1-.1.2-.1.3-.2-.3.1-.4-.1-.3.2zM147.7 99.4v.2l.1-.1c-.1 0-.1-.1-.1-.1zM140.1 81.7v.3-.3zM136.7 101.8zM140.4 82.7l-.2.2h.1l.1-.2zM129.6 91.5z"/>
		<path d="M128.3 90.1c.1.2.5 0 .7 0 .2.3-.3.2-.5.4.2.2.6.2.6.3-.1 0-.1.1-.2.1.4.1.2.6.7.7 0 0-.1 0-.1.1.2-.1.4-.2.6-.2 0 .1.3.1.1.2 0-.1-.1 0-.2-.1l.2.1c-.4.2-.2-.1-.5 0 .2.2.6.4.5.6-.4.1-.2-.4-.5 0l.1-.3c-.6.4 0-.2-.6.2 0 .4.3.3.3.7.2 0 .3-.1.6-.1.5.4-.9.7-.3.9.3 0 .8-.1.6.3h-.5c0 .3.7 0 .5.5-.2 0-.2-.2-.3-.2-.3.3.3.1.4.3l-.4.1c.2.3.6.7.7 1-.1 0-.3 0-.4.1.3.5.2 1.1.1 1.6.1.1.3.1.4.1 0 .1-.1.1-.2.1-.1.3.2-.1.4 0 .1.1-.1.2-.3.2.4.3 1.1.8 1 1.4h-.1c.1.4.8-.1.8.3h-.1c.4.7 1.2.9 1.5 1.7.3-.4.6.5.9-.1.3.5.1.6.7.9.2.1.3-.4.5-.5v.4c.1-.1.2-.3.3-.4l.1.5.2-.1c-.1 0-.2-.2-.2-.3.3-.2.7.2.8.4.2-.1.5-.3.7-.4 0 .2-.1.2-.2.3.3-.5.2.4.4-.1-.1-.1 0-.2 0-.3.2.2.6.1.9-.2v.3c.6-.2 1-.6 1.5-1-.2 0-.5-.4-.4-.5l.3.3c-.1-.3-.2 0-.2-.4.2-.1.4.3.4.5l.1-.3c.1.1.1.2.2.3-.1-.3.6 0 .5-.4l.1.1c.4-.4.5-.7.8-1.1-.3-.2-.1-.3-.2-.6.3-.2.7-.3.9-.7 0-.3-.2-.2-.3-.4.3.1.5-.2.6.1.2-.5.2-.6.2-1.3-.1 0-.2.1-.3 0 0-.1.2-.2.3-.1-.3-.8 1.3-1.3.6-2.2-.1-.3-.2-.5-.4-.7-.1-.4.3.1.4-.2l-.3-.3c-.1 0-.1-.1-.1-.1-.1-.1-.1-.2-.1-.3 0-.2 0-.4-.3-.5.8-.6-.5-1.1 0-1.7l-.2.1c-.2 0 .1-.2.1-.3-.2.1-.1.2-.3.2-.6-.8-.4-2-.5-3-.1-.4-1.2.2-.8-.4h.4c-.7-.5-.5-1.4-1.1-1.9h.2c.2-.2-.2-.5-.4-.5 0-.1.2-.1.3-.2.1-.2-.5-.2-.2-.4h.1c-.2 0-.1-.4-.4-.2.1-.3-.3-.4-.2-.7-.4 0 0-.5-.5-.4.5-.2.3-.6 0-.7.2 0 .1-.2.4-.2-.1-.2-.2-.3-.5-.2.4-.5-.3-.5-.2-.8l-2.6.8c0 .1-.1.1-.2.2.4.5.8.9 1.1 1.4-.5.1-.2-.5-.8-.4.4.4.9.6.9 1.1 0 .1-.3 0-.4 0 .4.4.2.9.6 1.3h-.2c0 .1 0 .2.2.1l-.1-.1c.3-.2.8.1 1 .1-.7.1-.1.5-1 .5.1 0 .2.1.4 0 0 .1-.1.2-.3.1.2.3.5.1.5.3h-.3c.3.1.5.1.5.4-.1 0-.2.1-.2 0 .2.4.8.5.7 1-.6 0-.1.2-.6.4l.2.2.1.1c.1.2.4.3.4.5l-.2-.1.2.3.1-.3c.3.1.6-.2.5.1-.1 0 .1.2-.2.4.2.1.4.1.3.3-.1.1-.5.1-.6.2.4 0 .3.4.7.4-.1 0-.3.1-.4.1h.3c-.1.1-.1.2-.3.2 0 .3.5-.3.4.1h-.1c0 .4.4.6.4.9-.4.3-.2-.2-.5 0 .2.4.9.7.9 1.2v-.1c.6-.2-.2.4.2.5-.1 0-.4.1-.3.1 0 .3.4.5.8.9h-.2c-.1.2.1.5.1.7.2 0 .2.1.4-.1-.6 1 1 .8.5 1.7 0-.1-.2-.1-.2 0l.4.3.3-.3c.2 0 .4 0 .4.1-.3-.1-.4.2-.5.4.1-.1.2-.1.2-.1-.3.5.5-.3.4.2l-.1.1c.1.1.4.1.4.2-.2.2-.2 0-.4.1.1.2.7 0 .6.3-.1 0-.2-.1-.3-.1-.2.4-.1.3-.1.5 0 .1 0 .3.1.4V98c.8-.3.4.3 1.1.2-.6.1-.3.2-.6.4 0 .1 0 .3-.1.4.3-.1 0 .4.5.2-.1.1.2.1-.1.4.3.1.1-.2.2-.3.3-.1.4.2.6.4.2.2.5.4.8.2.3-.1.4-.2.5-.4.1-.2.2-.3.3-.5.2.2 0 .5 0 .5.2.1.4 0 .5-.2 0 .1.1.2.2.3.1-.1-.1-.5.2-.4 0 .1.1.4.1.5.1-.2.2-.6.2-.8.2.1.1.3.1.5.1-.1.2-.3.2-.5s0-.3-.1-.4h-.2c0-.1.2.2.3.2.1.3-.3.2-.4.1v-.2c-.3-.2-.4-.1-.4.1s-.1.5-.2.5c0-.2-.1-.3-.2-.5v.5c-.1-.1-.2-.4-.2-.5-.2-.2-.1.3-.3 0v-.1c0 .1-.1.1-.1.2 0-.1-.1-.4 0-.3-.1-.1-.2 0-.3.1-.1.1-.2.2-.2 0-.2.1-.2.2-.2.3 0 .1 0 .3-.2.5 0-.3 0-.7.1-1l-.2.4s-.1-.1 0-.2c-.2.2 0 .2-.2.4 0-.4-.6-.2-.2-.7-.2.2 0 .3-.3.3.4-.5-.3-.1-.2-.4.3-.2.3 0 .4-.3-.5.3-.1-.3-.3-.4-.4.3-.4-.1-.6-.3.1-.1-.1-.5-.1-.8h.1c-.4.2-.5-.1-.6-.2.2-.1.4-.2.5-.1l-.1-.1h-.3l.3-.1c-.1-.2-.6-.2-.5-.6-.3.1-.7.6-1 .4.1-.1.4-.2.5-.2 0 0-.2 0-.1-.1h.3c.1-.2-.2 0-.3-.1.2-.1.1-.2.3-.2 0 0 0 .1.1.1 0-.1 0-.3.2-.4-.1.1-.3.1-.4.1-.1-.2.2-.2.3-.4-.2 0-.1-.2-.4 0 0-.1.1-.1.2-.2-.2 0-.3-.5-.6-.2-.5-.2-.1-.8-.4-1.1h.1c-.2-.2-.3-.5-.6-.5 0-.1.2-.2.3-.3-.2-.1-.3-.1-.2-.4.3.1.2-.1.2.1 0-.3.2-.4-.2-.5.3 0 .3-.3.2-.4l-.2.2c-.1-.1-.1-.2-.1-.3l.4-.1c.3-.6-1.1-.5-.4-1.2-.3 0-.1.3-.5.3 0-.2.5-.6.4-.7.1-.4-.7-.1-.6-.4-.1.1-.5.2-.7.1 0-.2.5-.5.7-.4 0 0 0 .1-.1.1.1.1.2.1.3 0h-.1c.1-.2 0-.4.3-.4-.2-.1-.3 0-.3.1.1-.3-.1-.4-.1-.7-.1.1-.2.2-.2.1 0-.5-.3-.1-.5-.4.2-.2.5-.1.3-.3.1-.2.4-.2.5-.1-.4-.2 0-.5 0-.7l.2.1c-.1-.1-.1-.1-.1-.2l-.3.2c0-.1 0-.2.1-.2-.2 0-.5.2-.8.1.1-.1-.3-.3.1-.4 0 .4.4-.2.5.1-.1 0-.1-.1-.1-.2h.1c.2-.4-.5 0-.6-.3.2 0 .4-.2.3-.2 0 .1-.3.2-.5.1.1-.3-.2-.2-.2-.3v.1c-.2 0-.2-.1-.3-.2.2-.1.2.1.2 0-.4-.1.3-.5 0-.6.1-.1.4-.1.5-.2-.4-.2.2-.4-.1-.6-.3.2-.2.2-.5 0l.3.4-.5-.2c0 .1.3.2.2.3-.3-.1-.2-.1-.4.1.4-.3-.4-.3-.1-.6l.7-.2c.2-.4-.5-.5-.5-.9l-.1.2c-.3 0-.1-.2-.3-.3.2-.1.3-.2.4-.3-.2.1-.1-.3-.6-.2l.3-.3-2.3.7v.1l.1.1c.1 0 .2.1.3.1.2 0 .4.1.4.2-.3 0-.4.2-.7.1 0 .1 0 .2.2.2-.1.1.4.2.2.4.1 0 .4-.1.4.1h-.1c.1 0 .2.1.4-.1-.6.6.4.9-.1 1.4.2.2.3.5.4.7h-.1c-.1.4.7-.1.6.3-.3.3-.3-.1-.4.1-.7.3.2.4-.1.7h-.1c-.2.3.4.3.5.6h-.1c.5 0 .7.4.9.6-.3 0-.2-.1-.5.1.1.1.5-.2.6 0-.1.1-.2.4-.5.5l-.1-.2c-.4.3.1.3.1.4l-.2.1c.2.3.6.2.7.5l.1-.1c.5 0-.2.3.2.3l-.4.2c.2.1.6.3.8.5-.4 0-.7-.2-.9-.3 0 .1.2.4.5.4-.1 0-.2-.1-.1-.1.4 0 .7.2.8.4-.9.3 0 .8-.6 1.2.5.3.2 1 .4 1.5.6-.4.1.2.8-.1.1.1.1.2.1.2l-.3.5c-.2.2-.2-.1-.4 0 0 .3-.3.2-.4.5.2-.1.4 0 .4.2l.3-.3c.3.1.1.3 0 .4-.1.2-.3.1-.1.1h-.2.1c.1 0 .2.2.5.3h-.3c-.1.3.5 1 0 1.2l-.2-.1c0 .1.3.2.1.3-.1 0-.2-.1-.2-.1 0 .1.2.3.1.4l-.2-.2c-.4.2.2.8.1 1.1-.5-.3-.8-.2-.9-.1l-.1-.1c-.3.3-.2.9-.4 1.3-.6-.3-.9.4-1.4.2.1.1.2.4.1.5-.1-.1-.1.5-.3 0-.2-.4-.3-.3-.5-.2l.1.6c-.3-.4-.5-.3-.7-.2-.2.1-.5.2-.5-.2-.1.2-.2.1-.3.3l.1-.3c-.2-.1-.3-.2-.6-.2l.1-.2c-.1-.1-.6.9-.8.8l.2-.5c-.3-.2-.2-.7-.7-.5.1 0 .2-.1.2-.1-.1-.1 0-.6-.6-.1.4-.3-.1-.3-.4-.4l.3-.1c-.5.1-.6.1-.8 0 0-.1.2-.1.2-.1.1-.2-.4 0-.3-.3h.2c0-.2-.1-.1-.4-.2-.2-.1 0-.3.3-.5-.2 0-.5-.1-.4-.2h.2c.1-.4-.5-.4-.3-.8.1 0 .2-.1.2-.1.1.3.1.5.1.5.3-.1.3-.3.8-.3-.3-.1-.9-.3-.8-.6 0 0 .1 0 .1-.1s0-.1-.1-.1c0-.1.1-.1 0-.2.2-.1.1-.3.1-.4-.3.1-.3-.1-.6.1l.1.1c0 .1.1.2.1.3-.2 0-.4-.1-.2-.3h-.6c.4-.3.6-.6.9-.8-.3-.3-.3-.8-1-.8-.1-.1.2-.2.2-.2.1 0 .1.1.2.1-.2-.2-.2-.6-.7-.5.1-.3.4 0 .3-.3h.1c.5-.9-1.4-.8-.7-1.8 0 .1-.1.1-.1.1.2-1-.8-1.7-.4-2.7.1-.3-.2-.2-.5-.3l.4-.1-.5-.1c-.4-.3.7-.8 0-1.1l-.2.1c0-.2-.3-.5 0-.5 0 0-.3 0-.2-.1l.2-.1-.4-.3c.1-.3.8-.2.7-.6-.1-.1-.7-.3-.8-.2 0 .1-.1.2-.3.3l-.1-.1c-.6.1-1.2.2-1.5.6l.4.2-.3.2-.1-.2c-.2.2 0 .2.2.3-.1.1-.2.1-.3.2l.6.1c-.2.1-.5 0-.5.2.3.1.5-.2.7-.1-.2.2-.4.2-.2.3-.1.1-.2.1-.3 0 .2.1.2.3.5.3-.3.2.2.4-.3.5.1 0 .5.1.5.2-.7 0 .1.5-.6.6.6 0 .4.5.8.7h-.1c0 .2-.2.3-.2.4.5-.1.7.1 1 .2-.4.3-.6 0-1 .2.4-.1.5.2.8.1-.2.2-.1.2-.5.3.6-.1.1.1.5.1-.2.3-.5.2-.3.4.5-.5.2-.6.2-.6zm2.5 5.4s0-.1-.1-.1c.1 0 .1 0 .1.1zm.2.5v-.2c.1 0 .2-.1.2 0-.1-.1-.2.1-.2.2zm2-1.7c.1.1 0 .1-.1.1 0 0 0-.1-.1-.1h.2zM132.6 94.3s-.1 0 0 0c-.1 0-.1 0 0 0zM142.6 93.5s0 .1 0 0c0 .1 0 0 0 0z"/>
		<path d="M136 101.9v-.1l-.1.1zM142.8 96.5c0 .1-.1.1 0 0-.1.1 0 .1 0 0zM143.4 97.6v.2-.2zM143.9 98.5c.1 0 .1-.1.1-.1l-.1.1zM137.7 85.1c-.1-.1-.1-.1 0 0zM139.8 89c-.1 0-.1 0-.2-.1 0 .1 0 .1.2.1zM140.1 81.6v.1zM139.5 88.7c0 .1 0 .2.1.2 0-.1 0-.2-.1-.2zM148.7 98.8c0-.1 0-.1 0 0zM148.7 98.7c0-.1 0 0 0 0zM148.7 98.5v.2c0-.1.1-.1 0-.2zM147.2 99.7v.1-.1zM146.7 99.9c.1 0 .4.2.5.1v-.1c0 .2-.4-.2-.5 0zM145.5 98l.1.2c0-.1.1-.3.2-.3 0-.5-.1.3-.3.1zM145.1 97.3c.1.1.1-.1.2-.2-.1 0-.2 0-.2.2zM142.1 91.5l.3-.1c-.1-.1-.1 0-.3.1zM140.1 90.8l-.1.2h.2zM142 89.4l-.1-.2zM137.6 83.9l.4-.2c-.1 0-.5.2-.4.2z"/>
		<path d="M139.7 88.5c-.2.1-.2.3 0 .3 0-.1.1-.3 0-.3zM137.2 98.7v-.1l-.1.1zM158.5 76.1c0-.1 0-.4-.1-.3v.4l.1-.1zM157.9 75.5c0 .2-.1.6.1.9v-.7c.1-.1.1.1.1.3 0-.1.1.1.1-.2-.1-.3-.2-.3-.3 0v-.3zM152.1 78.6c0-.1 0-.1 0 0zM150.7 82.6s0-.1 0 0c-.1 0 0 0 0 0zM150.2 83.2s-.1 0 0 0zM152.1 78.6h-.2c.2.1.2 0 .2 0zM157.3 76.6v-.1.1zM153.1 76.8c0-.1 0-.1-.1-.2l.1.2zM154.3 75.8s.1.3.2.4c-.1-.1-.1-.2-.1-.2 0-.1-.1-.1-.1-.2zM156.6 75.3zM152.3 77.6l-.1-.1s0 .1.1.1zM144.5 79.6c.1 0 .1-.1 0 0 .1-.1 0 0 0 0zM145.2 77.3h.1l.1-.1zM149.6 84.5zM150.3 96.4c.3-.2.4.2.7-.1-.1 0-.5-.1-.7.1zM157.3 76.6zM151 96.3zM149.7 87.5h.2-.2zM150.3 85.3c-.1.1 0 0 0 0zM150.2 88.7s-.1 0 0 0c0 .1 0 .1 0 0zM150.2 89.9c.1 0 .1 0 0 0zM146.3 82.5c.1-.1.2-.1.3-.2-.3.2-.4.1-.3.2zM157.3 76.4v.2-.2zM153 88.7v.2-.2zM149.1 90.1zM153 89.4c-.1 0-.2.1-.2.1h.1l.1-.1zM146.5 82.3z"/>
		<path d="M145.3 81.7c.1.2.4-.1.7-.2.2.1-.3.2-.4.4.2.1.6 0 .6.1-.1 0-.1.1-.2.1.4 0 .2.4.7.3l-.1.1.6-.3c0 .1.3 0 .1.2h-.2.2c-.4.3-.2 0-.5.1.2.1.6.1.5.3-.4.2-.3-.2-.5.1l.1-.2c-.5.4 0-.1-.6.3 0 .3.3.2.3.4.2 0 .3-.2.5-.2.5.1-.9.7-.2.7.3-.1.8-.2.6 0l-.5.1c.1.2.7-.1.5.2-.2 0-.2-.1-.3-.1-.3.3.3 0 .3.1l-.4.2c.2.2.6.3.7.6-.1 0-.3 0-.4.1.3.2.2.7.1 1.1h.4s-.1.1-.2.1c-.1.2.2-.1.4-.1.1.1-.2.2-.3.2.4.1.9.4.6.8h-.1c-.1.2.8 0 .5.2h-.1c0 .4.4.8 0 1.3.5-.1-.1.5.6.3-.3.3-.4.3-.6.7 0 .1.5 0 .6.1l-.4.1h.4l-.3.1.1.1s.1-.1.3-.2c.2.1-.2.5-.3.5l.4.3h-.3c.4.1-.4.1 0 .2.1 0 .2 0 .3-.1-.2.1-.2.4 0 .5h-.3c0 .3.3.6.3.9.1-.1.6-.2.6-.1l-.4.1c.3 0 .1-.1.5-.1 0 .1-.4.2-.6.1l.2.1h-.3c.3 0-.4.3.1.3h-.1c.1.3.2.4.3.7.3-.1.3.1.6.1-.1.2-.3.5-.2.7.2.1.3 0 .5 0-.3.1-.2.3-.5.2.1.3.1.3.4.6.1-.1.2-.1.3-.1.1.1-.1.2-.3.2.5.3-.8 1-.1 1.2l.4.3c0 .2-.2-.1-.4.1.1.1.2.1.2.2l2.8-.3c-.1-.2.2-.4-.1-.6.9-.3-.2-.8.4-1.2h-.2c-.2-.1.1-.1.2-.2-.2 0-.2.1-.3.1-.3-.6.2-1.4.3-2.1 0-.3-1.2-.1-.7-.4l.4.1c-.5-.5-.1-1-.5-1.5.1 0 .2 0 .2.1.3-.1 0-.4-.2-.4 0-.1.2 0 .3-.1.2-.1-.4-.2-.1-.3h.1c-.1-.1 0-.3-.3-.2.2-.2-.2-.3 0-.5-.4-.1.2-.3-.4-.3.6 0 .4-.3.2-.4.2 0 .2-.1.4-.1 0-.1-.1-.3-.4-.2.7-.3-.6-.5.3-.6-.3-.4-.5-.8-.6-1.1.6 0 .1.4.6.4-.2-.3-.7-.5-.6-.9.1-.1.2.1.3.1-.2-.3.1-.6-.2-1 .1 0 .1 0 .2.1 0-.1.1-.1-.2-.1l.1.1c-.4.1-.8-.3-1-.3.7.1.2-.3 1.1-.1 0 0-.2-.1-.3-.1.1-.1.2-.1.3 0-.1-.2-.4-.2-.4-.4.1 0 .2.1.3.1-.2-.1-.5-.2-.4-.4.1 0 .2 0 .2.1 0-.3-.6-.5-.3-.8.5.1.2-.1.7 0l-.1-.2h-.2c0-.1-.3-.3-.1-.4l.2.1v-.3l-.2.1c-.2-.2-.6-.1-.4-.2 0 0 0-.1.3-.2-.1-.1-.3-.2-.1-.3.2 0 .5.1.6.1-.4-.1-.1-.3-.4-.5.1 0 .3.1.4.1l-.3-.1h.4c.1-.2-.6-.1-.3-.2 0 0 .1 0 .1.1.2-.2-.1-.5.1-.7.5.1.1.2.5.2 0-.3-.4-.7-.2-1h-.1c-.6-.3.4-.1.1-.3 0 .1.3.2.3.1.2-.1 0-.4 0-.8l.1.1c.2 0 .2-.2.3-.3-.1-.1-.1-.2-.3-.3.5.1.5-.1.5-.3 0-.2 0-.5.4-.3 0 0 0 .2.1.1 0-.1.1-.2.1-.3-.2-.2-.1-.1-.3-.2-.1-.1-.1-.3-.1-.4 0 .2.3.3.5.4l-.2-.2c.5.3-.4-.5 0-.3l.1.1c0-.1-.1-.3 0-.3.2.2 0 .2.2.4.1-.1-.2-.7.1-.5v.3c.3.2.3.2.4.2h.3l-.1-.1c-.4-.8.2-.3 0-.9.1.6.1.3.3.6.1.1.2.1.3.2-.1-.3.2.1.1-.3.1.1.1 0 .2.2.1-.1-.1-.2-.2-.3 0-.5.6.3.6-.4.1-.3 0-.7.2-1 .1.2.1.4.1.4.2.1.2.1.3-.1 0 .1.1.2.1.3.1-.1-.1-.4.1-.3v.5c.1-.1.1-.4.2-.5.1.2 0 .3 0 .5.1-.1.3-.3.2-.6l-.1-.1.1.3c0 .3-.2-.1-.2-.2l.1-.1c-.2-.7-.3.2-.5.2l-.1-.5v.5c-.1-.1-.2-.4-.1-.5-.2-.2 0 .2-.2 0v-.1l-.1.2c0-.1-.1-.3 0-.3-.3-.2-.2.5-.4.1-.2.3.1.4.1.9l-.5-.8.1.4s-.1 0-.2-.1c0 .3.1.1.1.4-.3-.3-.3.3-.6-.2.1.3.2.1.2.4-.4-.6-.1.2-.4 0-.1-.3.1-.2-.2-.4.2.5-.3 0-.4.2.2.4-.1.3-.2.5-.1-.1-.5 0-.7 0v-.1c.3.4.1.4 0 .6-.2-.2-.2-.3-.3-.4l-.1.1c.1.1.1.2.1.3l-.2-.3c-.1.1 0 .6-.3.6.2.2.8.5.8.8-.1-.1-.4-.3-.4-.4 0 0 .1.1 0 .1l-.2-.3c-.2 0 .2.2.1.2-.2-.2-.2-.1-.3-.2 0 0 .1 0 .1-.1-.1 0-.3.1-.5 0 .1.1.3.2.2.3-.1.2-.3-.1-.4-.1.1.1-.1.1.2.3 0 0-.2 0-.3-.1.1.2-.2.4.2.5.2.4-.5.5-.5.8h-.1c.1.2-.1.4.1.6h-.4c0 .2.2.2-.1.3-.2-.2-.2 0-.1-.2-.2.1-.4.1-.1.4-.3-.1-.4 0-.3.1l.2-.1c0 .1 0 .2-.1.3l-.4-.1c-.6.3.7.8-.2.9.3.1.2-.2.6 0-.1.1-.7.2-.7.3-.3.2.6.3.4.5.2 0 .5 0 .7.2-.1.1-.6.1-.7 0 0 0 0-.1.1 0 0-.1-.1-.1-.3-.1h.1c-.2.1-.2.3-.4.2.1.1.2.1.3 0-.2.2 0 .3-.2.5h.3c-.2.3.3.2.3.4-.2.1-.5-.1-.4.1-.2.1-.4 0-.5-.1.3.2-.2.4-.3.5l-.1-.1c.1.1.1.1.1.2h.3c-.1.1-.1.1-.2.1.2.1.5 0 .8.1-.2.1.1.3-.3.3.2-.2-.4 0-.4-.2v.2h-.1c-.4.2.4.1.4.4-.2 0-.4 0-.4.1 0-.1.4 0 .5.1-.2.2.1.2.1.3l.1-.1c.2 0 .2.1.3.2-.2 0-.1-.1-.2-.1.4.1-.4.3-.2.4-.2.1-.4 0-.5.1.3.2-.3.2-.1.4.3-.1.2-.1.5.1l-.2-.3.4.2c0-.1-.2-.2-.1-.3.2.1.2.1.4.1-.5.1.2.3-.1.4h-.7c-.3.2.4.4.2.7l.1-.1c.3 0 0 .2.2.3-.2 0-.3.1-.5.1.2 0 0 .2.5.3l-.3.1c-.1.3.7.3.6.5-.3-.1-.4 0-.6-.1 0 .1 0 .2.1.2-.2 0 .3.2.1.3.1 0 .4 0 .3.1h-.1c.1 0 .2.1.4.1-.8.3.1.7-.6.9.1.2.2.4.2.5h-.1c-.2.2.7.1.5.4-.4.1-.2-.1-.4 0-.8.1.1.3-.3.5-.3.1.3.3.3.5h-.1c.4.1.6.4.7.6-.3 0-.2-.1-.5 0 .1.1.5-.1.6.1-.2.1-.3.2-.7.2v-.2c-.4.1 0 .2 0 .3h-.2c.1.3.6.2.6.5h.1c.5.1-.3.1.1.3l-.5.1c.1.1.5.3.6.5-.4-.1-.6-.3-.8-.4 0 .1.1.3.3.4-.1 0-.2-.1-.1-.1.4.1.6.2.6.4-1 .1-.2.5-.9.7.4.3-.1.7 0 1.1.7-.2 0 .1.8 0 .1.1.1.1 0 .1l-.4.3c-.2.1-.2-.1-.3 0 0 .2-.3.1-.5.3.3-.1.4 0 .3.2l.3-.2c.1.1.1.1.1.2l2.7-.3c.1-.1.5-.2.2-.4l.2.1c-.2-.1-.1-.6-.7-.6.1 0 .3-.1.4 0 0-.4-.8-.7-.4-1.1h.2c-.1-.1-.4-.1-.2-.2h.2c-.1 0-.4-.1-.3-.2h.2c.2-.4-.6-.5-.8-.7.5-.1.7-.4.7-.6h.1c0-.4-.6-.6-.9-.9.5-.4.1-.8.3-1.3-.1.1-.4.1-.5 0 .1-.1-.4-.2.1-.3.5-.2.3-.3.3-.5l-.6.1c.8-.6-.6-.9.2-1.3-.2 0-.2-.2-.4-.2l.3-.1c0-.3 0-.4-.1-.7h.3c0-.2-1 .1-1.1-.1l.5-.2c-.1-.3.2-.7-.3-.9.1 0 .2-.1.3 0 0-.1.2-.7-.5-.4.4-.2-.1-.3-.3-.4l.3-.1c-.5 0-.6.1-.8-.1 0-.1.2-.1.2 0 .1-.2-.4 0-.2-.2h.2c0-.2-.1-.1-.4-.1-.2 0 0-.3.3-.4-.2 0-.5.1-.4-.1.1-.1.2 0 .2 0 .1-.3-.5-.2-.3-.5.1 0 .2-.1.2-.1.1.2.1.4.1.4.3-.1.3-.3.8-.3-.3 0-.9-.1-.8-.3 0 0 .1 0 .1-.1 0 0 0-.1-.1-.1 0-.1.1-.1 0-.2.2-.1.1-.2 0-.3-.3.1-.3 0-.5.2h.1s.1.1.1.2c-.2 0-.4 0-.2-.2-.2 0-.5.1-.6.1.4-.3.6-.6.8-.8-.3-.2-.4-.5-1-.4-.1 0 .1-.2.2-.2s.1.1.2 0c-.2-.1-.2-.4-.7-.2.1-.3.4-.1.3-.3h.1c.5-.8-1.4-.2-.8-1.1 0 .1-.1.1-.1.1.1-.8-.9-1-.6-1.8 0-.2-.2-.1-.5-.1l.3-.2-.5.1c-.4-.1.6-.9-.1-.8l-.2.2c0-.1-.3-.2-.1-.4 0 0-.2.1-.2 0l.2-.1-.4-.1c0-.3.7-.4.5-.7-.1-.1-.7 0-.8.1 0 0 0 .2-.2.3h-.1c-.5.3-1.1.5-1.3 1h.4l-.2.2-.1-.1c-.2.2 0 .1.2.1l-.2.2.6-.1c-.2.1-.4.2-.5.3.3-.1.4-.3.6-.3-.2.2-.4.3-.1.3-.1.1-.2.1-.3.1.2 0 .2.2.5.1-.2.2.2.2-.3.5.1 0 .5-.1.5 0-.6.2.1.3-.5.6.6-.2.4.2.8.2h-.1c0 .1-.1.2-.2.4.4-.2.6-.1.9-.2-.4.3-.5.2-.9.4.3-.2.5 0 .7-.2l-.4.4c.6-.3.1 0 .5-.1-.2.3-.5.3-.2.4-.5.5-.7.5-.7.5zm2.6 3.2c0-.1-.1-.1 0 0-.1-.1 0-.1 0 0zm.1.3v-.1c.1-.1.2-.1.2-.1-.1 0-.1.1-.2.2zm2-1.6c.1 0 0 .1-.1.1l-.1-.1h.2zM149.5 83.7zM152.2 78.5c0 .1 0 0 0 0zM148.9 89.8z"/>
		<path d="M154.3 77.8c0 .1.1.1 0 0 .1.1 0 .1 0 0zM154.9 77.4h.2-.2zM155.5 77.3c0-.1 0-.1-.1-.1l.1.1zM152.6 85.4c.1.1.1 0 0 0zM152.1 82.4c.1 0 .1.1.1.1.1 0 .1 0-.1-.1zM153 88.7zM152.2 82.7c.1 0 .1-.1 0-.1v.1zM157.8 76.5zM157.8 76.5c0-.1 0-.1 0 0zM157.9 76.3c0 .1 0 .1 0 0zM157.1 76.6v.1-.1zM156.9 76.7c.1 0 .2.2.3.1v-.1c-.1.2-.4-.2-.3 0zM155.3 75.6h.3c-.1-.1-.2-.2-.1-.3-.6-.2.1.3-.2.3zM154.5 75.8c.1-.1-.1-.2-.1-.2 0 .1 0 .2.1.2zM151.3 79.9l-.3-.1c0 .1.1.1.3.1zM152.6 81.3l.2-.1-.2-.1zM150.3 81.3v.1zM149.9 89.7h.4c-.1-.1-.5-.1-.4 0zM150.5 93.2c-.2.1-.3.2-.1.2 0-.1.2-.2.1-.2zM152.2 89.9h.1l-.1-.1z"/>
	</g>
</svg>