<svg xmlns="http://www.w3.org/2000/svg" xmlns:xlink="http://www.w3.org/1999/xlink" viewBox="0 0 960 320" style="enable-background:new 0 0 960 320" xml:space="preserve"><style>.st0{fill:#f6fff8}.st1{fill:#6e6874}.st6{fill:var(--color-background)}.st7{fill:#1e1b1c}.st8{fill:#4ce74c}.st10{fill:#191616}.st11{fill:#413b39}</style><symbol id="Nose_00000116920361167714926980000012156457690978646917_" viewBox="-22.7 -35.2 42.4 70.3"><path class="st0" d="M-16.5-35.1c-3.6-.6-6.8 2.6-6.1 6.2 1.4 8.2 3.7 17.7 7.5 28.1 4.3 11.7 9.5 21.3 14.3 28.9 1.2 1.9 4 1.7 5-.2 4.1-8 8.4-18.4 11.5-30.8 2.4-9.5 3.5-18.1 4-25.6.2-3.4-2.7-6.2-6.1-5.7-1 .1-2.1.3-3.2.5-4.2.8-7.8 2-10.6 3.2-2.8-1.1-6-2.3-9.6-3.2-2.3-.6-4.6-1.1-6.7-1.4z"/><path class="st1" d="M-2.8-15.6v16H.7v-16h-3.5zm5.3 0v16H6v-16H2.5z"/><defs><path id="SVGID_1_" d="M-16.5-35.1c-3.6-.6-6.8 2.6-6.1 6.2 1.4 8.2 3.7 17.7 7.5 28.1 4.3 11.7 9.5 21.3 14.3 28.9 1.2 1.9 4 1.7 5-.2 4.1-8 8.4-18.4 11.5-30.8 2.4-9.5 3.5-18.1 4-25.6.2-3.4-2.7-6.2-6.1-5.7-1 .1-2.1.3-3.2.5-4.2.8-7.8 2-10.6 3.2-2.8-1.1-6-2.3-9.6-3.2-2.3-.6-4.6-1.1-6.7-1.4z"/></defs><clipPath id="SVGID_00000072241737395679377270000005872048506986595476_"><use xlink:href="#SVGID_1_" style="overflow:visible"/></clipPath><path style="clip-path:url(#SVGID_00000072241737395679377270000005872048506986595476_);fill:#4ce74c" d="m1.7 9.2-18-11 6 37h22l5-37z"/></symbol><g id="Layer_17"><path style="fill:var(--color-accent-alt)" d="M841.6 111H118.4L12 206h936z"/><path style="fill:var(--color-accent)" d="M12 206h936v108H12z"/></g><g id="Layer_18"><path class="st6" d="M44.8 236.5h17.3c9.6 0 15 5.1 15 13.1 0 5.6-2.9 8.9-8.1 10.4v.4c6.1 1.5 9.6 5.2 9.6 11.8 0 8.3-5.6 13.6-14.9 13.6H44.8v-49.3zm14.4 20.9c4.9 0 7.1-1.4 7.1-5.7v-2.1c0-4.3-2.2-5.6-7.1-5.6h-4v13.5h4zm1.3 21c5 0 7.3-1.4 7.3-5.9v-2c0-4.4-2.3-5.9-7.3-5.9h-5.4v13.9h5.4zM103.3 236.5v31.2c0 6.3.5 10.4 6.7 10.4s6.7-4.1 6.7-10.4v-31.2h10.6v29.8c0 13.5-3 20.3-17.3 20.3s-17.3-6.9-17.3-20.3v-29.8h10.6zM143.6 285.8V278h10.6v-33.6h-10.6v-7.8h31.8v7.8h-10.6V278h10.6v7.8h-31.8zM194.2 285.8v-49.3h10.7v40.6H226v8.7h-31.8zM241.6 236.5h15.9c13.2 0 19.6 8.8 19.6 24.6s-6.4 24.6-19.6 24.6h-15.9v-49.2zm15.2 41c6.3 0 9.1-4.2 9.1-11.9v-9c0-7.6-2.8-11.8-9.1-11.8h-4.7v32.6h4.7zM291.8 285.8V278h10.6v-33.6h-10.6v-7.8h31.8v7.8H313V278h10.6v7.8h-31.8zM350.1 253h-.8v32.8h-9v-49.3H353l11.2 32.8h.8v-32.8h9v49.3h-12.7L350.1 253zM414.4 278.8h-.6c-1.6 4.1-4.9 7.8-11 7.8-9.7 0-14.9-9.4-14.9-25.1 0-16.7 6-25.9 18.8-25.9 10.2 0 15.3 5.7 17.2 14.2l-9.9 2.4c-1.1-4.2-2.7-8.1-7.6-8.1-5.4 0-7.3 4.7-7.3 12.6v8.1c0 8 2 13.2 8.2 13.2 4.7 0 7.1-3.2 7.1-7.6v-3.6H406v-7.5h17.9v26.3h-9.5v-6.8zM515 285.8l-3.1-11.9h-13.5l-3 11.9h-10.7l13.3-49.3h15l13.3 49.3H515zm-9.6-39.1h-.6l-4.8 18.6h10.2l-4.8-18.6zM588.5 236.5h17.3c9.6 0 15 5.1 15 13.1 0 5.6-2.9 8.9-8.1 10.4v.4c6.1 1.5 9.6 5.2 9.6 11.8 0 8.3-5.6 13.6-14.9 13.6h-18.9v-49.3zm14.4 20.9c4.9 0 7.1-1.4 7.1-5.7v-2.1c0-4.3-2.2-5.6-7.1-5.6h-4v13.5h4zm1.3 21c5 0 7.3-1.4 7.3-5.9v-2c0-4.4-2.3-5.9-7.3-5.9h-5.4v13.9h5.4zM663.2 285.8l-3.1-11.9h-13.5l-3 11.9h-10.7l13.3-49.3h15l13.3 49.3h-11.3zm-9.5-39.1h-.6l-4.8 18.6h10.2l-4.8-18.6zM708.4 245.2v40.6h-10.6v-40.6h-14.2v-8.7h39v8.7h-14.2zM786.2 236.5h17.3c9.6 0 15 5.1 15 13.1 0 5.6-2.9 8.9-8.1 10.4v.4c6.1 1.5 9.6 5.2 9.6 11.8 0 8.3-5.6 13.6-14.9 13.6h-18.9v-49.3zm14.4 20.9c4.9 0 7.1-1.4 7.1-5.7v-2.1c0-4.3-2.2-5.6-7.1-5.6h-4v13.5h4zm1.3 21c5 0 7.3-1.4 7.3-5.9v-2c0-4.4-2.3-5.9-7.3-5.9h-5.4v13.9h5.4zM832.1 261.1c0-16.1 6.1-25.5 19.3-25.5 13.2 0 19.3 9.4 19.3 25.5s-6.1 25.5-19.3 25.5c-13.2 0-19.3-9.4-19.3-25.5zm27.3 4.3v-8.5c0-7.9-2-12.6-8-12.6s-8 4.7-8 12.6v8.6c0 7.9 2 12.6 8 12.6s8-4.7 8-12.7zM906.1 245.2v40.6h-10.6v-40.6h-14.2v-8.7h39v8.7h-14.2z"/></g><g id="Layer_2"><g id="Ear"><path class="st7" d="M921 139.2c-15.7-9.4-40.3-21.4-72.4-27.3-46.5-8.6-84.7.2-104.6 6.3-1.8 18.3-3.6 36.6-5.4 54.8L921 139.2z"/><path class="st0" d="M921 139.2 738.6 173h-.2c28.3 4.3 75.7 16.8 138.5-7.3 18-6.9 32.2-17.4 44.1-26.5z"/><path class="st8" d="M921 139.2c-25.3 4.6-51.4 9-78.2 13.1-35.5 5.4-70 9.9-103.5 13.6-.2 2.4-.5 4.7-.7 7.1l7 1.2c31.2-3.8 64.1-9 98.6-15.7 25.4-5 49.6-10.4 72.7-16.2 1.4-1 2.7-2.1 4.1-3.1z"/><path class="st8" d="M803.9 134.1c-5.2-1.9-12.3-3.7-20.7-3.8-20.7-.3-35.9 9.6-41.7 13.9-.9 9.6-1.9 19.2-2.8 28.7 14.1-3.6 33.7-10.9 52.3-26.4 4.9-4.1 9.2-8.3 12.9-12.4z"/></g><g id="Ear_00000132794446533272241010000015778304407908685995_"><path class="st7" d="M632.3 2.5c-7.8 16.6-17.4 42.2-20.2 74.7-4 47.1 8.4 84.3 16.4 103.5h55.1L632.3 2.5z"/><path class="st0" d="m632.3 2.5 51.4 178.2.1.2c1.5-28.6 9.4-76.9-20.7-137.2-8.8-17.2-20.6-30.2-30.8-41.2z"/><path class="st8" d="M632.3 2.5c7.1 24.8 14 50.3 20.7 76.5 8.8 34.8 16.7 68.8 23.6 101.7h7.1l.5-7.1C677.3 143 669 110.7 658.9 77c-7.4-24.8-15.2-48.4-23.2-70.8-1.1-1.2-2.3-2.4-3.4-3.7z"/><path class="st8" d="M638.6 119.6c-1.3 5.4-2.4 12.6-1.8 21 1.7 20.7 13 34.8 17.9 40.1h28.9c-5-13.7-14.1-32.5-31.4-49.5-4.5-4.5-9.1-8.4-13.6-11.6z"/></g><g id="Head"><path class="st0" d="M61.3 54.2c1.9 7.3 1.5 13.7.8 18L58.8 101c-4.8 27.6 8 56.4 34 70.7 25.9 14.3 57.1 9.8 77.9-9l22.6-18.1c3.2-2.9 8.4-6.7 15.6-9 2.5-.8 4.8-1.2 6.9-1.5.6-10-.8-17.7-2.1-22.5 0 0-8.7-33.3-55.7-58.2C111.8 27 79 37.3 79 37.3c-4.7 1.5-12 4.4-20.2 10.3.9 1.9 1.8 4.1 2.5 6.6z"/><path transform="rotate(-151.128 125.214 99.16)" class="st7" d="M71 75.4h108.4v47.5H71z"/><path transform="rotate(-151.128 112.939 121.423)" class="st8" d="M58.7 119.8h108.4v3.3H58.7z"/><g id="Nose"><path class="st0" d="M148.1 70.9c2.3.9 3.2 3.7 1.7 5.6-3.4 4.3-7.9 9.2-13.5 13.9-6.3 5.4-12.5 9.3-17.8 12.1-1.3.7-2.9-.3-2.9-1.8.1-6 .9-13.5 3-21.7 1.6-6.3 3.8-11.7 5.9-16.2 1-2.1 3.6-2.7 5.5-1.3.6.4 1.1.9 1.7 1.3 2.2 1.9 4 3.7 5.3 5.3 2 .2 4.3.6 6.7 1.3 1.6.5 3.1 1 4.4 1.5z"/><path class="st1" d="m133.7 77.8-5.2 9.4-2.1-1.1 5.2-9.4 2.1 1.1zm-3.1-1.8-5.2 9.4-2.1-1.1 5.2-9.4 2.1 1.1z"/><defs><path id="SVGID_00000075142687031004788270000000824740029518143902_" d="M148.1 70.9c2.3.9 3.2 3.7 1.7 5.6-3.4 4.3-7.9 9.2-13.5 13.9-6.3 5.4-12.5 9.3-17.8 12.1-1.3.7-2.9-.3-2.9-1.8.1-6 .9-13.5 3-21.7 1.6-6.3 3.8-11.7 5.9-16.2 1-2.1 3.6-2.7 5.5-1.3.6.4 1.1.9 1.7 1.3 2.2 1.9 4 3.7 5.3 5.3 2 .2 4.3.6 6.7 1.3 1.6.5 3.1 1 4.4 1.5z"/></defs><clipPath id="SVGID_00000024720638118518005300000002250358779901012636_"><use xlink:href="#SVGID_00000075142687031004788270000000824740029518143902_" style="overflow:visible"/></clipPath><path style="clip-path:url(#SVGID_00000024720638118518005300000002250358779901012636_);fill:#4ce74c" d="m123.1 90.7 14.2-.5-15.4 19.6-13.1-7.2 8.9-23.2z"/></g><circle class="st7" cx="173.9" cy="139" r="4.3"/><circle class="st7" cx="180.4" cy="127.3" r="4.3"/><circle class="st7" cx="186.8" cy="115.6" r="4.3"/><ellipse transform="rotate(-61.125 66.118 79.563)" class="st7" cx="66.1" cy="79.6" rx="4.3" ry="3.7"/><ellipse transform="rotate(-61.125 72.578 67.845)" class="st7" cx="72.6" cy="67.8" rx="4.3" ry="3.7"/><ellipse transform="rotate(-61.125 79.039 56.127)" class="st7" cx="79" cy="56.1" rx="4.3" ry="3.7"/></g><g id="Collar"><path class="st7" d="M753.6 180.5h-86.2c-1.3 0-2.4-1.1-2.4-2.4v-12.9c0-1.3 1.1-2.4 2.4-2.4h86.2c1.3 0 2.4 1.1 2.4 2.4v12.9c0 1.3-1.1 2.4-2.4 2.4z"/><path class="st1" d="M746.2 174h-19.9c-1.3 0-2.4-1.1-2.4-2.4v-.1c0-1.3 1.1-2.4 2.4-2.4h19.9c1.3 0 2.4 1.1 2.4 2.4v.1c0 1.3-1.1 2.4-2.4 2.4z"/></g><g id="Torso_00000176723888583471554140000000553174118846810557_"><path class="st8" d="M279.9 103.3c-.3.5-.3 1.1-.1 1.7.6 1.4 1.9 3.6 4.4 5.4 1.3.9 2.6 1.5 3.8 1.8 1.2.4 2.5-.6 2.5-1.8 0-2.4.3-5.3.9-8.5.5-2.3 1-4.3 1.7-6.2.6-1.7-1.1-3.2-2.7-2.4-1.7.8-3.6 1.9-5.4 3.5-2.6 2.3-4.2 4.7-5.1 6.5z"/><path class="st0" d="M264.5 166v-45.6c0-8.8 7.2-16 16-16h69.7c8.8 0 16 7.2 16 16V166c0 8.8-7.2 16-16 16h-69.7c-8.8 0-16-7.2-16-16z"/><path class="st7" d="M292.4 182.1v-77.6c0-1.1.9-2 2-2h3.4c1.1 0 2 .9 2 2v77.6c0 1.1-.9 2-2 2h-3.4c-1.1 0-2-.8-2-2z"/></g><g id="Wing"><path class="st7" d="m244.3 162.2 6.5-49.1c-1.9 1.4-9.2 6.5-19.4 5.8-7.6-.6-13-4.1-15.1-5.7-2.1 12.2-10.9 19.8-18.7 19.2-5.4-.4-9.2-4.8-10.5-6.5-.5 5.8-1.6 13-4.2 21-1.9 6-4.2 11.1-6.4 15.2 22.6 0 45.2 0 67.8.1z"/><path class="st8" d="M220.4 144.3c-.7-5.8-1.3-11.6-2-17.3-.4 5.4-.7 11-.7 17 0 5.2.3 13.7.6 18.4 1.4 0 3.4-.1 4.7-.1-.5-4.8-2-13.1-2.6-18zM192.5 162.4c1.1-.4 3 .4 4.1 0l-7.7-29.5c.3 4.3.8 8.7 1.4 13.3.6 4.5 1.5 12.2 2.2 16.2z"/></g><g id="Arm__x28_upper_x29_"><path class="st0" d="M241.8 181.4h-60.9c-7 0-12.7-5.7-12.7-12.7 0-7 5.7-12.7 12.7-12.7h60.9c7 0 12.7 5.7 12.7 12.7 0 7-5.7 12.7-12.7 12.7z"/><circle class="st8" cx="241.8" cy="168.6" r="12.7"/></g><circle class="st10" cx="575" cy="85.3" r="25.8"/><circle class="st11" cx="574.8" cy="85.1" r="12.5"/><g id="Torso"><path class="st8" d="M506.3 95.1c.5-.3 1.1-.3 1.7-.1 1.4.6 3.6 1.9 5.4 4.4.9 1.3 1.5 2.6 1.8 3.8.4 1.2-.6 2.5-1.8 2.5-2.4 0-5.3.3-8.5.9-2.3.5-4.3 1-6.1 1.7-1.7.6-3.2-1.1-2.4-2.7.8-1.7 1.9-3.6 3.5-5.4 2.2-2.6 4.6-4.1 6.4-5.1z"/><path class="st0" d="M568.9 79.7h-45.6c-8.8 0-16 7.2-16 16l.1 69.7c0 8.8 7.2 16 16 16H569c8.8 0 16-7.2 16-16l-.1-69.7c0-8.8-7.2-16-16-16z"/><path class="st7" d="m585.1 107.6-77.6.1c-1.1 0-2 .9-2 2v3.4c0 1.1.9 2 2 2l77.6-.1c1.1 0 2-.9 2-2v-3.4c0-1.1-.9-2-2-2z"/></g><circle class="st10" cx="518.2" cy="80.1" r="25.8"/><circle class="st11" cx="518" cy="79.9" r="12.5"/><path class="st7" d="m571.8 171.6-20.4-40.7c2.3.7 10.7 3 20.4-.6 7.2-2.7 11.3-7.3 12.9-9.3 5.5 10 16.2 14.1 23.5 11.3 5.1-1.9 7.5-6.8 8.2-8.6 2.1 4.9 5.3 10.8 10 17 3.6 4.6 7.2 8.4 10.6 11.4-21.7 6.5-43.5 13-65.2 19.5z"/><path class="st8" d="m589.6 149.2-3-15.6c1.9 4.5 3.8 9.4 5.6 14.6 1.5 4.5 3.6 12 4.8 16.1-1.3.4-3.3.9-4.6 1.3-1-4.3-2-11.9-2.8-16.4zM621.7 157c-1.1 0-2.8 1.2-3.9 1.2l-1.1-27.8c.9 3.8 1.7 7.8 2.5 12 .7 3.9 2 10.9 2.5 14.6z"/><path class="st0" d="M610.1 181.2 599 158.4l27-13.2c6.3-3.1 13.9-.5 17 5.8 3.1 6.3.5 13.9-5.8 17l-27.1 13.2z"/><path class="st0" d="M566.9 181.8v-25.4h39.9c7 0 12.7 5.7 12.7 12.7 0 7-5.7 12.7-12.7 12.7h-39.9z"/><circle class="st8" cx="566.9" cy="169.1" r="12.7"/><path class="st0" d="M403.2 181.7h-23.4c-7.8 0-14-6.3-14-14 0-7.8 6.3-14 14-14h23.4c7.8 0 14 6.3 14 14 .1 7.7-6.2 14-14 14z" id="Leg__x28_upper_x29_"/><g id="Leg__x28_lower_x29_"><path class="st8" d="M359 181.9c-7.7 0-14-6.2-14-13.9-.1-7.8 6.2-14.1 13.9-14.2l20.7-.2h.1c7.7 0 14 6.2 14 13.9.1 7.8-6.2 14.1-13.9 14.2l-20.7.2h-.1z"/><circle class="st7" cx="379.8" cy="167.7" r="14"/></g><path class="st0" d="M483.7 182h-23.4c-7.8 0-14-6.3-14-14 0-7.8 6.3-14 14-14h23.4c7.8 0 14 6.3 14 14 .1 7.8-6.2 14-14 14z" id="Leg__x28_upper_x29__00000181802303094803758140000012874682216854041001_"/><g id="Leg__x28_lower_x29__00000119805208214253084900000009190380393718267552_"><path class="st8" d="M483.9 182c-5.4 0-10.5-3.1-12.8-8.3-3.2-7.1 0-15.4 7.1-18.6l18.9-8.5c7.1-3.2 15.4 0 18.6 7.1 3.2 7.1 0 15.4-7.1 18.6l-18.9 8.5c-1.9.8-3.9 1.2-5.8 1.2z"/><circle class="st7" cx="483.9" cy="168" r="14"/></g></g></svg>