<svg xmlns="http://www.w3.org/2000/svg" xml:space="preserve" style="enable-background:new 0 0 960 300" viewBox="0 0 960 300">
	<style>
		.page-heading-stripes{fill:var(--color-accent-alt)}
		.page-heading-text{fill:var(--color-accent)}
	</style>
	<path class="page-heading-stripes" d="M393 0h567v20H393zM393 40h567v20H393zM393 80h567v20H393zM393 120h567v20H393zM0 200h960v20H0zM0 160h960v20H0zM0 240h960v20H0zM0 280h580v20H0z"/>
	<path class="page-heading-text" d="M92.6 140.2H12.5v-21.8l35.1-29.1c12.1-10.4 17-17.3 17-25.7V62c0-9.2-6.1-14.2-15.3-14.2-10.7 0-16 7.2-18.4 15.6l-20.9-8c4.9-15.3 18-28.3 41.7-28.3 24.4 0 38.5 14.2 38.5 33.4 0 18.5-13.2 30.4-30 43.1L39 120.1h53.6v20.1zM104.1 84.6c0-36.3 13.7-57.5 43.6-57.5s43.6 21.2 43.6 57.5-13.7 57.5-43.6 57.5-43.6-21.2-43.6-57.5zM166.8 95V74.3c0-17.7-4.9-28.3-19.2-28.3s-19.2 10.7-19.2 28.3V95c0 17.7 4.9 28.3 19.2 28.3s19.2-10.7 19.2-28.3zM284.1 140.2H204v-21.8l35.1-29.1c12.1-10.3 17.1-17.2 17.1-25.6V62c0-9.2-6.1-14.2-15.3-14.2-10.7 0-16 7.2-18.4 15.6l-20.9-8c4.9-15.3 18-28.3 41.7-28.3 24.4 0 38.5 14.2 38.5 33.4 0 18.5-13.2 30.4-30 43.1L230.6 120h53.6v20.2zM379.8 140.2h-80.1v-21.8l35.1-29.1c12.1-10.3 17.1-17.2 17.1-25.6V62c0-9.2-6.1-14.2-15.3-14.2-10.7 0-16 7.2-18.4 15.6l-20.9-8c4.9-15.3 18-28.3 41.7-28.3 24.4 0 38.5 14.2 38.5 33.4 0 18.5-13.2 30.4-30 43.1L326.3 120h53.6v20.2z"/>
	<path class="page-heading-text" d="m602.8 298.6-1.4-4.8h-5.9l-1.4 4.8H592l5.1-16.8h2.7l5.1 16.8h-2.1zm-4.3-14.7h-.2l-2.4 8.1h4.9l-2.3-8.1zM641.6 298.6V292l-5.8-10.2h2.3l2.4 4.4 2 3.8h.1l2.1-3.8 2.4-4.4h2.3l-5.8 10.2v6.6h-2zM659.6 298.6v-16.8h10.3v1.8h-8.3v5.6h8v1.8h-8v5.9h8.3v1.8h-10.3zM691.1 298.6l-1.4-4.8h-5.9l-1.4 4.8h-2.1l5.1-16.8h2.7l5.1 16.8h-2.1zm-4.3-14.7h-.2l-2.4 8.1h4.9l-2.3-8.1zM705.8 298.6h-2v-16.8h6.1c3.1 0 4.8 1.8 4.8 4.8 0 2.7-1.5 4.4-4.1 4.7l4.3 7.2h-2.3l-4.1-7.2h-2.7v7.3zm4-8.9c1.7 0 2.7-.9 2.7-2.4V286c0-1.6-1-2.4-2.7-2.4h-4v6.1h4zM747.8 298.6V297h4.2v-13.5h-4.2v-1.6h10.4v1.6H754V297h4.2v1.6h-10.4zM771.8 284.4h-.2v14.2h-1.8v-16.8h2.9l5.7 14h.2v-14h1.8v16.8h-2.9l-5.7-14.2zM813.1 295.9l1.5-1.2c1.3 1.6 2.7 2.4 4.7 2.4 2.4 0 3.7-1.2 3.7-3.2 0-1.6-.8-2.5-3.1-2.9l-1.9-.3c-3.3-.6-4.3-2.4-4.3-4.6 0-3.1 2.2-4.7 5.6-4.7 2.7 0 4.5 1 5.6 2.6l-1.4 1.2c-.9-1.2-2.1-2.1-4.2-2.1-2.3 0-3.5 1-3.5 2.9 0 1.5.8 2.4 3.1 2.9l1.8.3c3.3.6 4.4 2.4 4.4 4.6 0 3.1-2.1 5-5.9 5-3 .1-4.9-1.2-6.1-2.9zM838 281.8v10.1c0 3.2.1 5.2 3.3 5.2 3.1 0 3.3-2 3.3-5.2v-10.1h2v9.6c0 5-.7 7.5-5.3 7.5s-5.3-2.5-5.3-7.5v-9.6h2zM867.1 290.2v-5.3h-.2l-3.5 8.6-3.5-8.6h-.2v13.7h-1.8v-16.8h2.6l3 7.4h.1l3-7.4h2.5v16.8h-1.8v-8.4zM889.2 290.2v-5.3h-.2l-3.5 8.6-3.5-8.6h-.2v13.7H880v-16.8h2.6l3 7.4h.1l3-7.4h2.5v16.8h-1.8v-8.4zM911.9 298.6l-1.4-4.8h-5.9l-1.4 4.8h-2.1l5.1-16.8h2.7l5.1 16.8h-2.1zm-4.3-14.7h-.2L905 292h4.9l-2.3-8.1zM926.6 298.6h-2v-16.8h6.1c3.1 0 4.8 1.8 4.8 4.8 0 2.7-1.5 4.4-4.1 4.7l4.3 7.2h-2.3l-4.1-7.2h-2.7v7.3zm4-8.9c1.7 0 2.7-.9 2.7-2.4V286c0-1.6-1-2.4-2.7-2.4h-4v6.1h4zM950.7 298.6V292l-5.8-10.2h2.3l2.4 4.4 2 3.8h.1l2.1-3.8 2.4-4.4h2.3l-5.8 10.2v6.6h-2z"/>
</svg>